<svg width="25" height="24" viewBox="0 0 25 24" fill="none" xmlns="http://www.w3.org/2000/svg">
<path fill-rule="evenodd" clip-rule="evenodd" d="M11.7663 1.25H11.8002H12.6002H12.6341C14.2856 1.25 15.571 1.24999 16.6021 1.33424C17.649 1.41977 18.4995 1.59588 19.2646 1.98571C20.5347 2.63285 21.5673 3.66547 22.2145 4.93556C22.6043 5.70065 22.7804 6.55124 22.866 7.59814C22.9502 8.62918 22.9502 9.91451 22.9502 11.5658V11.5659V11.5659V11.566V11.566V11.6V15.1716V15.1952V15.1952V15.1953V15.1953V15.1953C22.9502 15.5101 22.9502 15.6976 22.9403 15.8805C22.8569 17.4161 22.2517 18.8772 21.2248 20.022C21.1025 20.1584 20.9698 20.291 20.7472 20.5137L20.7305 20.5303L20.7139 20.547C20.4912 20.7696 20.3586 20.9023 20.2222 21.0246C19.0774 22.0515 17.6163 22.6567 16.0807 22.7401C15.8978 22.75 15.7103 22.75 15.3955 22.75H15.3955H15.3955H15.3954H15.3954H15.3718H11.8002H11.7662H11.7662H11.7661H11.7661H11.766C10.1147 22.75 8.82937 22.75 7.79833 22.6658C6.75144 22.5802 5.90085 22.4041 5.13576 22.0143C3.86567 21.3671 2.83305 20.3345 2.1859 19.0644C1.79607 18.2994 1.61997 17.4488 1.53443 16.4019C1.45019 15.3708 1.45019 14.0854 1.4502 12.4339V12.4V11.6V11.5661C1.45019 9.91462 1.45019 8.62922 1.53443 7.59814C1.61997 6.55124 1.79607 5.70065 2.1859 4.93556C2.83305 3.66547 3.86567 2.63285 5.13576 1.98571C5.90085 1.59588 6.75144 1.41977 7.79833 1.33424C8.82942 1.24999 10.1148 1.25 11.7663 1.25ZM7.92048 2.82925C6.96635 2.90721 6.33513 3.05809 5.81675 3.32222C4.82889 3.82555 4.02575 4.6287 3.52241 5.61655C3.25828 6.13493 3.10741 6.76615 3.02945 7.72029C2.95078 8.68317 2.9502 9.90747 2.9502 11.6V12.4C2.9502 14.0925 2.95078 15.3168 3.02945 16.2797C3.10741 17.2338 3.25828 17.8651 3.52241 18.3834C4.02575 19.3713 4.82889 20.1744 5.81675 20.6778C6.33513 20.9419 6.96635 21.0928 7.92048 21.1707C8.88337 21.2494 10.1077 21.25 11.8002 21.25H15.3718L15.4502 21.25V19.2V19.1695C15.4502 18.6354 15.4502 18.1895 15.4799 17.8253C15.511 17.4454 15.5781 17.0888 15.7499 16.7515C16.0136 16.2341 16.4343 15.8134 16.9517 15.5497C17.289 15.3779 17.6456 15.3107 18.0255 15.2797C18.3897 15.25 18.8356 15.25 19.3697 15.25H19.3698H19.4002H21.4502L21.4502 15.1716V11.6C21.4502 9.90747 21.4496 8.68317 21.3709 7.72029C21.293 6.76615 21.1421 6.13493 20.878 5.61655C20.3746 4.6287 19.5715 3.82555 18.5836 3.32222C18.0653 3.05809 17.434 2.90721 16.4799 2.82925C15.517 2.75058 14.2927 2.75 12.6002 2.75H11.8002C10.1077 2.75 8.88337 2.75058 7.92048 2.82925ZM19.2206 19.908C18.5705 20.4912 17.7893 20.8995 16.9502 21.1026V19.2C16.9502 18.6275 16.9508 18.2433 16.975 17.9474C16.9984 17.6603 17.0403 17.523 17.0864 17.4325C17.2063 17.1973 17.3975 17.0061 17.6327 16.8862C17.7233 16.8401 17.8605 16.7982 18.1477 16.7747C18.4436 16.7506 18.8278 16.75 19.4002 16.75H21.3028C21.0997 17.5891 20.6914 18.3703 20.1082 19.0204C20.0163 19.1228 19.914 19.2255 19.6699 19.4697C19.4257 19.7139 19.323 19.8161 19.2206 19.908ZM7.2002 6.25C6.78598 6.25 6.4502 6.58579 6.4502 7C6.4502 7.41421 6.78598 7.75 7.2002 7.75H15.2002C15.6144 7.75 15.9502 7.41421 15.9502 7C15.9502 6.58579 15.6144 6.25 15.2002 6.25H7.2002ZM6.4502 11C6.4502 10.5858 6.78598 10.25 7.2002 10.25H13.2002C13.6144 10.25 13.9502 10.5858 13.9502 11C13.9502 11.4142 13.6144 11.75 13.2002 11.75H7.2002C6.78598 11.75 6.4502 11.4142 6.4502 11ZM7.2002 14.25C6.78598 14.25 6.4502 14.5858 6.4502 15C6.4502 15.4142 6.78598 15.75 7.2002 15.75H9.2002C9.61441 15.75 9.9502 15.4142 9.9502 15C9.9502 14.5858 9.61441 14.25 9.2002 14.25H7.2002Z" fill="#444C4B"/>
</svg>
