<svg width="22" height="23" viewBox="0 0 22 23" fill="none" xmlns="http://www.w3.org/2000/svg">
<path fill-rule="evenodd" clip-rule="evenodd" d="M9.66679 2.30718C10.4083 2.10203 11.1916 2.10203 11.9332 2.30718C12.3166 2.41325 12.7091 2.61075 13.2429 2.97716C13.7846 3.34893 14.4287 3.86366 15.329 4.5839L17.329 6.18389C18.4642 7.09201 18.9177 7.46289 19.241 7.90895C19.5398 8.32116 19.7621 8.78372 19.8973 9.27456C20.0437 9.8057 20.05 10.3915 20.05 11.8452V14.0002C20.05 15.4127 20.0494 16.427 19.9843 17.2231C19.92 18.0105 19.7964 18.5182 19.5868 18.9297C19.1793 19.7293 18.5291 20.3795 17.7294 20.787C17.318 20.9966 16.8103 21.1202 16.0229 21.1846C15.6018 21.219 15.1197 21.2353 14.55 21.2431V15.0002V14.9749C14.55 14.5305 14.55 14.1594 14.5292 13.8548C14.5076 13.5377 14.4609 13.2382 14.3406 12.9478C14.0615 12.274 13.5262 11.7386 12.8524 11.4595C12.562 11.3392 12.2624 11.2926 11.9453 11.271C11.6407 11.2502 11.2697 11.2502 10.8252 11.2502H10.8H10.7747C10.3303 11.2502 9.95923 11.2502 9.65461 11.271C9.33751 11.2926 9.03799 11.3392 8.7476 11.4595C8.07377 11.7386 7.53842 12.274 7.25931 12.9478C7.13903 13.2382 7.09238 13.5377 7.07075 13.8548C7.04996 14.1594 7.04997 14.5305 7.04998 14.9749V15.0002V21.2431C6.48022 21.2353 5.99813 21.219 5.57706 21.1846C4.78968 21.1202 4.28195 20.9966 3.87052 20.787C3.07083 20.3795 2.42066 19.7293 2.0132 18.9297C1.80357 18.5182 1.67994 18.0105 1.61561 17.2231C1.55056 16.427 1.54998 15.4127 1.54998 14.0002V11.8452C1.54998 10.3915 1.55629 9.8057 1.70261 9.27456C1.83783 8.78372 2.06015 8.32116 2.35896 7.90895C2.6823 7.46289 3.13579 7.09202 4.27094 6.1839L6.27094 4.5839C7.17123 3.86366 7.81539 3.34893 8.35702 2.97716C8.89084 2.61075 9.28338 2.41325 9.66679 2.30718ZM7.75663 22.749C7.77097 22.7498 7.78543 22.7502 7.79998 22.7502C7.81271 22.7502 7.82536 22.7499 7.83793 22.7493C8.13145 22.7502 8.44054 22.7502 8.76635 22.7502H8.7664H8.79998H12.8H12.8336H12.8336C13.1594 22.7502 13.4685 22.7502 13.762 22.7493C13.7746 22.7499 13.7873 22.7502 13.8 22.7502C13.8145 22.7502 13.829 22.7498 13.8433 22.749C14.7493 22.7454 15.5051 22.7319 16.145 22.6796C17.0252 22.6077 17.7523 22.4588 18.4104 22.1235C19.4924 21.5722 20.372 20.6926 20.9233 19.6106C21.2586 18.9525 21.4075 18.2254 21.4794 17.3453C21.55 16.4809 21.55 15.4055 21.55 14.0338V14.0338V14.0002V11.8452L21.55 11.7301C21.5502 10.4281 21.5503 9.62683 21.3435 8.87617C21.1605 8.21209 20.8597 7.58628 20.4555 7.02858C19.9985 6.39817 19.3727 5.89767 18.3559 5.0845L18.2661 5.01259L16.2661 3.41259L16.2432 3.39427C15.3708 2.69634 14.6841 2.14698 14.0918 1.74046C13.4866 1.32504 12.9387 1.02902 12.3331 0.861479C11.3299 0.583934 10.2701 0.583934 9.26685 0.861479C8.66124 1.02902 8.11338 1.32504 7.50815 1.74046C6.9159 2.14698 6.22921 2.69634 5.35681 3.39426L5.33389 3.41259L3.3339 5.01259L3.24399 5.0845L3.24399 5.08451C2.22725 5.89767 1.60146 6.39817 1.14448 7.02858C0.740206 7.58628 0.439428 8.21209 0.256483 8.87617C0.0496894 9.62683 0.0497952 10.4282 0.049967 11.7301L0.0499771 11.8452V14.0002L0.049977 14.0338C0.0499723 15.4055 0.0499687 16.4809 0.120589 17.3453C0.192499 18.2254 0.341355 18.9525 0.67669 19.6106C1.22796 20.6926 2.1076 21.5722 3.18953 22.1235C3.84766 22.4588 4.57477 22.6077 5.45491 22.6796C6.0949 22.7319 6.85061 22.7454 7.75663 22.749ZM13.05 21.2502C12.9681 21.2502 12.8847 21.2502 12.8 21.2502H8.79998C8.71522 21.2502 8.6319 21.2502 8.54998 21.2502V15.0002C8.54998 14.524 8.55038 14.2044 8.56727 13.9569C8.58369 13.7162 8.61317 13.599 8.64513 13.5218C8.772 13.2156 9.01534 12.9722 9.32162 12.8453C9.39878 12.8134 9.51599 12.7839 9.75672 12.7675C10.0042 12.7506 10.3238 12.7502 10.8 12.7502C11.2762 12.7502 11.5958 12.7506 11.8432 12.7675C12.084 12.7839 12.2012 12.8134 12.2783 12.8453C12.5846 12.9722 12.828 13.2156 12.9548 13.5218C12.9868 13.599 13.0163 13.7162 13.0327 13.9569C13.0496 14.2044 13.05 14.524 13.05 15.0002V21.2502Z" fill="#444C4B"/>
</svg>
