<svg width="25" height="24" viewBox="0 0 25 24" fill="none" xmlns="http://www.w3.org/2000/svg">
<path fill-rule="evenodd" clip-rule="evenodd" d="M11.2677 0.861296C12.2709 0.583751 13.3307 0.583751 14.3339 0.861296C14.9395 1.02883 15.4874 1.32485 16.0926 1.74028C16.6849 2.1468 17.3716 2.69616 18.244 3.39409L18.2669 3.41241L20.2669 5.01241L20.3568 5.08431C21.3735 5.89748 21.9993 6.39799 22.4563 7.0284C22.8606 7.5861 23.1614 8.21191 23.3443 8.87599C23.5511 9.62665 23.551 10.428 23.5508 11.7299L23.5508 11.845V14V14.0336V14.0336V14.0337C23.5508 15.4054 23.5508 16.4808 23.4802 17.3451C23.4083 18.2252 23.2594 18.9523 22.9241 19.6105C22.3728 20.6924 21.4932 21.572 20.4112 22.1233C19.7531 22.4586 19.026 22.6075 18.1459 22.6794C17.2815 22.75 16.2061 22.75 14.8345 22.75H14.8344H14.8344H14.8008H10.8008H10.7672H10.7672H10.7671C9.39546 22.75 8.32006 22.75 7.45574 22.6794C6.5756 22.6075 5.84849 22.4586 5.19036 22.1233C4.10842 21.572 3.22879 20.6924 2.67751 19.6105C2.34218 18.9523 2.19332 18.2252 2.12141 17.3451C2.05079 16.4807 2.0508 15.4053 2.0508 14.0336L2.0508 14V11.845L2.05079 11.7299C2.05062 10.428 2.05051 9.62665 2.25731 8.87599C2.44025 8.21191 2.74103 7.5861 3.14531 7.0284C3.60229 6.39799 4.22808 5.89749 5.24481 5.08433L5.24482 5.08432L5.33472 5.01241L7.33472 3.41241L7.35764 3.39407C8.23003 2.69616 8.91673 2.1468 9.50897 1.74028C10.1142 1.32485 10.6621 1.02883 11.2677 0.861296ZM15.8008 15V18C15.8008 18.9428 15.8008 19.4142 15.5079 19.7071C15.215 20 14.7436 20 13.8008 20H11.8008C10.858 20 10.3866 20 10.0937 19.7071C9.8008 19.4142 9.8008 18.9428 9.8008 18V15C9.8008 14.0681 9.8008 13.6022 9.95304 13.2346C10.156 12.7446 10.5454 12.3552 11.0354 12.1523C11.403 12 11.8689 12 12.8008 12C13.7327 12 14.1986 12 14.5662 12.1523C15.0562 12.3552 15.4456 12.7446 15.6486 13.2346C15.8008 13.6022 15.8008 14.0681 15.8008 15Z" fill="#36796F"/>
</svg>