<svg width="22" height="22" viewBox="0 0 22 22" fill="none" xmlns="http://www.w3.org/2000/svg">
<path fill-rule="evenodd" clip-rule="evenodd" d="M19.0525 1.77476C18.7566 1.75058 18.3724 1.75 17.7999 1.75H11.9999C11.5237 1.75 11.2041 1.75041 10.9567 1.76729C10.716 1.78372 10.5987 1.81319 10.5216 1.84515C10.2153 1.97202 9.97196 2.21536 9.84509 2.52165C9.81313 2.5988 9.78365 2.71602 9.76723 2.95674C9.75035 3.20421 9.74994 3.5238 9.74994 4H8.24994V3.97475C8.24993 3.53029 8.24993 3.15925 8.27071 2.85464C8.29234 2.53754 8.33899 2.23801 8.45927 1.94762C8.73838 1.27379 9.27373 0.738441 9.94756 0.459332C10.2379 0.339049 10.5375 0.292406 10.8546 0.270771C11.1592 0.249988 11.5302 0.249994 11.9747 0.25H11.9747H11.9999H17.7999H17.8304C18.3645 0.24999 18.8104 0.249981 19.1746 0.27974C19.5545 0.310778 19.9111 0.377889 20.2484 0.549733C20.7659 0.813385 21.1866 1.23408 21.4502 1.75153C21.6221 2.08879 21.6892 2.44545 21.7202 2.82533C21.75 3.18956 21.75 3.6354 21.7499 4.16955V4.2V10V10.0253C21.7499 10.4697 21.75 10.8408 21.7292 11.1454C21.7075 11.4625 21.6609 11.762 21.5406 12.0524C21.2615 12.7262 20.7261 13.2616 20.0523 13.5407C19.7619 13.661 19.4624 13.7076 19.1453 13.7292C18.8407 13.75 18.4697 13.75 18.0252 13.75H17.9999V12.25C18.4761 12.25 18.7957 12.2496 19.0432 12.2327C19.2839 12.2163 19.4011 12.1868 19.4783 12.1549C19.7846 12.028 20.0279 11.7846 20.1548 11.4784C20.1867 11.4012 20.2162 11.284 20.2326 11.0433C20.2495 10.7958 20.2499 10.4762 20.2499 10V4.2C20.2499 3.62757 20.2494 3.24336 20.2252 2.94748C20.2017 2.66036 20.1598 2.52307 20.1137 2.43251C19.9939 2.19731 19.8026 2.00608 19.5674 1.88624C19.4769 1.8401 19.3396 1.79822 19.0525 1.77476ZM15.0525 5.77476C14.7566 5.75058 14.3724 5.75 13.7999 5.75H7.99994C7.52374 5.75 7.20415 5.75041 6.95668 5.76729C6.71596 5.78372 6.59874 5.81319 6.52159 5.84515C6.2153 5.97202 5.97196 6.21536 5.84509 6.52165C5.81313 6.5988 5.78366 6.71602 5.76723 6.95674C5.75035 7.20421 5.74994 7.5238 5.74994 8H4.24994L4.24994 7.97475V7.97474C4.24993 7.53028 4.24993 7.15925 4.27071 6.85464C4.29235 6.53754 4.33899 6.23801 4.45927 5.94762C4.73838 5.27379 5.27373 4.73844 5.94756 4.45933C6.23795 4.33905 6.53748 4.29241 6.85458 4.27077C7.15919 4.24999 7.53023 4.24999 7.97469 4.25H7.99994H13.7999L13.8304 4.25C14.3645 4.24999 14.8104 4.24998 15.1746 4.27974C15.5545 4.31078 15.9111 4.37789 16.2484 4.54973C16.7659 4.81339 17.1866 5.23408 17.4502 5.75153C17.6221 6.08879 17.6892 6.44545 17.7202 6.82533C17.75 7.18956 17.75 7.6354 17.7499 8.16955V8.2V14V14.0253C17.7499 14.4697 17.75 14.8408 17.7292 15.1454C17.7075 15.4625 17.6609 15.762 17.5406 16.0524C17.2615 16.7262 16.7261 17.2616 16.0523 17.5407C15.7619 17.661 15.4624 17.7076 15.1453 17.7292C14.8407 17.75 14.4697 17.75 14.0253 17.75H14.0252H13.9999V16.25C14.4761 16.25 14.7957 16.2496 15.0432 16.2327C15.2839 16.2163 15.4011 16.1868 15.4783 16.1549C15.7846 16.028 16.0279 15.7846 16.1548 15.4784C16.1867 15.4012 16.2162 15.284 16.2326 15.0433C16.2495 14.7958 16.2499 14.4762 16.2499 14V8.2C16.2499 7.62757 16.2494 7.24336 16.2252 6.94748C16.2017 6.66036 16.1598 6.52307 16.1137 6.43251C15.9939 6.19731 15.8026 6.00608 15.5674 5.88624C15.4769 5.8401 15.3396 5.79822 15.0525 5.77476ZM4.19994 8.25H4.16951C3.63535 8.24999 3.1895 8.24998 2.82527 8.27974C2.44539 8.31078 2.08873 8.37789 1.75147 8.54973C1.23402 8.81339 0.813324 9.23408 0.549672 9.75153C0.377828 10.0888 0.310717 10.4454 0.279679 10.8253C0.249921 11.1896 0.249929 11.6354 0.249939 12.1696V12.1696V12.2V17.8V17.8304C0.249929 18.3646 0.24992 18.8104 0.279679 19.1747C0.310717 19.5546 0.377828 19.9112 0.549672 20.2485C0.813324 20.7659 1.23402 21.1866 1.75147 21.4503C2.08873 21.6221 2.44539 21.6892 2.82527 21.7203C3.1895 21.75 3.63534 21.75 4.16949 21.75H4.19994H9.79994H9.83039C10.3645 21.75 10.8104 21.75 11.1746 21.7203C11.5545 21.6892 11.9112 21.6221 12.2484 21.4503C12.7659 21.1866 13.1866 20.7659 13.4502 20.2485C13.6221 19.9112 13.6892 19.5546 13.7202 19.1747C13.75 18.8105 13.75 18.3646 13.7499 17.8305V17.8305V17.8V12.2V12.1695V12.1695C13.75 11.6354 13.75 11.1896 13.7202 10.8253C13.6892 10.4454 13.6221 10.0888 13.4502 9.75153C13.1866 9.23408 12.7659 8.81339 12.2484 8.54973C11.9112 8.37789 11.5545 8.31078 11.1746 8.27974C10.8104 8.24998 10.3645 8.24999 9.83037 8.25H9.79994H4.19994ZM2.43245 9.88624C2.52301 9.8401 2.66029 9.79822 2.94742 9.77476C3.2433 9.75058 3.62751 9.75 4.19994 9.75H9.79994C10.3724 9.75 10.7566 9.75058 11.0525 9.77476C11.3396 9.79822 11.4769 9.8401 11.5674 9.88624C11.8026 10.0061 11.9939 10.1973 12.1137 10.4325C12.1598 10.5231 12.2017 10.6604 12.2252 10.9475C12.2494 11.2434 12.2499 11.6276 12.2499 12.2V17.8C12.2499 18.3724 12.2494 18.7566 12.2252 19.0525C12.2017 19.3396 12.1598 19.4769 12.1137 19.5675C11.9939 19.8027 11.8026 19.9939 11.5674 20.1138C11.4769 20.1599 11.3396 20.2018 11.0525 20.2252C10.7566 20.2494 10.3724 20.25 9.79994 20.25H4.19994C3.62751 20.25 3.2433 20.2494 2.94742 20.2252C2.66029 20.2018 2.52301 20.1599 2.43245 20.1138C2.19725 19.9939 2.00602 19.8027 1.88618 19.5675C1.84004 19.4769 1.79816 19.3396 1.7747 19.0525C1.75052 18.7566 1.74994 18.3724 1.74994 17.8V12.2C1.74994 11.6276 1.75052 11.2434 1.7747 10.9475C1.79816 10.6604 1.84004 10.5231 1.88618 10.4325C2.00602 10.1973 2.19725 10.0061 2.43245 9.88624Z" fill="#444C4B"/>
</svg>