<svg width="22" height="22" viewBox="0 0 22 22" fill="none" xmlns="http://www.w3.org/2000/svg">
<path fill-rule="evenodd" clip-rule="evenodd" d="M12.2001 0.25H12.1696C11.6355 0.249989 11.1896 0.24998 10.8254 0.279739C10.4455 0.310777 10.0888 0.377888 9.75159 0.549732C9.23414 0.813384 8.81344 1.23408 8.54979 1.75153C8.37795 2.08879 8.31084 2.44545 8.2798 2.82533C8.2691 2.95624 8.26225 3.09769 8.25787 3.25H13.8001L13.8585 3.25C14.3681 3.24995 14.8503 3.2499 15.2562 3.28306C15.6979 3.31915 16.2008 3.40308 16.7025 3.65873C17.4081 4.01825 17.9818 4.59193 18.3413 5.29754C18.597 5.79927 18.6809 6.30217 18.717 6.7439C18.7502 7.1497 18.7501 7.6319 18.7501 8.14152V8.14155V8.14158V8.14161L18.7501 8.2V13.7422C18.9024 13.7378 19.0438 13.731 19.1747 13.7203C19.5546 13.6892 19.9113 13.6221 20.2485 13.4503C20.766 13.1866 21.1867 12.7659 21.4503 12.2485C21.6222 11.9112 21.6893 11.5546 21.7203 11.1747C21.7501 10.8105 21.7501 10.3647 21.7501 9.83058V9.83049V9.83045V9.8V4.2V4.16955V4.16951V4.16942C21.7501 3.63533 21.7501 3.18953 21.7203 2.82533C21.6893 2.44545 21.6222 2.08879 21.4503 1.75153C21.1867 1.23408 20.766 0.813384 20.2485 0.549732C19.9113 0.377888 19.5546 0.310777 19.1747 0.279739C18.8105 0.24998 18.3646 0.249989 17.8305 0.25H17.8001H12.2001ZM8.16963 4.25H8.20006H13.8001H13.8305H13.8305H13.8306C14.3647 4.24999 14.8105 4.24998 15.1747 4.27974C15.5546 4.31078 15.9113 4.37789 16.2485 4.54974C16.766 4.81339 17.1867 5.23408 17.4503 5.75153C17.6222 6.08879 17.6893 6.44545 17.7203 6.82533C17.7501 7.18953 17.7501 7.63533 17.7501 8.16943V8.16951V8.16955V8.2V13.8V13.8305V13.8305V13.8306C17.7501 14.3647 17.7501 14.8105 17.7203 15.1747C17.6893 15.5546 17.6222 15.9112 17.4503 16.2485C17.1867 16.7659 16.766 17.1866 16.2485 17.4503C15.9113 17.6221 15.5546 17.6892 15.1747 17.7203C15.0438 17.731 14.9023 17.7378 14.75 17.7422V12.2L14.75 12.1416V12.1416C14.7501 11.6319 14.7501 11.1497 14.7169 10.7439C14.6808 10.3022 14.5969 9.79927 14.3413 9.29754C13.9817 8.59193 13.4081 8.01825 12.7025 7.65873C12.2007 7.40308 11.6978 7.31915 11.2561 7.28306C10.8503 7.24991 10.368 7.24995 9.8584 7.25L9.8 7.25H4.25787C4.26225 7.0977 4.2691 6.95624 4.2798 6.82533C4.31084 6.44545 4.37795 6.08879 4.54979 5.75153C4.81345 5.23408 5.23414 4.81339 5.75159 4.54974C6.08885 4.37789 6.44551 4.31078 6.82539 4.27974C7.18961 4.24998 7.63544 4.24999 8.16956 4.25H8.16961H8.16963ZM4.2 8.25H4.16957C3.63541 8.24999 3.18956 8.24998 2.82533 8.27974C2.44545 8.31078 2.08879 8.37789 1.75153 8.54974C1.23408 8.81339 0.813385 9.23408 0.549733 9.75153C0.377889 10.0888 0.310778 10.4454 0.27974 10.8253C0.249982 11.1896 0.24999 11.6354 0.25 12.1696V12.1696V12.2V17.8V17.8304C0.24999 18.3646 0.249981 18.8104 0.27974 19.1747C0.310778 19.5546 0.377889 19.9112 0.549733 20.2485C0.813385 20.7659 1.23408 21.1866 1.75153 21.4503C2.08879 21.6221 2.44545 21.6892 2.82533 21.7203C3.18954 21.75 3.63536 21.75 4.16946 21.75H4.16955H4.2H9.8H9.83045H9.83054C10.3646 21.75 10.8105 21.75 11.1747 21.7203C11.5546 21.6892 11.9112 21.6221 12.2485 21.4503C12.7659 21.1866 13.1866 20.7659 13.4503 20.2485C13.6221 19.9112 13.6892 19.5546 13.7203 19.1747C13.75 18.8105 13.75 18.3646 13.75 17.8305V17.8305V17.8V12.2V12.1696V12.1695C13.75 11.6354 13.75 11.1896 13.7203 10.8253C13.6892 10.4454 13.6221 10.0888 13.4503 9.75153C13.1866 9.23408 12.7659 8.81339 12.2485 8.54974C11.9112 8.37789 11.5546 8.31078 11.1747 8.27974C10.8104 8.24998 10.3646 8.24999 9.83044 8.25H9.8H4.2Z" fill="#36796F"/>
</svg>
