<svg width="14" height="23" viewBox="0 0 14 23" fill="none" xmlns="http://www.w3.org/2000/svg">
<path d="M7.05991 1.68404e-07C5.98663 0.00164072 4.95157 0.39969 4.15244 1.11811C3.35331 1.83653 2.84613 2.82497 2.72779 3.89461C2.71002 4.05265 2.70113 4.21156 2.70117 4.3706C2.70102 4.99822 2.83727 5.61834 3.10045 6.18779C3.42621 6.9008 3.9374 7.51273 4.58035 7.95932C5.2233 8.40592 5.9743 8.67072 6.75451 8.72592C7.53472 8.78111 8.31536 8.62467 9.01448 8.27302C9.7136 7.92138 10.3054 7.38748 10.7278 6.7274C11.1502 6.06731 11.3875 5.30538 11.415 4.52159C11.4424 3.73779 11.2589 2.96105 10.8837 2.2729C10.5085 1.58474 9.95547 1.01057 9.28266 0.610637C8.60984 0.210709 7.84206 -0.000217568 7.05991 1.68404e-07ZM7.50355 7.0241C7.35707 7.05 7.20865 7.0634 7.05991 7.06413C6.37212 7.06489 5.71074 6.79866 5.21438 6.32124C5.16855 6.27899 5.12487 6.23445 5.08351 6.18779C4.625 5.69431 4.36981 5.04506 4.36925 4.3706C4.37051 4.21096 4.38535 4.05172 4.41361 3.89461C4.50042 3.40938 4.71848 2.95738 5.04399 2.58793C5.3695 2.21848 5.78995 1.94577 6.25948 1.79957C6.729 1.65337 7.22955 1.6393 7.70651 1.75888C8.18347 1.87846 8.61851 2.1271 8.96415 2.47768C9.3098 2.82825 9.55278 3.26729 9.66658 3.74688C9.78037 4.22648 9.76061 4.72819 9.60945 5.19729C9.45828 5.66639 9.18153 6.08485 8.80938 6.40699C8.43723 6.72914 7.98399 6.94261 7.49911 7.0241H7.50355Z" fill="#36796F"/>
<path d="M2.28474 17.673V15.2152V11.9234H2.99234H5.27929H6.05344L6.17322 11.9122V9.63019H6.05344H5.27929H2.99234H2.28474H0.2196H0V16.4608V17.5595V19.1677H0.0221816V19.2055L6.19762 23V20.1374L2.28474 17.673Z" fill="#36796F"/>
<path d="M11.7129 17.8965L7.35864 20.2698V22.9544L13.9777 19.2066V19.1688H13.9999V17.4784H11.724" fill="#36796F"/>
<path d="M13.7781 9.63019H7.35864V11.9745C8.44658 12.1381 9.45303 12.6487 10.2289 13.4307C11.0048 14.2127 11.5088 15.2245 11.6664 16.3162H13.9999V9.63019H13.7781Z" fill="#FF8D40"/>
</svg>
