<svg width="25" height="24" viewBox="0 0 25 24" fill="none" xmlns="http://www.w3.org/2000/svg">
<path fill-rule="evenodd" clip-rule="evenodd" d="M8.94922 6C8.94922 4.20507 10.4043 2.75 12.1992 2.75C13.9941 2.75 15.4492 4.20507 15.4492 6C15.4492 7.79493 13.9941 9.25 12.1992 9.25C10.4043 9.25 8.94922 7.79493 8.94922 6ZM12.1992 1.25C9.57587 1.25 7.44922 3.37665 7.44922 6C7.44922 8.62335 9.57587 10.75 12.1992 10.75C14.8226 10.75 16.9492 8.62335 16.9492 6C16.9492 3.37665 14.8226 1.25 12.1992 1.25ZM8.99922 13.25C5.93404 13.25 3.44922 15.7348 3.44922 18.8C3.44922 20.9815 5.21769 22.75 7.39922 22.75H16.9992C19.1807 22.75 20.9492 20.9815 20.9492 18.8C20.9492 15.7348 18.4644 13.25 15.3992 13.25H8.99922ZM4.94922 18.8C4.94922 16.5632 6.76247 14.75 8.99922 14.75H15.3992C17.636 14.75 19.4492 16.5632 19.4492 18.8C19.4492 20.1531 18.3523 21.25 16.9992 21.25H7.39922C6.04612 21.25 4.94922 20.1531 4.94922 18.8Z" fill="#444C4B"/>
</svg>
