<svg width="28" height="28" viewBox="0 0 28 28" fill="none" xmlns="http://www.w3.org/2000/svg">
<path d="M18.6667 19.3333C23.8213 19.3333 28 15.1546 28 9.99996C28 9.07333 27.865 8.17824 27.6135 7.33329L23.5961 11.3507L23.5961 11.3507C22.804 12.1428 22.408 12.5388 21.9514 12.6871C21.5497 12.8177 21.117 12.8177 20.7153 12.6871C20.2586 12.5388 19.8626 12.1428 19.0706 11.3507L19.0706 11.3507L17.3159 9.59603C16.5239 8.804 16.1279 8.40798 15.9795 7.95133C15.849 7.54964 15.849 7.11695 15.9795 6.71526C16.1279 6.2586 16.5239 5.86259 17.3159 5.07055L21.3333 1.05313C20.4884 0.801663 19.5933 0.666626 18.6667 0.666626C13.512 0.666626 9.33333 4.8453 9.33333 9.99996C9.33333 11.4314 9.42408 13.4543 10 14.6666L2 22.6666C1.45475 23.2119 1.18213 23.4845 1.03639 23.7786C0.759107 24.3381 0.759107 24.9951 1.03639 25.5547C1.18213 25.8488 1.45475 26.1214 2 26.6666C2.54525 27.2119 2.81788 27.4845 3.11197 27.6302C3.67152 27.9075 4.32848 27.9075 4.88803 27.6302C5.18213 27.4845 5.45475 27.2119 6 26.6666L14 18.6666C15.2123 19.2425 17.2352 19.3333 18.6667 19.3333Z" fill="#D0D2D2"/>
</svg>
