<svg width="18" height="18" viewBox="0 0 18 18" fill="none" xmlns="http://www.w3.org/2000/svg">
<path fill-rule="evenodd" clip-rule="evenodd" d="M7.04403 0.166672H7.06666H10.9333H10.9559C12.0569 0.166669 12.9138 0.166667 13.6012 0.222829C14.2992 0.279852 14.8662 0.397255 15.3763 0.657142C16.223 1.08857 16.9114 1.77699 17.3429 2.62371C17.6027 3.13377 17.7201 3.70083 17.7772 4.39876C17.8333 5.08612 17.8333 5.943 17.8333 7.04389V7.04391V7.04393V7.04396V7.04398V7.04401V7.04403V7.06667V7.60001V7.62265V7.62267V7.6227V7.62272V7.62275V7.62277V7.62279C17.8333 8.72368 17.8333 9.58056 17.7772 10.2679C17.7201 10.9658 17.6027 11.5329 17.3429 12.043C16.9114 12.8897 16.223 13.5781 15.3763 14.0095C14.8662 14.2694 14.2992 14.3868 13.6012 14.4438C12.9138 14.5 12.0569 14.5 10.956 14.5H10.9333H7.06666H7.04402C5.94306 14.5 5.08614 14.5 4.39875 14.4438C3.70082 14.3868 3.13376 14.2694 2.6237 14.0095C1.77697 13.5781 1.08856 12.8897 0.657127 12.043C0.39724 11.5329 0.279837 10.9658 0.222814 10.2679C0.166652 9.58052 0.166654 8.72359 0.166657 7.62263V7.60001V7.06667V7.04404C0.166654 5.94308 0.166652 5.08615 0.222814 4.39876C0.279837 3.70083 0.39724 3.13377 0.657127 2.62371C1.08856 1.77699 1.77697 1.08857 2.6237 0.657142C3.13376 0.397255 3.70082 0.279852 4.39875 0.222829C5.08614 0.166667 5.94307 0.166669 7.04403 0.166672ZM3.07769 1.54815C3.39595 1.38598 3.77802 1.28786 4.33327 1.23276C4.33275 1.84546 4.32761 2.10829 4.28529 2.32106C4.08802 3.31279 3.31277 4.08803 2.32105 4.2853C2.10827 4.32763 1.84545 4.33276 1.23274 4.33328C1.28784 3.77803 1.38597 3.39597 1.54813 3.0777C1.88369 2.41914 2.41912 1.88371 3.07769 1.54815ZM1.16666 7.06667C1.16666 6.38514 1.1668 5.81749 1.17847 5.33335C1.79553 5.3334 2.18269 5.33241 2.51614 5.26609C3.90456 4.98991 4.9899 3.90457 5.26607 2.51615C5.3324 2.1827 5.33339 1.79554 5.33333 1.17848C5.81748 1.16681 6.38513 1.16667 7.06666 1.16667H10.9333C11.6149 1.16667 12.1825 1.16681 12.6666 1.17848C12.6666 1.79554 12.6676 2.1827 12.7339 2.51615C13.0101 3.90457 14.0954 4.98991 15.4838 5.26609C15.8173 5.33241 16.2045 5.3334 16.8215 5.33335C16.8332 5.8175 16.8333 6.38514 16.8333 7.06667V7.60001C16.8333 8.28154 16.8332 8.84918 16.8215 9.33333C16.2045 9.33327 15.8173 9.33426 15.4838 9.40059C14.0954 9.67676 13.0101 10.7621 12.7339 12.1505C12.6676 12.484 12.6666 12.8711 12.6666 13.4882C12.1825 13.4999 11.6149 13.5 10.9333 13.5H7.06666C6.38513 13.5 5.81748 13.4999 5.33333 13.4882C5.33339 12.8711 5.3324 12.484 5.26607 12.1505C4.9899 10.7621 3.90456 9.67676 2.51614 9.40059C2.18269 9.33426 1.79553 9.33327 1.17847 9.33333C1.1668 8.84918 1.16666 8.28153 1.16666 7.60001V7.06667ZM1.23275 10.3334C1.28784 10.8886 1.38597 11.2707 1.54813 11.589C1.88369 12.2475 2.41912 12.783 3.07769 13.1185C3.39595 13.2807 3.77802 13.3788 4.33327 13.4339C4.33275 12.8212 4.32761 12.5584 4.28529 12.3456C4.08802 11.3539 3.31277 10.5786 2.32105 10.3814C2.10827 10.3391 1.84545 10.3339 1.23275 10.3334ZM15.6789 10.3814C15.8917 10.3391 16.1545 10.3339 16.7672 10.3334C16.7121 10.8886 16.614 11.2707 16.4518 11.589C16.1163 12.2475 15.5809 12.783 14.9223 13.1185C14.604 13.2807 14.222 13.3788 13.6667 13.4339C13.6672 12.8212 13.6724 12.5584 13.7147 12.3456C13.912 11.3539 14.6872 10.5786 15.6789 10.3814ZM16.7672 4.33328C16.7121 3.77803 16.614 3.39597 16.4518 3.0777C16.1163 2.41914 15.5809 1.88371 14.9223 1.54815C14.604 1.38598 14.222 1.28786 13.6667 1.23276C13.6672 1.84546 13.6724 2.10829 13.7147 2.32106C13.912 3.31279 14.6872 4.08803 15.6789 4.2853C15.8917 4.32763 16.1545 4.33276 16.7672 4.33328ZM8.99989 6.16708C8.35556 6.16708 7.83322 6.68941 7.83322 7.33374C7.83322 7.97808 8.35556 8.50041 8.99989 8.50041C9.64422 8.50041 10.1666 7.97808 10.1666 7.33374C10.1666 6.68941 9.64422 6.16708 8.99989 6.16708ZM6.83322 7.33374C6.83322 6.13713 7.80327 5.16708 8.99989 5.16708C10.1965 5.16708 11.1666 6.13713 11.1666 7.33374C11.1666 8.53036 10.1965 9.50041 8.99989 9.50041C7.80327 9.50041 6.83322 8.53036 6.83322 7.33374ZM3.16666 16.8333C2.89051 16.8333 2.66666 17.0572 2.66666 17.3333C2.66666 17.6095 2.89051 17.8333 3.16666 17.8333H14.8333C15.1095 17.8333 15.3333 17.6095 15.3333 17.3333C15.3333 17.0572 15.1095 16.8333 14.8333 16.8333H3.16666Z" fill="white"/>
</svg>
