<svg width="18" height="18" viewBox="0 0 18 18" fill="none" xmlns="http://www.w3.org/2000/svg">
<path fill-rule="evenodd" clip-rule="evenodd" d="M8.88273 0.16666L9 0.166664L9.11727 0.16666C11.177 0.166555 12.3332 0.166497 13.2879 0.467504C15.3105 1.10522 16.8948 2.68951 17.5325 4.71208C17.8335 5.66675 17.8334 6.82298 17.8333 8.88274L17.8333 9V11.643C17.8333 13.2848 17.1811 14.8593 16.0202 16.0202C14.8593 17.1811 13.2848 17.8333 11.643 17.8333H8.99999L8.88274 17.8333C6.82298 17.8334 5.66675 17.8335 4.71208 17.5325C2.68951 16.8948 1.10522 15.3105 0.467504 13.2879C0.166497 12.3332 0.166555 11.177 0.16666 9.11727L0.166664 9L0.16666 8.88273C0.166555 6.82297 0.166497 5.66675 0.467504 4.71208C1.10522 2.68951 2.68951 1.10522 4.71208 0.467504C5.66675 0.166497 6.82297 0.166555 8.88273 0.16666ZM9 1.16666C6.791 1.16666 5.80163 1.1725 5.01278 1.42122C3.30138 1.96082 1.96082 3.30138 1.42122 5.01278C1.1725 5.80163 1.16666 6.791 1.16666 9C1.16666 11.209 1.1725 12.1984 1.42122 12.9872C1.96082 14.6986 3.30138 16.0392 5.01278 16.5788C5.80163 16.8275 6.791 16.8333 8.99999 16.8333H11.643C11.7066 16.8333 11.77 16.8322 11.8333 16.8298V15.5333V15.5119V15.5119C11.8333 14.97 11.8333 14.5329 11.8622 14.179C11.892 13.8146 11.9549 13.4945 12.1058 13.1983C12.3455 12.7279 12.7279 12.3455 13.1984 12.1058C13.4945 11.9549 13.8146 11.892 14.179 11.8622C14.533 11.8333 14.97 11.8333 15.5119 11.8333H15.5333H16.8298C16.8322 11.77 16.8333 11.7066 16.8333 11.643V9C16.8333 6.791 16.8275 5.80163 16.5788 5.01278C16.0392 3.30138 14.6986 1.96082 12.9872 1.42122C12.1984 1.1725 11.209 1.16666 9 1.16666ZM15.3131 15.3131C14.6255 16.0008 13.7647 16.4755 12.8333 16.695V15.5333C12.8333 14.965 12.8337 14.5688 12.8589 14.2604C12.8836 13.9578 12.9297 13.784 12.9968 13.6523C13.1406 13.3701 13.3701 13.1406 13.6523 12.9968C13.784 12.9297 13.9579 12.8836 14.2605 12.8589C14.5689 12.8337 14.965 12.8333 15.5333 12.8333H16.695C16.4755 13.7647 16.0008 14.6255 15.3131 15.3131ZM4.83333 4.33333C4.55719 4.33333 4.33333 4.55719 4.33333 4.83333C4.33333 5.10947 4.55719 5.33333 4.83333 5.33333H11.5C11.7761 5.33333 12 5.10947 12 4.83333C12 4.55719 11.7761 4.33333 11.5 4.33333H4.83333ZM4.33333 8.16666C4.33333 7.89052 4.55719 7.66666 4.83333 7.66666H9.83333C10.1095 7.66666 10.3333 7.89052 10.3333 8.16666C10.3333 8.44281 10.1095 8.66666 9.83333 8.66666H4.83333C4.55719 8.66666 4.33333 8.44281 4.33333 8.16666ZM4.83333 11C4.55719 11 4.33333 11.2239 4.33333 11.5C4.33333 11.7761 4.55719 12 4.83333 12H6.5C6.77614 12 7 11.7761 7 11.5C7 11.2239 6.77614 11 6.5 11H4.83333Z" fill="white"/>
</svg>
