<svg width="18" height="16" viewBox="0 0 18 16" fill="none" xmlns="http://www.w3.org/2000/svg">
<path fill-rule="evenodd" clip-rule="evenodd" d="M7.04403 3.57678e-08H7.06666H10.9333H10.9559C12.0569 -2.58684e-06 12.9138 -4.673e-06 13.6012 0.0561573C14.2992 0.11318 14.8662 0.230583 15.3763 0.490471C16.223 0.921901 16.9114 1.61031 17.3429 2.45704C17.6027 2.9671 17.7201 3.53416 17.7772 4.23209C17.8333 4.91947 17.8333 5.77638 17.8333 6.87731V6.87734V6.87736V6.9V9.1V9.12264V9.12267V9.12269C17.8333 10.2236 17.8333 11.0805 17.7772 11.7679C17.7201 12.4658 17.6027 13.0329 17.3429 13.543C16.9114 14.3897 16.223 15.0781 15.3763 15.5095C14.8662 15.7694 14.2992 15.8868 13.6012 15.9438C12.9138 16 12.0569 16 10.956 16H10.9333H7.06666H7.04402C5.94307 16 5.08614 16 4.39875 15.9438C3.70082 15.8868 3.13376 15.7694 2.6237 15.5095C1.77697 15.0781 1.08856 14.3897 0.657127 13.543C0.39724 13.0329 0.279837 12.4658 0.222814 11.7679C0.166652 11.0805 0.166654 10.2236 0.166657 9.12263V9.1V6.9V6.87737C0.166654 5.77641 0.166652 4.91948 0.222814 4.23209C0.279837 3.53416 0.39724 2.9671 0.657127 2.45704C1.08856 1.61031 1.77697 0.921901 2.6237 0.490471C3.13376 0.230583 3.70082 0.11318 4.39875 0.0561573C5.08614 -4.673e-06 5.94307 -2.58684e-06 7.04403 3.57678e-08ZM4.48018 1.05284C3.84409 1.10481 3.42328 1.20539 3.07769 1.38148C2.41912 1.71703 1.88369 2.25247 1.54813 2.91103C1.38596 3.22931 1.28783 3.61139 1.23274 4.16667H16.7672C16.7121 3.61139 16.614 3.22931 16.4518 2.91103C16.1163 2.25247 15.5809 1.71703 14.9223 1.38148C14.5767 1.20539 14.1559 1.10481 13.5198 1.05284C12.8779 1.00039 12.0617 1 10.9333 1H7.06666C5.9383 1 5.12211 1.00039 4.48018 1.05284ZM1.16666 6.9C1.16666 6.21847 1.1668 5.65082 1.17847 5.16667H16.8215C16.8332 5.65082 16.8333 6.21847 16.8333 6.9V9.1C16.8333 10.2284 16.8329 11.0446 16.7805 11.6865C16.7285 12.3226 16.6279 12.7434 16.4518 13.089C16.1163 13.7475 15.5809 14.283 14.9223 14.6185C14.5767 14.7946 14.1559 14.8952 13.5198 14.9472C12.8779 14.9996 12.0617 15 10.9333 15H7.06666C5.9383 15 5.12211 14.9996 4.48018 14.9472C3.84409 14.8952 3.42328 14.7946 3.07769 14.6185C2.41912 14.283 1.88369 13.7475 1.54813 13.089C1.37205 12.7434 1.27146 12.3226 1.21949 11.6865C1.16705 11.0446 1.16666 10.2284 1.16666 9.1V6.9ZM3.99989 7.5C3.72375 7.5 3.49989 7.72386 3.49989 8C3.49989 8.27614 3.72375 8.5 3.99989 8.5H7.33322C7.60936 8.5 7.83322 8.27614 7.83322 8C7.83322 7.72386 7.60936 7.5 7.33322 7.5H3.99989Z" fill="white"/>
</svg>
