<svg width="20" height="20" viewBox="0 0 20 20" fill="none" xmlns="http://www.w3.org/2000/svg">
<path fill-rule="evenodd" clip-rule="evenodd" d="M1.16602 10.0001C1.16602 8.57811 2.32737 7.41675 3.74935 7.41675C5.17132 7.41675 6.33268 8.57811 6.33268 10.0001C6.33268 11.4221 5.17132 12.5834 3.74935 12.5834C2.32737 12.5834 1.16602 11.4221 1.16602 10.0001ZM3.74935 8.41675C2.87966 8.41675 2.16602 9.13039 2.16602 10.0001C2.16602 10.8698 2.87966 11.5834 3.74935 11.5834C4.61904 11.5834 5.33268 10.8698 5.33268 10.0001C5.33268 9.13039 4.61904 8.41675 3.74935 8.41675ZM13.666 10.0001C13.666 8.57811 14.8274 7.41675 16.2493 7.41675C17.6713 7.41675 18.8327 8.57811 18.8327 10.0001C18.8327 11.4221 17.6713 12.5834 16.2493 12.5834C14.8274 12.5834 13.666 11.4221 13.666 10.0001ZM16.2493 8.41675C15.3797 8.41675 14.666 9.13039 14.666 10.0001C14.666 10.8698 15.3797 11.5834 16.2493 11.5834C17.119 11.5834 17.8327 10.8698 17.8327 10.0001C17.8327 9.13039 17.119 8.41675 16.2493 8.41675ZM9.99935 7.41675C8.57737 7.41675 7.41602 8.57811 7.41602 10.0001C7.41602 11.4221 8.57737 12.5834 9.99935 12.5834C11.4213 12.5834 12.5827 11.4221 12.5827 10.0001C12.5827 8.57811 11.4213 7.41675 9.99935 7.41675ZM8.41602 10.0001C8.41602 9.13039 9.12966 8.41675 9.99935 8.41675C10.869 8.41675 11.5827 9.13039 11.5827 10.0001C11.5827 10.8698 10.869 11.5834 9.99935 11.5834C9.12966 11.5834 8.41602 10.8698 8.41602 10.0001Z" fill="#444C4B"/>
</svg>
