<svg width="16" height="18" viewBox="0 0 16 18" fill="none" xmlns="http://www.w3.org/2000/svg">
<mask id="path-1-inside-1_988_353" fill="white">
<path fill-rule="evenodd" clip-rule="evenodd" d="M0.999876 15.9706L5.56082 16.0067L6.53207 10.007H7.79228C11.0792 10.007 13.6529 8.70643 14.4047 4.94429C14.427 4.83302 14.4463 4.72473 14.4631 4.61891C14.4771 4.53197 14.4893 4.44677 14.4998 4.36322C14.5126 4.26061 14.5228 4.16049 14.5302 4.0627C14.5409 3.92162 14.546 3.78538 14.5452 3.65352C14.5401 2.76046 14.2685 2.06766 13.6895 1.42494C13.687 1.42217 13.6845 1.41941 13.682 1.41666C12.8935 0.548788 11.522 0.139701 9.76843 0.0836604C9.62756 0.0791584 9.48423 0.0769348 9.33853 0.0769348H3.63528H3.63477C3.28343 0.0769348 2.97795 0.295009 2.8649 0.608253C2.84875 0.653003 2.83652 0.699694 2.82865 0.747969L2.80093 0.919239L0.453949 15.4188C0.449697 15.4449 0.447694 15.4707 0.447788 15.4962C0.448528 15.7534 0.663674 15.9706 0.937723 15.9706H0.999876Z"/>
</mask>
<path d="M0.999876 15.9706L1.00779 14.9706H0.999876V15.9706ZM5.56082 16.0067L5.55291 17.0067L6.41087 17.0135L6.54797 16.1665L5.56082 16.0067ZM6.53207 10.007V9.00696H5.68093L5.54492 9.84716L6.53207 10.007ZM14.4047 4.94429L13.4243 4.74746L13.4241 4.74833L14.4047 4.94429ZM14.4631 4.61891L13.4758 4.46002L13.4754 4.46251L14.4631 4.61891ZM14.4998 4.36322L13.5075 4.23901V4.23901L14.4998 4.36322ZM14.5302 4.0627L13.5331 3.9869V3.9869L14.5302 4.0627ZM14.5452 3.65352L13.5452 3.65928V3.65928L14.5452 3.65352ZM13.6895 1.42494L14.4324 0.755572L14.4323 0.755499L13.6895 1.42494ZM13.682 1.41666L14.4222 0.744286L14.4221 0.744229L13.682 1.41666ZM9.76843 0.0836604L9.73648 1.08315L9.76843 0.0836604ZM2.8649 0.608253L1.92428 0.268784L1.92428 0.268784L2.8649 0.608253ZM2.82865 0.747969L1.84168 0.587104L1.8415 0.588183L2.82865 0.747969ZM2.80093 0.919238L1.81378 0.759451L1.81378 0.759451L2.80093 0.919238ZM0.453949 15.4188L1.44094 15.5796L1.4411 15.5785L0.453949 15.4188ZM0.447788 15.4962L1.44778 15.4933L1.44778 15.4925L0.447788 15.4962ZM0.991962 16.9706L5.55291 17.0067L5.56874 15.0067L1.00779 14.9706L0.991962 16.9706ZM6.54797 16.1665L7.51922 10.1668L5.54492 9.84716L4.57368 15.8469L6.54797 16.1665ZM6.53207 11.007H7.79228V9.00696H6.53207V11.007ZM7.79228 11.007C9.55497 11.007 11.2451 10.6599 12.6186 9.70847C14.0161 8.7404 14.968 7.22857 15.3853 5.14024L13.4241 4.74833C13.0896 6.42215 12.3787 7.44165 11.4797 8.06439C10.5567 8.70375 9.31651 9.00696 7.79228 9.00696V11.007ZM15.3851 5.14111C15.4103 5.01596 15.432 4.89417 15.4508 4.7753L13.4754 4.46251C13.4607 4.55528 13.4438 4.65009 13.4243 4.74746L15.3851 5.14111ZM15.4504 4.77779C15.4661 4.67999 15.48 4.58321 15.492 4.48742L13.5075 4.23901C13.4986 4.31033 13.488 4.38395 13.4758 4.46002L15.4504 4.77779ZM15.492 4.48742C15.5068 4.36979 15.5186 4.2535 15.5273 4.1385L13.5331 3.9869C13.527 4.06747 13.5185 4.15142 13.5075 4.23901L15.492 4.48742ZM15.5273 4.1385C15.5399 3.97261 15.5461 3.80908 15.5452 3.64776L13.5452 3.65928C13.5458 3.76169 13.5419 3.87062 13.5331 3.9869L15.5273 4.1385ZM15.5452 3.64776C15.5387 2.51128 15.1768 1.58184 14.4324 0.755572L12.9465 2.0943C13.3602 2.55348 13.5415 3.00963 13.5452 3.65928L15.5452 3.64776ZM14.4323 0.755499C14.4289 0.751663 14.4255 0.747921 14.4222 0.744286L12.9417 2.08903C12.9435 2.09091 12.9451 2.09268 12.9466 2.09438L14.4323 0.755499ZM14.4221 0.744229C13.3556 -0.429709 11.6373 -0.857123 9.80037 -0.915829L9.73648 1.08315C11.4066 1.13653 12.4314 1.52728 12.9418 2.08909L14.4221 0.744229ZM9.80037 -0.915829C9.64838 -0.920687 9.49439 -0.923065 9.33853 -0.923065V1.07693C9.47407 1.07693 9.60674 1.079 9.73648 1.08315L9.80037 -0.915829ZM9.33853 -0.923065H3.63528V1.07693H9.33853V-0.923065ZM3.63528 -0.923065H3.63477V1.07693H3.63528V-0.923065ZM3.63477 -0.923065C2.86791 -0.923065 2.18236 -0.446329 1.92428 0.268784L3.80551 0.947723C3.77353 1.03635 3.69895 1.07693 3.63477 1.07693V-0.923065ZM1.92428 0.268784C1.88738 0.37101 1.85955 0.477469 1.84168 0.587105L3.81563 0.908834C3.8135 0.921919 3.81011 0.934995 3.80551 0.947722L1.92428 0.268784ZM1.8415 0.588183L1.81378 0.759451L3.78808 1.07902L3.81581 0.907756L1.8415 0.588183ZM1.81378 0.759451L-0.533202 15.259L1.4411 15.5785L3.78808 1.07902L1.81378 0.759451ZM-0.533038 15.258C-0.546157 15.3385 -0.552503 15.4194 -0.552206 15.4999L1.44778 15.4925C1.44789 15.5221 1.44555 15.5512 1.44094 15.5796L-0.533038 15.258ZM-0.552208 15.4991C-0.549837 16.3228 0.127999 16.9706 0.937723 16.9706V14.9706C1.19935 14.9706 1.44689 15.184 1.44778 15.4933L-0.552208 15.4991ZM0.937723 16.9706H0.999876V14.9706H0.937723V16.9706Z" fill="white" mask="url(#path-1-inside-1_988_353)"/>
<mask id="path-3-inside-2_988_353" fill="white">
<path fill-rule="evenodd" clip-rule="evenodd" d="M13.3215 4.22479C13.4433 4.251 13.5616 4.28067 13.6763 4.31331C13.7337 4.32963 13.79 4.34693 13.8453 4.36474C14.0672 4.43644 14.2733 4.521 14.4636 4.61891C14.4636 4.61898 14.4636 4.61905 14.4636 4.61912C14.7822 4.78375 15.0557 4.98543 15.2759 5.2296C16.0023 6.03613 16.1444 7.18435 15.8698 8.55955C15.2119 11.8504 12.9606 12.9883 10.0853 12.9883H9.64115C9.28986 12.9883 8.99087 13.2375 8.93604 13.5752L8.9 13.7661L8.34059 17.2197L8.31166 17.3671C8.25683 17.7048 7.95784 17.954 7.60656 17.954H4.63843C4.37547 17.954 4.17445 17.7246 4.21557 17.4714L5.31561 10.678C5.31702 10.6693 5.31857 10.6606 5.32026 10.652L5.3435 10.5069L6.29379 4.6377C6.33136 4.40479 6.48415 4.2149 6.69076 4.11848C6.78416 4.07447 6.88874 4.05024 6.99889 4.05024H11.4696C11.9996 4.05024 12.493 4.08386 12.9448 4.15507C13.0737 4.17534 13.1996 4.19859 13.3215 4.22479Z"/>
</mask>
<path d="M13.6763 4.3133L13.4027 5.27514V5.27514L13.6763 4.3133ZM13.3214 4.22479L13.1111 5.20242V5.20242L13.3214 4.22479ZM13.8453 4.36473L14.1529 3.4132L14.1516 3.41279L13.8453 4.36473ZM14.4636 4.6189L15.451 4.77728L15.5658 4.0613L14.921 3.72964L14.4636 4.6189ZM14.4636 4.61912L13.4762 4.46074L13.3616 5.17531L14.0045 5.50753L14.4636 4.61912ZM15.2759 5.22959L16.0189 4.56035L16.0185 4.55986L15.2759 5.22959ZM15.8698 8.55955L16.8504 8.75558L16.8504 8.75538L15.8698 8.55955ZM8.93603 13.5752L9.91867 13.7608L9.92105 13.7482L9.92311 13.7355L8.93603 13.5752ZM8.89999 13.7661L7.91736 13.5806L7.91494 13.5934L7.91286 13.6062L8.89999 13.7661ZM8.34058 17.2197L9.32184 17.4124L9.32505 17.396L9.32771 17.3796L8.34058 17.2197ZM8.31165 17.3671L7.33038 17.1744L7.32721 17.1906L7.32456 17.2068L8.31165 17.3671ZM4.21556 17.4714L5.20263 17.6317L5.2027 17.6312L4.21556 17.4714ZM5.3156 10.678L6.30274 10.8378L6.30278 10.8376L5.3156 10.678ZM5.32025 10.652L6.30156 10.8444L6.3049 10.8274L6.30765 10.8102L5.32025 10.652ZM5.34349 10.5069L4.35635 10.3471L4.35609 10.3487L5.34349 10.5069ZM6.29378 4.6377L7.28093 4.79753L7.28102 4.79692L6.29378 4.6377ZM6.69075 4.11847L7.11368 5.02464L7.11698 5.02308L6.69075 4.11847ZM12.9448 4.15507L12.7891 5.14287L12.7894 5.14293L12.9448 4.15507ZM13.9499 3.35147C13.8146 3.31298 13.6752 3.27801 13.5318 3.24715L13.1111 5.20242C13.2113 5.22398 13.3085 5.24836 13.4027 5.27514L13.9499 3.35147ZM14.1516 3.41279C14.0878 3.39227 14.0204 3.37152 13.9499 3.35147L13.4027 5.27514C13.4469 5.28773 13.4921 5.30159 13.5391 5.31668L14.1516 3.41279ZM14.921 3.72964C14.6778 3.60457 14.4211 3.49989 14.1529 3.4132L13.5378 5.31626C13.7132 5.37298 13.8687 5.43742 14.0062 5.50817L14.921 3.72964ZM15.451 4.77749C15.451 4.77749 15.451 4.77749 15.451 4.77749C15.451 4.77749 15.451 4.77749 15.451 4.77749C15.451 4.77749 15.451 4.77749 15.451 4.77749C15.451 4.77749 15.451 4.77749 15.451 4.77749C15.451 4.77749 15.451 4.77749 15.451 4.77749C15.451 4.77749 15.451 4.77749 15.451 4.77749C15.451 4.77749 15.451 4.77749 15.451 4.77749C15.451 4.77749 15.451 4.77749 15.451 4.77749C15.451 4.77749 15.451 4.77749 15.451 4.77749C15.451 4.77749 15.451 4.77749 15.451 4.77749C15.451 4.77749 15.451 4.77749 15.451 4.77749C15.451 4.77749 15.451 4.77749 15.451 4.77749C15.451 4.77749 15.451 4.77749 15.451 4.77749C15.451 4.77749 15.451 4.77749 15.451 4.77749C15.451 4.77749 15.451 4.77749 15.451 4.77749C15.451 4.77749 15.451 4.77749 15.451 4.77749C15.451 4.77749 15.451 4.77749 15.451 4.77749C15.451 4.77749 15.451 4.77749 15.451 4.77749C15.451 4.77749 15.451 4.77749 15.451 4.77749C15.451 4.77749 15.451 4.77749 15.451 4.77749C15.451 4.77749 15.451 4.77749 15.451 4.77749C15.451 4.77749 15.451 4.77749 15.451 4.77749C15.451 4.77749 15.451 4.77749 15.451 4.77749C15.451 4.77749 15.451 4.77749 15.451 4.77748C15.451 4.77748 15.451 4.77748 15.451 4.77748C15.451 4.77748 15.451 4.77748 15.451 4.77748C15.451 4.77748 15.451 4.77748 15.451 4.77748C15.451 4.77748 15.451 4.77748 15.451 4.77748C15.451 4.77748 15.451 4.77748 15.451 4.77748C15.451 4.77748 15.451 4.77748 15.451 4.77748C15.451 4.77748 15.451 4.77748 15.451 4.77748C15.451 4.77748 15.451 4.77748 15.451 4.77748C15.451 4.77748 15.451 4.77748 15.451 4.77748C15.451 4.77748 15.451 4.77748 15.451 4.77748C15.451 4.77748 15.451 4.77748 15.451 4.77748C15.451 4.77748 15.451 4.77748 15.451 4.77748C15.451 4.77748 15.451 4.77748 15.451 4.77748C15.451 4.77748 15.451 4.77748 15.451 4.77748C15.451 4.77748 15.451 4.77748 15.451 4.77748C15.451 4.77748 15.451 4.77748 15.451 4.77748C15.451 4.77748 15.451 4.77748 15.451 4.77748C15.451 4.77748 15.451 4.77748 15.451 4.77748C15.451 4.77748 15.451 4.77748 15.451 4.77748C15.451 4.77748 15.451 4.77748 15.451 4.77748C15.451 4.77748 15.451 4.77748 15.451 4.77748C15.451 4.77748 15.451 4.77748 15.451 4.77748C15.451 4.77748 15.451 4.77748 15.451 4.77748C15.451 4.77748 15.451 4.77747 15.451 4.77747C15.451 4.77747 15.451 4.77747 15.451 4.77747C15.451 4.77747 15.451 4.77747 15.451 4.77747C15.451 4.77747 15.451 4.77747 15.451 4.77747C15.451 4.77747 15.451 4.77747 15.451 4.77747C15.451 4.77747 15.451 4.77747 15.451 4.77747C15.451 4.77747 15.451 4.77747 15.451 4.77747C15.451 4.77747 15.451 4.77747 15.451 4.77747C15.451 4.77747 15.451 4.77747 15.451 4.77747C15.451 4.77747 15.451 4.77747 15.451 4.77747C15.451 4.77747 15.451 4.77747 15.451 4.77747C15.451 4.77747 15.451 4.77747 15.451 4.77747C15.451 4.77747 15.451 4.77747 15.451 4.77747C15.451 4.77747 15.451 4.77747 15.451 4.77747C15.451 4.77747 15.451 4.77747 15.451 4.77747C15.451 4.77747 15.451 4.77747 15.451 4.77747C15.451 4.77747 15.451 4.77747 15.451 4.77747C15.451 4.77747 15.451 4.77747 15.451 4.77747C15.451 4.77747 15.451 4.77747 15.451 4.77747C15.451 4.77747 15.451 4.77747 15.451 4.77747C15.451 4.77747 15.451 4.77747 15.451 4.77747C15.451 4.77747 15.451 4.77747 15.451 4.77747C15.451 4.77747 15.451 4.77747 15.451 4.77747C15.451 4.77747 15.451 4.77747 15.451 4.77747C15.451 4.77747 15.451 4.77746 15.451 4.77746C15.451 4.77746 15.451 4.77746 15.451 4.77746C15.451 4.77746 15.451 4.77746 15.451 4.77746C15.451 4.77746 15.451 4.77746 15.451 4.77746C15.451 4.77746 15.451 4.77746 15.451 4.77746C15.451 4.77746 15.451 4.77746 15.451 4.77746C15.451 4.77746 15.451 4.77746 15.451 4.77746C15.451 4.77746 15.451 4.77746 15.451 4.77746C15.451 4.77746 15.451 4.77746 15.451 4.77746C15.451 4.77746 15.451 4.77746 15.451 4.77746C15.451 4.77746 15.451 4.77746 15.451 4.77746C15.451 4.77746 15.451 4.77746 15.451 4.77746C15.451 4.77746 15.451 4.77746 15.451 4.77746C15.451 4.77746 15.451 4.77746 15.451 4.77746C15.451 4.77746 15.451 4.77746 15.451 4.77746C15.451 4.77746 15.451 4.77746 15.451 4.77746C15.451 4.77746 15.451 4.77746 15.451 4.77746C15.451 4.77746 15.451 4.77746 15.451 4.77746C15.451 4.77746 15.451 4.77746 15.451 4.77746C15.451 4.77746 15.451 4.77746 15.451 4.77746C15.451 4.77746 15.451 4.77746 15.451 4.77746C15.451 4.77746 15.451 4.77746 15.451 4.77746C15.451 4.77746 15.451 4.77746 15.451 4.77746C15.451 4.77746 15.451 4.77746 15.451 4.77746C15.451 4.77746 15.451 4.77745 15.451 4.77745C15.451 4.77745 15.451 4.77745 15.451 4.77745C15.451 4.77745 15.451 4.77745 15.451 4.77745C15.451 4.77745 15.451 4.77745 15.451 4.77745C15.451 4.77745 15.451 4.77745 15.451 4.77745C15.451 4.77745 15.451 4.77745 15.451 4.77745C15.451 4.77745 15.451 4.77745 15.451 4.77745C15.451 4.77745 15.451 4.77745 15.451 4.77745C15.451 4.77745 15.451 4.77745 15.451 4.77745C15.451 4.77745 15.451 4.77745 15.451 4.77745C15.451 4.77745 15.451 4.77745 15.451 4.77745C15.451 4.77745 15.451 4.77745 15.451 4.77745C15.451 4.77745 15.451 4.77745 15.451 4.77745C15.451 4.77745 15.451 4.77745 15.451 4.77745C15.451 4.77745 15.451 4.77745 15.451 4.77745C15.451 4.77745 15.451 4.77745 15.451 4.77745C15.451 4.77745 15.451 4.77745 15.451 4.77745C15.451 4.77745 15.451 4.77745 15.451 4.77745C15.451 4.77745 15.451 4.77745 15.451 4.77745C15.451 4.77745 15.451 4.77745 15.451 4.77745C15.451 4.77745 15.451 4.77745 15.451 4.77745C15.451 4.77745 15.451 4.77745 15.451 4.77745C15.451 4.77745 15.451 4.77745 15.451 4.77745C15.451 4.77745 15.451 4.77745 15.451 4.77745C15.451 4.77745 15.451 4.77744 15.451 4.77744C15.451 4.77744 15.451 4.77744 15.451 4.77744C15.451 4.77744 15.451 4.77744 15.451 4.77744C15.451 4.77744 15.451 4.77744 15.451 4.77744C15.451 4.77744 15.451 4.77744 15.451 4.77744C15.451 4.77744 15.451 4.77744 15.451 4.77744C15.451 4.77744 15.451 4.77744 15.451 4.77744C15.451 4.77744 15.451 4.77744 15.451 4.77744C15.451 4.77744 15.451 4.77744 15.451 4.77744C15.451 4.77744 15.451 4.77744 15.451 4.77744C15.451 4.77744 15.451 4.77744 15.451 4.77744C15.451 4.77744 15.451 4.77744 15.451 4.77744C15.451 4.77744 15.451 4.77744 15.451 4.77744C15.451 4.77744 15.451 4.77744 15.451 4.77744C15.451 4.77744 15.451 4.77744 15.451 4.77744C15.451 4.77744 15.451 4.77744 15.451 4.77744C15.451 4.77744 15.451 4.77744 15.451 4.77744C15.451 4.77744 15.451 4.77744 15.451 4.77744C15.451 4.77744 15.451 4.77744 15.451 4.77744C15.451 4.77744 15.451 4.77744 15.451 4.77744C15.451 4.77744 15.451 4.77744 15.451 4.77744C15.451 4.77744 15.451 4.77744 15.451 4.77744C15.451 4.77744 15.451 4.77744 15.451 4.77744C15.451 4.77744 15.451 4.77744 15.451 4.77744C15.451 4.77744 15.451 4.77743 15.451 4.77743C15.451 4.77743 15.451 4.77743 15.451 4.77743C15.451 4.77743 15.451 4.77743 15.451 4.77743C15.451 4.77743 15.451 4.77743 15.451 4.77743C15.451 4.77743 15.451 4.77743 15.451 4.77743C15.451 4.77743 15.451 4.77743 15.451 4.77743C15.451 4.77743 15.451 4.77743 15.451 4.77743C15.451 4.77743 15.451 4.77743 15.451 4.77743C15.451 4.77743 15.451 4.77743 15.451 4.77743C15.451 4.77743 15.451 4.77743 15.451 4.77743C15.451 4.77743 15.451 4.77743 15.451 4.77743C15.451 4.77743 15.451 4.77743 15.451 4.77743C15.451 4.77743 15.451 4.77743 15.451 4.77743C15.451 4.77743 15.451 4.77743 15.451 4.77743C15.451 4.77743 15.451 4.77743 15.451 4.77743C15.451 4.77743 15.451 4.77743 15.451 4.77743C15.451 4.77743 15.451 4.77743 15.451 4.77743C15.451 4.77743 15.451 4.77743 15.451 4.77743C15.451 4.77743 15.451 4.77743 15.451 4.77743C15.451 4.77743 15.451 4.77743 15.451 4.77743C15.451 4.77743 15.451 4.77743 15.451 4.77743C15.451 4.77743 15.451 4.77743 15.451 4.77743C15.451 4.77743 15.451 4.77743 15.451 4.77743C15.451 4.77743 15.451 4.77743 15.451 4.77743C15.451 4.77742 15.451 4.77742 15.451 4.77742C15.451 4.77742 15.451 4.77742 15.451 4.77742C15.451 4.77742 15.451 4.77742 15.451 4.77742C15.451 4.77742 15.451 4.77742 15.451 4.77742C15.451 4.77742 15.451 4.77742 15.451 4.77742C15.451 4.77742 15.451 4.77742 15.451 4.77742C15.451 4.77742 15.451 4.77742 15.451 4.77742C15.451 4.77742 15.451 4.77742 15.451 4.77742C15.451 4.77742 15.451 4.77742 15.451 4.77742C15.451 4.77742 15.451 4.77742 15.451 4.77742C15.451 4.77742 15.451 4.77742 15.451 4.77742C15.451 4.77742 15.451 4.77742 15.451 4.77742C15.451 4.77742 15.451 4.77742 15.451 4.77742C15.451 4.77742 15.451 4.77742 15.451 4.77742C15.451 4.77742 15.451 4.77742 15.451 4.77742C15.451 4.77742 15.451 4.77742 15.451 4.77742C15.451 4.77742 15.451 4.77742 15.451 4.77742C15.451 4.77742 15.451 4.77742 15.451 4.77742C15.451 4.77742 15.451 4.77742 15.451 4.77742C15.451 4.77742 15.451 4.77742 15.451 4.77742C15.451 4.77742 15.451 4.77742 15.451 4.77742C15.451 4.77742 15.451 4.77742 15.451 4.77742C15.451 4.77742 15.451 4.77742 15.451 4.77742C15.451 4.77742 15.451 4.77742 15.451 4.77742C15.451 4.77741 15.451 4.77741 15.451 4.77741C15.451 4.77741 15.451 4.77741 15.451 4.77741C15.451 4.77741 15.451 4.77741 15.451 4.77741C15.451 4.77741 15.451 4.77741 15.451 4.77741C15.451 4.77741 15.451 4.77741 15.451 4.77741C15.451 4.77741 15.451 4.77741 15.451 4.77741C15.451 4.77741 15.451 4.77741 15.451 4.77741C15.451 4.77741 15.451 4.77741 15.451 4.77741C15.451 4.77741 15.451 4.77741 15.451 4.77741C15.451 4.77741 15.451 4.77741 15.451 4.77741C15.451 4.77741 15.451 4.77741 15.451 4.77741C15.451 4.77741 15.451 4.77741 15.451 4.77741C15.451 4.77741 15.451 4.77741 15.451 4.77741C15.451 4.77741 15.451 4.77741 15.451 4.77741C15.451 4.77741 15.451 4.77741 15.451 4.77741C15.451 4.77741 15.451 4.77741 15.451 4.77741C15.451 4.77741 15.451 4.77741 15.451 4.77741C15.451 4.77741 15.451 4.77741 15.451 4.77741C15.451 4.77741 15.451 4.77741 15.451 4.77741C15.451 4.77741 15.451 4.77741 15.451 4.77741C15.451 4.77741 15.451 4.77741 15.451 4.77741C15.451 4.77741 15.451 4.77741 15.451 4.77741C15.451 4.77741 15.451 4.77741 15.451 4.77741C15.451 4.77741 15.451 4.77741 15.451 4.77741C15.451 4.7774 15.451 4.7774 15.451 4.7774C15.451 4.7774 15.451 4.7774 15.451 4.7774C15.451 4.7774 15.451 4.7774 15.451 4.7774C15.451 4.7774 15.451 4.7774 15.451 4.7774C15.451 4.7774 15.451 4.7774 15.451 4.7774C15.451 4.7774 15.451 4.7774 15.451 4.7774C15.451 4.7774 15.451 4.7774 15.451 4.7774C15.451 4.7774 15.451 4.7774 15.451 4.7774C15.451 4.7774 15.451 4.7774 15.451 4.7774C15.451 4.7774 15.451 4.7774 15.451 4.7774C15.451 4.7774 15.451 4.7774 15.451 4.7774C15.451 4.7774 15.451 4.7774 15.451 4.7774C15.451 4.7774 15.451 4.7774 15.451 4.7774C15.451 4.7774 15.451 4.7774 15.451 4.7774C15.451 4.7774 15.451 4.7774 15.451 4.7774C15.451 4.7774 15.451 4.7774 15.451 4.7774C15.451 4.7774 15.451 4.7774 15.451 4.7774C15.451 4.7774 15.451 4.7774 15.451 4.7774C15.451 4.7774 15.451 4.7774 15.451 4.7774C15.451 4.7774 15.451 4.7774 15.451 4.7774C15.451 4.7774 15.451 4.7774 15.451 4.7774C15.451 4.7774 15.451 4.7774 15.451 4.7774C15.451 4.7774 15.451 4.7774 15.451 4.7774C15.451 4.7774 15.451 4.7774 15.451 4.7774C15.451 4.77739 15.451 4.77739 15.451 4.77739C15.451 4.77739 15.451 4.77739 15.451 4.77739C15.451 4.77739 15.451 4.77739 15.451 4.77739C15.451 4.77739 15.451 4.77739 15.451 4.77739C15.451 4.77739 15.451 4.77739 15.451 4.77739C15.451 4.77739 15.451 4.77739 15.451 4.77739C15.451 4.77739 15.451 4.77739 15.451 4.77739C15.451 4.77739 15.451 4.77739 15.451 4.77739C15.451 4.77739 15.451 4.77739 15.451 4.77739C15.451 4.77739 15.451 4.77739 15.451 4.77739C15.451 4.77739 15.451 4.77739 15.451 4.77739C15.451 4.77739 15.451 4.77739 15.451 4.77739C15.451 4.77739 15.451 4.77739 15.451 4.77739C15.451 4.77739 15.451 4.77739 15.451 4.77739C15.451 4.77739 15.451 4.77739 15.451 4.77739C15.451 4.77739 15.451 4.77739 15.451 4.77739C15.451 4.77739 15.451 4.77739 15.451 4.77739C15.451 4.77739 15.451 4.77739 15.451 4.77739C15.451 4.77739 15.451 4.77739 15.451 4.77739C15.451 4.77739 15.451 4.77739 15.451 4.77739C15.451 4.77739 15.451 4.77739 15.451 4.77739C15.451 4.77739 15.451 4.77739 15.451 4.77739C15.451 4.77739 15.451 4.77739 15.451 4.77739C15.451 4.77739 15.451 4.77739 15.451 4.77738C15.451 4.77738 15.451 4.77738 15.451 4.77738C15.451 4.77738 15.451 4.77738 15.451 4.77738C15.451 4.77738 15.451 4.77738 15.451 4.77738C15.451 4.77738 15.451 4.77738 15.451 4.77738C15.451 4.77738 15.451 4.77738 15.451 4.77738C15.451 4.77738 15.451 4.77738 15.451 4.77738C15.451 4.77738 15.451 4.77738 15.451 4.77738C15.451 4.77738 15.451 4.77738 15.451 4.77738C15.451 4.77738 15.451 4.77738 15.451 4.77738C15.451 4.77738 15.451 4.77738 15.451 4.77738C15.451 4.77738 15.451 4.77738 15.451 4.77738C15.451 4.77738 15.451 4.77738 15.451 4.77738C15.451 4.77738 15.451 4.77738 15.451 4.77738C15.451 4.77738 15.451 4.77738 15.451 4.77738C15.451 4.77738 15.451 4.77738 15.451 4.77738C15.451 4.77738 15.451 4.77738 15.451 4.77738C15.451 4.77738 15.451 4.77738 15.451 4.77738C15.451 4.77738 15.451 4.77738 15.451 4.77738C15.451 4.77738 15.451 4.77738 15.451 4.77738C15.451 4.77738 15.451 4.77738 15.451 4.77738C15.451 4.77738 15.451 4.77738 15.451 4.77738C15.451 4.77738 15.451 4.77738 15.451 4.77738C15.451 4.77738 15.451 4.77738 15.451 4.77738C15.451 4.77738 15.451 4.77738 15.451 4.77737C15.451 4.77737 15.451 4.77737 15.451 4.77737C15.451 4.77737 15.451 4.77737 15.451 4.77737C15.451 4.77737 15.451 4.77737 15.451 4.77737C15.451 4.77737 15.451 4.77737 15.451 4.77737C15.451 4.77737 15.451 4.77737 15.451 4.77737C15.451 4.77737 15.451 4.77737 15.451 4.77737C15.451 4.77737 15.451 4.77737 15.451 4.77737C15.451 4.77737 15.451 4.77737 15.451 4.77737C15.451 4.77737 15.451 4.77737 15.451 4.77737C15.451 4.77737 15.451 4.77737 15.451 4.77737C15.451 4.77737 15.451 4.77737 15.451 4.77737C15.451 4.77737 15.451 4.77737 15.451 4.77737C15.451 4.77737 15.451 4.77737 15.451 4.77737C15.451 4.77737 15.451 4.77737 15.451 4.77737C15.451 4.77737 15.451 4.77737 15.451 4.77737C15.451 4.77737 15.451 4.77737 15.451 4.77737C15.451 4.77737 15.451 4.77737 15.451 4.77737C15.451 4.77737 15.451 4.77737 15.451 4.77737C15.451 4.77737 15.451 4.77737 15.451 4.77737C15.451 4.77737 15.451 4.77737 15.451 4.77737C15.451 4.77737 15.451 4.77737 15.451 4.77737C15.451 4.77737 15.451 4.77737 15.451 4.77737C15.451 4.77737 15.451 4.77737 15.451 4.77737C15.451 4.77737 15.451 4.77737 15.451 4.77736C15.451 4.77736 15.451 4.77736 15.451 4.77736C15.451 4.77736 15.451 4.77736 15.451 4.77736C15.451 4.77736 15.451 4.77736 15.451 4.77736C15.451 4.77736 15.451 4.77736 15.451 4.77736C15.451 4.77736 15.451 4.77736 15.451 4.77736C15.451 4.77736 15.451 4.77736 15.451 4.77736C15.451 4.77736 15.451 4.77736 15.451 4.77736C15.451 4.77736 15.451 4.77736 15.451 4.77736C15.451 4.77736 15.451 4.77736 15.451 4.77736C15.451 4.77736 15.451 4.77736 15.451 4.77736C15.451 4.77736 15.451 4.77736 15.451 4.77736C15.451 4.77736 15.451 4.77736 15.451 4.77736C15.451 4.77736 15.451 4.77736 15.451 4.77736C15.451 4.77736 15.451 4.77736 15.451 4.77736C15.451 4.77736 15.451 4.77736 15.451 4.77736C15.451 4.77736 15.451 4.77736 15.451 4.77736C15.451 4.77736 15.451 4.77736 15.451 4.77736C15.451 4.77736 15.451 4.77736 15.451 4.77736C15.451 4.77736 15.451 4.77736 15.451 4.77736C15.451 4.77736 15.451 4.77736 15.451 4.77736C15.451 4.77736 15.451 4.77736 15.451 4.77736C15.451 4.77736 15.451 4.77736 15.451 4.77736C15.451 4.77736 15.451 4.77736 15.451 4.77736C15.451 4.77736 15.451 4.77736 15.451 4.77735C15.451 4.77735 15.451 4.77735 15.451 4.77735C15.451 4.77735 15.451 4.77735 15.451 4.77735C15.451 4.77735 15.451 4.77735 15.451 4.77735C15.451 4.77735 15.451 4.77735 15.451 4.77735C15.451 4.77735 15.451 4.77735 15.451 4.77735C15.451 4.77735 15.451 4.77735 15.451 4.77735C15.451 4.77735 15.451 4.77735 15.451 4.77735C15.451 4.77735 15.451 4.77735 15.451 4.77735C15.451 4.77735 15.451 4.77735 15.451 4.77735C15.451 4.77735 15.451 4.77735 15.451 4.77735C15.451 4.77735 15.451 4.77735 15.451 4.77735C15.451 4.77735 15.451 4.77735 15.451 4.77735C15.451 4.77735 15.451 4.77735 15.451 4.77735C15.451 4.77735 15.451 4.77735 15.451 4.77735C15.451 4.77735 15.451 4.77735 15.451 4.77735C15.451 4.77735 15.451 4.77735 15.451 4.77735C15.451 4.77735 15.451 4.77735 15.451 4.77735C15.451 4.77735 15.451 4.77735 15.451 4.77735C15.451 4.77735 15.451 4.77735 15.451 4.77735C15.451 4.77735 15.451 4.77735 15.451 4.77735C15.451 4.77735 15.451 4.77735 15.451 4.77735C15.451 4.77735 15.451 4.77735 15.451 4.77735C15.451 4.77735 15.451 4.77735 15.451 4.77735C15.451 4.77735 15.451 4.77734 15.451 4.77734C15.451 4.77734 15.451 4.77734 15.451 4.77734C15.451 4.77734 15.451 4.77734 15.451 4.77734C15.451 4.77734 15.451 4.77734 15.451 4.77734C15.451 4.77734 15.451 4.77734 15.451 4.77734C15.451 4.77734 15.451 4.77734 15.451 4.77734C15.451 4.77734 15.451 4.77734 15.451 4.77734C15.451 4.77734 15.451 4.77734 15.451 4.77734C15.451 4.77734 15.451 4.77734 15.451 4.77734C15.451 4.77734 15.451 4.77734 15.451 4.77734C15.451 4.77734 15.451 4.77734 15.451 4.77734C15.451 4.77734 15.451 4.77734 15.451 4.77734C15.451 4.77734 15.451 4.77734 15.451 4.77734C15.451 4.77734 15.451 4.77734 15.451 4.77734C15.451 4.77734 15.451 4.77734 15.451 4.77734C15.451 4.77734 15.451 4.77734 15.451 4.77734C15.451 4.77734 15.451 4.77734 15.451 4.77734C15.451 4.77734 15.451 4.77734 15.451 4.77734C15.451 4.77734 15.451 4.77734 15.451 4.77734C15.451 4.77734 15.451 4.77734 15.451 4.77734C15.451 4.77734 15.451 4.77734 15.451 4.77734C15.451 4.77734 15.451 4.77734 15.451 4.77734C15.451 4.77734 15.451 4.77734 15.451 4.77734C15.451 4.77734 15.451 4.77734 15.451 4.77734C15.451 4.77734 15.451 4.77733 15.451 4.77733C15.451 4.77733 15.451 4.77733 15.451 4.77733C15.451 4.77733 15.451 4.77733 15.451 4.77733C15.451 4.77733 15.451 4.77733 15.451 4.77733C15.451 4.77733 15.451 4.77733 15.451 4.77733C15.451 4.77733 15.451 4.77733 15.451 4.77733C15.451 4.77733 15.451 4.77733 15.451 4.77733C15.451 4.77733 15.451 4.77733 15.451 4.77733C15.451 4.77733 15.451 4.77733 15.451 4.77733C15.451 4.77733 15.451 4.77733 15.451 4.77733C15.451 4.77733 15.451 4.77733 15.451 4.77733C15.451 4.77733 15.451 4.77733 15.451 4.77733C15.451 4.77733 15.451 4.77733 15.451 4.77733C15.451 4.77733 15.451 4.77733 15.451 4.77733C15.451 4.77733 15.451 4.77733 15.451 4.77733C15.451 4.77733 15.451 4.77733 15.451 4.77733C15.451 4.77733 15.451 4.77733 15.451 4.77733C15.451 4.77733 15.451 4.77733 15.451 4.77733C15.451 4.77733 15.451 4.77733 15.451 4.77733C15.451 4.77733 15.451 4.77733 15.451 4.77733C15.451 4.77733 15.451 4.77733 15.451 4.77733C15.451 4.77733 15.451 4.77733 15.451 4.77733C15.451 4.77733 15.451 4.77733 15.451 4.77733C15.451 4.77733 15.451 4.77733 15.451 4.77733C15.451 4.77733 15.451 4.77732 15.451 4.77732C15.451 4.77732 15.451 4.77732 15.451 4.77732C15.451 4.77732 15.451 4.77732 15.451 4.77732C15.451 4.77732 15.451 4.77732 15.451 4.77732C15.451 4.77732 15.451 4.77732 15.451 4.77732C15.451 4.77732 15.451 4.77732 15.451 4.77732C15.451 4.77732 15.451 4.77732 15.451 4.77732C15.451 4.77732 15.451 4.77732 15.451 4.77732C15.451 4.77732 15.451 4.77732 15.451 4.77732C15.451 4.77732 15.451 4.77732 15.451 4.77732C15.451 4.77732 15.451 4.77732 15.451 4.77732C15.451 4.77732 15.451 4.77732 15.451 4.77732C15.451 4.77732 15.451 4.77732 15.451 4.77732C15.451 4.77732 15.451 4.77732 15.451 4.77732C15.451 4.77732 15.451 4.77732 15.451 4.77732C15.451 4.77732 15.451 4.77732 15.451 4.77732C15.451 4.77732 15.451 4.77732 15.451 4.77732C15.451 4.77732 15.451 4.77732 15.451 4.77732C15.451 4.77732 15.451 4.77732 15.451 4.77732C15.451 4.77732 15.451 4.77732 15.451 4.77732C15.451 4.77732 15.451 4.77732 15.451 4.77732C15.451 4.77732 15.451 4.77732 15.451 4.77732C15.451 4.77732 15.451 4.77732 15.451 4.77732C15.451 4.77732 15.451 4.77732 15.451 4.77732C15.451 4.77732 15.451 4.77731 15.451 4.77731C15.451 4.77731 15.451 4.77731 15.451 4.77731C15.451 4.77731 15.451 4.77731 15.451 4.77731C15.451 4.77731 15.451 4.77731 15.451 4.77731C15.451 4.77731 15.451 4.77731 15.451 4.77731C15.451 4.77731 15.451 4.77731 15.451 4.77731C15.451 4.77731 15.451 4.77731 15.451 4.77731C15.451 4.77731 15.451 4.77731 15.451 4.77731C15.451 4.77731 15.451 4.77731 15.451 4.77731C15.451 4.77731 15.451 4.77731 15.451 4.77731C15.451 4.77731 15.451 4.77731 15.451 4.77731C15.451 4.77731 15.451 4.77731 15.451 4.77731C15.451 4.77731 15.451 4.77731 15.451 4.77731C15.451 4.77731 15.451 4.77731 15.451 4.77731C15.451 4.77731 15.451 4.77731 15.451 4.77731C15.451 4.77731 15.451 4.77731 15.451 4.77731C15.451 4.77731 15.451 4.77731 15.451 4.77731C15.451 4.77731 15.451 4.77731 15.451 4.77731C15.451 4.77731 15.451 4.77731 15.451 4.77731C15.451 4.77731 15.451 4.77731 15.451 4.77731C15.451 4.77731 15.451 4.77731 15.451 4.77731C15.451 4.77731 15.451 4.77731 15.451 4.77731C15.451 4.77731 15.451 4.77731 15.451 4.77731C15.451 4.77731 15.451 4.77731 15.451 4.77731C15.451 4.7773 15.451 4.7773 15.451 4.7773C15.451 4.7773 15.451 4.7773 15.451 4.7773C15.451 4.7773 15.451 4.7773 15.451 4.7773C15.451 4.7773 15.451 4.7773 15.451 4.7773C15.451 4.7773 15.451 4.7773 15.451 4.7773C15.451 4.7773 15.451 4.7773 15.451 4.7773C15.451 4.7773 15.451 4.7773 15.451 4.7773C15.451 4.7773 15.451 4.7773 15.451 4.7773C15.451 4.7773 15.451 4.7773 15.451 4.7773C15.451 4.7773 15.451 4.7773 15.451 4.7773C15.451 4.7773 15.451 4.7773 15.451 4.7773C15.451 4.7773 15.451 4.7773 15.451 4.7773C15.451 4.7773 15.451 4.7773 15.451 4.7773C15.451 4.7773 15.451 4.7773 15.451 4.7773C15.451 4.7773 15.451 4.7773 15.451 4.7773C15.451 4.7773 15.451 4.7773 15.451 4.7773C15.451 4.7773 15.451 4.7773 15.451 4.7773C15.451 4.7773 15.451 4.7773 15.451 4.7773C15.451 4.7773 15.451 4.7773 15.451 4.7773C15.451 4.7773 15.451 4.7773 15.451 4.7773C15.451 4.7773 15.451 4.7773 15.451 4.7773C15.451 4.7773 15.451 4.7773 15.451 4.7773C15.451 4.7773 15.451 4.7773 15.451 4.7773C15.451 4.7773 15.451 4.7773 15.451 4.7773C15.451 4.77729 15.451 4.77729 15.451 4.77729C15.451 4.77729 15.451 4.77729 15.451 4.77729C15.451 4.77729 15.451 4.77729 15.451 4.77729C15.451 4.77729 15.451 4.77729 15.451 4.77729C15.451 4.77729 15.451 4.77729 15.451 4.77729C15.451 4.77729 15.451 4.77729 15.451 4.77729C15.451 4.77729 15.451 4.77729 15.451 4.77729C15.451 4.77729 15.451 4.77729 15.451 4.77729C15.451 4.77729 15.451 4.77729 15.451 4.77729C15.451 4.77729 15.451 4.77729 15.451 4.77729C15.451 4.77729 15.451 4.77729 15.451 4.77729C15.451 4.77729 15.451 4.77729 15.451 4.77729C15.451 4.77729 15.451 4.77729 15.451 4.77729C15.451 4.77729 15.451 4.77729 15.451 4.77729C15.451 4.77729 15.451 4.77729 15.451 4.77729C15.451 4.77729 15.451 4.77729 15.451 4.77729C15.451 4.77729 15.451 4.77729 15.451 4.77729C15.451 4.77729 15.451 4.77729 15.451 4.77729C15.451 4.77729 15.451 4.77729 15.451 4.77729C15.451 4.77729 15.451 4.77729 15.451 4.77729C15.451 4.77729 15.451 4.77729 15.451 4.77729C15.451 4.77729 15.451 4.77729 15.451 4.77729C15.451 4.77729 15.451 4.77729 15.451 4.77729C15.451 4.77729 15.451 4.77729 15.451 4.77729C15.451 4.77728 15.451 4.77728 15.451 4.77728C15.451 4.77728 15.451 4.77728 15.451 4.77728C15.451 4.77728 15.451 4.77728 15.451 4.77728C15.451 4.77728 15.451 4.77728 15.451 4.77728C15.451 4.77728 15.451 4.77728 15.451 4.77728C15.451 4.77728 15.451 4.77728 15.451 4.77728C15.451 4.77728 15.451 4.77728 15.451 4.77728C15.451 4.77728 15.451 4.77728 15.451 4.77728C15.451 4.77728 15.451 4.77728 15.451 4.77728C15.451 4.77728 15.451 4.77728 15.451 4.77728L13.4762 4.46053C13.4762 4.46053 13.4762 4.46053 13.4762 4.46053C13.4762 4.46053 13.4762 4.46053 13.4762 4.46053C13.4762 4.46053 13.4762 4.46053 13.4762 4.46053C13.4762 4.46053 13.4762 4.46053 13.4762 4.46053C13.4762 4.46053 13.4762 4.46053 13.4762 4.46053C13.4762 4.46053 13.4762 4.46053 13.4762 4.46053C13.4762 4.46053 13.4762 4.46053 13.4762 4.46053C13.4762 4.46053 13.4762 4.46053 13.4762 4.46053C13.4762 4.46053 13.4762 4.46053 13.4762 4.46053C13.4762 4.46053 13.4762 4.46053 13.4762 4.46053C13.4762 4.46053 13.4762 4.46053 13.4762 4.46053C13.4762 4.46053 13.4762 4.46053 13.4762 4.46053C13.4762 4.46053 13.4762 4.46053 13.4762 4.46053C13.4762 4.46053 13.4762 4.46053 13.4762 4.46053C13.4762 4.46053 13.4762 4.46053 13.4762 4.46053C13.4762 4.46053 13.4762 4.46053 13.4762 4.46053C13.4762 4.46053 13.4762 4.46053 13.4762 4.46053C13.4762 4.46054 13.4762 4.46054 13.4762 4.46054C13.4762 4.46054 13.4762 4.46054 13.4762 4.46054C13.4762 4.46054 13.4762 4.46054 13.4762 4.46054C13.4762 4.46054 13.4762 4.46054 13.4762 4.46054C13.4762 4.46054 13.4762 4.46054 13.4762 4.46054C13.4762 4.46054 13.4762 4.46054 13.4762 4.46054C13.4762 4.46054 13.4762 4.46054 13.4762 4.46054C13.4762 4.46054 13.4762 4.46054 13.4762 4.46054C13.4762 4.46054 13.4762 4.46054 13.4762 4.46054C13.4762 4.46054 13.4762 4.46054 13.4762 4.46054C13.4762 4.46054 13.4762 4.46054 13.4762 4.46054C13.4762 4.46054 13.4762 4.46054 13.4762 4.46054C13.4762 4.46054 13.4762 4.46054 13.4762 4.46054C13.4762 4.46054 13.4762 4.46054 13.4762 4.46054C13.4762 4.46054 13.4762 4.46054 13.4762 4.46054C13.4762 4.46054 13.4762 4.46054 13.4762 4.46054C13.4762 4.46054 13.4762 4.46054 13.4762 4.46054C13.4762 4.46054 13.4762 4.46054 13.4762 4.46054C13.4762 4.46054 13.4762 4.46054 13.4762 4.46054C13.4762 4.46054 13.4762 4.46054 13.4762 4.46054C13.4762 4.46054 13.4762 4.46054 13.4762 4.46054C13.4762 4.46054 13.4762 4.46054 13.4762 4.46054C13.4762 4.46054 13.4762 4.46054 13.4762 4.46054C13.4762 4.46054 13.4762 4.46054 13.4762 4.46054C13.4762 4.46055 13.4762 4.46055 13.4762 4.46055C13.4762 4.46055 13.4762 4.46055 13.4762 4.46055C13.4762 4.46055 13.4762 4.46055 13.4762 4.46055C13.4762 4.46055 13.4762 4.46055 13.4762 4.46055C13.4762 4.46055 13.4762 4.46055 13.4762 4.46055C13.4762 4.46055 13.4762 4.46055 13.4762 4.46055C13.4762 4.46055 13.4762 4.46055 13.4762 4.46055C13.4762 4.46055 13.4762 4.46055 13.4762 4.46055C13.4762 4.46055 13.4762 4.46055 13.4762 4.46055C13.4762 4.46055 13.4762 4.46055 13.4762 4.46055C13.4762 4.46055 13.4762 4.46055 13.4762 4.46055C13.4762 4.46055 13.4762 4.46055 13.4762 4.46055C13.4762 4.46055 13.4762 4.46055 13.4762 4.46055C13.4762 4.46055 13.4762 4.46055 13.4762 4.46055C13.4762 4.46055 13.4762 4.46055 13.4762 4.46055C13.4762 4.46055 13.4762 4.46055 13.4762 4.46055C13.4762 4.46055 13.4762 4.46055 13.4762 4.46055C13.4762 4.46055 13.4762 4.46055 13.4762 4.46055C13.4762 4.46055 13.4762 4.46055 13.4762 4.46055C13.4762 4.46055 13.4762 4.46055 13.4762 4.46055C13.4762 4.46055 13.4762 4.46055 13.4762 4.46055C13.4762 4.46055 13.4762 4.46055 13.4762 4.46055C13.4762 4.46055 13.4762 4.46055 13.4762 4.46055C13.4762 4.46055 13.4762 4.46055 13.4762 4.46055C13.4762 4.46056 13.4762 4.46056 13.4762 4.46056C13.4762 4.46056 13.4762 4.46056 13.4762 4.46056C13.4762 4.46056 13.4762 4.46056 13.4762 4.46056C13.4762 4.46056 13.4762 4.46056 13.4762 4.46056C13.4762 4.46056 13.4762 4.46056 13.4762 4.46056C13.4762 4.46056 13.4762 4.46056 13.4762 4.46056C13.4762 4.46056 13.4762 4.46056 13.4762 4.46056C13.4762 4.46056 13.4762 4.46056 13.4762 4.46056C13.4762 4.46056 13.4762 4.46056 13.4762 4.46056C13.4762 4.46056 13.4762 4.46056 13.4762 4.46056C13.4762 4.46056 13.4762 4.46056 13.4762 4.46056C13.4762 4.46056 13.4762 4.46056 13.4762 4.46056C13.4762 4.46056 13.4762 4.46056 13.4762 4.46056C13.4762 4.46056 13.4762 4.46056 13.4762 4.46056C13.4762 4.46056 13.4762 4.46056 13.4762 4.46056C13.4762 4.46056 13.4762 4.46056 13.4762 4.46056C13.4762 4.46056 13.4762 4.46056 13.4762 4.46056C13.4762 4.46056 13.4762 4.46056 13.4762 4.46056C13.4762 4.46056 13.4762 4.46056 13.4762 4.46056C13.4762 4.46056 13.4762 4.46056 13.4762 4.46056C13.4762 4.46056 13.4762 4.46056 13.4762 4.46056C13.4762 4.46056 13.4762 4.46056 13.4762 4.46056C13.4762 4.46056 13.4762 4.46056 13.4762 4.46056C13.4762 4.46056 13.4762 4.46056 13.4762 4.46056C13.4762 4.46057 13.4762 4.46057 13.4762 4.46057C13.4762 4.46057 13.4762 4.46057 13.4762 4.46057C13.4762 4.46057 13.4762 4.46057 13.4762 4.46057C13.4762 4.46057 13.4762 4.46057 13.4762 4.46057C13.4762 4.46057 13.4762 4.46057 13.4762 4.46057C13.4762 4.46057 13.4762 4.46057 13.4762 4.46057C13.4762 4.46057 13.4762 4.46057 13.4762 4.46057C13.4762 4.46057 13.4762 4.46057 13.4762 4.46057C13.4762 4.46057 13.4762 4.46057 13.4762 4.46057C13.4762 4.46057 13.4762 4.46057 13.4762 4.46057C13.4762 4.46057 13.4762 4.46057 13.4762 4.46057C13.4762 4.46057 13.4762 4.46057 13.4762 4.46057C13.4762 4.46057 13.4762 4.46057 13.4762 4.46057C13.4762 4.46057 13.4762 4.46057 13.4762 4.46057C13.4762 4.46057 13.4762 4.46057 13.4762 4.46057C13.4762 4.46057 13.4762 4.46057 13.4762 4.46057C13.4762 4.46057 13.4762 4.46057 13.4762 4.46057C13.4762 4.46057 13.4762 4.46057 13.4762 4.46057C13.4762 4.46057 13.4762 4.46057 13.4762 4.46057C13.4762 4.46057 13.4762 4.46057 13.4762 4.46057C13.4762 4.46057 13.4762 4.46057 13.4762 4.46057C13.4762 4.46057 13.4762 4.46057 13.4762 4.46057C13.4762 4.46057 13.4762 4.46057 13.4762 4.46057C13.4762 4.46057 13.4762 4.46057 13.4762 4.46058C13.4762 4.46058 13.4762 4.46058 13.4762 4.46058C13.4762 4.46058 13.4762 4.46058 13.4762 4.46058C13.4762 4.46058 13.4762 4.46058 13.4762 4.46058C13.4762 4.46058 13.4762 4.46058 13.4762 4.46058C13.4762 4.46058 13.4762 4.46058 13.4762 4.46058C13.4762 4.46058 13.4762 4.46058 13.4762 4.46058C13.4762 4.46058 13.4762 4.46058 13.4762 4.46058C13.4762 4.46058 13.4762 4.46058 13.4762 4.46058C13.4762 4.46058 13.4762 4.46058 13.4762 4.46058C13.4762 4.46058 13.4762 4.46058 13.4762 4.46058C13.4762 4.46058 13.4762 4.46058 13.4762 4.46058C13.4762 4.46058 13.4762 4.46058 13.4762 4.46058C13.4762 4.46058 13.4762 4.46058 13.4762 4.46058C13.4762 4.46058 13.4762 4.46058 13.4762 4.46058C13.4762 4.46058 13.4762 4.46058 13.4762 4.46058C13.4762 4.46058 13.4762 4.46058 13.4762 4.46058C13.4762 4.46058 13.4762 4.46058 13.4762 4.46058C13.4762 4.46058 13.4762 4.46058 13.4762 4.46058C13.4762 4.46058 13.4762 4.46058 13.4762 4.46058C13.4762 4.46058 13.4762 4.46058 13.4762 4.46058C13.4762 4.46058 13.4762 4.46058 13.4762 4.46058C13.4762 4.46058 13.4762 4.46058 13.4762 4.46058C13.4762 4.46058 13.4762 4.46058 13.4762 4.46058C13.4762 4.46058 13.4762 4.46058 13.4762 4.46059C13.4762 4.46059 13.4762 4.46059 13.4762 4.46059C13.4762 4.46059 13.4762 4.46059 13.4762 4.46059C13.4762 4.46059 13.4762 4.46059 13.4762 4.46059C13.4762 4.46059 13.4762 4.46059 13.4762 4.46059C13.4762 4.46059 13.4762 4.46059 13.4762 4.46059C13.4762 4.46059 13.4762 4.46059 13.4762 4.46059C13.4762 4.46059 13.4762 4.46059 13.4762 4.46059C13.4762 4.46059 13.4762 4.46059 13.4762 4.46059C13.4762 4.46059 13.4762 4.46059 13.4762 4.46059C13.4762 4.46059 13.4762 4.46059 13.4762 4.46059C13.4762 4.46059 13.4762 4.46059 13.4762 4.46059C13.4762 4.46059 13.4762 4.46059 13.4762 4.46059C13.4762 4.46059 13.4762 4.46059 13.4762 4.46059C13.4762 4.46059 13.4762 4.46059 13.4762 4.46059C13.4762 4.46059 13.4762 4.46059 13.4762 4.46059C13.4762 4.46059 13.4762 4.46059 13.4762 4.46059C13.4762 4.46059 13.4762 4.46059 13.4762 4.46059C13.4762 4.46059 13.4762 4.46059 13.4762 4.46059C13.4762 4.46059 13.4762 4.46059 13.4762 4.46059C13.4762 4.46059 13.4762 4.46059 13.4762 4.46059C13.4762 4.46059 13.4762 4.46059 13.4762 4.46059C13.4762 4.46059 13.4762 4.46059 13.4762 4.46059C13.4762 4.46059 13.4762 4.46059 13.4762 4.46059C13.4762 4.46059 13.4762 4.46059 13.4762 4.4606C13.4762 4.4606 13.4762 4.4606 13.4762 4.4606C13.4762 4.4606 13.4762 4.4606 13.4762 4.4606C13.4762 4.4606 13.4762 4.4606 13.4762 4.4606C13.4762 4.4606 13.4762 4.4606 13.4762 4.4606C13.4762 4.4606 13.4762 4.4606 13.4762 4.4606C13.4762 4.4606 13.4762 4.4606 13.4762 4.4606C13.4762 4.4606 13.4762 4.4606 13.4762 4.4606C13.4762 4.4606 13.4762 4.4606 13.4762 4.4606C13.4762 4.4606 13.4762 4.4606 13.4762 4.4606C13.4762 4.4606 13.4762 4.4606 13.4762 4.4606C13.4762 4.4606 13.4762 4.4606 13.4762 4.4606C13.4762 4.4606 13.4762 4.4606 13.4762 4.4606C13.4762 4.4606 13.4762 4.4606 13.4762 4.4606C13.4762 4.4606 13.4762 4.4606 13.4762 4.4606C13.4762 4.4606 13.4762 4.4606 13.4762 4.4606C13.4762 4.4606 13.4762 4.4606 13.4762 4.4606C13.4762 4.4606 13.4762 4.4606 13.4762 4.4606C13.4762 4.4606 13.4762 4.4606 13.4762 4.4606C13.4762 4.4606 13.4762 4.4606 13.4762 4.4606C13.4762 4.4606 13.4762 4.4606 13.4762 4.4606C13.4762 4.4606 13.4762 4.4606 13.4762 4.4606C13.4762 4.4606 13.4762 4.4606 13.4762 4.4606C13.4762 4.4606 13.4762 4.4606 13.4762 4.4606C13.4762 4.4606 13.4762 4.4606 13.4762 4.46061C13.4762 4.46061 13.4762 4.46061 13.4762 4.46061C13.4762 4.46061 13.4762 4.46061 13.4762 4.46061C13.4762 4.46061 13.4762 4.46061 13.4762 4.46061C13.4762 4.46061 13.4762 4.46061 13.4762 4.46061C13.4762 4.46061 13.4762 4.46061 13.4762 4.46061C13.4762 4.46061 13.4762 4.46061 13.4762 4.46061C13.4762 4.46061 13.4762 4.46061 13.4762 4.46061C13.4762 4.46061 13.4762 4.46061 13.4762 4.46061C13.4762 4.46061 13.4762 4.46061 13.4762 4.46061C13.4762 4.46061 13.4762 4.46061 13.4762 4.46061C13.4762 4.46061 13.4762 4.46061 13.4762 4.46061C13.4762 4.46061 13.4762 4.46061 13.4762 4.46061C13.4762 4.46061 13.4762 4.46061 13.4762 4.46061C13.4762 4.46061 13.4762 4.46061 13.4762 4.46061C13.4762 4.46061 13.4762 4.46061 13.4762 4.46061C13.4762 4.46061 13.4762 4.46061 13.4762 4.46061C13.4762 4.46061 13.4762 4.46061 13.4762 4.46061C13.4762 4.46061 13.4762 4.46061 13.4762 4.46061C13.4762 4.46061 13.4762 4.46061 13.4762 4.46061C13.4762 4.46061 13.4762 4.46061 13.4762 4.46061C13.4762 4.46061 13.4762 4.46061 13.4762 4.46061C13.4762 4.46061 13.4762 4.46061 13.4762 4.46061C13.4762 4.46061 13.4762 4.46061 13.4762 4.46061C13.4762 4.46061 13.4762 4.46062 13.4762 4.46062C13.4762 4.46062 13.4762 4.46062 13.4762 4.46062C13.4762 4.46062 13.4762 4.46062 13.4762 4.46062C13.4762 4.46062 13.4762 4.46062 13.4762 4.46062C13.4762 4.46062 13.4762 4.46062 13.4762 4.46062C13.4762 4.46062 13.4762 4.46062 13.4762 4.46062C13.4762 4.46062 13.4762 4.46062 13.4762 4.46062C13.4762 4.46062 13.4762 4.46062 13.4762 4.46062C13.4762 4.46062 13.4762 4.46062 13.4762 4.46062C13.4762 4.46062 13.4762 4.46062 13.4762 4.46062C13.4762 4.46062 13.4762 4.46062 13.4762 4.46062C13.4762 4.46062 13.4762 4.46062 13.4762 4.46062C13.4762 4.46062 13.4762 4.46062 13.4762 4.46062C13.4762 4.46062 13.4762 4.46062 13.4762 4.46062C13.4762 4.46062 13.4762 4.46062 13.4762 4.46062C13.4762 4.46062 13.4762 4.46062 13.4762 4.46062C13.4762 4.46062 13.4762 4.46062 13.4762 4.46062C13.4762 4.46062 13.4762 4.46062 13.4762 4.46062C13.4762 4.46062 13.4762 4.46062 13.4762 4.46062C13.4762 4.46062 13.4762 4.46062 13.4762 4.46062C13.4762 4.46062 13.4762 4.46062 13.4762 4.46062C13.4762 4.46062 13.4762 4.46062 13.4762 4.46062C13.4762 4.46062 13.4762 4.46062 13.4762 4.46062C13.4762 4.46062 13.4762 4.46062 13.4762 4.46062C13.4762 4.46062 13.4762 4.46063 13.4762 4.46063C13.4762 4.46063 13.4762 4.46063 13.4762 4.46063C13.4762 4.46063 13.4762 4.46063 13.4762 4.46063C13.4762 4.46063 13.4762 4.46063 13.4762 4.46063C13.4762 4.46063 13.4762 4.46063 13.4762 4.46063C13.4762 4.46063 13.4762 4.46063 13.4762 4.46063C13.4762 4.46063 13.4762 4.46063 13.4762 4.46063C13.4762 4.46063 13.4762 4.46063 13.4762 4.46063C13.4762 4.46063 13.4762 4.46063 13.4762 4.46063C13.4762 4.46063 13.4762 4.46063 13.4762 4.46063C13.4762 4.46063 13.4762 4.46063 13.4762 4.46063C13.4762 4.46063 13.4762 4.46063 13.4762 4.46063C13.4762 4.46063 13.4762 4.46063 13.4762 4.46063C13.4762 4.46063 13.4762 4.46063 13.4762 4.46063C13.4762 4.46063 13.4762 4.46063 13.4762 4.46063C13.4762 4.46063 13.4762 4.46063 13.4762 4.46063C13.4762 4.46063 13.4762 4.46063 13.4762 4.46063C13.4762 4.46063 13.4762 4.46063 13.4762 4.46063C13.4762 4.46063 13.4762 4.46063 13.4762 4.46063C13.4762 4.46063 13.4762 4.46063 13.4762 4.46063C13.4762 4.46063 13.4762 4.46063 13.4762 4.46063C13.4762 4.46063 13.4762 4.46063 13.4762 4.46063C13.4762 4.46063 13.4762 4.46063 13.4762 4.46063C13.4762 4.46063 13.4762 4.46063 13.4762 4.46063C13.4762 4.46063 13.4762 4.46064 13.4762 4.46064C13.4762 4.46064 13.4762 4.46064 13.4762 4.46064C13.4762 4.46064 13.4762 4.46064 13.4762 4.46064C13.4762 4.46064 13.4762 4.46064 13.4762 4.46064C13.4762 4.46064 13.4762 4.46064 13.4762 4.46064C13.4762 4.46064 13.4762 4.46064 13.4762 4.46064C13.4762 4.46064 13.4762 4.46064 13.4762 4.46064C13.4762 4.46064 13.4762 4.46064 13.4762 4.46064C13.4762 4.46064 13.4762 4.46064 13.4762 4.46064C13.4762 4.46064 13.4762 4.46064 13.4762 4.46064C13.4762 4.46064 13.4762 4.46064 13.4762 4.46064C13.4762 4.46064 13.4762 4.46064 13.4762 4.46064C13.4762 4.46064 13.4762 4.46064 13.4762 4.46064C13.4762 4.46064 13.4762 4.46064 13.4762 4.46064C13.4762 4.46064 13.4762 4.46064 13.4762 4.46064C13.4762 4.46064 13.4762 4.46064 13.4762 4.46064C13.4762 4.46064 13.4762 4.46064 13.4762 4.46064C13.4762 4.46064 13.4762 4.46064 13.4762 4.46064C13.4762 4.46064 13.4762 4.46064 13.4762 4.46064C13.4762 4.46064 13.4762 4.46064 13.4762 4.46064C13.4762 4.46064 13.4762 4.46064 13.4762 4.46064C13.4762 4.46064 13.4762 4.46064 13.4762 4.46064C13.4762 4.46064 13.4762 4.46064 13.4762 4.46064C13.4762 4.46064 13.4762 4.46064 13.4762 4.46064C13.4762 4.46064 13.4762 4.46065 13.4762 4.46065C13.4762 4.46065 13.4762 4.46065 13.4762 4.46065C13.4762 4.46065 13.4762 4.46065 13.4762 4.46065C13.4762 4.46065 13.4762 4.46065 13.4762 4.46065C13.4762 4.46065 13.4762 4.46065 13.4762 4.46065C13.4762 4.46065 13.4762 4.46065 13.4762 4.46065C13.4762 4.46065 13.4762 4.46065 13.4762 4.46065C13.4762 4.46065 13.4762 4.46065 13.4762 4.46065C13.4762 4.46065 13.4762 4.46065 13.4762 4.46065C13.4762 4.46065 13.4762 4.46065 13.4762 4.46065C13.4762 4.46065 13.4762 4.46065 13.4762 4.46065C13.4762 4.46065 13.4762 4.46065 13.4762 4.46065C13.4762 4.46065 13.4762 4.46065 13.4762 4.46065C13.4762 4.46065 13.4762 4.46065 13.4762 4.46065C13.4762 4.46065 13.4762 4.46065 13.4762 4.46065C13.4762 4.46065 13.4762 4.46065 13.4762 4.46065C13.4762 4.46065 13.4762 4.46065 13.4762 4.46065C13.4762 4.46065 13.4762 4.46065 13.4762 4.46065C13.4762 4.46065 13.4762 4.46065 13.4762 4.46065C13.4762 4.46065 13.4762 4.46065 13.4762 4.46065C13.4762 4.46065 13.4762 4.46065 13.4762 4.46065C13.4762 4.46065 13.4762 4.46065 13.4762 4.46065C13.4762 4.46065 13.4762 4.46065 13.4762 4.46065C13.4762 4.46065 13.4762 4.46065 13.4762 4.46065C13.4762 4.46066 13.4762 4.46066 13.4762 4.46066C13.4762 4.46066 13.4762 4.46066 13.4762 4.46066C13.4762 4.46066 13.4762 4.46066 13.4762 4.46066C13.4762 4.46066 13.4762 4.46066 13.4762 4.46066C13.4762 4.46066 13.4762 4.46066 13.4762 4.46066C13.4762 4.46066 13.4762 4.46066 13.4762 4.46066C13.4762 4.46066 13.4762 4.46066 13.4762 4.46066C13.4762 4.46066 13.4762 4.46066 13.4762 4.46066C13.4762 4.46066 13.4762 4.46066 13.4762 4.46066C13.4762 4.46066 13.4762 4.46066 13.4762 4.46066C13.4762 4.46066 13.4762 4.46066 13.4762 4.46066C13.4762 4.46066 13.4762 4.46066 13.4762 4.46066C13.4762 4.46066 13.4762 4.46066 13.4762 4.46066C13.4762 4.46066 13.4762 4.46066 13.4762 4.46066C13.4762 4.46066 13.4762 4.46066 13.4762 4.46066C13.4762 4.46066 13.4762 4.46066 13.4762 4.46066C13.4762 4.46066 13.4762 4.46066 13.4762 4.46066C13.4762 4.46066 13.4762 4.46066 13.4762 4.46066C13.4762 4.46066 13.4762 4.46066 13.4762 4.46066C13.4762 4.46066 13.4762 4.46066 13.4762 4.46066C13.4762 4.46066 13.4762 4.46066 13.4762 4.46066C13.4762 4.46066 13.4762 4.46066 13.4762 4.46066C13.4762 4.46066 13.4762 4.46066 13.4762 4.46066C13.4762 4.46066 13.4762 4.46066 13.4762 4.46066C13.4762 4.46067 13.4762 4.46067 13.4762 4.46067C13.4762 4.46067 13.4762 4.46067 13.4762 4.46067C13.4762 4.46067 13.4762 4.46067 13.4762 4.46067C13.4762 4.46067 13.4762 4.46067 13.4762 4.46067C13.4762 4.46067 13.4762 4.46067 13.4762 4.46067C13.4762 4.46067 13.4762 4.46067 13.4762 4.46067C13.4762 4.46067 13.4762 4.46067 13.4762 4.46067C13.4762 4.46067 13.4762 4.46067 13.4762 4.46067C13.4762 4.46067 13.4762 4.46067 13.4762 4.46067C13.4762 4.46067 13.4762 4.46067 13.4762 4.46067C13.4762 4.46067 13.4762 4.46067 13.4762 4.46067C13.4762 4.46067 13.4762 4.46067 13.4762 4.46067C13.4762 4.46067 13.4762 4.46067 13.4762 4.46067C13.4762 4.46067 13.4762 4.46067 13.4762 4.46067C13.4762 4.46067 13.4762 4.46067 13.4762 4.46067C13.4762 4.46067 13.4762 4.46067 13.4762 4.46067C13.4762 4.46067 13.4762 4.46067 13.4762 4.46067C13.4762 4.46067 13.4762 4.46067 13.4762 4.46067C13.4762 4.46067 13.4762 4.46067 13.4762 4.46067C13.4762 4.46067 13.4762 4.46067 13.4762 4.46067C13.4762 4.46067 13.4762 4.46067 13.4762 4.46067C13.4762 4.46067 13.4762 4.46067 13.4762 4.46067C13.4762 4.46067 13.4762 4.46067 13.4762 4.46067C13.4762 4.46067 13.4762 4.46067 13.4762 4.46067C13.4762 4.46068 13.4762 4.46068 13.4762 4.46068C13.4762 4.46068 13.4762 4.46068 13.4762 4.46068C13.4762 4.46068 13.4762 4.46068 13.4762 4.46068C13.4762 4.46068 13.4762 4.46068 13.4762 4.46068C13.4762 4.46068 13.4762 4.46068 13.4762 4.46068C13.4762 4.46068 13.4762 4.46068 13.4762 4.46068C13.4762 4.46068 13.4762 4.46068 13.4762 4.46068C13.4762 4.46068 13.4762 4.46068 13.4762 4.46068C13.4762 4.46068 13.4762 4.46068 13.4762 4.46068C13.4762 4.46068 13.4762 4.46068 13.4762 4.46068C13.4762 4.46068 13.4762 4.46068 13.4762 4.46068C13.4762 4.46068 13.4762 4.46068 13.4762 4.46068C13.4762 4.46068 13.4762 4.46068 13.4762 4.46068C13.4762 4.46068 13.4762 4.46068 13.4762 4.46068C13.4762 4.46068 13.4762 4.46068 13.4762 4.46068C13.4762 4.46068 13.4762 4.46068 13.4762 4.46068C13.4762 4.46068 13.4762 4.46068 13.4762 4.46068C13.4762 4.46068 13.4762 4.46068 13.4762 4.46068C13.4762 4.46068 13.4762 4.46068 13.4762 4.46068C13.4762 4.46068 13.4762 4.46068 13.4762 4.46068C13.4762 4.46068 13.4762 4.46068 13.4762 4.46068C13.4762 4.46068 13.4762 4.46068 13.4762 4.46068C13.4762 4.46068 13.4762 4.46068 13.4762 4.46068C13.4762 4.46068 13.4762 4.46068 13.4762 4.46068C13.4762 4.46069 13.4762 4.46069 13.4762 4.46069C13.4762 4.46069 13.4762 4.46069 13.4762 4.46069C13.4762 4.46069 13.4762 4.46069 13.4762 4.46069C13.4762 4.46069 13.4762 4.46069 13.4762 4.46069C13.4762 4.46069 13.4762 4.46069 13.4762 4.46069C13.4762 4.46069 13.4762 4.46069 13.4762 4.46069C13.4762 4.46069 13.4762 4.46069 13.4762 4.46069C13.4762 4.46069 13.4762 4.46069 13.4762 4.46069C13.4762 4.46069 13.4762 4.46069 13.4762 4.46069C13.4762 4.46069 13.4762 4.46069 13.4762 4.46069C13.4762 4.46069 13.4762 4.46069 13.4762 4.46069C13.4762 4.46069 13.4762 4.46069 13.4762 4.46069C13.4762 4.46069 13.4762 4.46069 13.4762 4.46069C13.4762 4.46069 13.4762 4.46069 13.4762 4.46069C13.4762 4.46069 13.4762 4.46069 13.4762 4.46069C13.4762 4.46069 13.4762 4.46069 13.4762 4.46069C13.4762 4.46069 13.4762 4.46069 13.4762 4.46069C13.4762 4.46069 13.4762 4.46069 13.4762 4.46069C13.4762 4.46069 13.4762 4.46069 13.4762 4.46069C13.4762 4.46069 13.4762 4.46069 13.4762 4.46069C13.4762 4.46069 13.4762 4.46069 13.4762 4.46069C13.4762 4.46069 13.4762 4.46069 13.4762 4.46069C13.4762 4.46069 13.4762 4.46069 13.4762 4.46069C13.4762 4.46069 13.4762 4.46069 13.4762 4.46069C13.4762 4.4607 13.4762 4.4607 13.4762 4.4607C13.4762 4.4607 13.4762 4.4607 13.4762 4.4607C13.4762 4.4607 13.4762 4.4607 13.4762 4.4607C13.4762 4.4607 13.4762 4.4607 13.4762 4.4607C13.4762 4.4607 13.4762 4.4607 13.4762 4.4607C13.4762 4.4607 13.4762 4.4607 13.4762 4.4607C13.4762 4.4607 13.4762 4.4607 13.4762 4.4607C13.4762 4.4607 13.4762 4.4607 13.4762 4.4607C13.4762 4.4607 13.4762 4.4607 13.4762 4.4607C13.4762 4.4607 13.4762 4.4607 13.4762 4.4607C13.4762 4.4607 13.4762 4.4607 13.4762 4.4607C13.4762 4.4607 13.4762 4.4607 13.4762 4.4607C13.4762 4.4607 13.4762 4.4607 13.4762 4.4607C13.4762 4.4607 13.4762 4.4607 13.4762 4.4607C13.4762 4.4607 13.4762 4.4607 13.4762 4.4607C13.4762 4.4607 13.4762 4.4607 13.4762 4.4607C13.4762 4.4607 13.4762 4.4607 13.4762 4.4607C13.4762 4.4607 13.4762 4.4607 13.4762 4.4607C13.4762 4.4607 13.4762 4.4607 13.4762 4.4607C13.4762 4.4607 13.4762 4.4607 13.4762 4.4607C13.4762 4.4607 13.4762 4.4607 13.4762 4.4607C13.4762 4.4607 13.4762 4.4607 13.4762 4.4607C13.4762 4.4607 13.4762 4.4607 13.4762 4.4607C13.4762 4.4607 13.4762 4.4607 13.4762 4.46071C13.4762 4.46071 13.4762 4.46071 13.4762 4.46071C13.4762 4.46071 13.4762 4.46071 13.4762 4.46071C13.4762 4.46071 13.4762 4.46071 13.4762 4.46071C13.4762 4.46071 13.4762 4.46071 13.4762 4.46071C13.4762 4.46071 13.4762 4.46071 13.4762 4.46071C13.4762 4.46071 13.4762 4.46071 13.4762 4.46071C13.4762 4.46071 13.4762 4.46071 13.4762 4.46071C13.4762 4.46071 13.4762 4.46071 13.4762 4.46071C13.4762 4.46071 13.4762 4.46071 13.4762 4.46071C13.4762 4.46071 13.4762 4.46071 13.4762 4.46071C13.4762 4.46071 13.4762 4.46071 13.4762 4.46071C13.4762 4.46071 13.4762 4.46071 13.4762 4.46071C13.4762 4.46071 13.4762 4.46071 13.4762 4.46071C13.4762 4.46071 13.4762 4.46071 13.4762 4.46071C13.4762 4.46071 13.4762 4.46071 13.4762 4.46071C13.4762 4.46071 13.4762 4.46071 13.4762 4.46071C13.4762 4.46071 13.4762 4.46071 13.4762 4.46071C13.4762 4.46071 13.4762 4.46071 13.4762 4.46071C13.4762 4.46071 13.4762 4.46071 13.4762 4.46071C13.4762 4.46071 13.4762 4.46071 13.4762 4.46071C13.4762 4.46071 13.4762 4.46071 13.4762 4.46071C13.4762 4.46071 13.4762 4.46071 13.4762 4.46071C13.4762 4.46071 13.4762 4.46071 13.4762 4.46071C13.4762 4.46071 13.4762 4.46071 13.4762 4.46072C13.4762 4.46072 13.4762 4.46072 13.4762 4.46072C13.4762 4.46072 13.4762 4.46072 13.4762 4.46072C13.4762 4.46072 13.4762 4.46072 13.4762 4.46072C13.4762 4.46072 13.4762 4.46072 13.4762 4.46072C13.4762 4.46072 13.4762 4.46072 13.4762 4.46072C13.4762 4.46072 13.4762 4.46072 13.4762 4.46072C13.4762 4.46072 13.4762 4.46072 13.4762 4.46072C13.4762 4.46072 13.4762 4.46072 13.4762 4.46072C13.4762 4.46072 13.4762 4.46072 13.4762 4.46072C13.4762 4.46072 13.4762 4.46072 13.4762 4.46072C13.4762 4.46072 13.4762 4.46072 13.4762 4.46072C13.4762 4.46072 13.4762 4.46072 13.4762 4.46072C13.4762 4.46072 13.4762 4.46072 13.4762 4.46072C13.4762 4.46072 13.4762 4.46072 13.4762 4.46072C13.4762 4.46072 13.4762 4.46072 13.4762 4.46072C13.4762 4.46072 13.4762 4.46072 13.4762 4.46072C13.4762 4.46072 13.4762 4.46072 13.4762 4.46072C13.4762 4.46072 13.4762 4.46072 13.4762 4.46072C13.4762 4.46072 13.4762 4.46072 13.4762 4.46072C13.4762 4.46072 13.4762 4.46072 13.4762 4.46072C13.4762 4.46072 13.4762 4.46072 13.4762 4.46072C13.4762 4.46072 13.4762 4.46072 13.4762 4.46072C13.4762 4.46072 13.4762 4.46072 13.4762 4.46072C13.4762 4.46072 13.4762 4.46072 13.4762 4.46073C13.4762 4.46073 13.4762 4.46073 13.4762 4.46073C13.4762 4.46073 13.4762 4.46073 13.4762 4.46073C13.4762 4.46073 13.4762 4.46073 13.4762 4.46073C13.4762 4.46073 13.4762 4.46073 13.4762 4.46073C13.4762 4.46073 13.4762 4.46073 13.4762 4.46073C13.4762 4.46073 13.4762 4.46073 13.4762 4.46073C13.4762 4.46073 13.4762 4.46073 13.4762 4.46073C13.4762 4.46073 13.4762 4.46073 13.4762 4.46073C13.4762 4.46073 13.4762 4.46073 13.4762 4.46073C13.4762 4.46073 13.4762 4.46073 13.4762 4.46073C13.4762 4.46073 13.4762 4.46073 13.4762 4.46073C13.4762 4.46073 13.4762 4.46073 13.4762 4.46073C13.4762 4.46073 13.4762 4.46073 13.4762 4.46073C13.4762 4.46073 13.4762 4.46073 13.4762 4.46073C13.4762 4.46073 13.4762 4.46073 13.4762 4.46073C13.4762 4.46073 13.4762 4.46073 13.4762 4.46073C13.4762 4.46073 13.4762 4.46073 13.4762 4.46073C13.4762 4.46073 13.4762 4.46073 13.4762 4.46073C13.4762 4.46073 13.4762 4.46073 13.4762 4.46073C13.4762 4.46073 13.4762 4.46073 13.4762 4.46073C13.4762 4.46073 13.4762 4.46073 13.4762 4.46073C13.4762 4.46073 13.4762 4.46073 13.4762 4.46073C13.4762 4.46073 13.4762 4.46073 13.4762 4.46073C13.4762 4.46073 13.4762 4.46073 13.4762 4.46074C13.4762 4.46074 13.4762 4.46074 13.4762 4.46074C13.4762 4.46074 13.4762 4.46074 13.4762 4.46074C13.4762 4.46074 13.4762 4.46074 13.4762 4.46074C13.4762 4.46074 13.4762 4.46074 13.4762 4.46074C13.4762 4.46074 13.4762 4.46074 13.4762 4.46074C13.4762 4.46074 13.4762 4.46074 13.4762 4.46074C13.4762 4.46074 13.4762 4.46074 13.4762 4.46074C13.4762 4.46074 13.4762 4.46074 13.4762 4.46074C13.4762 4.46074 13.4762 4.46074 13.4762 4.46074C13.4762 4.46074 13.4762 4.46074 13.4762 4.46074C13.4762 4.46074 13.4762 4.46074 13.4762 4.46074C13.4762 4.46074 13.4762 4.46074 13.4762 4.46074C13.4762 4.46074 13.4762 4.46074 13.4762 4.46074C13.4762 4.46074 13.4762 4.46074 13.4762 4.46074C13.4762 4.46074 13.4762 4.46074 13.4762 4.46074C13.4762 4.46074 13.4762 4.46074 13.4762 4.46074L15.451 4.77749ZM16.0185 4.55986C15.7049 4.21214 15.3297 3.94106 14.9226 3.73071L14.0045 5.50753C14.2346 5.62643 14.4064 5.75871 14.5333 5.89933L16.0185 4.55986ZM16.8504 8.75538C17.153 7.24009 17.0505 5.70567 16.0189 4.56035L14.5328 5.89884C14.9541 6.36657 15.1358 7.1286 14.8891 8.36371L16.8504 8.75538ZM10.0853 13.9883C11.6422 13.9883 13.1488 13.6819 14.3785 12.83C15.6322 11.9616 16.48 10.6083 16.8504 8.75558L14.8892 8.36351C14.6017 9.80173 13.9949 10.6628 13.2396 11.186C12.4604 11.7257 11.4037 11.9883 10.0853 11.9883V13.9883ZM9.64114 13.9883H10.0853V11.9883H9.64114V13.9883ZM9.92311 13.7355C9.89642 13.8999 9.76176 13.9883 9.64114 13.9883V11.9883C8.81795 11.9883 8.08529 12.5751 7.94895 13.415L9.92311 13.7355ZM9.88263 13.9517L9.91867 13.7608L7.9534 13.3897L7.91736 13.5806L9.88263 13.9517ZM9.32771 17.3796L9.88713 13.926L7.91286 13.6062L7.35345 17.0598L9.32771 17.3796ZM9.29291 17.5597L9.32184 17.4124L7.35932 17.027L7.33038 17.1744L9.29291 17.5597ZM7.60654 18.954C8.42973 18.954 9.16238 18.3672 9.29872 17.5273L7.32456 17.2068C7.35126 17.0424 7.48592 16.954 7.60654 16.954V18.954ZM4.63842 18.954H7.60654V16.954H4.63842V18.954ZM3.22849 17.3111C3.0838 18.202 3.78938 18.954 4.63842 18.954V16.954C4.96154 16.954 5.26507 17.2472 5.20263 17.6317L3.22849 17.3111ZM4.32846 10.5181L3.22842 17.3116L5.2027 17.6312L6.30274 10.8378L4.32846 10.5181ZM4.33893 10.4596C4.33511 10.4791 4.3316 10.4987 4.32842 10.5184L6.30278 10.8376C6.30241 10.8398 6.30201 10.8421 6.30156 10.8444L4.33893 10.4596ZM4.35609 10.3487L4.33284 10.4938L6.30765 10.8102L6.3309 10.6651L4.35609 10.3487ZM5.30664 4.47787L4.35635 10.3471L6.33064 10.6667L7.28092 4.79753L5.30664 4.47787ZM6.26782 3.21231C5.77824 3.4408 5.39982 3.90011 5.30654 4.47847L7.28102 4.79692C7.26287 4.90946 7.19004 4.989 7.11367 5.02464L6.26782 3.21231ZM6.99888 3.05023C6.741 3.05023 6.49091 3.10718 6.26451 3.21386L7.11698 5.02308C7.07739 5.04174 7.03645 5.05023 6.99888 5.05023V3.05023ZM11.4696 3.05023H6.99888V5.05023H11.4696V3.05023ZM13.1005 3.16726C12.5872 3.08636 12.0405 3.05023 11.4696 3.05023V5.05023C11.9586 5.05023 12.3988 5.08135 12.7891 5.14287L13.1005 3.16726ZM13.5318 3.24715C13.3904 3.21675 13.2461 3.19016 13.1001 3.1672L12.7894 5.14293C12.9013 5.16052 13.0088 5.18042 13.1111 5.20242L13.5318 3.24715Z" fill="white" mask="url(#path-3-inside-2_988_353)"/>
</svg>
