<svg width="16" height="18" viewBox="0 0 16 18" fill="none" xmlns="http://www.w3.org/2000/svg">
<mask id="path-1-inside-1_1748_36821" fill="white">
<path fill-rule="evenodd" clip-rule="evenodd" d="M1.00131 15.9706L5.56226 16.0067L6.5335 10.0069H7.79372C11.0806 10.0069 13.6543 8.7064 14.4061 4.94425C14.4285 4.83299 14.4478 4.7247 14.4645 4.61887C14.4785 4.53194 14.4907 4.44673 14.5012 4.36319C14.514 4.26058 14.5242 4.16046 14.5316 4.06267C14.5424 3.92159 14.5474 3.78535 14.5467 3.65349C14.5415 2.76042 14.27 2.06763 13.6909 1.42491C13.6884 1.42214 13.6859 1.41938 13.6834 1.41663C12.8949 0.548757 11.5234 0.139671 9.76986 0.0836298C9.62899 0.0791279 9.48566 0.0769043 9.33997 0.0769043H3.63672H3.63621C3.28486 0.0769043 2.97938 0.294978 2.86633 0.608223C2.85018 0.652972 2.83796 0.699664 2.83009 0.747939L2.80237 0.919207L0.455384 15.4187C0.451131 15.4448 0.449128 15.4707 0.449222 15.4962C0.449962 15.7534 0.665108 15.9706 0.939157 15.9706H1.00131Z"/>
</mask>
<path d="M1.00131 15.9706L1.00922 14.9706H1.00131V15.9706ZM5.56226 16.0067L5.55434 17.0067L6.4123 17.0134L6.54941 16.1665L5.56226 16.0067ZM6.5335 10.0069V9.00693H5.68237L5.54635 9.84713L6.5335 10.0069ZM14.4061 4.94425L13.4257 4.74743L13.4255 4.7483L14.4061 4.94425ZM14.4645 4.61887L13.4772 4.45999L13.4768 4.46248L14.4645 4.61887ZM14.5012 4.36319L13.5089 4.23898V4.23898L14.5012 4.36319ZM14.5316 4.06267L13.5345 3.98686V3.98687L14.5316 4.06267ZM14.5467 3.65349L13.5467 3.65925V3.65925L14.5467 3.65349ZM13.6909 1.42491L14.4338 0.755541L14.4338 0.755469L13.6909 1.42491ZM13.6834 1.41663L14.4236 0.744256L14.4236 0.744199L13.6834 1.41663ZM9.76986 0.0836298L9.73792 1.08312L9.76986 0.0836298ZM2.86633 0.608223L1.92571 0.268753L1.92571 0.268754L2.86633 0.608223ZM2.83009 0.747939L1.84311 0.587074L1.84294 0.588152L2.83009 0.747939ZM2.80237 0.919207L1.81521 0.75942L1.81521 0.759421L2.80237 0.919207ZM0.455384 15.4187L1.44237 15.5795L1.44254 15.5785L0.455384 15.4187ZM0.449222 15.4962L1.44922 15.4933L1.44922 15.4925L0.449222 15.4962ZM0.993396 16.9706L5.55434 17.0067L5.57017 15.0067L1.00922 14.9706L0.993396 16.9706ZM6.54941 16.1665L7.52065 10.1667L5.54635 9.84713L4.57511 15.8469L6.54941 16.1665ZM6.5335 11.0069H7.79372V9.00693H6.5335V11.0069ZM7.79372 11.0069C9.55641 11.0069 11.2465 10.6599 12.62 9.70844C14.0176 8.74037 14.9694 7.22854 15.3867 5.14021L13.4255 4.7483C13.091 6.42212 12.3802 7.44162 11.4812 8.06436C10.5582 8.70372 9.31794 9.00693 7.79372 9.00693V11.0069ZM15.3866 5.14108C15.4117 5.01593 15.4334 4.89414 15.4522 4.77527L13.4768 4.46248C13.4621 4.55525 13.4452 4.65005 13.4257 4.74743L15.3866 5.14108ZM15.4518 4.77776C15.4676 4.67996 15.4815 4.58318 15.4935 4.48739L13.5089 4.23898C13.5 4.31029 13.4895 4.38392 13.4772 4.45999L15.4518 4.77776ZM15.4935 4.48739C15.5082 4.36976 15.52 4.25347 15.5288 4.13847L13.5345 3.98687C13.5284 4.06744 13.5199 4.15139 13.5089 4.23898L15.4935 4.48739ZM15.5288 4.13847C15.5414 3.97258 15.5476 3.80905 15.5466 3.64773L13.5467 3.65925C13.5473 3.76166 13.5434 3.87059 13.5345 3.98686L15.5288 4.13847ZM15.5466 3.64773C15.5401 2.51125 15.1783 1.58181 14.4338 0.755541L12.948 2.09427C13.3617 2.55345 13.5429 3.0096 13.5467 3.65925L15.5466 3.64773ZM14.4338 0.755469C14.4303 0.751633 14.4269 0.747891 14.4236 0.744256L12.9432 2.089C12.9449 2.09088 12.9465 2.09265 12.948 2.09435L14.4338 0.755469ZM14.4236 0.744199C13.357 -0.429739 11.6387 -0.857154 9.8018 -0.91586L9.73792 1.08312C11.408 1.13649 12.4328 1.52725 12.9432 2.08906L14.4236 0.744199ZM9.8018 -0.91586C9.64981 -0.920717 9.49582 -0.923096 9.33997 -0.923096V1.0769C9.4755 1.0769 9.60817 1.07897 9.73792 1.08312L9.8018 -0.91586ZM9.33997 -0.923096H3.63672V1.0769H9.33997V-0.923096ZM3.63672 -0.923096H3.63621V1.0769H3.63672V-0.923096ZM3.63621 -0.923096C2.86935 -0.923096 2.1838 -0.446359 1.92571 0.268753L3.80695 0.947692C3.77496 1.03632 3.70038 1.0769 3.63621 1.0769V-0.923096ZM1.92571 0.268754C1.88882 0.37098 1.86098 0.477438 1.84311 0.587074L3.81706 0.908804C3.81493 0.921889 3.81154 0.934964 3.80695 0.947692L1.92571 0.268754ZM1.84294 0.588152L1.81521 0.75942L3.78952 1.07899L3.81724 0.907726L1.84294 0.588152ZM1.81521 0.759421L-0.531768 15.2589L1.44254 15.5785L3.78952 1.07899L1.81521 0.759421ZM-0.531604 15.2579C-0.544722 15.3384 -0.551069 15.4193 -0.550771 15.4999L1.44922 15.4925C1.44932 15.5221 1.44699 15.5512 1.44237 15.5795L-0.531604 15.2579ZM-0.550774 15.499C-0.548402 16.3228 0.129433 16.9706 0.939157 16.9706V14.9706C1.20078 14.9706 1.44833 15.184 1.44922 15.4933L-0.550774 15.499ZM0.939157 16.9706H1.00131V14.9706H0.939157V16.9706Z" fill="#FF8D40" mask="url(#path-1-inside-1_1748_36821)"/>
<mask id="path-3-inside-2_1748_36821" fill="white">
<path fill-rule="evenodd" clip-rule="evenodd" d="M13.3222 4.22485C13.444 4.25106 13.5623 4.28073 13.677 4.31337C13.7344 4.32968 13.7907 4.34699 13.8461 4.36479C14.0679 4.4365 14.274 4.52105 14.4643 4.61897C14.4643 4.61904 14.4643 4.61911 14.4643 4.61918C14.7829 4.78381 15.0564 4.98549 15.2766 5.22966C16.003 6.03618 16.1451 7.18441 15.8705 8.55961C15.2126 11.8505 12.9613 12.9883 10.086 12.9883H9.64187C9.29059 12.9883 8.99159 13.2376 8.93677 13.5753L8.90072 13.7662L8.34131 17.2198L8.31238 17.3671C8.25755 17.7049 7.95856 17.9541 7.60728 17.9541H4.63915C4.37619 17.9541 4.17517 17.7246 4.21629 17.4715L5.31633 10.678C5.31774 10.6693 5.31929 10.6607 5.32098 10.652L5.34422 10.5069L6.29451 4.63776C6.33208 4.40485 6.48487 4.21496 6.69148 4.11853C6.78489 4.07452 6.88946 4.05029 6.99961 4.05029H11.4703C12.0003 4.05029 12.4937 4.08392 12.9455 4.15513C13.0745 4.1754 13.2003 4.19864 13.3222 4.22485Z"/>
</mask>
<path d="M13.677 4.31337L13.4034 5.2752V5.2752L13.677 4.31337ZM13.3222 4.22485L13.1119 5.20249V5.20249L13.3222 4.22485ZM13.8461 4.36479L14.1536 3.41326L14.1523 3.41285L13.8461 4.36479ZM14.4643 4.61897L15.4517 4.77734L15.5666 4.06136L14.9217 3.7297L14.4643 4.61897ZM14.4643 4.61918L13.4769 4.4608L13.3623 5.17537L14.0053 5.50759L14.4643 4.61918ZM15.2766 5.22966L16.0196 4.56041L16.0192 4.55992L15.2766 5.22966ZM15.8705 8.55961L16.8511 8.75564L16.8512 8.75544L15.8705 8.55961ZM8.93677 13.5753L9.9194 13.7608L9.92179 13.7482L9.92385 13.7355L8.93677 13.5753ZM8.90072 13.7662L7.91809 13.5806L7.91567 13.5934L7.91359 13.6063L8.90072 13.7662ZM8.34131 17.2198L9.32257 17.4124L9.32578 17.3961L9.32845 17.3797L8.34131 17.2198ZM8.31238 17.3671L7.33112 17.1744L7.32794 17.1906L7.3253 17.2069L8.31238 17.3671ZM4.21629 17.4715L5.20336 17.6318L5.20343 17.6313L4.21629 17.4715ZM5.31633 10.678L6.30347 10.8379L6.30351 10.8376L5.31633 10.678ZM5.32098 10.652L6.30229 10.8445L6.30563 10.8274L6.30839 10.8102L5.32098 10.652ZM5.34422 10.5069L4.35708 10.3471L4.35682 10.3488L5.34422 10.5069ZM6.29451 4.63776L7.28166 4.79759L7.28175 4.79698L6.29451 4.63776ZM6.69148 4.11853L7.11441 5.0247L7.11772 5.02315L6.69148 4.11853ZM12.9455 4.15513L12.7898 5.14293L12.7902 5.14299L12.9455 4.15513ZM13.9506 3.35153C13.8153 3.31304 13.6759 3.27807 13.5325 3.24722L13.1119 5.20249C13.2121 5.22404 13.3092 5.24842 13.4034 5.2752L13.9506 3.35153ZM14.1523 3.41285C14.0886 3.39233 14.0211 3.37158 13.9506 3.35153L13.4034 5.2752C13.4476 5.28779 13.4929 5.30165 13.5398 5.31674L14.1523 3.41285ZM14.9217 3.7297C14.6786 3.60463 14.4218 3.49995 14.1536 3.41326L13.5385 5.31632C13.714 5.37304 13.8694 5.43748 14.007 5.50823L14.9217 3.7297ZM15.4517 4.77756C15.4517 4.77756 15.4517 4.77756 15.4517 4.77756C15.4517 4.77756 15.4517 4.77756 15.4517 4.77756C15.4517 4.77755 15.4517 4.77755 15.4517 4.77755C15.4517 4.77755 15.4517 4.77755 15.4517 4.77755C15.4517 4.77755 15.4517 4.77755 15.4517 4.77755C15.4517 4.77755 15.4517 4.77755 15.4517 4.77755C15.4517 4.77755 15.4517 4.77755 15.4517 4.77755C15.4517 4.77755 15.4517 4.77755 15.4517 4.77755C15.4517 4.77755 15.4517 4.77755 15.4517 4.77755C15.4517 4.77755 15.4517 4.77755 15.4517 4.77755C15.4517 4.77755 15.4517 4.77755 15.4517 4.77755C15.4517 4.77755 15.4517 4.77755 15.4517 4.77755C15.4517 4.77755 15.4517 4.77755 15.4517 4.77755C15.4517 4.77755 15.4517 4.77755 15.4517 4.77755C15.4517 4.77755 15.4517 4.77755 15.4517 4.77755C15.4517 4.77755 15.4517 4.77755 15.4517 4.77755C15.4517 4.77755 15.4517 4.77755 15.4517 4.77755C15.4517 4.77755 15.4517 4.77755 15.4517 4.77755C15.4517 4.77755 15.4517 4.77755 15.4517 4.77755C15.4517 4.77755 15.4517 4.77755 15.4517 4.77755C15.4517 4.77755 15.4517 4.77755 15.4517 4.77755C15.4517 4.77755 15.4517 4.77755 15.4517 4.77755C15.4517 4.77755 15.4517 4.77755 15.4517 4.77755C15.4517 4.77755 15.4517 4.77755 15.4517 4.77755C15.4517 4.77755 15.4517 4.77755 15.4517 4.77755C15.4517 4.77755 15.4517 4.77755 15.4517 4.77755C15.4517 4.77754 15.4517 4.77754 15.4517 4.77754C15.4517 4.77754 15.4517 4.77754 15.4517 4.77754C15.4517 4.77754 15.4517 4.77754 15.4517 4.77754C15.4517 4.77754 15.4517 4.77754 15.4517 4.77754C15.4517 4.77754 15.4517 4.77754 15.4517 4.77754C15.4517 4.77754 15.4517 4.77754 15.4517 4.77754C15.4517 4.77754 15.4517 4.77754 15.4517 4.77754C15.4517 4.77754 15.4517 4.77754 15.4517 4.77754C15.4517 4.77754 15.4517 4.77754 15.4517 4.77754C15.4517 4.77754 15.4517 4.77754 15.4517 4.77754C15.4517 4.77754 15.4517 4.77754 15.4517 4.77754C15.4517 4.77754 15.4517 4.77754 15.4517 4.77754C15.4517 4.77754 15.4517 4.77754 15.4517 4.77754C15.4517 4.77754 15.4517 4.77754 15.4517 4.77754C15.4517 4.77754 15.4517 4.77754 15.4517 4.77754C15.4517 4.77754 15.4517 4.77754 15.4517 4.77754C15.4517 4.77754 15.4517 4.77754 15.4517 4.77754C15.4517 4.77754 15.4517 4.77754 15.4517 4.77754C15.4517 4.77754 15.4517 4.77754 15.4517 4.77754C15.4517 4.77754 15.4517 4.77754 15.4517 4.77754C15.4517 4.77754 15.4517 4.77754 15.4517 4.77754C15.4517 4.77754 15.4517 4.77754 15.4517 4.77754C15.4517 4.77754 15.4517 4.77754 15.4517 4.77754C15.4517 4.77754 15.4517 4.77754 15.4517 4.77754C15.4517 4.77753 15.4517 4.77753 15.4517 4.77753C15.4517 4.77753 15.4517 4.77753 15.4517 4.77753C15.4517 4.77753 15.4517 4.77753 15.4517 4.77753C15.4517 4.77753 15.4517 4.77753 15.4517 4.77753C15.4517 4.77753 15.4517 4.77753 15.4517 4.77753C15.4517 4.77753 15.4517 4.77753 15.4517 4.77753C15.4517 4.77753 15.4517 4.77753 15.4517 4.77753C15.4517 4.77753 15.4517 4.77753 15.4517 4.77753C15.4517 4.77753 15.4517 4.77753 15.4517 4.77753C15.4517 4.77753 15.4517 4.77753 15.4517 4.77753C15.4517 4.77753 15.4517 4.77753 15.4517 4.77753C15.4517 4.77753 15.4517 4.77753 15.4517 4.77753C15.4517 4.77753 15.4517 4.77753 15.4517 4.77753C15.4517 4.77753 15.4517 4.77753 15.4517 4.77753C15.4517 4.77753 15.4517 4.77753 15.4517 4.77753C15.4517 4.77753 15.4517 4.77753 15.4517 4.77753C15.4517 4.77753 15.4517 4.77753 15.4517 4.77753C15.4517 4.77753 15.4517 4.77753 15.4517 4.77753C15.4517 4.77753 15.4517 4.77753 15.4517 4.77753C15.4517 4.77753 15.4517 4.77753 15.4517 4.77753C15.4517 4.77753 15.4517 4.77753 15.4517 4.77753C15.4517 4.77753 15.4517 4.77753 15.4517 4.77753C15.4517 4.77753 15.4517 4.77753 15.4517 4.77753C15.4517 4.77753 15.4517 4.77753 15.4517 4.77753C15.4517 4.77752 15.4517 4.77752 15.4517 4.77752C15.4517 4.77752 15.4517 4.77752 15.4517 4.77752C15.4517 4.77752 15.4517 4.77752 15.4517 4.77752C15.4517 4.77752 15.4517 4.77752 15.4517 4.77752C15.4517 4.77752 15.4517 4.77752 15.4517 4.77752C15.4517 4.77752 15.4517 4.77752 15.4517 4.77752C15.4517 4.77752 15.4517 4.77752 15.4517 4.77752C15.4517 4.77752 15.4517 4.77752 15.4517 4.77752C15.4517 4.77752 15.4517 4.77752 15.4517 4.77752C15.4517 4.77752 15.4517 4.77752 15.4517 4.77752C15.4517 4.77752 15.4517 4.77752 15.4517 4.77752C15.4517 4.77752 15.4517 4.77752 15.4517 4.77752C15.4517 4.77752 15.4517 4.77752 15.4517 4.77752C15.4517 4.77752 15.4517 4.77752 15.4517 4.77752C15.4517 4.77752 15.4517 4.77752 15.4517 4.77752C15.4517 4.77752 15.4517 4.77752 15.4517 4.77752C15.4517 4.77752 15.4517 4.77752 15.4517 4.77752C15.4517 4.77752 15.4517 4.77752 15.4517 4.77752C15.4517 4.77752 15.4517 4.77752 15.4517 4.77752C15.4517 4.77752 15.4517 4.77752 15.4517 4.77752C15.4517 4.77752 15.4517 4.77752 15.4517 4.77752C15.4517 4.77752 15.4517 4.77752 15.4517 4.77752C15.4517 4.77752 15.4517 4.77752 15.4517 4.77752C15.4517 4.77752 15.4517 4.77752 15.4517 4.77751C15.4517 4.77751 15.4517 4.77751 15.4517 4.77751C15.4517 4.77751 15.4517 4.77751 15.4517 4.77751C15.4517 4.77751 15.4517 4.77751 15.4517 4.77751C15.4517 4.77751 15.4517 4.77751 15.4517 4.77751C15.4517 4.77751 15.4517 4.77751 15.4517 4.77751C15.4517 4.77751 15.4517 4.77751 15.4517 4.77751C15.4517 4.77751 15.4517 4.77751 15.4517 4.77751C15.4517 4.77751 15.4517 4.77751 15.4517 4.77751C15.4517 4.77751 15.4517 4.77751 15.4517 4.77751C15.4517 4.77751 15.4517 4.77751 15.4517 4.77751C15.4517 4.77751 15.4517 4.77751 15.4517 4.77751C15.4517 4.77751 15.4517 4.77751 15.4517 4.77751C15.4517 4.77751 15.4517 4.77751 15.4517 4.77751C15.4517 4.77751 15.4517 4.77751 15.4517 4.77751C15.4517 4.77751 15.4517 4.77751 15.4517 4.77751C15.4517 4.77751 15.4517 4.77751 15.4517 4.77751C15.4517 4.77751 15.4517 4.77751 15.4517 4.77751C15.4517 4.77751 15.4517 4.77751 15.4517 4.77751C15.4517 4.77751 15.4517 4.77751 15.4517 4.77751C15.4517 4.77751 15.4517 4.77751 15.4517 4.77751C15.4517 4.77751 15.4517 4.77751 15.4517 4.77751C15.4517 4.77751 15.4517 4.77751 15.4517 4.77751C15.4517 4.77751 15.4517 4.77751 15.4517 4.77751C15.4517 4.77751 15.4517 4.77751 15.4517 4.7775C15.4517 4.7775 15.4517 4.7775 15.4517 4.7775C15.4517 4.7775 15.4517 4.7775 15.4517 4.7775C15.4517 4.7775 15.4517 4.7775 15.4517 4.7775C15.4517 4.7775 15.4517 4.7775 15.4517 4.7775C15.4517 4.7775 15.4517 4.7775 15.4517 4.7775C15.4517 4.7775 15.4517 4.7775 15.4517 4.7775C15.4517 4.7775 15.4517 4.7775 15.4517 4.7775C15.4517 4.7775 15.4517 4.7775 15.4517 4.7775C15.4517 4.7775 15.4517 4.7775 15.4517 4.7775C15.4517 4.7775 15.4517 4.7775 15.4517 4.7775C15.4517 4.7775 15.4517 4.7775 15.4517 4.7775C15.4517 4.7775 15.4517 4.7775 15.4517 4.7775C15.4517 4.7775 15.4517 4.7775 15.4517 4.7775C15.4517 4.7775 15.4517 4.7775 15.4517 4.7775C15.4517 4.7775 15.4517 4.7775 15.4517 4.7775C15.4517 4.7775 15.4517 4.7775 15.4517 4.7775C15.4517 4.7775 15.4517 4.7775 15.4517 4.7775C15.4517 4.7775 15.4517 4.7775 15.4517 4.7775C15.4517 4.7775 15.4517 4.7775 15.4517 4.7775C15.4517 4.7775 15.4517 4.7775 15.4517 4.7775C15.4517 4.7775 15.4517 4.7775 15.4517 4.7775C15.4517 4.7775 15.4517 4.7775 15.4517 4.7775C15.4517 4.7775 15.4517 4.7775 15.4517 4.7775C15.4517 4.7775 15.4517 4.7775 15.4517 4.77749C15.4517 4.77749 15.4517 4.77749 15.4517 4.77749C15.4517 4.77749 15.4517 4.77749 15.4517 4.77749C15.4517 4.77749 15.4517 4.77749 15.4517 4.77749C15.4517 4.77749 15.4517 4.77749 15.4517 4.77749C15.4517 4.77749 15.4517 4.77749 15.4517 4.77749C15.4517 4.77749 15.4517 4.77749 15.4517 4.77749C15.4517 4.77749 15.4517 4.77749 15.4517 4.77749C15.4517 4.77749 15.4517 4.77749 15.4517 4.77749C15.4517 4.77749 15.4517 4.77749 15.4517 4.77749C15.4517 4.77749 15.4517 4.77749 15.4517 4.77749C15.4517 4.77749 15.4517 4.77749 15.4517 4.77749C15.4517 4.77749 15.4517 4.77749 15.4517 4.77749C15.4517 4.77749 15.4517 4.77749 15.4517 4.77749C15.4517 4.77749 15.4517 4.77749 15.4517 4.77749C15.4517 4.77749 15.4517 4.77749 15.4517 4.77749C15.4517 4.77749 15.4517 4.77749 15.4517 4.77749C15.4517 4.77749 15.4517 4.77749 15.4517 4.77749C15.4517 4.77749 15.4517 4.77749 15.4517 4.77749C15.4517 4.77749 15.4517 4.77749 15.4517 4.77749C15.4517 4.77749 15.4517 4.77749 15.4517 4.77749C15.4517 4.77749 15.4517 4.77749 15.4517 4.77749C15.4517 4.77749 15.4517 4.77749 15.4517 4.77749C15.4517 4.77749 15.4517 4.77749 15.4517 4.77749C15.4517 4.77749 15.4517 4.77749 15.4517 4.77748C15.4517 4.77748 15.4517 4.77748 15.4517 4.77748C15.4517 4.77748 15.4517 4.77748 15.4517 4.77748C15.4517 4.77748 15.4517 4.77748 15.4517 4.77748C15.4517 4.77748 15.4517 4.77748 15.4517 4.77748C15.4517 4.77748 15.4517 4.77748 15.4517 4.77748C15.4517 4.77748 15.4517 4.77748 15.4517 4.77748C15.4517 4.77748 15.4517 4.77748 15.4517 4.77748C15.4517 4.77748 15.4517 4.77748 15.4517 4.77748C15.4517 4.77748 15.4517 4.77748 15.4517 4.77748C15.4517 4.77748 15.4517 4.77748 15.4517 4.77748C15.4517 4.77748 15.4517 4.77748 15.4517 4.77748C15.4517 4.77748 15.4517 4.77748 15.4517 4.77748C15.4517 4.77748 15.4517 4.77748 15.4517 4.77748C15.4517 4.77748 15.4517 4.77748 15.4517 4.77748C15.4517 4.77748 15.4517 4.77748 15.4517 4.77748C15.4517 4.77748 15.4517 4.77748 15.4517 4.77748C15.4517 4.77748 15.4517 4.77748 15.4517 4.77748C15.4517 4.77748 15.4517 4.77748 15.4517 4.77748C15.4517 4.77748 15.4517 4.77748 15.4517 4.77748C15.4517 4.77748 15.4517 4.77748 15.4517 4.77748C15.4517 4.77748 15.4517 4.77748 15.4517 4.77748C15.4517 4.77748 15.4517 4.77748 15.4517 4.77748C15.4517 4.77748 15.4517 4.77748 15.4517 4.77748C15.4517 4.77748 15.4517 4.77747 15.4517 4.77747C15.4517 4.77747 15.4517 4.77747 15.4517 4.77747C15.4517 4.77747 15.4517 4.77747 15.4517 4.77747C15.4517 4.77747 15.4517 4.77747 15.4517 4.77747C15.4517 4.77747 15.4517 4.77747 15.4517 4.77747C15.4517 4.77747 15.4517 4.77747 15.4517 4.77747C15.4517 4.77747 15.4517 4.77747 15.4517 4.77747C15.4517 4.77747 15.4517 4.77747 15.4517 4.77747C15.4517 4.77747 15.4517 4.77747 15.4517 4.77747C15.4517 4.77747 15.4517 4.77747 15.4517 4.77747C15.4517 4.77747 15.4517 4.77747 15.4517 4.77747C15.4517 4.77747 15.4517 4.77747 15.4517 4.77747C15.4517 4.77747 15.4517 4.77747 15.4517 4.77747C15.4517 4.77747 15.4517 4.77747 15.4517 4.77747C15.4517 4.77747 15.4517 4.77747 15.4517 4.77747C15.4517 4.77747 15.4517 4.77747 15.4517 4.77747C15.4517 4.77747 15.4517 4.77747 15.4517 4.77747C15.4517 4.77747 15.4517 4.77747 15.4517 4.77747C15.4517 4.77747 15.4517 4.77747 15.4517 4.77747C15.4517 4.77747 15.4517 4.77747 15.4517 4.77747C15.4517 4.77747 15.4517 4.77747 15.4517 4.77747C15.4517 4.77747 15.4517 4.77747 15.4517 4.77747C15.4517 4.77747 15.4517 4.77747 15.4517 4.77747C15.4517 4.77747 15.4517 4.77747 15.4517 4.77747C15.4517 4.77747 15.4517 4.77746 15.4517 4.77746C15.4517 4.77746 15.4517 4.77746 15.4517 4.77746C15.4517 4.77746 15.4517 4.77746 15.4517 4.77746C15.4517 4.77746 15.4517 4.77746 15.4517 4.77746C15.4517 4.77746 15.4517 4.77746 15.4517 4.77746C15.4517 4.77746 15.4517 4.77746 15.4517 4.77746C15.4517 4.77746 15.4517 4.77746 15.4517 4.77746C15.4517 4.77746 15.4517 4.77746 15.4517 4.77746C15.4517 4.77746 15.4517 4.77746 15.4517 4.77746C15.4517 4.77746 15.4517 4.77746 15.4517 4.77746C15.4517 4.77746 15.4517 4.77746 15.4517 4.77746C15.4517 4.77746 15.4517 4.77746 15.4517 4.77746C15.4517 4.77746 15.4517 4.77746 15.4517 4.77746C15.4517 4.77746 15.4517 4.77746 15.4517 4.77746C15.4517 4.77746 15.4517 4.77746 15.4517 4.77746C15.4517 4.77746 15.4517 4.77746 15.4517 4.77746C15.4517 4.77746 15.4517 4.77746 15.4517 4.77746C15.4517 4.77746 15.4517 4.77746 15.4517 4.77746C15.4517 4.77746 15.4517 4.77746 15.4517 4.77746C15.4517 4.77746 15.4517 4.77746 15.4517 4.77746C15.4517 4.77746 15.4517 4.77746 15.4517 4.77746C15.4517 4.77746 15.4517 4.77746 15.4517 4.77746C15.4517 4.77746 15.4517 4.77746 15.4517 4.77746C15.4517 4.77746 15.4517 4.77746 15.4517 4.77746C15.4517 4.77746 15.4517 4.77745 15.4517 4.77745C15.4517 4.77745 15.4517 4.77745 15.4517 4.77745C15.4517 4.77745 15.4517 4.77745 15.4517 4.77745C15.4517 4.77745 15.4517 4.77745 15.4517 4.77745C15.4517 4.77745 15.4517 4.77745 15.4517 4.77745C15.4517 4.77745 15.4517 4.77745 15.4517 4.77745C15.4517 4.77745 15.4517 4.77745 15.4517 4.77745C15.4517 4.77745 15.4517 4.77745 15.4517 4.77745C15.4517 4.77745 15.4517 4.77745 15.4517 4.77745C15.4517 4.77745 15.4517 4.77745 15.4517 4.77745C15.4517 4.77745 15.4517 4.77745 15.4517 4.77745C15.4517 4.77745 15.4517 4.77745 15.4517 4.77745C15.4517 4.77745 15.4517 4.77745 15.4517 4.77745C15.4517 4.77745 15.4517 4.77745 15.4517 4.77745C15.4517 4.77745 15.4517 4.77745 15.4517 4.77745C15.4517 4.77745 15.4517 4.77745 15.4517 4.77745C15.4517 4.77745 15.4517 4.77745 15.4517 4.77745C15.4517 4.77745 15.4517 4.77745 15.4517 4.77745C15.4517 4.77745 15.4517 4.77745 15.4517 4.77745C15.4517 4.77745 15.4517 4.77745 15.4517 4.77745C15.4517 4.77745 15.4517 4.77745 15.4517 4.77745C15.4517 4.77745 15.4517 4.77745 15.4517 4.77745C15.4517 4.77745 15.4517 4.77745 15.4517 4.77745C15.4517 4.77745 15.4517 4.77745 15.4517 4.77745C15.4517 4.77745 15.4517 4.77744 15.4517 4.77744C15.4517 4.77744 15.4517 4.77744 15.4517 4.77744C15.4517 4.77744 15.4517 4.77744 15.4517 4.77744C15.4517 4.77744 15.4517 4.77744 15.4517 4.77744C15.4517 4.77744 15.4517 4.77744 15.4517 4.77744C15.4517 4.77744 15.4517 4.77744 15.4517 4.77744C15.4517 4.77744 15.4517 4.77744 15.4517 4.77744C15.4517 4.77744 15.4517 4.77744 15.4517 4.77744C15.4517 4.77744 15.4517 4.77744 15.4517 4.77744C15.4517 4.77744 15.4517 4.77744 15.4517 4.77744C15.4517 4.77744 15.4517 4.77744 15.4517 4.77744C15.4517 4.77744 15.4517 4.77744 15.4517 4.77744C15.4517 4.77744 15.4517 4.77744 15.4517 4.77744C15.4517 4.77744 15.4517 4.77744 15.4517 4.77744C15.4517 4.77744 15.4517 4.77744 15.4517 4.77744C15.4517 4.77744 15.4517 4.77744 15.4517 4.77744C15.4517 4.77744 15.4517 4.77744 15.4517 4.77744C15.4517 4.77744 15.4517 4.77744 15.4517 4.77744C15.4517 4.77744 15.4517 4.77744 15.4517 4.77744C15.4517 4.77744 15.4517 4.77744 15.4517 4.77744C15.4517 4.77744 15.4517 4.77744 15.4517 4.77744C15.4517 4.77744 15.4517 4.77744 15.4517 4.77744C15.4517 4.77744 15.4517 4.77744 15.4517 4.77744C15.4517 4.77744 15.4517 4.77744 15.4517 4.77744C15.4517 4.77744 15.4517 4.77743 15.4517 4.77743C15.4517 4.77743 15.4517 4.77743 15.4517 4.77743C15.4517 4.77743 15.4517 4.77743 15.4517 4.77743C15.4517 4.77743 15.4517 4.77743 15.4517 4.77743C15.4517 4.77743 15.4517 4.77743 15.4517 4.77743C15.4517 4.77743 15.4517 4.77743 15.4517 4.77743C15.4517 4.77743 15.4517 4.77743 15.4517 4.77743C15.4517 4.77743 15.4517 4.77743 15.4517 4.77743C15.4517 4.77743 15.4517 4.77743 15.4517 4.77743C15.4517 4.77743 15.4517 4.77743 15.4517 4.77743C15.4517 4.77743 15.4517 4.77743 15.4517 4.77743C15.4517 4.77743 15.4517 4.77743 15.4517 4.77743C15.4517 4.77743 15.4517 4.77743 15.4517 4.77743C15.4517 4.77743 15.4517 4.77743 15.4517 4.77743C15.4517 4.77743 15.4517 4.77743 15.4517 4.77743C15.4517 4.77743 15.4517 4.77743 15.4517 4.77743C15.4517 4.77743 15.4517 4.77743 15.4517 4.77743C15.4517 4.77743 15.4517 4.77743 15.4517 4.77743C15.4517 4.77743 15.4517 4.77743 15.4517 4.77743C15.4517 4.77743 15.4517 4.77743 15.4517 4.77743C15.4517 4.77743 15.4517 4.77743 15.4517 4.77743C15.4517 4.77743 15.4517 4.77743 15.4517 4.77743C15.4517 4.77743 15.4517 4.77743 15.4517 4.77743C15.4517 4.77743 15.4517 4.77743 15.4517 4.77743C15.4517 4.77742 15.4517 4.77742 15.4517 4.77742C15.4517 4.77742 15.4517 4.77742 15.4517 4.77742C15.4517 4.77742 15.4517 4.77742 15.4517 4.77742C15.4517 4.77742 15.4517 4.77742 15.4517 4.77742C15.4517 4.77742 15.4517 4.77742 15.4517 4.77742C15.4517 4.77742 15.4517 4.77742 15.4517 4.77742C15.4517 4.77742 15.4517 4.77742 15.4517 4.77742C15.4517 4.77742 15.4517 4.77742 15.4517 4.77742C15.4517 4.77742 15.4517 4.77742 15.4517 4.77742C15.4517 4.77742 15.4517 4.77742 15.4517 4.77742C15.4517 4.77742 15.4517 4.77742 15.4517 4.77742C15.4517 4.77742 15.4517 4.77742 15.4517 4.77742C15.4517 4.77742 15.4517 4.77742 15.4517 4.77742C15.4517 4.77742 15.4517 4.77742 15.4517 4.77742C15.4517 4.77742 15.4517 4.77742 15.4517 4.77742C15.4517 4.77742 15.4517 4.77742 15.4517 4.77742C15.4517 4.77742 15.4517 4.77742 15.4517 4.77742C15.4517 4.77742 15.4517 4.77742 15.4517 4.77742C15.4517 4.77742 15.4517 4.77742 15.4517 4.77742C15.4517 4.77742 15.4517 4.77742 15.4517 4.77742C15.4517 4.77742 15.4517 4.77742 15.4517 4.77742C15.4517 4.77742 15.4517 4.77742 15.4517 4.77742C15.4517 4.77742 15.4517 4.77742 15.4517 4.77742C15.4517 4.77742 15.4517 4.77742 15.4517 4.77742C15.4517 4.77741 15.4517 4.77741 15.4517 4.77741C15.4517 4.77741 15.4517 4.77741 15.4517 4.77741C15.4517 4.77741 15.4517 4.77741 15.4517 4.77741C15.4517 4.77741 15.4517 4.77741 15.4517 4.77741C15.4517 4.77741 15.4517 4.77741 15.4517 4.77741C15.4517 4.77741 15.4517 4.77741 15.4517 4.77741C15.4517 4.77741 15.4517 4.77741 15.4517 4.77741C15.4517 4.77741 15.4517 4.77741 15.4517 4.77741C15.4517 4.77741 15.4517 4.77741 15.4517 4.77741C15.4517 4.77741 15.4517 4.77741 15.4517 4.77741C15.4517 4.77741 15.4517 4.77741 15.4517 4.77741C15.4517 4.77741 15.4517 4.77741 15.4517 4.77741C15.4517 4.77741 15.4517 4.77741 15.4517 4.77741C15.4517 4.77741 15.4517 4.77741 15.4517 4.77741C15.4517 4.77741 15.4517 4.77741 15.4517 4.77741C15.4517 4.77741 15.4517 4.77741 15.4517 4.77741C15.4517 4.77741 15.4517 4.77741 15.4517 4.77741C15.4517 4.77741 15.4517 4.77741 15.4517 4.77741C15.4517 4.77741 15.4517 4.77741 15.4517 4.77741C15.4517 4.77741 15.4517 4.77741 15.4517 4.77741C15.4517 4.77741 15.4517 4.77741 15.4517 4.77741C15.4517 4.77741 15.4517 4.77741 15.4517 4.77741C15.4517 4.77741 15.4517 4.77741 15.4517 4.77741C15.4517 4.77741 15.4517 4.77741 15.4517 4.77741C15.4517 4.7774 15.4517 4.7774 15.4517 4.7774C15.4517 4.7774 15.4517 4.7774 15.4517 4.7774C15.4517 4.7774 15.4517 4.7774 15.4517 4.7774C15.4517 4.7774 15.4517 4.7774 15.4517 4.7774C15.4517 4.7774 15.4517 4.7774 15.4517 4.7774C15.4517 4.7774 15.4517 4.7774 15.4517 4.7774C15.4517 4.7774 15.4517 4.7774 15.4517 4.7774C15.4517 4.7774 15.4517 4.7774 15.4517 4.7774C15.4517 4.7774 15.4517 4.7774 15.4517 4.7774C15.4517 4.7774 15.4517 4.7774 15.4517 4.7774C15.4517 4.7774 15.4517 4.7774 15.4517 4.7774C15.4517 4.7774 15.4517 4.7774 15.4517 4.7774C15.4517 4.7774 15.4517 4.7774 15.4517 4.7774C15.4517 4.7774 15.4517 4.7774 15.4517 4.7774C15.4517 4.7774 15.4517 4.7774 15.4517 4.7774C15.4517 4.7774 15.4517 4.7774 15.4517 4.7774C15.4517 4.7774 15.4517 4.7774 15.4517 4.7774C15.4517 4.7774 15.4517 4.7774 15.4517 4.7774C15.4517 4.7774 15.4517 4.7774 15.4517 4.7774C15.4517 4.7774 15.4517 4.7774 15.4517 4.7774C15.4517 4.7774 15.4517 4.7774 15.4517 4.7774C15.4517 4.7774 15.4517 4.7774 15.4517 4.7774C15.4517 4.7774 15.4517 4.7774 15.4517 4.7774C15.4517 4.7774 15.4517 4.7774 15.4517 4.7774C15.4517 4.77739 15.4517 4.77739 15.4517 4.77739C15.4517 4.77739 15.4517 4.77739 15.4517 4.77739C15.4517 4.77739 15.4517 4.77739 15.4517 4.77739C15.4517 4.77739 15.4517 4.77739 15.4517 4.77739C15.4517 4.77739 15.4517 4.77739 15.4517 4.77739C15.4517 4.77739 15.4517 4.77739 15.4517 4.77739C15.4517 4.77739 15.4517 4.77739 15.4517 4.77739C15.4517 4.77739 15.4517 4.77739 15.4517 4.77739C15.4517 4.77739 15.4517 4.77739 15.4517 4.77739C15.4517 4.77739 15.4517 4.77739 15.4517 4.77739C15.4517 4.77739 15.4517 4.77739 15.4517 4.77739C15.4517 4.77739 15.4517 4.77739 15.4517 4.77739C15.4517 4.77739 15.4517 4.77739 15.4517 4.77739C15.4517 4.77739 15.4517 4.77739 15.4517 4.77739C15.4517 4.77739 15.4517 4.77739 15.4517 4.77739C15.4517 4.77739 15.4517 4.77739 15.4517 4.77739C15.4517 4.77739 15.4517 4.77739 15.4517 4.77739C15.4517 4.77739 15.4517 4.77739 15.4517 4.77739C15.4517 4.77739 15.4517 4.77739 15.4517 4.77739C15.4517 4.77739 15.4517 4.77739 15.4517 4.77739C15.4517 4.77739 15.4517 4.77739 15.4517 4.77739C15.4517 4.77739 15.4517 4.77739 15.4517 4.77739C15.4517 4.77739 15.4517 4.77739 15.4517 4.77739C15.4517 4.77739 15.4517 4.77739 15.4517 4.77738C15.4517 4.77738 15.4517 4.77738 15.4517 4.77738C15.4517 4.77738 15.4517 4.77738 15.4517 4.77738C15.4517 4.77738 15.4517 4.77738 15.4517 4.77738C15.4517 4.77738 15.4517 4.77738 15.4517 4.77738C15.4517 4.77738 15.4517 4.77738 15.4517 4.77738C15.4517 4.77738 15.4517 4.77738 15.4517 4.77738C15.4517 4.77738 15.4517 4.77738 15.4517 4.77738C15.4517 4.77738 15.4517 4.77738 15.4517 4.77738C15.4517 4.77738 15.4517 4.77738 15.4517 4.77738C15.4517 4.77738 15.4517 4.77738 15.4517 4.77738C15.4517 4.77738 15.4517 4.77738 15.4517 4.77738C15.4517 4.77738 15.4517 4.77738 15.4517 4.77738C15.4517 4.77738 15.4517 4.77738 15.4517 4.77738C15.4517 4.77738 15.4517 4.77738 15.4517 4.77738C15.4517 4.77738 15.4517 4.77738 15.4517 4.77738C15.4517 4.77738 15.4517 4.77738 15.4517 4.77738C15.4517 4.77738 15.4517 4.77738 15.4517 4.77738C15.4517 4.77738 15.4517 4.77738 15.4517 4.77738C15.4517 4.77738 15.4517 4.77738 15.4517 4.77738C15.4517 4.77738 15.4517 4.77738 15.4517 4.77738C15.4517 4.77738 15.4517 4.77738 15.4517 4.77738C15.4517 4.77738 15.4517 4.77738 15.4517 4.77738C15.4517 4.77738 15.4517 4.77738 15.4517 4.77738C15.4517 4.77738 15.4517 4.77738 15.4517 4.77737C15.4517 4.77737 15.4517 4.77737 15.4517 4.77737C15.4517 4.77737 15.4517 4.77737 15.4517 4.77737C15.4517 4.77737 15.4517 4.77737 15.4517 4.77737C15.4517 4.77737 15.4517 4.77737 15.4517 4.77737C15.4517 4.77737 15.4517 4.77737 15.4517 4.77737C15.4517 4.77737 15.4517 4.77737 15.4517 4.77737C15.4517 4.77737 15.4517 4.77737 15.4517 4.77737C15.4517 4.77737 15.4517 4.77737 15.4517 4.77737C15.4517 4.77737 15.4517 4.77737 15.4517 4.77737C15.4517 4.77737 15.4517 4.77737 15.4517 4.77737C15.4517 4.77737 15.4517 4.77737 15.4517 4.77737C15.4517 4.77737 15.4517 4.77737 15.4517 4.77737C15.4517 4.77737 15.4517 4.77737 15.4517 4.77737C15.4517 4.77737 15.4517 4.77737 15.4517 4.77737C15.4517 4.77737 15.4517 4.77737 15.4517 4.77737C15.4517 4.77737 15.4517 4.77737 15.4517 4.77737C15.4517 4.77737 15.4517 4.77737 15.4517 4.77737C15.4517 4.77737 15.4517 4.77737 15.4517 4.77737C15.4517 4.77737 15.4517 4.77737 15.4517 4.77737C15.4517 4.77737 15.4517 4.77737 15.4517 4.77737C15.4517 4.77737 15.4517 4.77737 15.4517 4.77737C15.4517 4.77737 15.4517 4.77737 15.4517 4.77737C15.4517 4.77737 15.4517 4.77737 15.4517 4.77737C15.4517 4.77737 15.4517 4.77737 15.4517 4.77736C15.4517 4.77736 15.4517 4.77736 15.4517 4.77736C15.4517 4.77736 15.4517 4.77736 15.4517 4.77736C15.4517 4.77736 15.4517 4.77736 15.4517 4.77736C15.4517 4.77736 15.4517 4.77736 15.4517 4.77736C15.4517 4.77736 15.4517 4.77736 15.4517 4.77736C15.4517 4.77736 15.4517 4.77736 15.4517 4.77736C15.4517 4.77736 15.4517 4.77736 15.4517 4.77736C15.4517 4.77736 15.4517 4.77736 15.4517 4.77736C15.4517 4.77736 15.4517 4.77736 15.4517 4.77736C15.4517 4.77736 15.4517 4.77736 15.4517 4.77736C15.4517 4.77736 15.4517 4.77736 15.4517 4.77736C15.4517 4.77736 15.4517 4.77736 15.4517 4.77736C15.4517 4.77736 15.4517 4.77736 15.4517 4.77736C15.4517 4.77736 15.4517 4.77736 15.4517 4.77736C15.4517 4.77736 15.4517 4.77736 15.4517 4.77736C15.4517 4.77736 15.4517 4.77736 15.4517 4.77736C15.4517 4.77736 15.4517 4.77736 15.4517 4.77736C15.4517 4.77736 15.4517 4.77736 15.4517 4.77736C15.4517 4.77736 15.4517 4.77736 15.4517 4.77736C15.4517 4.77736 15.4517 4.77736 15.4517 4.77736C15.4517 4.77736 15.4517 4.77736 15.4517 4.77736C15.4517 4.77736 15.4517 4.77736 15.4517 4.77736C15.4517 4.77736 15.4517 4.77736 15.4517 4.77736C15.4517 4.77736 15.4517 4.77736 15.4517 4.77735C15.4517 4.77735 15.4517 4.77735 15.4517 4.77735C15.4517 4.77735 15.4517 4.77735 15.4517 4.77735C15.4517 4.77735 15.4517 4.77735 15.4517 4.77735C15.4517 4.77735 15.4517 4.77735 15.4517 4.77735C15.4517 4.77735 15.4517 4.77735 15.4517 4.77735C15.4517 4.77735 15.4517 4.77735 15.4517 4.77735C15.4517 4.77735 15.4517 4.77735 15.4517 4.77735C15.4517 4.77735 15.4517 4.77735 15.4517 4.77735C15.4517 4.77735 15.4517 4.77735 15.4517 4.77735C15.4517 4.77735 15.4517 4.77735 15.4517 4.77735C15.4517 4.77735 15.4517 4.77735 15.4517 4.77735C15.4517 4.77735 15.4517 4.77735 15.4517 4.77735C15.4517 4.77735 15.4517 4.77735 15.4517 4.77735C15.4517 4.77735 15.4517 4.77735 15.4517 4.77735C15.4517 4.77735 15.4517 4.77735 15.4517 4.77735C15.4517 4.77735 15.4517 4.77735 15.4517 4.77735C15.4517 4.77735 15.4517 4.77735 15.4517 4.77735C15.4517 4.77735 15.4517 4.77735 15.4517 4.77735C15.4517 4.77735 15.4517 4.77735 15.4517 4.77735C15.4517 4.77735 15.4517 4.77735 15.4517 4.77735C15.4517 4.77735 15.4517 4.77735 15.4517 4.77735C15.4517 4.77735 15.4517 4.77735 15.4517 4.77735C15.4517 4.77735 15.4517 4.77735 15.4517 4.77735C15.4517 4.77735 15.4517 4.77734 15.4517 4.77734C15.4517 4.77734 15.4517 4.77734 15.4517 4.77734C15.4517 4.77734 15.4517 4.77734 15.4517 4.77734C15.4517 4.77734 15.4517 4.77734 15.4517 4.77734C15.4517 4.77734 15.4517 4.77734 15.4517 4.77734C15.4517 4.77734 15.4517 4.77734 15.4517 4.77734C15.4517 4.77734 15.4517 4.77734 15.4517 4.77734C15.4517 4.77734 15.4517 4.77734 15.4517 4.77734L13.477 4.46059C13.477 4.46059 13.477 4.46059 13.477 4.46059C13.477 4.46059 13.477 4.46059 13.477 4.46059C13.477 4.46059 13.477 4.46059 13.477 4.46059C13.477 4.46059 13.477 4.46059 13.477 4.46059C13.477 4.46059 13.477 4.46059 13.477 4.46059C13.477 4.46059 13.477 4.46059 13.477 4.46059C13.477 4.46059 13.477 4.46059 13.477 4.46059C13.477 4.46059 13.477 4.46059 13.477 4.46059C13.477 4.46059 13.477 4.46059 13.477 4.46059C13.477 4.46059 13.477 4.46059 13.477 4.46059C13.477 4.46059 13.477 4.46059 13.477 4.46059C13.477 4.46059 13.477 4.46059 13.477 4.46059C13.477 4.46059 13.477 4.46059 13.477 4.46059C13.477 4.46059 13.477 4.46059 13.477 4.46059C13.477 4.46059 13.477 4.46059 13.477 4.4606C13.477 4.4606 13.477 4.4606 13.477 4.4606C13.477 4.4606 13.477 4.4606 13.477 4.4606C13.477 4.4606 13.477 4.4606 13.477 4.4606C13.477 4.4606 13.477 4.4606 13.477 4.4606C13.477 4.4606 13.477 4.4606 13.477 4.4606C13.477 4.4606 13.477 4.4606 13.477 4.4606C13.477 4.4606 13.477 4.4606 13.477 4.4606C13.477 4.4606 13.477 4.4606 13.477 4.4606C13.477 4.4606 13.477 4.4606 13.477 4.4606C13.477 4.4606 13.477 4.4606 13.477 4.4606C13.477 4.4606 13.477 4.4606 13.477 4.4606C13.477 4.4606 13.477 4.4606 13.477 4.4606C13.477 4.4606 13.477 4.4606 13.477 4.4606C13.477 4.4606 13.477 4.4606 13.477 4.4606C13.477 4.4606 13.477 4.4606 13.477 4.4606C13.477 4.4606 13.477 4.4606 13.477 4.4606C13.477 4.4606 13.477 4.4606 13.477 4.4606C13.477 4.4606 13.477 4.4606 13.477 4.4606C13.477 4.4606 13.477 4.4606 13.477 4.4606C13.477 4.4606 13.477 4.4606 13.477 4.4606C13.477 4.4606 13.477 4.4606 13.477 4.4606C13.477 4.4606 13.477 4.4606 13.477 4.4606C13.477 4.4606 13.477 4.4606 13.477 4.4606C13.477 4.4606 13.477 4.4606 13.477 4.46061C13.477 4.46061 13.477 4.46061 13.477 4.46061C13.477 4.46061 13.477 4.46061 13.477 4.46061C13.477 4.46061 13.477 4.46061 13.477 4.46061C13.477 4.46061 13.477 4.46061 13.477 4.46061C13.477 4.46061 13.477 4.46061 13.477 4.46061C13.477 4.46061 13.477 4.46061 13.477 4.46061C13.477 4.46061 13.477 4.46061 13.477 4.46061C13.477 4.46061 13.477 4.46061 13.477 4.46061C13.477 4.46061 13.477 4.46061 13.477 4.46061C13.477 4.46061 13.477 4.46061 13.477 4.46061C13.477 4.46061 13.477 4.46061 13.477 4.46061C13.477 4.46061 13.477 4.46061 13.477 4.46061C13.477 4.46061 13.477 4.46061 13.477 4.46061C13.477 4.46061 13.477 4.46061 13.477 4.46061C13.477 4.46061 13.477 4.46061 13.477 4.46061C13.477 4.46061 13.477 4.46061 13.477 4.46061C13.477 4.46061 13.477 4.46061 13.477 4.46061C13.477 4.46061 13.477 4.46061 13.477 4.46061C13.477 4.46061 13.477 4.46061 13.477 4.46061C13.477 4.46061 13.477 4.46061 13.477 4.46061C13.477 4.46061 13.477 4.46061 13.477 4.46061C13.477 4.46061 13.477 4.46061 13.477 4.46061C13.477 4.46061 13.477 4.46061 13.477 4.46061C13.477 4.46061 13.477 4.46062 13.477 4.46062C13.477 4.46062 13.477 4.46062 13.477 4.46062C13.477 4.46062 13.477 4.46062 13.477 4.46062C13.477 4.46062 13.477 4.46062 13.477 4.46062C13.477 4.46062 13.477 4.46062 13.477 4.46062C13.477 4.46062 13.477 4.46062 13.477 4.46062C13.477 4.46062 13.477 4.46062 13.477 4.46062C13.477 4.46062 13.477 4.46062 13.477 4.46062C13.477 4.46062 13.477 4.46062 13.477 4.46062C13.477 4.46062 13.477 4.46062 13.477 4.46062C13.477 4.46062 13.477 4.46062 13.477 4.46062C13.477 4.46062 13.477 4.46062 13.477 4.46062C13.477 4.46062 13.477 4.46062 13.477 4.46062C13.477 4.46062 13.477 4.46062 13.477 4.46062C13.477 4.46062 13.477 4.46062 13.477 4.46062C13.477 4.46062 13.477 4.46062 13.477 4.46062C13.477 4.46062 13.477 4.46062 13.477 4.46062C13.477 4.46062 13.477 4.46062 13.477 4.46062C13.477 4.46062 13.477 4.46062 13.477 4.46062C13.477 4.46062 13.477 4.46062 13.477 4.46062C13.477 4.46062 13.477 4.46062 13.477 4.46062C13.477 4.46062 13.477 4.46062 13.477 4.46062C13.477 4.46062 13.477 4.46062 13.477 4.46062C13.477 4.46062 13.477 4.46062 13.477 4.46062C13.477 4.46062 13.477 4.46063 13.477 4.46063C13.477 4.46063 13.477 4.46063 13.477 4.46063C13.477 4.46063 13.477 4.46063 13.477 4.46063C13.477 4.46063 13.477 4.46063 13.477 4.46063C13.477 4.46063 13.477 4.46063 13.477 4.46063C13.477 4.46063 13.477 4.46063 13.477 4.46063C13.477 4.46063 13.477 4.46063 13.477 4.46063C13.477 4.46063 13.477 4.46063 13.477 4.46063C13.477 4.46063 13.477 4.46063 13.477 4.46063C13.477 4.46063 13.477 4.46063 13.477 4.46063C13.477 4.46063 13.477 4.46063 13.477 4.46063C13.477 4.46063 13.477 4.46063 13.477 4.46063C13.477 4.46063 13.477 4.46063 13.477 4.46063C13.477 4.46063 13.477 4.46063 13.477 4.46063C13.477 4.46063 13.477 4.46063 13.477 4.46063C13.477 4.46063 13.477 4.46063 13.477 4.46063C13.477 4.46063 13.477 4.46063 13.477 4.46063C13.477 4.46063 13.477 4.46063 13.477 4.46063C13.477 4.46063 13.477 4.46063 13.477 4.46063C13.477 4.46063 13.477 4.46063 13.477 4.46063C13.477 4.46063 13.477 4.46063 13.477 4.46063C13.477 4.46063 13.477 4.46063 13.477 4.46063C13.477 4.46063 13.477 4.46063 13.477 4.46063C13.477 4.46063 13.477 4.46063 13.477 4.46063C13.477 4.46063 13.477 4.46064 13.477 4.46064C13.477 4.46064 13.477 4.46064 13.477 4.46064C13.477 4.46064 13.477 4.46064 13.477 4.46064C13.477 4.46064 13.477 4.46064 13.477 4.46064C13.477 4.46064 13.477 4.46064 13.477 4.46064C13.477 4.46064 13.477 4.46064 13.477 4.46064C13.477 4.46064 13.477 4.46064 13.477 4.46064C13.477 4.46064 13.477 4.46064 13.477 4.46064C13.477 4.46064 13.477 4.46064 13.477 4.46064C13.477 4.46064 13.477 4.46064 13.477 4.46064C13.477 4.46064 13.477 4.46064 13.477 4.46064C13.477 4.46064 13.477 4.46064 13.477 4.46064C13.477 4.46064 13.477 4.46064 13.477 4.46064C13.477 4.46064 13.477 4.46064 13.477 4.46064C13.477 4.46064 13.477 4.46064 13.477 4.46064C13.477 4.46064 13.477 4.46064 13.477 4.46064C13.477 4.46064 13.477 4.46064 13.477 4.46064C13.477 4.46064 13.477 4.46064 13.477 4.46064C13.477 4.46064 13.477 4.46064 13.477 4.46064C13.477 4.46064 13.477 4.46064 13.477 4.46064C13.477 4.46064 13.477 4.46064 13.477 4.46064C13.477 4.46064 13.477 4.46064 13.477 4.46064C13.477 4.46064 13.477 4.46064 13.477 4.46064C13.477 4.46064 13.477 4.46064 13.477 4.46064C13.477 4.46064 13.477 4.46065 13.477 4.46065C13.477 4.46065 13.477 4.46065 13.477 4.46065C13.477 4.46065 13.477 4.46065 13.477 4.46065C13.477 4.46065 13.477 4.46065 13.477 4.46065C13.477 4.46065 13.477 4.46065 13.477 4.46065C13.477 4.46065 13.477 4.46065 13.477 4.46065C13.477 4.46065 13.477 4.46065 13.477 4.46065C13.477 4.46065 13.477 4.46065 13.477 4.46065C13.477 4.46065 13.477 4.46065 13.477 4.46065C13.477 4.46065 13.477 4.46065 13.477 4.46065C13.477 4.46065 13.477 4.46065 13.477 4.46065C13.477 4.46065 13.477 4.46065 13.477 4.46065C13.477 4.46065 13.477 4.46065 13.477 4.46065C13.477 4.46065 13.477 4.46065 13.477 4.46065C13.477 4.46065 13.477 4.46065 13.477 4.46065C13.477 4.46065 13.477 4.46065 13.477 4.46065C13.477 4.46065 13.477 4.46065 13.477 4.46065C13.477 4.46065 13.477 4.46065 13.477 4.46065C13.477 4.46065 13.477 4.46065 13.477 4.46065C13.477 4.46065 13.477 4.46065 13.477 4.46065C13.477 4.46065 13.477 4.46065 13.477 4.46065C13.477 4.46065 13.477 4.46065 13.477 4.46065C13.477 4.46065 13.477 4.46065 13.477 4.46065C13.477 4.46065 13.477 4.46065 13.477 4.46065C13.477 4.46066 13.477 4.46066 13.477 4.46066C13.477 4.46066 13.477 4.46066 13.477 4.46066C13.477 4.46066 13.477 4.46066 13.477 4.46066C13.477 4.46066 13.477 4.46066 13.477 4.46066C13.477 4.46066 13.477 4.46066 13.477 4.46066C13.477 4.46066 13.477 4.46066 13.477 4.46066C13.477 4.46066 13.477 4.46066 13.477 4.46066C13.477 4.46066 13.477 4.46066 13.477 4.46066C13.477 4.46066 13.477 4.46066 13.477 4.46066C13.477 4.46066 13.477 4.46066 13.477 4.46066C13.477 4.46066 13.477 4.46066 13.477 4.46066C13.477 4.46066 13.477 4.46066 13.477 4.46066C13.477 4.46066 13.477 4.46066 13.477 4.46066C13.477 4.46066 13.477 4.46066 13.477 4.46066C13.477 4.46066 13.477 4.46066 13.477 4.46066C13.477 4.46066 13.477 4.46066 13.477 4.46066C13.477 4.46066 13.477 4.46066 13.477 4.46066C13.477 4.46066 13.477 4.46066 13.477 4.46066C13.477 4.46066 13.477 4.46066 13.477 4.46066C13.477 4.46066 13.477 4.46066 13.477 4.46066C13.477 4.46066 13.477 4.46066 13.477 4.46066C13.477 4.46066 13.477 4.46066 13.477 4.46066C13.477 4.46066 13.477 4.46066 13.477 4.46066C13.477 4.46066 13.477 4.46066 13.477 4.46066C13.477 4.46067 13.477 4.46067 13.477 4.46067C13.477 4.46067 13.477 4.46067 13.477 4.46067C13.477 4.46067 13.477 4.46067 13.477 4.46067C13.477 4.46067 13.477 4.46067 13.477 4.46067C13.477 4.46067 13.477 4.46067 13.477 4.46067C13.477 4.46067 13.477 4.46067 13.477 4.46067C13.477 4.46067 13.477 4.46067 13.477 4.46067C13.477 4.46067 13.477 4.46067 13.477 4.46067C13.477 4.46067 13.477 4.46067 13.477 4.46067C13.477 4.46067 13.477 4.46067 13.477 4.46067C13.477 4.46067 13.477 4.46067 13.477 4.46067C13.477 4.46067 13.477 4.46067 13.477 4.46067C13.477 4.46067 13.477 4.46067 13.477 4.46067C13.477 4.46067 13.477 4.46067 13.477 4.46067C13.477 4.46067 13.477 4.46067 13.477 4.46067C13.477 4.46067 13.477 4.46067 13.477 4.46067C13.477 4.46067 13.477 4.46067 13.477 4.46067C13.477 4.46067 13.477 4.46067 13.477 4.46067C13.477 4.46067 13.477 4.46067 13.477 4.46067C13.477 4.46067 13.477 4.46067 13.477 4.46067C13.477 4.46067 13.477 4.46067 13.477 4.46067C13.477 4.46067 13.477 4.46067 13.477 4.46067C13.477 4.46067 13.477 4.46067 13.477 4.46067C13.477 4.46067 13.477 4.46067 13.477 4.46067C13.477 4.46068 13.477 4.46068 13.477 4.46068C13.477 4.46068 13.477 4.46068 13.477 4.46068C13.477 4.46068 13.477 4.46068 13.477 4.46068C13.477 4.46068 13.477 4.46068 13.477 4.46068C13.477 4.46068 13.477 4.46068 13.477 4.46068C13.477 4.46068 13.477 4.46068 13.477 4.46068C13.477 4.46068 13.477 4.46068 13.477 4.46068C13.477 4.46068 13.477 4.46068 13.477 4.46068C13.477 4.46068 13.477 4.46068 13.477 4.46068C13.477 4.46068 13.477 4.46068 13.477 4.46068C13.477 4.46068 13.477 4.46068 13.477 4.46068C13.477 4.46068 13.477 4.46068 13.477 4.46068C13.477 4.46068 13.477 4.46068 13.477 4.46068C13.477 4.46068 13.477 4.46068 13.477 4.46068C13.477 4.46068 13.477 4.46068 13.477 4.46068C13.477 4.46068 13.477 4.46068 13.477 4.46068C13.477 4.46068 13.477 4.46068 13.477 4.46068C13.477 4.46068 13.477 4.46068 13.477 4.46068C13.477 4.46068 13.477 4.46068 13.477 4.46068C13.477 4.46068 13.477 4.46068 13.477 4.46068C13.477 4.46068 13.477 4.46068 13.477 4.46068C13.477 4.46068 13.477 4.46068 13.477 4.46068C13.477 4.46068 13.477 4.46068 13.477 4.46068C13.477 4.46068 13.477 4.46068 13.477 4.46068C13.477 4.46069 13.477 4.46069 13.477 4.46069C13.477 4.46069 13.477 4.46069 13.477 4.46069C13.477 4.46069 13.477 4.46069 13.477 4.46069C13.477 4.46069 13.477 4.46069 13.477 4.46069C13.477 4.46069 13.477 4.46069 13.477 4.46069C13.477 4.46069 13.477 4.46069 13.477 4.46069C13.477 4.46069 13.477 4.46069 13.477 4.46069C13.477 4.46069 13.477 4.46069 13.477 4.46069C13.477 4.46069 13.477 4.46069 13.477 4.46069C13.477 4.46069 13.477 4.46069 13.477 4.46069C13.477 4.46069 13.477 4.46069 13.477 4.46069C13.477 4.46069 13.477 4.46069 13.477 4.46069C13.477 4.46069 13.477 4.46069 13.477 4.46069C13.477 4.46069 13.477 4.46069 13.477 4.46069C13.477 4.46069 13.477 4.46069 13.477 4.46069C13.477 4.46069 13.477 4.46069 13.477 4.46069C13.477 4.46069 13.477 4.46069 13.477 4.46069C13.477 4.46069 13.477 4.46069 13.477 4.46069C13.477 4.46069 13.477 4.46069 13.477 4.46069C13.477 4.46069 13.477 4.46069 13.477 4.46069C13.477 4.46069 13.477 4.46069 13.477 4.46069C13.477 4.46069 13.477 4.46069 13.477 4.46069C13.477 4.46069 13.477 4.46069 13.477 4.46069C13.477 4.46069 13.477 4.46069 13.477 4.46069C13.477 4.4607 13.477 4.4607 13.477 4.4607C13.477 4.4607 13.477 4.4607 13.477 4.4607C13.477 4.4607 13.477 4.4607 13.477 4.4607C13.477 4.4607 13.477 4.4607 13.477 4.4607C13.477 4.4607 13.477 4.4607 13.477 4.4607C13.477 4.4607 13.477 4.4607 13.477 4.4607C13.477 4.4607 13.477 4.4607 13.477 4.4607C13.477 4.4607 13.477 4.4607 13.477 4.4607C13.477 4.4607 13.477 4.4607 13.477 4.4607C13.477 4.4607 13.477 4.4607 13.477 4.4607C13.477 4.4607 13.477 4.4607 13.477 4.4607C13.477 4.4607 13.477 4.4607 13.477 4.4607C13.477 4.4607 13.477 4.4607 13.477 4.4607C13.477 4.4607 13.477 4.4607 13.477 4.4607C13.477 4.4607 13.477 4.4607 13.477 4.4607C13.477 4.4607 13.477 4.4607 13.477 4.4607C13.477 4.4607 13.477 4.4607 13.477 4.4607C13.477 4.4607 13.477 4.4607 13.477 4.4607C13.477 4.4607 13.477 4.4607 13.477 4.4607C13.477 4.4607 13.477 4.4607 13.477 4.4607C13.477 4.4607 13.477 4.4607 13.477 4.4607C13.477 4.4607 13.477 4.4607 13.477 4.4607C13.477 4.4607 13.477 4.4607 13.477 4.4607C13.477 4.4607 13.477 4.4607 13.477 4.46071C13.477 4.46071 13.477 4.46071 13.4769 4.46071C13.4769 4.46071 13.4769 4.46071 13.4769 4.46071C13.4769 4.46071 13.4769 4.46071 13.4769 4.46071C13.4769 4.46071 13.4769 4.46071 13.4769 4.46071C13.4769 4.46071 13.4769 4.46071 13.4769 4.46071C13.4769 4.46071 13.4769 4.46071 13.4769 4.46071C13.4769 4.46071 13.4769 4.46071 13.4769 4.46071C13.4769 4.46071 13.4769 4.46071 13.4769 4.46071C13.4769 4.46071 13.4769 4.46071 13.4769 4.46071C13.4769 4.46071 13.4769 4.46071 13.4769 4.46071C13.4769 4.46071 13.4769 4.46071 13.4769 4.46071C13.4769 4.46071 13.4769 4.46071 13.4769 4.46071C13.4769 4.46071 13.4769 4.46071 13.4769 4.46071C13.4769 4.46071 13.4769 4.46071 13.4769 4.46071C13.4769 4.46071 13.4769 4.46071 13.4769 4.46071C13.4769 4.46071 13.4769 4.46071 13.4769 4.46071C13.4769 4.46071 13.4769 4.46071 13.4769 4.46071C13.4769 4.46071 13.4769 4.46071 13.4769 4.46071C13.4769 4.46071 13.4769 4.46071 13.4769 4.46071C13.4769 4.46071 13.4769 4.46071 13.4769 4.46071C13.4769 4.46071 13.4769 4.46071 13.4769 4.46071C13.4769 4.46071 13.4769 4.46071 13.4769 4.46071C13.4769 4.46071 13.4769 4.46071 13.4769 4.46071C13.4769 4.46071 13.4769 4.46071 13.4769 4.46072C13.4769 4.46072 13.4769 4.46072 13.4769 4.46072C13.4769 4.46072 13.4769 4.46072 13.4769 4.46072C13.4769 4.46072 13.4769 4.46072 13.4769 4.46072C13.4769 4.46072 13.4769 4.46072 13.4769 4.46072C13.4769 4.46072 13.4769 4.46072 13.4769 4.46072C13.4769 4.46072 13.4769 4.46072 13.4769 4.46072C13.4769 4.46072 13.4769 4.46072 13.4769 4.46072C13.4769 4.46072 13.4769 4.46072 13.4769 4.46072C13.4769 4.46072 13.4769 4.46072 13.4769 4.46072C13.4769 4.46072 13.4769 4.46072 13.4769 4.46072C13.4769 4.46072 13.4769 4.46072 13.4769 4.46072C13.4769 4.46072 13.4769 4.46072 13.4769 4.46072C13.4769 4.46072 13.4769 4.46072 13.4769 4.46072C13.4769 4.46072 13.4769 4.46072 13.4769 4.46072C13.4769 4.46072 13.4769 4.46072 13.4769 4.46072C13.4769 4.46072 13.4769 4.46072 13.4769 4.46072C13.4769 4.46072 13.4769 4.46072 13.4769 4.46072C13.4769 4.46072 13.4769 4.46072 13.4769 4.46072C13.4769 4.46072 13.4769 4.46072 13.4769 4.46072C13.4769 4.46072 13.4769 4.46072 13.4769 4.46072C13.4769 4.46072 13.4769 4.46072 13.4769 4.46072C13.4769 4.46072 13.4769 4.46072 13.4769 4.46072C13.4769 4.46072 13.4769 4.46072 13.4769 4.46072C13.4769 4.46072 13.4769 4.46072 13.4769 4.46073C13.4769 4.46073 13.4769 4.46073 13.4769 4.46073C13.4769 4.46073 13.4769 4.46073 13.4769 4.46073C13.4769 4.46073 13.4769 4.46073 13.4769 4.46073C13.4769 4.46073 13.4769 4.46073 13.4769 4.46073C13.4769 4.46073 13.4769 4.46073 13.4769 4.46073C13.4769 4.46073 13.4769 4.46073 13.4769 4.46073C13.4769 4.46073 13.4769 4.46073 13.4769 4.46073C13.4769 4.46073 13.4769 4.46073 13.4769 4.46073C13.4769 4.46073 13.4769 4.46073 13.4769 4.46073C13.4769 4.46073 13.4769 4.46073 13.4769 4.46073C13.4769 4.46073 13.4769 4.46073 13.4769 4.46073C13.4769 4.46073 13.4769 4.46073 13.4769 4.46073C13.4769 4.46073 13.4769 4.46073 13.4769 4.46073C13.4769 4.46073 13.4769 4.46073 13.4769 4.46073C13.4769 4.46073 13.4769 4.46073 13.4769 4.46073C13.4769 4.46073 13.4769 4.46073 13.4769 4.46073C13.4769 4.46073 13.4769 4.46073 13.4769 4.46073C13.4769 4.46073 13.4769 4.46073 13.4769 4.46073C13.4769 4.46073 13.4769 4.46073 13.4769 4.46073C13.4769 4.46073 13.4769 4.46073 13.4769 4.46073C13.4769 4.46073 13.4769 4.46073 13.4769 4.46073C13.4769 4.46073 13.4769 4.46073 13.4769 4.46073C13.4769 4.46073 13.4769 4.46073 13.4769 4.46073C13.4769 4.46073 13.4769 4.46073 13.4769 4.46074C13.4769 4.46074 13.4769 4.46074 13.4769 4.46074C13.4769 4.46074 13.4769 4.46074 13.4769 4.46074C13.4769 4.46074 13.4769 4.46074 13.4769 4.46074C13.4769 4.46074 13.4769 4.46074 13.4769 4.46074C13.4769 4.46074 13.4769 4.46074 13.4769 4.46074C13.4769 4.46074 13.4769 4.46074 13.4769 4.46074C13.4769 4.46074 13.4769 4.46074 13.4769 4.46074C13.4769 4.46074 13.4769 4.46074 13.4769 4.46074C13.4769 4.46074 13.4769 4.46074 13.4769 4.46074C13.4769 4.46074 13.4769 4.46074 13.4769 4.46074C13.4769 4.46074 13.4769 4.46074 13.4769 4.46074C13.4769 4.46074 13.4769 4.46074 13.4769 4.46074C13.4769 4.46074 13.4769 4.46074 13.4769 4.46074C13.4769 4.46074 13.4769 4.46074 13.4769 4.46074C13.4769 4.46074 13.4769 4.46074 13.4769 4.46074C13.4769 4.46074 13.4769 4.46074 13.4769 4.46074C13.4769 4.46074 13.4769 4.46074 13.4769 4.46074C13.4769 4.46074 13.4769 4.46074 13.4769 4.46074C13.4769 4.46074 13.4769 4.46074 13.4769 4.46074C13.4769 4.46074 13.4769 4.46074 13.4769 4.46074C13.4769 4.46074 13.4769 4.46074 13.4769 4.46074C13.4769 4.46074 13.4769 4.46074 13.4769 4.46074C13.4769 4.46074 13.4769 4.46074 13.4769 4.46074C13.4769 4.46074 13.4769 4.46075 13.4769 4.46075C13.4769 4.46075 13.4769 4.46075 13.4769 4.46075C13.4769 4.46075 13.4769 4.46075 13.4769 4.46075C13.4769 4.46075 13.4769 4.46075 13.4769 4.46075C13.4769 4.46075 13.4769 4.46075 13.4769 4.46075C13.4769 4.46075 13.4769 4.46075 13.4769 4.46075C13.4769 4.46075 13.4769 4.46075 13.4769 4.46075C13.4769 4.46075 13.4769 4.46075 13.4769 4.46075C13.4769 4.46075 13.4769 4.46075 13.4769 4.46075C13.4769 4.46075 13.4769 4.46075 13.4769 4.46075C13.4769 4.46075 13.4769 4.46075 13.4769 4.46075C13.4769 4.46075 13.4769 4.46075 13.4769 4.46075C13.4769 4.46075 13.4769 4.46075 13.4769 4.46075C13.4769 4.46075 13.4769 4.46075 13.4769 4.46075C13.4769 4.46075 13.4769 4.46075 13.4769 4.46075C13.4769 4.46075 13.4769 4.46075 13.4769 4.46075C13.4769 4.46075 13.4769 4.46075 13.4769 4.46075C13.4769 4.46075 13.4769 4.46075 13.4769 4.46075C13.4769 4.46075 13.4769 4.46075 13.4769 4.46075C13.4769 4.46075 13.4769 4.46075 13.4769 4.46075C13.4769 4.46075 13.4769 4.46075 13.4769 4.46075C13.4769 4.46075 13.4769 4.46075 13.4769 4.46075C13.4769 4.46075 13.4769 4.46075 13.4769 4.46075C13.4769 4.46075 13.4769 4.46075 13.4769 4.46075C13.4769 4.46075 13.4769 4.46076 13.4769 4.46076C13.4769 4.46076 13.4769 4.46076 13.4769 4.46076C13.4769 4.46076 13.4769 4.46076 13.4769 4.46076C13.4769 4.46076 13.4769 4.46076 13.4769 4.46076C13.4769 4.46076 13.4769 4.46076 13.4769 4.46076C13.4769 4.46076 13.4769 4.46076 13.4769 4.46076C13.4769 4.46076 13.4769 4.46076 13.4769 4.46076C13.4769 4.46076 13.4769 4.46076 13.4769 4.46076C13.4769 4.46076 13.4769 4.46076 13.4769 4.46076C13.4769 4.46076 13.4769 4.46076 13.4769 4.46076C13.4769 4.46076 13.4769 4.46076 13.4769 4.46076C13.4769 4.46076 13.4769 4.46076 13.4769 4.46076C13.4769 4.46076 13.4769 4.46076 13.4769 4.46076C13.4769 4.46076 13.4769 4.46076 13.4769 4.46076C13.4769 4.46076 13.4769 4.46076 13.4769 4.46076C13.4769 4.46076 13.4769 4.46076 13.4769 4.46076C13.4769 4.46076 13.4769 4.46076 13.4769 4.46076C13.4769 4.46076 13.4769 4.46076 13.4769 4.46076C13.4769 4.46076 13.4769 4.46076 13.4769 4.46076C13.4769 4.46076 13.4769 4.46076 13.4769 4.46076C13.4769 4.46076 13.4769 4.46076 13.4769 4.46076C13.4769 4.46076 13.4769 4.46076 13.4769 4.46076C13.4769 4.46076 13.4769 4.46076 13.4769 4.46076C13.4769 4.46076 13.4769 4.46076 13.4769 4.46076C13.4769 4.46076 13.4769 4.46077 13.4769 4.46077C13.4769 4.46077 13.4769 4.46077 13.4769 4.46077C13.4769 4.46077 13.4769 4.46077 13.4769 4.46077C13.4769 4.46077 13.4769 4.46077 13.4769 4.46077C13.4769 4.46077 13.4769 4.46077 13.4769 4.46077C13.4769 4.46077 13.4769 4.46077 13.4769 4.46077C13.4769 4.46077 13.4769 4.46077 13.4769 4.46077C13.4769 4.46077 13.4769 4.46077 13.4769 4.46077C13.4769 4.46077 13.4769 4.46077 13.4769 4.46077C13.4769 4.46077 13.4769 4.46077 13.4769 4.46077C13.4769 4.46077 13.4769 4.46077 13.4769 4.46077C13.4769 4.46077 13.4769 4.46077 13.4769 4.46077C13.4769 4.46077 13.4769 4.46077 13.4769 4.46077C13.4769 4.46077 13.4769 4.46077 13.4769 4.46077C13.4769 4.46077 13.4769 4.46077 13.4769 4.46077C13.4769 4.46077 13.4769 4.46077 13.4769 4.46077C13.4769 4.46077 13.4769 4.46077 13.4769 4.46077C13.4769 4.46077 13.4769 4.46077 13.4769 4.46077C13.4769 4.46077 13.4769 4.46077 13.4769 4.46077C13.4769 4.46077 13.4769 4.46077 13.4769 4.46077C13.4769 4.46077 13.4769 4.46077 13.4769 4.46077C13.4769 4.46077 13.4769 4.46077 13.4769 4.46077C13.4769 4.46077 13.4769 4.46077 13.4769 4.46077C13.4769 4.46077 13.4769 4.46077 13.4769 4.46077C13.4769 4.46077 13.4769 4.46078 13.4769 4.46078C13.4769 4.46078 13.4769 4.46078 13.4769 4.46078C13.4769 4.46078 13.4769 4.46078 13.4769 4.46078C13.4769 4.46078 13.4769 4.46078 13.4769 4.46078C13.4769 4.46078 13.4769 4.46078 13.4769 4.46078C13.4769 4.46078 13.4769 4.46078 13.4769 4.46078C13.4769 4.46078 13.4769 4.46078 13.4769 4.46078C13.4769 4.46078 13.4769 4.46078 13.4769 4.46078C13.4769 4.46078 13.4769 4.46078 13.4769 4.46078C13.4769 4.46078 13.4769 4.46078 13.4769 4.46078C13.4769 4.46078 13.4769 4.46078 13.4769 4.46078C13.4769 4.46078 13.4769 4.46078 13.4769 4.46078C13.4769 4.46078 13.4769 4.46078 13.4769 4.46078C13.4769 4.46078 13.4769 4.46078 13.4769 4.46078C13.4769 4.46078 13.4769 4.46078 13.4769 4.46078C13.4769 4.46078 13.4769 4.46078 13.4769 4.46078C13.4769 4.46078 13.4769 4.46078 13.4769 4.46078C13.4769 4.46078 13.4769 4.46078 13.4769 4.46078C13.4769 4.46078 13.4769 4.46078 13.4769 4.46078C13.4769 4.46078 13.4769 4.46078 13.4769 4.46078C13.4769 4.46078 13.4769 4.46078 13.4769 4.46078C13.4769 4.46078 13.4769 4.46078 13.4769 4.46078C13.4769 4.46078 13.4769 4.46078 13.4769 4.46078C13.4769 4.46078 13.4769 4.46078 13.4769 4.46078C13.4769 4.46079 13.4769 4.46079 13.4769 4.46079C13.4769 4.46079 13.4769 4.46079 13.4769 4.46079C13.4769 4.46079 13.4769 4.46079 13.4769 4.46079C13.4769 4.46079 13.4769 4.46079 13.4769 4.46079C13.4769 4.46079 13.4769 4.46079 13.4769 4.46079C13.4769 4.46079 13.4769 4.46079 13.4769 4.46079C13.4769 4.46079 13.4769 4.46079 13.4769 4.46079C13.4769 4.46079 13.4769 4.46079 13.4769 4.46079C13.4769 4.46079 13.4769 4.46079 13.4769 4.46079C13.4769 4.46079 13.4769 4.46079 13.4769 4.46079C13.4769 4.46079 13.4769 4.46079 13.4769 4.46079C13.4769 4.46079 13.4769 4.46079 13.4769 4.46079C13.4769 4.46079 13.4769 4.46079 13.4769 4.46079C13.4769 4.46079 13.4769 4.46079 13.4769 4.46079C13.4769 4.46079 13.4769 4.46079 13.4769 4.46079C13.4769 4.46079 13.4769 4.46079 13.4769 4.46079C13.4769 4.46079 13.4769 4.46079 13.4769 4.46079C13.4769 4.46079 13.4769 4.46079 13.4769 4.46079C13.4769 4.46079 13.4769 4.46079 13.4769 4.46079C13.4769 4.46079 13.4769 4.46079 13.4769 4.46079C13.4769 4.46079 13.4769 4.46079 13.4769 4.46079C13.4769 4.46079 13.4769 4.46079 13.4769 4.46079C13.4769 4.46079 13.4769 4.46079 13.4769 4.46079C13.4769 4.46079 13.4769 4.46079 13.4769 4.46079C13.4769 4.4608 13.4769 4.4608 13.4769 4.4608C13.4769 4.4608 13.4769 4.4608 13.4769 4.4608C13.4769 4.4608 13.4769 4.4608 13.4769 4.4608C13.4769 4.4608 13.4769 4.4608 13.4769 4.4608C13.4769 4.4608 13.4769 4.4608 13.4769 4.4608C13.4769 4.4608 13.4769 4.4608 13.4769 4.4608C13.4769 4.4608 13.4769 4.4608 13.4769 4.4608C13.4769 4.4608 13.4769 4.4608 13.4769 4.4608C13.4769 4.4608 13.4769 4.4608 13.4769 4.4608C13.4769 4.4608 13.4769 4.4608 13.4769 4.4608C13.4769 4.4608 13.4769 4.4608 13.4769 4.4608C13.4769 4.4608 13.4769 4.4608 13.4769 4.4608C13.4769 4.4608 13.4769 4.4608 13.4769 4.4608C13.4769 4.4608 13.4769 4.4608 13.4769 4.4608C13.4769 4.4608 13.4769 4.4608 13.4769 4.4608C13.4769 4.4608 13.4769 4.4608 13.4769 4.4608C13.4769 4.4608 13.4769 4.4608 13.4769 4.4608C13.4769 4.4608 13.4769 4.4608 13.4769 4.4608C13.4769 4.4608 13.4769 4.4608 13.4769 4.4608L15.4517 4.77756ZM16.0192 4.55992C15.7056 4.2122 15.3305 3.94112 14.9234 3.73077L14.0053 5.50759C14.2354 5.62649 14.4072 5.75878 14.534 5.89939L16.0192 4.55992ZM16.8512 8.75544C17.1538 7.24015 17.0512 5.70573 16.0196 4.56041L14.5335 5.8989C14.9548 6.36663 15.1365 7.12866 14.8899 8.36377L16.8512 8.75544ZM10.086 13.9883C11.6429 13.9883 13.1495 13.6819 14.3792 12.8301C15.6329 11.9616 16.4807 10.6083 16.8511 8.75564L14.8899 8.36357C14.6024 9.80179 13.9956 10.6628 13.2403 11.186C12.4611 11.7258 11.4044 11.9883 10.086 11.9883V13.9883ZM9.64187 13.9883H10.086V11.9883H9.64187V13.9883ZM9.92385 13.7355C9.89715 13.9 9.76249 13.9883 9.64187 13.9883V11.9883C8.81868 11.9883 8.08603 12.5752 7.94969 13.4151L9.92385 13.7355ZM9.88336 13.9517L9.9194 13.7608L7.95413 13.3898L7.91809 13.5806L9.88336 13.9517ZM9.32845 17.3797L9.88786 13.9261L7.91359 13.6063L7.35418 17.0599L9.32845 17.3797ZM9.29364 17.5598L9.32257 17.4124L7.36005 17.0271L7.33112 17.1744L9.29364 17.5598ZM7.60728 18.9541C8.43046 18.9541 9.16312 18.3673 9.29946 17.5274L7.3253 17.2069C7.35199 17.0425 7.48665 16.9541 7.60728 16.9541V18.9541ZM4.63915 18.9541H7.60728V16.9541H4.63915V18.9541ZM3.22922 17.3112C3.08454 18.2021 3.79012 18.9541 4.63915 18.9541V16.9541C4.96227 16.9541 5.26581 17.2472 5.20336 17.6318L3.22922 17.3112ZM4.32919 10.5182L3.22915 17.3116L5.20343 17.6313L6.30347 10.8379L4.32919 10.5182ZM4.33967 10.4596C4.33584 10.4791 4.33233 10.4987 4.32915 10.5184L6.30351 10.8376C6.30314 10.8399 6.30274 10.8422 6.30229 10.8445L4.33967 10.4596ZM4.35682 10.3488L4.33357 10.4938L6.30839 10.8102L6.33163 10.6651L4.35682 10.3488ZM5.30737 4.47793L4.35708 10.3471L6.33137 10.6668L7.28166 4.79759L5.30737 4.47793ZM6.26856 3.21237C5.77898 3.44086 5.40055 3.90017 5.30727 4.47853L7.28175 4.79698C7.2636 4.90953 7.19077 4.98906 7.11441 5.0247L6.26856 3.21237ZM6.99961 3.05029C6.74174 3.05029 6.49165 3.10725 6.26525 3.21392L7.11772 5.02315C7.07812 5.0418 7.03718 5.05029 6.99961 5.05029V3.05029ZM11.4703 3.05029H6.99961V5.05029H11.4703V3.05029ZM13.1012 3.16732C12.5879 3.08643 12.0413 3.05029 11.4703 3.05029V5.05029C11.9593 5.05029 12.3995 5.08141 12.7898 5.14293L13.1012 3.16732ZM13.5325 3.24722C13.3911 3.21681 13.2468 3.19022 13.1008 3.16726L12.7902 5.14299C12.9021 5.16058 13.0096 5.18048 13.1119 5.20249L13.5325 3.24722Z" fill="#FF8D40" mask="url(#path-3-inside-2_1748_36821)"/>
</svg>
