<svg width="18" height="18" viewBox="0 0 18 18" fill="none" xmlns="http://www.w3.org/2000/svg">
<path d="M11.8125 9H12.9375V10.125H11.8125V9ZM5.0625 9H9.5625V10.125H5.0625V9ZM11.8125 6.75H12.9375V7.875H11.8125V6.75ZM5.0625 6.75H9.5625V7.875H5.0625V6.75ZM5.0625 4.5H12.9375V5.625H5.0625V4.5Z" fill="#FF8D40"/>
<path d="M14.0625 1.125H3.9375C3.63922 1.1253 3.35325 1.24392 3.14233 1.45483C2.93142 1.66575 2.8128 1.95172 2.8125 2.25V16.3125C2.8125 16.4617 2.87176 16.6048 2.97725 16.7102C3.08274 16.8157 3.22582 16.875 3.375 16.875H3.9375C4.02483 16.875 4.11097 16.8547 4.18909 16.8157C4.2672 16.7766 4.33514 16.7199 4.3875 16.65L5.625 15.0002L6.8625 16.65C6.91711 16.7165 6.9858 16.7701 7.06361 16.8069C7.14142 16.8437 7.22643 16.8628 7.3125 16.8628C7.39857 16.8628 7.48358 16.8437 7.56139 16.8069C7.6392 16.7701 7.70789 16.7165 7.7625 16.65L9 15.0002L10.2375 16.65C10.2921 16.7165 10.3608 16.7701 10.4386 16.8069C10.5164 16.8437 10.6014 16.8628 10.6875 16.8628C10.7736 16.8628 10.8586 16.8437 10.9364 16.8069C11.0142 16.7701 11.0829 16.7165 11.1375 16.65L12.375 15.0002L13.6125 16.65C13.6649 16.7199 13.7328 16.7766 13.8109 16.8156C13.889 16.8547 13.9752 16.875 14.0625 16.875H14.625C14.7742 16.875 14.9173 16.8157 15.0227 16.7102C15.1282 16.6048 15.1875 16.4617 15.1875 16.3125V2.25C15.1872 1.95172 15.0686 1.66575 14.8577 1.45483C14.6468 1.24392 14.3608 1.1253 14.0625 1.125ZM14.0625 15.3748L12.825 13.725C12.7704 13.6585 12.7017 13.6049 12.6239 13.5681C12.5461 13.5313 12.4611 13.5122 12.375 13.5122C12.2889 13.5122 12.2039 13.5313 12.1261 13.5681C12.0483 13.6049 11.9796 13.6585 11.925 13.725L10.6875 15.3748L9.45 13.725C9.39539 13.6585 9.3267 13.6049 9.24889 13.5681C9.17108 13.5313 9.08607 13.5122 9 13.5122C8.91393 13.5122 8.82892 13.5313 8.75111 13.5681C8.6733 13.6049 8.60461 13.6585 8.55 13.725L7.3125 15.3748L6.075 13.725C6.02039 13.6585 5.9517 13.6049 5.87389 13.5681C5.79608 13.5313 5.71107 13.5122 5.625 13.5122C5.53893 13.5122 5.45392 13.5313 5.37611 13.5681C5.2983 13.6049 5.22961 13.6585 5.175 13.725L3.9375 15.3748V2.25H14.0625V15.3748Z" fill="#FF8D40"/>
</svg>
