<svg width="18" height="18" viewBox="0 0 18 18" fill="none" xmlns="http://www.w3.org/2000/svg">
<path d="M1.125 12.375H16.875V13.5H1.125V12.375ZM1.125 14.625H16.875V15.75H1.125V14.625ZM13.5 5.625C13.2775 5.625 13.06 5.69098 12.875 5.8146C12.69 5.93821 12.5458 6.11392 12.4606 6.31948C12.3755 6.52505 12.3532 6.75125 12.3966 6.96948C12.44 7.18771 12.5472 7.38816 12.7045 7.5455C12.8618 7.70283 13.0623 7.80998 13.2805 7.85339C13.4988 7.89679 13.725 7.87451 13.9305 7.78937C14.1361 7.70422 14.3118 7.56002 14.4354 7.37502C14.559 7.19001 14.625 6.97251 14.625 6.75C14.625 6.45163 14.5065 6.16548 14.2955 5.95451C14.0845 5.74353 13.7984 5.625 13.5 5.625ZM9 9C8.55499 9 8.11998 8.86804 7.74997 8.62081C7.37996 8.37357 7.09157 8.02217 6.92127 7.61104C6.75097 7.19991 6.70642 6.74751 6.79323 6.31105C6.88005 5.87459 7.09434 5.47368 7.40901 5.15901C7.72368 4.84434 8.12459 4.63005 8.56105 4.54323C8.9975 4.45642 9.4499 4.50097 9.86104 4.67127C10.2722 4.84157 10.6236 5.12996 10.8708 5.49997C11.118 5.86998 11.25 6.30499 11.25 6.75C11.2493 7.34651 11.012 7.91837 10.5902 8.34017C10.1684 8.76197 9.59651 8.99926 9 9ZM9 5.625C8.7775 5.625 8.55999 5.69098 8.37498 5.8146C8.18998 5.93821 8.04578 6.11392 7.96064 6.31948C7.87549 6.52505 7.85321 6.75125 7.89662 6.96948C7.94002 7.18771 8.04717 7.38816 8.2045 7.5455C8.36184 7.70283 8.56229 7.80998 8.78052 7.85339C8.99875 7.89679 9.22495 7.87451 9.43052 7.78937C9.63609 7.70422 9.81179 7.56002 9.9354 7.37502C10.059 7.19001 10.125 6.97251 10.125 6.75C10.1247 6.45172 10.0061 6.16575 9.79517 5.95484C9.58425 5.74392 9.29828 5.6253 9 5.625ZM4.5 5.625C4.2775 5.625 4.05999 5.69098 3.87498 5.8146C3.68998 5.93821 3.54578 6.11392 3.46064 6.31948C3.37549 6.52505 3.35321 6.75125 3.39662 6.96948C3.44002 7.18771 3.54717 7.38816 3.7045 7.5455C3.86184 7.70283 4.06229 7.80998 4.28052 7.85339C4.49875 7.89679 4.72495 7.87451 4.93052 7.78937C5.13609 7.70422 5.31179 7.56002 5.4354 7.37502C5.55902 7.19001 5.625 6.97251 5.625 6.75C5.625 6.45163 5.50647 6.16548 5.2955 5.95451C5.08452 5.74353 4.79837 5.625 4.5 5.625Z" fill="#FF8D40"/>
<path d="M15.75 11.25H2.25C1.95186 11.2493 1.66614 11.1305 1.45533 10.9197C1.24451 10.7089 1.12574 10.4231 1.125 10.125V3.375C1.12574 3.07686 1.24451 2.79114 1.45533 2.58033C1.66614 2.36951 1.95186 2.25074 2.25 2.25H15.75C16.0481 2.25074 16.3339 2.36951 16.5447 2.58033C16.7555 2.79114 16.8743 3.07686 16.875 3.375V10.125C16.8746 10.4232 16.7559 10.7091 16.545 10.92C16.3341 11.1309 16.0482 11.2496 15.75 11.25ZM15.75 3.375H2.25V10.125H15.75V3.375Z" fill="#FF8D40"/>
</svg>
