<svg width="18" height="18" viewBox="0 0 18 18" fill="none" xmlns="http://www.w3.org/2000/svg">
<path d="M15.75 3.375H2.25C1.95163 3.375 1.66548 3.49353 1.4545 3.7045C1.24353 3.91548 1.125 4.20163 1.125 4.5V13.5C1.125 13.7984 1.24353 14.0845 1.4545 14.2955C1.66548 14.5065 1.95163 14.625 2.25 14.625H15.75C16.0484 14.625 16.3345 14.5065 16.5455 14.2955C16.7565 14.0845 16.875 13.7984 16.875 13.5V4.5C16.875 4.20163 16.7565 3.91548 16.5455 3.7045C16.3345 3.49353 16.0484 3.375 15.75 3.375ZM15.75 4.5V6.1875H2.25V4.5H15.75ZM2.25 13.5V7.3125H15.75V13.5H2.25Z" fill="#FF8D40"/>
<path d="M3.375 11.25H9V12.375H3.375V11.25Z" fill="#FF8D40"/>
</svg>
