<svg width="20" height="20" viewBox="0 0 20 20" fill="none" xmlns="http://www.w3.org/2000/svg">
<path d="M2.5 16.25H17.5V17.5H2.5V16.25ZM2.5 11.875H17.5V13.125H2.5V11.875ZM7.5 3.75V7.5H3.75V3.75H7.5ZM7.5 2.5H3.75C3.41848 2.5 3.10054 2.6317 2.86612 2.86612C2.6317 3.10054 2.5 3.41848 2.5 3.75V7.5C2.5 7.83152 2.6317 8.14946 2.86612 8.38388C3.10054 8.6183 3.41848 8.75 3.75 8.75H7.5C7.83152 8.75 8.14946 8.6183 8.38388 8.38388C8.6183 8.14946 8.75 7.83152 8.75 7.5V3.75C8.75 3.41848 8.6183 3.10054 8.38388 2.86612C8.14946 2.6317 7.83152 2.5 7.5 2.5ZM16.25 3.75V7.5H12.5V3.75H16.25ZM16.25 2.5H12.5C12.1685 2.5 11.8505 2.6317 11.6161 2.86612C11.3817 3.10054 11.25 3.41848 11.25 3.75V7.5C11.25 7.83152 11.3817 8.14946 11.6161 8.38388C11.8505 8.6183 12.1685 8.75 12.5 8.75H16.25C16.5815 8.75 16.8995 8.6183 17.1339 8.38388C17.3683 8.14946 17.5 7.83152 17.5 7.5V3.75C17.5 3.41848 17.3683 3.10054 17.1339 2.86612C16.8995 2.6317 16.5815 2.5 16.25 2.5Z" fill="#131F1E"/>
</svg>
