<svg width="24" height="24" viewBox="0 0 24 24" fill="none" xmlns="http://www.w3.org/2000/svg">
<path fill-rule="evenodd" clip-rule="evenodd" d="M16.8191 3.85242C17.7243 3.59894 18.37 3.41867 18.8668 3.32749C19.3669 3.23569 19.6328 3.25211 19.8091 3.31888C20.2111 3.47111 20.5284 3.78844 20.6806 4.19039C20.7474 4.36669 20.7638 4.63256 20.672 5.1327C20.5808 5.62949 20.4005 6.27516 20.1471 7.18044L17.8268 15.4668C17.4281 16.8908 17.1373 17.9275 16.8642 18.6619C16.5803 19.4251 16.3608 19.7232 16.1869 19.8291C15.7506 20.0951 15.2089 20.1206 14.7495 19.8968C14.5664 19.8077 14.3198 19.5316 13.9655 18.7985C13.6245 18.093 13.2376 17.0882 12.7068 15.7079L12.0707 14.054L12.0487 13.9969C11.897 13.602 11.7878 13.3178 11.6311 13.0755L14.2143 10.4923C14.4095 10.2971 14.4095 9.9805 14.2143 9.78524C14.019 9.58998 13.7024 9.58998 13.5072 9.78524L10.924 12.3684C10.6818 12.2117 10.3975 12.1025 10.0026 11.9508L9.9455 11.9288L8.29143 11.2926C6.91123 10.7618 5.9064 10.3749 5.20094 10.0339C4.46781 9.67954 4.19174 9.43292 4.1026 9.24988C3.87887 8.79048 3.90439 8.24878 4.17033 7.81246C4.27628 7.63861 4.57432 7.41903 5.33752 7.13519C6.07192 6.86206 7.10867 6.57132 8.53267 6.1726L16.8191 3.85242ZM20.1633 2.3837C19.7249 2.21768 19.2356 2.2431 18.6863 2.34392C18.139 2.44437 17.4491 2.63754 16.575 2.88229L16.5494 2.88945L8.26304 5.20964L8.23752 5.21679C6.84422 5.60691 5.76713 5.90849 4.98893 6.19791C4.23481 6.47838 3.62044 6.79321 3.31643 7.29202C2.8732 8.01923 2.83066 8.92206 3.20355 9.68772C3.45932 10.2129 4.04136 10.5841 4.76577 10.9342C5.5133 11.2955 6.55726 11.6971 7.90768 12.2165L7.93245 12.226L9.58652 12.8622C10.0993 13.0594 10.2729 13.1301 10.4151 13.2312C10.5518 13.3284 10.6711 13.4478 10.7683 13.5844C10.8694 13.7266 10.9401 13.9003 11.1373 14.413L11.7734 16.0669L11.7829 16.0916C12.3023 17.4421 12.7038 18.4861 13.0651 19.2336C13.4153 19.9581 13.7864 20.5401 14.3116 20.7959C15.0773 21.1688 15.9801 21.1263 16.7073 20.683C17.2062 20.379 17.521 19.7647 17.8015 19.0105C18.0909 18.2324 18.3925 17.1553 18.7826 15.7621L18.7898 15.7364L21.11 7.45008L21.1172 7.42456L21.1172 7.42452C21.3619 6.55041 21.5551 5.86055 21.6556 5.31323C21.7564 4.76394 21.7818 4.27459 21.6158 3.83621C21.3621 3.16631 20.8332 2.63742 20.1633 2.3837Z" fill="#131F1E"/>
</svg>
