<svg width="18" height="16" viewBox="0 0 18 16" fill="none" xmlns="http://www.w3.org/2000/svg">
<path d="M16.5 3H12.0177L9.88394 0.866187C9.76786 0.750095 9.63006 0.658004 9.47839 0.595173C9.32673 0.532342 9.16417 0.500002 9 0.5H1.5C1.16848 0.5 0.850537 0.631696 0.616116 0.866116C0.381696 1.10054 0.25 1.41848 0.25 1.75V14.25C0.25 14.5815 0.381696 14.8995 0.616116 15.1339C0.850537 15.3683 1.16848 15.5 1.5 15.5H16.5C16.8315 15.5 17.1495 15.3683 17.3839 15.1339C17.6183 14.8995 17.75 14.5815 17.75 14.25V4.25C17.75 3.91848 17.6183 3.60054 17.3839 3.36612C17.1495 3.1317 16.8315 3 16.5 3ZM4 14.25V6.75H9V10.6062L7.38125 8.99375L6.5 9.875L9.625 13L12.75 9.875L11.8687 8.99375L10.25 10.6062V6.75C10.2496 6.41861 10.1178 6.1009 9.88343 5.86657C9.6491 5.63224 9.33139 5.50041 9 5.5H4C3.66861 5.50041 3.3509 5.63224 3.11657 5.86657C2.88224 6.1009 2.75041 6.41861 2.75 6.75V14.25H1.5V1.75H9L11.5 4.25H16.5V5.5H12.75V6.75H16.5V14.25H4Z" fill="#131F1E"/>
</svg>
