<svg width="18" height="20" viewBox="0 0 18 20" fill="none" xmlns="http://www.w3.org/2000/svg">
<path d="M1.31109 16.3964C1.31109 16.795 1.63645 17.1171 2.03917 17.1171H15.0991C15.5018 17.1171 15.8272 16.795 15.8272 16.3964V11.1486C15.8272 7.18018 12.5781 3.96396 8.56914 3.96396C4.56015 3.96396 1.31109 7.18018 1.31109 11.1486V16.3964ZM2.94927 11.1486C2.94927 8.07658 5.4657 5.58559 8.56914 5.58559C11.6726 5.58559 14.189 8.07658 14.189 11.1486V15.4955H6.11187V11.6441C6.11187 11.5203 6.00948 11.4189 5.88435 11.4189H4.88323C4.7581 11.4189 4.65571 11.5203 4.65571 11.6441V15.4955H2.94927V11.1486ZM1.85488 5.46171L2.75588 4.56982C2.82641 4.5 2.82641 4.38514 2.75588 4.31532L1.21098 2.78604C1.17677 2.7525 1.13057 2.73369 1.08243 2.73369C1.03428 2.73369 0.988087 2.7525 0.953876 2.78604L0.0528769 3.67793C0.0190025 3.71179 0 3.75752 0 3.80518C0 3.85284 0.0190025 3.89857 0.0528769 3.93243L1.59777 5.46171C1.66831 5.53153 1.78207 5.53153 1.85488 5.46171ZM17.09 3.67793L16.189 2.78604C16.1547 2.7525 16.1085 2.73369 16.0604 2.73369C16.0123 2.73369 15.9661 2.7525 15.9319 2.78604L14.387 4.31532C14.3531 4.34918 14.3341 4.39491 14.3341 4.44257C14.3341 4.49022 14.3531 4.53596 14.387 4.56982L15.288 5.46171C15.3585 5.53153 15.4745 5.53153 15.5451 5.46171L17.09 3.93243C17.1605 3.86036 17.1605 3.74775 17.09 3.67793ZM15.8499 18.5586H1.28834C0.885619 18.5586 0.560258 18.8806 0.560258 19.2793V19.8198C0.560258 19.9189 0.642167 20 0.742278 20H16.396C16.4961 20 16.578 19.9189 16.578 19.8198V19.2793C16.578 18.8806 16.2527 18.5586 15.8499 18.5586ZM7.93207 2.52252H9.20621C9.30632 2.52252 9.38823 2.44144 9.38823 2.34234V0.18018C9.38823 0.0810811 9.30632 0 9.20621 0H7.93207C7.83196 0 7.75005 0.0810811 7.75005 0.18018V2.34234C7.75005 2.44144 7.83196 2.52252 7.93207 2.52252Z" fill="#335150"/>
</svg>
