<svg width="40" height="40" viewBox="0 0 40 40" fill="none" xmlns="http://www.w3.org/2000/svg">
<circle cx="20" cy="20" r="20" fill="#E8F2F1"/>
<path fill-rule="evenodd" clip-rule="evenodd" d="M20 10.75C14.8914 10.75 10.75 14.8914 10.75 20C10.75 25.1086 14.8914 29.25 20 29.25C25.1086 29.25 29.25 25.1086 29.25 20C29.25 14.8914 25.1086 10.75 20 10.75ZM9.25 20C9.25 14.0629 14.0629 9.25 20 9.25C25.9371 9.25 30.75 14.0629 30.75 20C30.75 25.9371 25.9371 30.75 20 30.75C14.0629 30.75 9.25 25.9371 9.25 20ZM16.2498 17.7434C16.2498 16.3663 17.3661 15.25 18.7432 15.25H19.25V14.5C19.25 14.0858 19.5858 13.75 20 13.75C20.4142 13.75 20.75 14.0858 20.75 14.5V15.25H20.9998C22.5185 15.25 23.7498 16.4812 23.7498 18C23.7498 18.4142 23.414 18.75 22.9998 18.75C22.5855 18.75 22.2498 18.4142 22.2498 18C22.2498 17.3096 21.6901 16.75 20.9998 16.75H20.75V19.4595L22.0448 19.8911C23.063 20.2305 23.7498 21.1833 23.7498 22.2566C23.7498 23.6337 22.6334 24.75 21.2563 24.75H20.75V25.5C20.75 25.9142 20.4142 26.25 20 26.25C19.5858 26.25 19.25 25.9142 19.25 25.5V24.75H18.9998C17.481 24.75 16.2498 23.5188 16.2498 22C16.2498 21.5858 16.5855 21.25 16.9998 21.25C17.414 21.25 17.7498 21.5858 17.7498 22C17.7498 22.6904 18.3094 23.25 18.9998 23.25H19.25V20.5407L17.9547 20.1089C16.9365 19.7695 16.2498 18.8167 16.2498 17.7434ZM19.25 18.9595V16.75H18.7432C18.1945 16.75 17.7498 17.1948 17.7498 17.7434C17.7498 18.171 18.0234 18.5506 18.429 18.6859L19.25 18.9595ZM20.75 21.0407V23.25H21.2563C21.805 23.25 22.2498 22.8052 22.2498 22.2566C22.2498 21.829 21.9761 21.4494 21.5705 21.3141L20.75 21.0407Z" fill="#24554E"/>
</svg>
