<svg width="15" height="15" viewBox="0 0 15 15" fill="none" xmlns="http://www.w3.org/2000/svg">
<path d="M0.25 9.5H1.5V9H0.25C0.1115 9 0 9.11 0 9.25C0 9.385 0.1115 9.5 0.25 9.5Z" fill="currentColor"/>
<path d="M14.5 9H13.5V9.5H14.5V9Z" fill="currentColor"/>
<path fill-rule="evenodd" clip-rule="evenodd" d="M14 9H13.5V0.5H5.3535L1.5 4.35V9H1.00007L1 4.25C1 4.18 1.026 4.12 1.073 4.07L5.073 0.07C5.12 0.025 5.1835 0 5.25 0H13.75C13.888 0 14 0.11 14 0.25L14 9Z" fill="currentColor"/>
<path fill-rule="evenodd" clip-rule="evenodd" d="M5.25 4.5H1.25C1.1115 4.5 1 4.385 1 4.25C1 4.11 1.1115 4 1.25 4H5V0.25C5 0.11 5.1115 0 5.25 0C5.388 0 5.5 0.11 5.5 0.25V4.25C5.5 4.385 5.388 4.5 5.25 4.5Z" fill="currentColor"/>
<path fill-rule="evenodd" clip-rule="evenodd" d="M13.5 15.0004H1.5C0.6585 15.0004 0 14.3404 0 13.5004V9.36042C0 8.89542 0.143 8.45042 0.4135 8.07542L1.0405 7.11042C1.116 6.99542 1.271 6.96542 1.386 7.04042C1.502 7.11542 1.5345 7.27042 1.4595 7.38542L0.8255 8.36042C0.61 8.66042 0.5 9.00042 0.5 9.36042V13.5004C0.5 14.0604 0.9395 14.5004 1.5 14.5004H13.5C14.0605 14.5004 14.5 14.0604 14.5 13.5004V9.31042C14.5 8.98042 14.404 8.66042 14.2235 8.38542L13.5435 7.39042C13.4655 7.27542 13.495 7.12042 13.6085 7.04042C13.723 6.96542 13.8785 6.99542 13.9565 7.10542L14.639 8.10542C14.876 8.46542 15 8.88042 15 9.31042V13.5004C15 14.3404 14.341 15.0004 13.5 15.0004Z" fill="currentColor"/>
<path fill-rule="evenodd" clip-rule="evenodd" d="M12.25 3H7.25C7.1115 3 7 2.885 7 2.75C7 2.61 7.1115 2.5 7.25 2.5H12.25C12.388 2.5 12.5 2.61 12.5 2.75C12.5 2.885 12.388 3 12.25 3Z" fill="currentColor"/>
<path fill-rule="evenodd" clip-rule="evenodd" d="M12.25 5H7.25C7.1115 5 7 4.885 7 4.75C7 4.61 7.1115 4.5 7.25 4.5H12.25C12.388 4.5 12.5 4.61 12.5 4.75C12.5 4.885 12.388 5 12.25 5Z" fill="currentColor"/>
<path fill-rule="evenodd" clip-rule="evenodd" d="M12.25 7H3.25C3.1115 7 3 6.885 3 6.75C3 6.61 3.1115 6.5 3.25 6.5H12.25C12.388 6.5 12.5 6.61 12.5 6.75C12.5 6.885 12.388 7 12.25 7Z" fill="currentColor"/>
<path fill-rule="evenodd" clip-rule="evenodd" d="M10.25 9H4.75C4.6115 9 4.5 8.885 4.5 8.75C4.5 8.61 4.6115 8.5 4.75 8.5H10.25C10.388 8.5 10.5 8.61 10.5 8.75C10.5 8.885 10.388 9 10.25 9Z" fill="currentColor"/>
</svg>
