<svg width="21" height="20" viewBox="0 0 21 20" fill="none" xmlns="http://www.w3.org/2000/svg">
<path d="M13 13.125H8C7.66848 13.125 7.35054 12.9933 7.11612 12.7589C6.8817 12.5245 6.75 12.2065 6.75 11.875V10.625C6.75 10.2935 6.8817 9.97554 7.11612 9.74112C7.35054 9.5067 7.66848 9.375 8 9.375H13C13.3315 9.375 13.6495 9.5067 13.8839 9.74112C14.1183 9.97554 14.25 10.2935 14.25 10.625V11.875C14.25 12.2065 14.1183 12.5245 13.8839 12.7589C13.6495 12.9933 13.3315 13.125 13 13.125ZM8 10.625V11.875H13V10.625H8Z" fill="#36796F"/>
<path d="M18 2.5H3C2.66848 2.5 2.35054 2.6317 2.11612 2.86612C1.8817 3.10054 1.75 3.41848 1.75 3.75V6.25C1.75 6.58152 1.8817 6.89946 2.11612 7.13388C2.35054 7.3683 2.66848 7.5 3 7.5V17.5C3 17.8315 3.1317 18.1495 3.36612 18.3839C3.60054 18.6183 3.91848 18.75 4.25 18.75H16.75C17.0815 18.75 17.3995 18.6183 17.6339 18.3839C17.8683 18.1495 18 17.8315 18 17.5V7.5C18.3315 7.5 18.6495 7.3683 18.8839 7.13388C19.1183 6.89946 19.25 6.58152 19.25 6.25V3.75C19.25 3.41848 19.1183 3.10054 18.8839 2.86612C18.6495 2.6317 18.3315 2.5 18 2.5ZM16.75 17.5H4.25V7.5H16.75V17.5ZM18 6.25H3V3.75H18V6.25Z" fill="#36796F"/>
</svg>
