<svg width="14" height="14" viewBox="0 0 14 14" fill="none" xmlns="http://www.w3.org/2000/svg">
<path d="M12.812 3.16056C13.0628 2.2648 13.1882 1.81692 13.0718 1.50958C12.9703 1.24161 12.7588 1.03006 12.4908 0.928572C12.1835 0.812173 11.7356 0.93758 10.8398 1.18839L3.45967 3.25484C2.04483 3.65099 1.33742 3.84907 1.13243 4.1854C0.95514 4.47628 0.938124 4.83741 1.08728 5.14368C1.25973 5.49779 1.94539 5.76151 3.31671 6.28893L5.82697 7.25442C6.07139 7.34843 6.19359 7.39543 6.29639 7.46852C6.38749 7.53331 6.46709 7.6129 6.53187 7.70401C6.60496 7.80681 6.65197 7.92901 6.74597 8.17343L7.71138 10.6836C8.23879 12.055 8.5025 12.7406 8.85661 12.9131C9.16287 13.0622 9.524 13.0452 9.81489 12.8679C10.1512 12.663 10.3493 11.9555 10.7455 10.5407L12.812 3.16056Z" fill="#36796F"/>
</svg>
