<svg width="16" height="16" viewBox="0 0 16 16" fill="none" xmlns="http://www.w3.org/2000/svg">
<path fill-rule="evenodd" clip-rule="evenodd" d="M5.88967 3.50163C6.11486 2.54532 6.97366 1.8335 7.99871 1.8335C9.02376 1.8335 9.88256 2.54532 10.1077 3.50163C9.89979 3.50011 9.67363 3.50013 9.42565 3.50016L9.33205 3.50016H6.66538L6.57177 3.50016C6.32379 3.50013 6.09763 3.50011 5.88967 3.50163ZM4.86546 3.53843C5.08898 2.00839 6.40664 0.833496 7.99871 0.833496C9.59078 0.833496 10.9084 2.00839 11.132 3.53844C11.3916 3.56097 11.6182 3.59673 11.8301 3.6535C13.383 4.0696 14.5959 5.28256 15.012 6.83548C15.1656 7.40839 15.1655 8.08914 15.1654 9.2399L15.1654 9.3335L15.1654 9.4271C15.1655 10.5779 15.1656 11.2586 15.012 11.8315C14.5959 13.3844 13.383 14.5974 11.8301 15.0135C11.2571 15.167 10.5764 15.1669 9.42564 15.1668L9.33204 15.1668H6.66537L6.57177 15.1668C5.42102 15.1669 4.74027 15.167 4.16736 15.0135C2.61444 14.5974 1.40148 13.3844 0.985376 11.8315C0.831865 11.2586 0.831929 10.5779 0.832037 9.4271L0.832043 9.3335L0.832037 9.23989C0.831929 8.08914 0.831865 7.40839 0.985376 6.83548C1.40148 5.28256 2.61444 4.0696 4.16736 3.6535C4.37921 3.59673 4.60581 3.56096 4.86546 3.53843ZM6.66538 4.50016C5.39322 4.50016 4.85523 4.50446 4.42618 4.61942C3.29195 4.92334 2.39089 5.7738 2.01729 6.87652C2.01108 6.89485 2.00502 6.91325 1.9991 6.93171C2.08297 6.96616 2.20543 7.01504 2.36177 7.07366C2.68463 7.19474 3.15095 7.35698 3.7194 7.5194C4.05831 7.61623 4.43203 7.71269 4.83204 7.80044V7.3335C4.83204 7.05735 5.0559 6.8335 5.33204 6.8335C5.60819 6.8335 5.83204 7.05735 5.83204 7.3335V7.98911C6.51713 8.09685 7.25033 8.16683 7.99871 8.16683C8.74709 8.16683 9.48029 8.09685 10.1654 7.98911V7.3335C10.1654 7.05735 10.3892 6.8335 10.6654 6.8335C10.9415 6.8335 11.1654 7.05735 11.1654 7.3335V7.80044C11.5654 7.71269 11.9391 7.61623 12.278 7.5194C12.8465 7.35698 13.3128 7.19474 13.6356 7.07366C13.792 7.01504 13.9144 6.96616 13.9983 6.93171C13.9924 6.91327 13.9864 6.89489 13.9802 6.87659C13.6066 5.77383 12.7055 4.92334 11.5712 4.61942C11.1422 4.50446 10.6042 4.50016 9.33205 4.50016H6.66538ZM10.1654 9.00066V9.3335C10.1654 9.60964 10.3892 9.8335 10.6654 9.8335C10.9415 9.8335 11.1654 9.60964 11.1654 9.3335V8.82292C11.6712 8.71816 12.1385 8.59929 12.5527 8.48092C13.1509 8.31001 13.643 8.13892 13.9868 8.00999C14.0459 7.98781 14.1007 7.96687 14.1509 7.94737C14.1644 8.28781 14.1654 8.7273 14.1654 9.3335C14.1654 10.6056 14.1611 11.1436 14.0461 11.5727C13.7225 12.7805 12.7791 13.7239 11.5712 14.0476C11.1422 14.1625 10.6042 14.1668 9.33204 14.1668H6.66537C5.39322 14.1668 4.85523 14.1625 4.42618 14.0476C3.21835 13.7239 2.27494 12.7805 1.9513 11.5727C1.83634 11.1436 1.83204 10.6056 1.83204 9.3335C1.83204 8.7273 1.83302 8.28781 1.84648 7.94737C1.8967 7.96687 1.9515 7.98781 2.01065 8.00999C2.35445 8.13892 2.84647 8.31001 3.44468 8.48092C3.85896 8.59929 4.32619 8.71816 4.83204 8.82292V9.3335C4.83204 9.60964 5.0559 9.8335 5.33204 9.8335C5.60819 9.8335 5.83204 9.60964 5.83204 9.3335V9.00066C6.51744 9.10195 7.24896 9.16683 7.99871 9.16683C8.74846 9.16683 9.47998 9.10195 10.1654 9.00066Z" fill="white"/>
</svg>
