<svg width="24" height="24" viewBox="0 0 24 24" fill="none" xmlns="http://www.w3.org/2000/svg">
<path d="M21.1667 19.4996H20.3333V12.8329H18.6667V19.4996H15.3333V12.8329H13.6667V19.4996H10.3333V12.8329H8.66667V19.4996H5.33333V12.8329H3.66667V19.4996H2.83333C2.37333 19.4996 2 19.8721 2 20.3329C2 20.7938 2.37333 21.1663 2.83333 21.1663H21.1667C21.6267 21.1663 22 20.7938 22 20.3329C22 19.8721 21.6267 19.4996 21.1667 19.4996Z" fill="#131F1E"/>
<path d="M21.5658 7.10125L12.3992 2.10125C12.15 1.96625 11.85 1.96625 11.6008 2.10125L2.43417 7.10125C2.16667 7.24708 2 7.52792 2 7.83292V10.3329C2 10.7937 2.37333 11.1663 2.83333 11.1663H21.1667C21.6267 11.1663 22 10.7937 22 10.3329V7.83292C22 7.52792 21.8333 7.24708 21.5658 7.10125ZM12 8.66625C11.0792 8.66625 10.3333 7.92042 10.3333 6.99958C10.3333 6.07875 11.0792 5.33292 12 5.33292C12.9208 5.33292 13.6667 6.07875 13.6667 6.99958C13.6667 7.92042 12.9208 8.66625 12 8.66625Z" fill="#131F1E"/>
</svg>
