<svg width="25" height="19" viewBox="0 0 25 19" fill="none" xmlns="http://www.w3.org/2000/svg">
<path fill-rule="evenodd" clip-rule="evenodd" d="M20.6683 8.13574H4.47977C2.67724 8.13574 1.05396 9.42323 1.05396 11.175V15.7424C1.05396 15.9526 1.39129 16.216 1.60757 16.216H23.5405C23.7569 16.216 23.838 15.9526 23.838 15.7424V11.175C23.838 9.42323 22.4708 8.13574 20.6683 8.13574Z" stroke="currentColor" stroke-linecap="round" stroke-linejoin="round"/>
<path fill-rule="evenodd" clip-rule="evenodd" d="M23.838 12.2942C23.838 12.084 23.6626 11.9136 23.4463 11.9136H1.4456C1.22932 11.9136 1.05396 12.084 1.05396 12.2942V15.8354C1.05396 16.0456 1.22932 16.216 1.4456 16.216H23.4463C23.6626 16.216 23.838 16.0456 23.838 15.8354V12.2942Z" stroke="currentColor" stroke-linecap="round" stroke-linejoin="round"/>
<path d="M21.8944 6.98148V1.27882C21.8944 1.06863 21.7987 1 21.5823 1H3.56604C3.34975 1 3.10571 1.06863 3.10571 1.27882V6.98148" stroke="currentColor" stroke-linecap="round" stroke-linejoin="round"/>
<path d="M1.05399 14.2222V17.9999" stroke="currentColor" stroke-linecap="round" stroke-linejoin="round"/>
<path d="M23.8379 14.2222V17.9999" stroke="currentColor" stroke-linecap="round" stroke-linejoin="round"/>
<path d="M17.8492 6.97196C17.8492 6.02888 18.0573 5.03574 18.0573 5.03574C18.0573 4.86837 17.9175 4.7161 17.7452 4.7161C17.7452 4.7161 16.7749 4.90982 15.8218 4.90982C14.8688 4.90982 13.7946 4.70361 13.7946 4.70361C13.6221 4.70361 13.4824 4.8372 13.4824 5.00468C13.4824 5.00468 13.6905 5.96256 13.6905 6.97301" stroke="currentColor" stroke-linecap="round" stroke-linejoin="round"/>
<path d="M11.4575 6.97196C11.4575 6.02888 11.6654 5.03574 11.6654 5.03574C11.6654 4.86837 11.5257 4.7161 11.3535 4.7161C11.3535 4.7161 10.3831 4.90982 9.43013 4.90982C8.47698 4.90982 7.40278 4.70361 7.40278 4.70361C7.23033 4.70361 7.09082 4.8372 7.09082 5.00468C7.09082 5.00468 7.29868 5.96256 7.29868 6.97301" stroke="currentColor" stroke-linecap="round" stroke-linejoin="round"/>
</svg>
