<svg width="11" height="14" viewBox="0 0 11 14" fill="none" xmlns="http://www.w3.org/2000/svg">
<path d="M10.8516 0.14842C10.7526 0.0495008 10.6354 0 10.5001 0H0.500043C0.364538 0 0.247395 0.0495008 0.14842 0.14842C0.0495008 0.247395 0 0.364538 0 0.499961V13.4999C0 13.6354 0.0495008 13.7526 0.14842 13.8516C0.247504 13.9506 0.364648 14 0.500043 14H10.5001C10.6354 14 10.7527 13.9506 10.8516 13.8516C10.9504 13.7526 11.0001 13.6355 11.0001 13.4999V0.499961C11 0.364566 10.9506 0.247422 10.8516 0.14842ZM10 13.0001H7.00008V11.2501C7.00008 11.1823 6.97526 11.1236 6.92601 11.0742C6.87629 11.0248 6.81795 11 6.75014 11H4.25001C4.18231 11 4.12373 11.0248 4.07425 11.0742C4.02481 11.1236 4.00004 11.1823 4.00004 11.2501V13.0001H1V0.999922H10V13.0001Z" fill="#79909B"/>
<path d="M2.24899 10.9999H2.74895C2.81665 10.9999 2.87526 10.9753 2.92471 10.9257C2.97421 10.8761 2.99897 10.8177 2.99897 10.7499V10.2498C2.99897 10.1822 2.97421 10.1237 2.92471 10.0742C2.87526 10.0247 2.81665 10 2.74895 10H2.24899C2.18129 10 2.12271 10.0247 2.07323 10.0742C2.02373 10.1237 1.99902 10.1822 1.99902 10.2498V10.7499C1.99902 10.8177 2.02373 10.8761 2.07323 10.9257C2.12273 10.9752 2.18129 10.9999 2.24899 10.9999Z" fill="#79909B"/>
<path d="M2.24899 8.99992H2.74895C2.81665 8.99992 2.87526 8.97518 2.92471 8.92574C2.97421 8.87613 2.99897 8.81768 2.99897 8.74987V8.24983C2.99897 8.18221 2.97421 8.12352 2.92471 8.07416C2.87526 8.02471 2.81665 8 2.74895 8H2.24899C2.18129 8 2.12271 8.02471 2.07323 8.07416C2.02373 8.12352 1.99902 8.18221 1.99902 8.24983V8.74987C1.99902 8.81768 2.02373 8.8761 2.07323 8.92574C2.12273 8.97518 2.18129 8.99992 2.24899 8.99992Z" fill="#79909B"/>
<path d="M4.25021 8.99992H4.7502C4.81787 8.99992 4.87648 8.97518 4.92596 8.92574C4.9754 8.87613 5.00017 8.81768 5.00017 8.74987V8.24983C5.00017 8.18221 4.97529 8.1236 4.92596 8.07416C4.87646 8.02471 4.81784 8 4.7502 8H4.25021C4.18251 8 4.12393 8.02471 4.07445 8.07416C4.02501 8.1236 4.00024 8.18221 4.00024 8.24983V8.74987C4.00024 8.81768 4.02501 8.8761 4.07445 8.92574C4.12393 8.97518 4.18251 8.99992 4.25021 8.99992Z" fill="#79909B"/>
<path d="M2.24899 6.99995H2.74895C2.81665 6.99995 2.87526 6.97524 2.92471 6.92574C2.97421 6.87624 2.99897 6.81768 2.99897 6.74996V6.24999C2.99897 6.18227 2.97421 6.12366 2.92471 6.07421C2.87526 6.02471 2.81665 6 2.74895 6H2.24899C2.18129 6 2.12271 6.02471 2.07323 6.07421C2.02373 6.12366 1.99902 6.18227 1.99902 6.24999V6.74996C1.99902 6.81768 2.02373 6.87624 2.07323 6.92574C2.12273 6.97524 2.18129 6.99995 2.24899 6.99995Z" fill="#79909B"/>
<path d="M8.2501 10.9999H8.75014C8.81795 10.9999 8.87645 10.9753 8.92601 10.9257C8.97557 10.8761 9.00008 10.8177 9.00008 10.7499V10.2498C9.00008 10.1822 8.97537 10.1237 8.92601 10.0742C8.87645 10.0247 8.81795 10 8.75014 10H8.2501C8.18249 10 8.12387 10.0247 8.07443 10.0742C8.02487 10.1237 8.00024 10.1822 8.00024 10.2498V10.7499C8.00024 10.8177 8.02487 10.8761 8.07443 10.9257C8.12376 10.9752 8.18249 10.9999 8.2501 10.9999Z" fill="#79909B"/>
<path d="M6.2498 8.99992H6.74985C6.81765 8.99992 6.87608 8.97518 6.92571 8.92574C6.97497 8.87613 6.99968 8.81768 6.99968 8.74987V8.24983C6.99968 8.18221 6.97497 8.1236 6.92571 8.07416C6.8761 8.02471 6.81765 8 6.74985 8H6.2498C6.18219 8 6.12338 8.02471 6.07394 8.07416C6.02466 8.1236 5.99976 8.18221 5.99976 8.24983V8.74987C5.99976 8.81768 6.02457 8.8761 6.07394 8.92574C6.12355 8.97518 6.18219 8.99992 6.2498 8.99992Z" fill="#79909B"/>
<path d="M4.25021 6.99995H4.7502C4.81787 6.99995 4.87648 6.97524 4.92596 6.92574C4.9754 6.87624 5.00017 6.81768 5.00017 6.74996V6.24999C5.00017 6.18227 4.97529 6.12377 4.92596 6.07421C4.87646 6.02471 4.81784 6 4.7502 6H4.25021C4.18251 6 4.12393 6.02471 4.07445 6.07421C4.02501 6.12366 4.00024 6.18227 4.00024 6.24999V6.74996C4.00024 6.81768 4.02501 6.87624 4.07445 6.92574C4.12393 6.97524 4.18251 6.99995 4.25021 6.99995Z" fill="#79909B"/>
<path d="M2.24899 4.99995H2.74895C2.81665 4.99995 2.87526 4.97518 2.92471 4.92574C2.97421 4.87624 2.99897 4.81776 2.99897 4.74998V4.25002C2.99897 4.18232 2.97421 4.1236 2.92471 4.07426C2.87526 4.02476 2.81665 4 2.74895 4H2.24899C2.18129 4 2.12271 4.02476 2.07323 4.07426C2.02373 4.12371 1.99902 4.18232 1.99902 4.25002V4.74998C1.99902 4.81768 2.02373 4.87627 2.07323 4.92574C2.12273 4.97516 2.18129 4.99995 2.24899 4.99995Z" fill="#79909B"/>
<path d="M8.2501 8.99992H8.75014C8.81795 8.99992 8.87645 8.97518 8.92601 8.92574C8.97557 8.87613 9.00008 8.81768 9.00008 8.74987V8.24983C9.00008 8.18221 8.97537 8.1236 8.92601 8.07416C8.87645 8.02471 8.81795 8 8.75014 8H8.2501C8.18249 8 8.12387 8.02471 8.07443 8.07416C8.02487 8.12352 8.00024 8.18221 8.00024 8.24983V8.74987C8.00024 8.81768 8.02487 8.8761 8.07443 8.92574C8.12376 8.97518 8.18249 8.99992 8.2501 8.99992Z" fill="#79909B"/>
<path d="M6.2498 6.99995H6.74985C6.81765 6.99995 6.87608 6.97524 6.92571 6.92574C6.97497 6.87624 6.99968 6.81768 6.99968 6.74996V6.24999C6.99968 6.18227 6.97497 6.12377 6.92571 6.07421C6.8761 6.02471 6.81765 6 6.74985 6H6.2498C6.18219 6 6.12338 6.02471 6.07394 6.07421C6.02466 6.12366 5.99976 6.18227 5.99976 6.24999V6.74996C5.99976 6.81768 6.02457 6.87624 6.07394 6.92574C6.12355 6.97524 6.18219 6.99995 6.2498 6.99995Z" fill="#79909B"/>
<path d="M4.25021 4.99995H4.7502C4.81787 4.99995 4.87648 4.97518 4.92596 4.92574C4.9754 4.87624 5.00017 4.81776 5.00017 4.74998V4.25002C5.00017 4.18232 4.97529 4.1236 4.92596 4.07426C4.87646 4.02476 4.81784 4 4.7502 4H4.25021C4.18251 4 4.12393 4.02476 4.07445 4.07426C4.02501 4.12371 4.00024 4.18232 4.00024 4.25002V4.74998C4.00024 4.81768 4.02501 4.87627 4.07445 4.92574C4.12393 4.97516 4.18251 4.99995 4.25021 4.99995Z" fill="#79909B"/>
<path d="M2.24899 3.00044H2.74895C2.81665 3.00044 2.87526 2.97567 2.92471 2.9262C2.97421 2.87675 2.99897 2.81814 2.99897 2.75042V2.25048C2.99897 2.18276 2.97421 2.1242 2.92471 2.0747C2.87526 2.02525 2.81665 2.00049 2.74895 2.00049H2.24899C2.18129 2.00049 2.12271 2.02525 2.07323 2.0747C2.02373 2.1242 1.99902 2.18276 1.99902 2.25048V2.75044C1.99902 2.81817 2.02373 2.87678 2.07323 2.92623C2.12273 2.9757 2.18129 3.00044 2.24899 3.00044Z" fill="#79909B"/>
<path d="M8.2501 6.99995H8.75014C8.81795 6.99995 8.87645 6.97524 8.92601 6.92574C8.97557 6.87624 9.00008 6.81768 9.00008 6.74996V6.24999C9.00008 6.18227 8.97537 6.12377 8.92601 6.07421C8.87645 6.02471 8.81795 6 8.75014 6H8.2501C8.18249 6 8.12387 6.02471 8.07443 6.07421C8.02487 6.12366 8.00024 6.18227 8.00024 6.24999V6.74996C8.00024 6.81768 8.02487 6.87624 8.07443 6.92574C8.12376 6.97524 8.18249 6.99995 8.2501 6.99995Z" fill="#79909B"/>
<path d="M6.2498 4.99995H6.74985C6.81765 4.99995 6.87608 4.97518 6.92571 4.92574C6.97497 4.87624 6.99968 4.81776 6.99968 4.74998V4.25002C6.99968 4.18232 6.97497 4.1236 6.92571 4.07426C6.8761 4.02476 6.81765 4 6.74985 4H6.2498C6.18219 4 6.12358 4.02476 6.07394 4.07426C6.02466 4.12371 5.99976 4.18232 5.99976 4.25002V4.74998C5.99976 4.81768 6.02457 4.87627 6.07394 4.92574C6.12355 4.97516 6.18219 4.99995 6.2498 4.99995Z" fill="#79909B"/>
<path d="M4.25021 3.00044H4.7502C4.81787 3.00044 4.87648 2.97567 4.92596 2.9262C4.9754 2.87675 5.00017 2.81814 5.00017 2.75042V2.25048C5.00017 2.18276 4.97529 2.1242 4.92596 2.0747C4.87646 2.02525 4.81784 2.00049 4.7502 2.00049H4.25021C4.18251 2.00049 4.12393 2.02525 4.07445 2.0747C4.02501 2.1242 4.00024 2.18276 4.00024 2.25048V2.75044C4.00024 2.81817 4.02501 2.87678 4.07445 2.92623C4.12393 2.9757 4.18251 3.00044 4.25021 3.00044Z" fill="#79909B"/>
<path d="M8.2501 4.99995H8.75014C8.81795 4.99995 8.87645 4.97518 8.92601 4.92574C8.97557 4.87624 9.00008 4.81776 9.00008 4.74998V4.25002C9.00008 4.18232 8.97537 4.1236 8.92601 4.07426C8.87645 4.02476 8.81795 4 8.75014 4H8.2501C8.18249 4 8.12387 4.02476 8.07443 4.07426C8.02487 4.12371 8.00024 4.18232 8.00024 4.25002V4.74998C8.00024 4.81768 8.02487 4.87627 8.07443 4.92574C8.12376 4.97516 8.18249 4.99995 8.2501 4.99995Z" fill="#79909B"/>
<path d="M6.2498 3.00044H6.74985C6.81765 3.00044 6.87608 2.97567 6.92571 2.9262C6.97497 2.87675 6.99968 2.81814 6.99968 2.75042V2.25048C6.99968 2.18276 6.97497 2.1242 6.92571 2.0747C6.8761 2.02525 6.81765 2.00049 6.74985 2.00049H6.2498C6.18219 2.00049 6.12338 2.02525 6.07394 2.0747C6.02466 2.1242 5.99976 2.18276 5.99976 2.25048V2.75044C5.99976 2.81817 6.02457 2.87678 6.07394 2.92623C6.12355 2.9757 6.18219 3.00044 6.2498 3.00044Z" fill="#79909B"/>
<path d="M8.2501 3.00044H8.75014C8.81795 3.00044 8.87645 2.97567 8.92601 2.9262C8.97557 2.87675 9.00008 2.81814 9.00008 2.75042V2.25048C9.00008 2.18276 8.97537 2.1242 8.92601 2.0747C8.87645 2.02525 8.81795 2.00049 8.75014 2.00049H8.2501C8.18249 2.00049 8.12387 2.02525 8.07443 2.0747C8.02487 2.1242 8.00024 2.18276 8.00024 2.25048V2.75044C8.00024 2.81817 8.02487 2.87678 8.07443 2.92623C8.12376 2.9757 8.18249 3.00044 8.2501 3.00044Z" fill="#79909B"/>
</svg>
