<svg width="32" height="32" viewBox="0 0 32 32" fill="none" xmlns="http://www.w3.org/2000/svg">
<path d="M0 8C0 3.58172 3.58172 0 8 0H24C28.4183 0 32 3.58172 32 8V24C32 28.4183 28.4183 32 24 32H8C3.58172 32 0 28.4183 0 24V8Z" fill="#36796F"/>
<path fill-rule="evenodd" clip-rule="evenodd" d="M13.4855 7.0141C13.4855 6.59989 13.1497 6.2641 12.7355 6.2641C12.3212 6.2641 11.9855 6.59989 11.9855 7.0141V7.10958C11.8336 7.11684 11.6888 7.1259 11.5506 7.13719C10.8372 7.19548 10.2336 7.31709 9.68241 7.59792C8.78864 8.05332 8.06199 8.77998 7.60659 9.67375C7.32575 10.2249 7.20414 10.8285 7.14586 11.5419C7.08886 12.2396 7.08886 13.1051 7.08887 14.1972V14.1972V14.2302V17.7526V17.7856C7.08886 18.8777 7.08886 19.7432 7.14586 20.4408C7.20414 21.1542 7.32575 21.7579 7.60659 22.309C8.06199 23.2028 8.78864 23.9295 9.68241 24.3849C10.2336 24.6657 10.8372 24.7873 11.5506 24.8456C12.2482 24.9026 13.1137 24.9026 14.2058 24.9026H14.2389H17.7612H17.7943C18.8864 24.9026 19.7519 24.9026 20.4495 24.8456C21.1629 24.7873 21.7665 24.6657 22.3177 24.3849C23.2115 23.9295 23.9381 23.2028 24.3935 22.309C24.6744 21.7579 24.796 21.1542 24.8543 20.4408C24.9113 19.7432 24.9112 18.8777 24.9112 17.7856V17.7526V14.2302V14.1972C24.9112 13.105 24.9113 12.2396 24.8543 11.5419C24.796 10.8285 24.6744 10.2249 24.3935 9.67375C23.9381 8.77998 23.2115 8.05332 22.3177 7.59792C21.7665 7.31709 21.1629 7.19548 20.4495 7.13719C20.3113 7.1259 20.1665 7.11685 20.0147 7.10959V7.0141C20.0147 6.59989 19.6789 6.2641 19.2647 6.2641C18.8505 6.2641 18.5147 6.59989 18.5147 7.0141V7.0809C18.2861 7.0802 18.0462 7.0802 17.7942 7.0802L17.7612 7.0802H14.2389L14.2059 7.0802C13.9539 7.0802 13.714 7.0802 13.4855 7.0809V7.0141ZM18.5147 9.46246V8.58098C18.2807 8.58024 18.0302 8.5802 17.7612 8.5802H14.2389C13.9699 8.5802 13.7195 8.58024 13.4855 8.58098V9.46246C13.4855 9.87667 13.1497 10.2125 12.7355 10.2125C12.3212 10.2125 11.9855 9.87667 11.9855 9.46246V8.61141C11.8764 8.6172 11.7724 8.62407 11.6727 8.63221C11.0521 8.68292 10.6679 8.7793 10.3634 8.93443C9.75187 9.24602 9.25468 9.74321 8.9431 10.3547C8.78796 10.6592 8.69158 11.0435 8.64087 11.6641C8.58945 12.2935 8.58887 13.0977 8.58887 14.2302V17.7526C8.58887 18.8851 8.58945 19.6893 8.64087 20.3187C8.69158 20.9393 8.78796 21.3236 8.9431 21.628C9.25468 22.2396 9.75187 22.7368 10.3634 23.0484C10.6679 23.2035 11.0521 23.2999 11.6727 23.3506C12.3021 23.402 13.1064 23.4026 14.2389 23.4026H17.7612C18.8937 23.4026 19.698 23.402 20.3274 23.3506C20.948 23.2999 21.3322 23.2035 21.6367 23.0484C22.2482 22.7368 22.7454 22.2396 23.057 21.628C23.2122 21.3236 23.3085 20.9393 23.3592 20.3187C23.4107 19.6893 23.4112 18.8851 23.4112 17.7526V14.2302C23.4112 13.0977 23.4107 12.2935 23.3592 11.6641C23.3085 11.0435 23.2122 10.6592 23.057 10.3547C22.7454 9.74321 22.2482 9.24602 21.6367 8.93443C21.3322 8.7793 20.948 8.68292 20.3274 8.63221C20.2277 8.62407 20.1237 8.6172 20.0147 8.61141V9.46246C20.0147 9.87667 19.6789 10.2125 19.2647 10.2125C18.8505 10.2125 18.5147 9.87667 18.5147 9.46246ZM11.9195 11.9769C11.5053 11.9769 11.1695 12.3127 11.1695 12.7269C11.1695 13.1411 11.5053 13.4769 11.9195 13.4769H20.0807C20.4949 13.4769 20.8307 13.1411 20.8307 12.7269C20.8307 12.3127 20.4949 11.9769 20.0807 11.9769H11.9195Z" fill="white"/>
</svg>
