<svg width="22" height="22" viewBox="0 0 22 22" fill="none" xmlns="http://www.w3.org/2000/svg">
<path fill-rule="evenodd" clip-rule="evenodd" d="M10.0533 15.8946L12.2548 17.0242L12.8859 15.8356L14.4488 16.6624L13.3443 18.8477C6.64208 15.6732 3.87705 9.95169 2.99795 7.67048L5.16188 6.74766L5.91325 8.49732L4.86885 8.91075L5.80055 11.1772L9.18169 9.83356L6.46926 3.52148L0 6.28994L0.255464 7.29397C0.360656 7.70001 2.93033 17.2826 13.4419 21.5644L14.5164 22L17.7548 15.6289L11.849 12.506L10.0533 15.8873V15.8946Z" fill="#36796F"/>
<path fill-rule="evenodd" clip-rule="evenodd" d="M11.1428 3.78723L10.2637 6.06844C10.8723 6.2973 12.097 7.06508 13.5396 8.48253C14.5915 9.51609 15.4631 10.6161 15.8764 11.4282L18.1004 10.3429C17.567 9.29461 16.5451 7.9879 15.2978 6.75501C13.8327 5.31542 12.2773 4.20803 11.1428 3.77985" fill="#FF8D40"/>
<path fill-rule="evenodd" clip-rule="evenodd" d="M18.0929 4.12685C16.0567 2.12617 13.9078 0.575839 12.3449 0L11.4658 2.28121C12.6755 2.73154 14.5915 4.13423 16.3422 5.85436C17.8825 7.36779 19.1673 8.99195 19.7759 10.1953L22 9.11007C21.2636 7.65571 19.8436 5.8396 18.0929 4.12685Z" fill="#36796F"/>
</svg>
