<svg width="33" height="33" viewBox="0 0 33 33" fill="none" xmlns="http://www.w3.org/2000/svg">
<path d="M29.7695 26.2693H3.76953C3.50431 26.2693 3.24996 26.1639 3.06242 25.9764C2.87489 25.7889 2.76953 25.5345 2.76953 25.2693V8.26929C2.76953 8.00407 2.87489 7.74972 3.06242 7.56218C3.24996 7.37464 3.50431 7.26929 3.76953 7.26929H10.2295L11.9395 4.71929C12.0301 4.58173 12.1533 4.46867 12.2981 4.39017C12.4429 4.31166 12.6048 4.27014 12.7695 4.26929H20.7695C20.9342 4.27014 21.0962 4.31166 21.241 4.39017C21.3858 4.46867 21.5089 4.58173 21.5995 4.71929L23.3095 7.26929H29.7695C30.0347 7.26929 30.2891 7.37464 30.4766 7.56218C30.6642 7.74972 30.7695 8.00407 30.7695 8.26929V25.2693C30.7695 25.5345 30.6642 25.7889 30.4766 25.9764C30.2891 26.1639 30.0347 26.2693 29.7695 26.2693ZM4.76953 24.2693H28.7695V9.26929H22.7695C22.6048 9.26844 22.4429 9.22691 22.2981 9.14841C22.1533 9.0699 22.0301 8.95685 21.9395 8.81929L20.2295 6.26929H13.3095L11.5995 8.81929C11.5089 8.95685 11.3858 9.0699 11.241 9.14841C11.0962 9.22691 10.9342 9.26844 10.7695 9.26929H4.76953V24.2693Z" fill="#36796F"/>
<path d="M16.7695 22.2693C15.5828 22.2693 14.4228 21.9174 13.4361 21.2581C12.4494 20.5988 11.6804 19.6617 11.2263 18.5654C10.7721 17.469 10.6533 16.2626 10.8848 15.0987C11.1163 13.9349 11.6878 12.8658 12.5269 12.0266C13.366 11.1875 14.4351 10.6161 15.599 10.3846C16.7629 10.1531 17.9693 10.2719 19.0656 10.726C20.162 11.1801 21.0991 11.9492 21.7584 12.9359C22.4176 13.9226 22.7695 15.0826 22.7695 16.2693C22.7695 17.8606 22.1374 19.3867 21.0122 20.5119C19.887 21.6371 18.3608 22.2693 16.7695 22.2693ZM16.7695 12.2693C15.9784 12.2693 15.205 12.5039 14.5473 12.9434C13.8895 13.3829 13.3768 14.0077 13.074 14.7386C12.7713 15.4695 12.6921 16.2737 12.8464 17.0497C13.0007 17.8256 13.3817 18.5383 13.9411 19.0977C14.5005 19.6571 15.2132 20.0381 15.9892 20.1924C16.7651 20.3468 17.5694 20.2676 18.3003 19.9648C19.0312 19.6621 19.6559 19.1494 20.0954 18.4916C20.5349 17.8338 20.7695 17.0604 20.7695 16.2693C20.7695 15.2084 20.3481 14.191 19.598 13.4409C18.8478 12.6907 17.8304 12.2693 16.7695 12.2693Z" fill="#36796F"/>
</svg>
