<svg width="47" height="40" viewBox="0 0 47 40" fill="none" xmlns="http://www.w3.org/2000/svg">
<path d="M5.875 12.4824V35.9824H26.0849C25.6688 34.7185 25.4573 33.3963 25.4583 32.0657H13.7083C13.7083 31.0269 13.2957 30.0307 12.5612 29.2962C11.8266 28.5617 10.8304 28.149 9.79166 28.149V20.3157C11.9654 20.3157 13.7083 18.5728 13.7083 16.3991H33.2916C33.2916 17.4378 33.7042 18.4341 34.4388 19.1686C35.1733 19.9031 36.1695 20.3157 37.2082 20.3157V20.4332C38.5203 20.4332 39.8324 20.6682 41.1249 21.0991V12.4824H5.875ZM23.5 18.3574C20.1708 18.4162 17.625 20.9032 17.625 24.2324C17.625 27.5615 20.1708 29.9899 23.5 30.1074C24.2441 30.1074 25.0079 29.9507 25.7324 29.657C26.2612 27.5028 27.1424 25.4661 29.3162 23.4686C29.0812 20.8641 26.6137 18.2987 23.5 18.3574Z" fill="#36796F"/>
<path d="M37.2079 22.2734L41.6141 26.6797L37.2079 31.0859V28.1484C33.585 28.1484 31.2154 31.9867 32.8212 35.2376L30.6867 37.3721C27.24 32.163 30.9608 25.2109 37.2079 25.2109V22.2734ZM37.2079 43.815L32.8017 39.4088L37.2079 35.0026V37.9401C40.8308 37.9401 43.2004 34.1017 41.5945 30.8509L43.7291 28.7163C47.1758 33.9255 43.455 40.8776 37.2079 40.8776V43.815Z" fill="#FF8D40"/>
</svg>
