<svg width="16" height="16" viewBox="0 0 16 16" fill="none" xmlns="http://www.w3.org/2000/svg">
<path fill-rule="evenodd" clip-rule="evenodd" d="M8 15.5C12.1422 15.5 15.5 12.1422 15.5 8C15.5 3.85775 12.1422 0.5 8 0.5C3.85775 0.5 0.5 3.85775 0.5 8C0.5 12.1422 3.85775 15.5 8 15.5ZM11.5407 6.38983C11.8336 6.09694 11.8336 5.62206 11.5407 5.32917C11.2478 5.03628 10.7729 5.03628 10.48 5.32917L7.21176 8.59745L6.01339 7.39908C5.7205 7.10619 5.24563 7.10619 4.95273 7.39908C4.65984 7.69197 4.65984 8.16685 4.95273 8.45974L6.68142 10.1884C6.82208 10.3291 7.01284 10.4081 7.21175 10.4081C7.41067 10.4081 7.60143 10.3291 7.74209 10.1884L11.5407 6.38983Z" fill="#24A148"/>
</svg>
