<svg width="7" height="14" viewBox="0 0 7 14" fill="none" xmlns="http://www.w3.org/2000/svg">
<path fill-rule="evenodd" clip-rule="evenodd" d="M6.53003 0.46967C6.82292 0.762563 6.82292 1.23744 6.53003 1.53033L2.79277 5.26759C2.388 5.67236 2.11673 5.94445 1.92461 6.17076C1.73817 6.39038 1.67071 6.51706 1.6393 6.61373C1.55773 6.86478 1.55773 7.13522 1.6393 7.38627C1.67071 7.48294 1.73817 7.60962 1.92461 7.82924C2.11673 8.05555 2.388 8.32764 2.79277 8.73241L6.53003 12.4697C6.82292 12.7626 6.82292 13.2374 6.53003 13.5303C6.23713 13.8232 5.76226 13.8232 5.46937 13.5303L1.73211 9.79307L1.71059 9.77155C1.33288 9.39385 1.01761 9.0786 0.7811 8.8C0.534428 8.50944 0.329688 8.20979 0.21272 7.8498C0.0332601 7.29748 0.0332601 6.70252 0.21272 6.1502C0.329688 5.79021 0.534428 5.49056 0.7811 5.2C1.01761 4.9214 1.33287 4.60615 1.71058 4.22845L1.73211 4.20693L5.46937 0.46967C5.76226 0.176777 6.23713 0.176777 6.53003 0.46967Z" fill="#131F1E"/>
</svg>
