<svg width="20" height="20" viewBox="0 0 20 20" fill="none" xmlns="http://www.w3.org/2000/svg">
<path fill-rule="evenodd" clip-rule="evenodd" d="M7.80268 4.46967C8.09557 4.17678 8.57044 4.17678 8.86334 4.46967L11.6006 7.20693L11.6221 7.22845C11.9998 7.60615 12.3151 7.9214 12.5516 8.2C12.7983 8.49056 13.003 8.79021 13.12 9.1502C13.2994 9.70252 13.2994 10.2975 13.12 10.8498C13.003 11.2098 12.7983 11.5094 12.5516 11.8C12.3151 12.0786 11.9998 12.3938 11.6221 12.7715L11.6006 12.7931L8.86334 15.5303C8.57044 15.8232 8.09557 15.8232 7.80268 15.5303C7.50978 15.2374 7.50978 14.7626 7.80268 14.4697L10.5399 11.7324C10.9447 11.3276 11.216 11.0556 11.4081 10.8292C11.5945 10.6096 11.662 10.4829 11.6934 10.3863C11.775 10.1352 11.775 9.86478 11.6934 9.61373C11.662 9.51706 11.5945 9.39038 11.4081 9.17076C11.216 8.94445 10.9447 8.67236 10.5399 8.26759L7.80268 5.53033C7.50978 5.23744 7.50978 4.76256 7.80268 4.46967Z" fill="#A1A5A5"/>
</svg>
