<svg width="18" height="18" viewBox="0 0 18 18" fill="none" xmlns="http://www.w3.org/2000/svg">
<path d="M8.991 0C4.023 0 0 4.032 0 9C0 13.968 4.023 18 8.991 18C13.968 18 18 13.968 18 9C18 4.032 13.968 0 8.991 0ZM9 16.2C5.022 16.2 1.8 12.978 1.8 9C1.8 5.022 5.022 1.8 9 1.8C12.978 1.8 16.2 5.022 16.2 9C16.2 12.978 12.978 16.2 9 16.2ZM8.802 4.5H8.748C8.388 4.5 8.1 4.788 8.1 5.148V9.396C8.1 9.711 8.262 10.008 8.541 10.17L12.276 12.411C12.582 12.591 12.978 12.501 13.158 12.195C13.2032 12.1221 13.2333 12.0409 13.2464 11.9562C13.2595 11.8714 13.2555 11.7849 13.2345 11.7018C13.2135 11.6186 13.176 11.5406 13.1242 11.4722C13.0724 11.4039 13.0074 11.3467 12.933 11.304L9.45 9.234V5.148C9.45 4.788 9.162 4.5 8.802 4.5Z" fill="#727978"/>
</svg>
