<svg width="16" height="15" viewBox="0 0 16 15" fill="none" xmlns="http://www.w3.org/2000/svg">
<path fill-rule="evenodd" clip-rule="evenodd" d="M10.831 1.98665C10.2748 1.83762 9.58182 1.83332 7.99968 1.83332H7.33301C6.3849 1.83332 5.96906 1.83487 5.62906 1.88872C3.70354 2.1937 2.19339 3.70385 1.88841 5.62937C1.83456 5.96937 1.83301 6.38521 1.83301 7.33332C1.83301 8.28143 1.83456 8.69728 1.88841 9.03728C2.19339 10.9628 3.70354 12.4729 5.62906 12.7779C5.96906 12.8318 6.3849 12.8333 7.33301 12.8333H9.99852C10.9624 12.8333 11.9081 13.0953 12.7346 13.5912C13.3647 13.9692 14.1663 13.5153 14.1663 12.7805V7.99999C14.1663 6.41784 14.1621 5.72486 14.013 5.16863C13.5969 3.61572 12.3839 2.40276 10.831 1.98665ZM8.0973 0.833317C9.55447 0.833227 10.3899 0.833175 11.0899 1.02073C12.9879 1.5293 14.4704 3.01181 14.9789 4.90981C15.1665 5.60977 15.1664 6.44519 15.1663 7.90235V7.90237L15.1663 7.99999V12.7805C15.1663 14.2926 13.5167 15.2266 12.2201 14.4487C11.549 14.046 10.7811 13.8333 9.99852 13.8333H7.33301L7.27449 13.8333H7.27445C6.40092 13.8334 5.90048 13.8334 5.47262 13.7656C3.11921 13.3929 1.27347 11.5471 0.900726 9.19371C0.83296 8.76585 0.832978 8.26541 0.833009 7.39188V7.39184L0.833012 7.33332L0.833009 7.2748V7.27477C0.832978 6.40123 0.83296 5.90079 0.900726 5.47293C1.27347 3.11952 3.11921 1.27378 5.47262 0.901035C5.90049 0.833268 6.40094 0.833287 7.27449 0.833319L7.33301 0.833321H7.99968L8.0973 0.833317ZM4.16635 5.33332C4.16635 5.05718 4.3902 4.83332 4.66635 4.83332H9.99968C10.2758 4.83332 10.4997 5.05718 10.4997 5.33332C10.4997 5.60946 10.2758 5.83332 9.99968 5.83332H4.66635C4.3902 5.83332 4.16635 5.60946 4.16635 5.33332ZM4.66635 7.49999C4.3902 7.49999 4.16635 7.72384 4.16635 7.99999C4.16635 8.27613 4.3902 8.49999 4.66635 8.49999H7.33301C7.60915 8.49999 7.83301 8.27613 7.83301 7.99999C7.83301 7.72384 7.60915 7.49999 7.33301 7.49999H4.66635Z" fill="#131F1E"/>
</svg>
