<svg width="32" height="32" viewBox="0 0 32 32" fill="none" xmlns="http://www.w3.org/2000/svg">
<rect x="0.5" y="0.5" width="31" height="31" rx="7.5" fill="white"/>
<path d="M23.5 12.25V23.5H12.25V12.25H23.5ZM23.5 11H12.25C11.9185 11 11.6005 11.1317 11.3661 11.3661C11.1317 11.6005 11 11.9185 11 12.25V23.5C11 23.8315 11.1317 24.1495 11.3661 24.3839C11.6005 24.6183 11.9185 24.75 12.25 24.75H23.5C23.8315 24.75 24.1495 24.6183 24.3839 24.3839C24.6183 24.1495 24.75 23.8315 24.75 23.5V12.25C24.75 11.9185 24.6183 11.6005 24.3839 11.3661C24.1495 11.1317 23.8315 11 23.5 11Z" fill="#36796F"/>
<path d="M8.5 17.25H7.25V8.5C7.25 8.16848 7.3817 7.85054 7.61612 7.61612C7.85054 7.3817 8.16848 7.25 8.5 7.25H17.25V8.5H8.5V17.25Z" fill="#36796F"/>
<rect x="0.5" y="0.5" width="31" height="31" rx="7.5" stroke="#36796F"/>
</svg>
