<svg width="20" height="20" viewBox="0 0 20 20" fill="none" xmlns="http://www.w3.org/2000/svg">
<path d="M17.5 12.5H16.25V13.75H17.5V17.5H2.5V13.75H3.75V12.5H2.5C2.1686 12.5004 1.85089 12.6322 1.61656 12.8666C1.38222 13.1009 1.2504 13.4186 1.25 13.75V17.5C1.2504 17.8314 1.38222 18.1491 1.61656 18.3834C1.85089 18.6178 2.1686 18.7496 2.5 18.75H17.5C17.8314 18.7496 18.1491 18.6178 18.3834 18.3834C18.6178 18.1491 18.7496 17.8314 18.75 17.5V13.75C18.7496 13.4186 18.6178 13.1009 18.3834 12.8666C18.1491 12.6322 17.8314 12.5004 17.5 12.5Z" fill="#131F1E"/>
<path d="M4.375 16.25C4.72018 16.25 5 15.9702 5 15.625C5 15.2798 4.72018 15 4.375 15C4.02982 15 3.75 15.2798 3.75 15.625C3.75 15.9702 4.02982 16.25 4.375 16.25Z" fill="#131F1E"/>
<path d="M14.1919 4.55813L11.0669 1.43312C10.9497 1.31591 10.7907 1.25004 10.625 1.25H6.875C6.5436 1.25038 6.22588 1.3822 5.99154 1.61654C5.7572 1.85087 5.62538 2.1686 5.625 2.5V12.5C5.62538 12.8314 5.7572 13.1491 5.99154 13.3835C6.22588 13.6178 6.5436 13.7496 6.875 13.75H13.125C13.4564 13.7496 13.7741 13.6178 14.0085 13.3835C14.2428 13.1491 14.3746 12.8314 14.375 12.5V5C14.375 4.83425 14.3091 4.67531 14.1919 4.55813ZM12.8661 5H10.625V2.75881L12.8661 5ZM6.875 12.5V2.5H9.375V5C9.37538 5.3314 9.5072 5.64913 9.74154 5.88346C9.97587 6.1178 10.2936 6.24962 10.625 6.25H13.125V12.5H6.875Z" fill="#131F1E"/>
</svg>
