<svg width="22" height="23" viewBox="0 0 22 23" fill="none" xmlns="http://www.w3.org/2000/svg">
<path fill-rule="evenodd" clip-rule="evenodd" d="M7.75 1C7.75 0.585786 7.41421 0.25 7 0.25C6.58579 0.25 6.25 0.585786 6.25 1V1.36694C5.35977 1.46238 4.61404 1.64 3.93556 1.98571C2.66547 2.63285 1.63285 3.66547 0.985706 4.93556C0.595875 5.70065 0.419771 6.55124 0.334236 7.59814C0.249993 8.62922 0.249996 9.91462 0.25 11.566V11.5661V11.6V12.4V12.4339V12.434C0.249996 14.0854 0.249993 15.3708 0.334236 16.4019C0.419771 17.4488 0.595875 18.2994 0.985706 19.0644C1.63285 20.3345 2.66547 21.3671 3.93556 22.0143C4.70065 22.4041 5.55124 22.5802 6.59814 22.6658C7.62919 22.75 8.91453 22.75 10.5659 22.75H10.5659H10.566H10.566H10.6H11.4H11.434H11.434H11.4341H11.4341C13.0855 22.75 14.3708 22.75 15.4019 22.6658C16.4488 22.5802 17.2994 22.4041 18.0644 22.0143C19.3345 21.3671 20.3671 20.3345 21.0143 19.0644C21.4041 18.2994 21.5802 17.4488 21.6658 16.4019C21.75 15.3708 21.75 14.0855 21.75 12.4341V12.4341V12.434V12.434V12.4V11.6V11.566V11.566V11.5659V11.5659C21.75 9.91453 21.75 8.62919 21.6658 7.59814C21.5802 6.55124 21.4041 5.70065 21.0143 4.93556C20.3671 3.66547 19.3345 2.63285 18.0644 1.98571C17.386 1.64 16.6402 1.46238 15.75 1.36694V1C15.75 0.585786 15.4142 0.25 15 0.25C14.5858 0.25 14.25 0.585786 14.25 1V1.27399C13.4486 1.25 12.5205 1.25 11.434 1.25H11.4339H11.4H10.6H10.5661H10.566C9.47953 1.25 8.55145 1.25 7.75 1.27399V1ZM14.25 4V2.7746C13.4708 2.75027 12.542 2.75 11.4 2.75H10.6C9.45801 2.75 8.52919 2.75027 7.75 2.7746V4C7.75 4.41421 7.41421 4.75 7 4.75C6.58579 4.75 6.25 4.41421 6.25 4V2.87684C5.54969 2.9632 5.04464 3.10409 4.61655 3.32222C3.6287 3.82555 2.82555 4.6287 2.32222 5.61655C2.05809 6.13493 1.90721 6.76615 1.82925 7.72029C1.75058 8.68317 1.75 9.90747 1.75 11.6V12.4C1.75 14.0925 1.75058 15.3168 1.82925 16.2797C1.90721 17.2338 2.05809 17.8651 2.32222 18.3834C2.82555 19.3713 3.6287 20.1744 4.61655 20.6778C5.13493 20.9419 5.76615 21.0928 6.72029 21.1707C7.68317 21.2494 8.90747 21.25 10.6 21.25H11.4C13.0925 21.25 14.3168 21.2494 15.2797 21.1707C16.2338 21.0928 16.8651 20.9419 17.3834 20.6778C18.3713 20.1744 19.1744 19.3713 19.6778 18.3834C19.9419 17.8651 20.0928 17.2338 20.1707 16.2797C20.2494 15.3168 20.25 14.0925 20.25 12.4V11.6C20.25 9.90747 20.2494 8.68317 20.1707 7.72029C20.0928 6.76615 19.9419 6.13493 19.6778 5.61655C19.1744 4.6287 18.3713 3.82555 17.3834 3.32222C16.9554 3.10409 16.4503 2.9632 15.75 2.87684V4C15.75 4.41421 15.4142 4.75 15 4.75C14.5858 4.75 14.25 4.41421 14.25 4ZM6 7.25C5.58579 7.25 5.25 7.58579 5.25 8C5.25 8.41421 5.58579 8.75 6 8.75H16C16.4142 8.75 16.75 8.41421 16.75 8C16.75 7.58579 16.4142 7.25 16 7.25H6Z" fill="#131F1E"/>
</svg>
