<svg width="48" height="48" viewBox="0 0 48 48" fill="none" xmlns="http://www.w3.org/2000/svg">
<rect width="48" height="48" rx="8" fill="#F0F2F2"/>
<path d="M18.8723 17.2868L17.6805 17.5305L15.8526 15.9122C15.745 16.4411 15.7872 16.9896 15.9744 17.4959C16.1615 18.0021 16.4862 18.4461 16.912 18.7779C17.3377 19.1097 17.8476 19.3161 18.3842 19.3738C18.9209 19.4316 19.463 19.3385 19.9496 19.105L21.4339 20.4552L23.0132 18.6687L21.4534 17.4111C22.204 15.1932 20.0568 12.951 17.7707 13.7333L19.5596 15.337L19.4719 16.5557L18.8723 17.2868Z" fill="#A1A5A5"/>
<path d="M28.2166 26.1727L31.4435 28.7635L33.0203 26.9892L29.7934 24.3984L28.2166 26.1727Z" fill="#A1A5A5"/>
<path d="M29.8179 20.996C29.4864 21.3811 27.0589 24.14 26.4569 24.7859C26.3965 24.8398 26.3187 24.8699 26.2378 24.8706C26.1568 24.8714 26.0784 24.8427 26.017 24.79C25.9557 24.7373 25.9155 24.664 25.9041 24.5839C25.8927 24.5038 25.9107 24.4223 25.9549 24.3545L29.3134 20.55L28.2897 19.6433C27.8023 20.1868 24.8776 23.4942 24.9117 23.4576C24.8497 23.5056 24.7728 23.5302 24.6945 23.5272C24.6162 23.5242 24.5414 23.4937 24.4833 23.4411C24.4252 23.3885 24.3874 23.3172 24.3766 23.2395C24.3658 23.1619 24.3827 23.0829 24.4243 23.0165L27.7901 19.2022L26.7665 18.2955C26.3375 18.783 23.3153 22.2366 23.4104 22.1293C23.3709 22.1742 23.3194 22.2068 23.2619 22.2232C23.2044 22.2396 23.1435 22.2392 23.0862 22.2219L22.8133 21.9782C22.8024 21.9286 22.8017 21.8773 22.8113 21.8274C22.821 21.7775 22.8407 21.7301 22.8693 21.6882C23.5371 20.9741 25.8817 18.354 26.2571 17.8447L25.2407 16.9453L21.6751 20.9716L20.9634 21.7759L19.5425 20.4549L19.2403 20.7961C18.4872 21.6467 18.9234 22.7142 19.4523 23.4454C19.6876 23.7403 19.8158 24.1064 19.8158 24.4837C19.8158 24.861 19.6876 25.227 19.4523 25.5219L16.6934 28.6172L16.747 28.6635L21.5825 31.3445L24.7777 27.7374C25.3857 27.4137 25.9639 27.0369 26.5057 26.6114C27.2125 26.0606 30.3248 22.5461 30.8537 21.9173L29.8179 20.996Z" fill="#FF8D40"/>
</svg>
