<svg width="22" height="21" viewBox="0 0 22 21" fill="none" xmlns="http://www.w3.org/2000/svg">
<path fill-rule="evenodd" clip-rule="evenodd" d="M7.68965 6.55106C6.71335 7.52736 6.71335 9.11026 7.68965 10.0866L8.22316 10.6201C9.19946 11.5964 10.7824 11.5964 11.7587 10.6201L13.0166 9.36213L18.3788 14.7243C18.574 14.9196 18.8906 14.9196 19.0859 14.7243L21.103 12.7071C21.2983 12.5118 21.2983 12.1953 21.103 12L15.7409 6.63784L16.9991 5.3796C17.9754 4.4033 17.9754 2.82041 16.9991 1.8441L16.4656 1.3106C15.4893 0.334295 13.9064 0.334293 12.9301 1.31059L7.68965 6.55106ZM15.0338 7.34495L13.7237 8.65503L18.7323 13.6636L20.0424 12.3536L15.0338 7.34495ZM8.39675 9.37946C7.81097 8.79368 7.81097 7.84394 8.39675 7.25816L13.6372 2.01769C14.223 1.43191 15.1727 1.43191 15.7585 2.0177L16.292 2.5512C16.8778 3.13699 16.8778 4.08672 16.292 4.6725L11.0516 9.91297C10.4658 10.4988 9.51604 10.4988 8.93026 9.91297L8.39675 9.37946ZM4.59473 16.8879C3.7663 16.8879 3.09473 17.5595 3.09473 18.3879V19.2499H12.853V18.3879C12.853 17.5595 12.1815 16.8879 11.353 16.8879H4.59473ZM13.853 19.2499V18.3879C13.853 17.0072 12.7338 15.8879 11.353 15.8879H4.59473C3.21402 15.8879 2.09473 17.0072 2.09473 18.3879V19.2499H1.25C0.973858 19.2499 0.75 19.4738 0.75 19.7499C0.75 20.026 0.973858 20.2499 1.25 20.2499H2.59161C2.59265 20.2499 2.59369 20.2499 2.59473 20.2499C2.59577 20.2499 2.59681 20.2499 2.59785 20.2499H13.3499C13.351 20.2499 13.352 20.2499 13.353 20.2499C13.3541 20.2499 13.3551 20.2499 13.3562 20.2499H14.6979C14.974 20.2499 15.1979 20.026 15.1979 19.7499C15.1979 19.4738 14.974 19.2499 14.6979 19.2499H13.853ZM1.25 13.1983C0.973858 13.1983 0.75 13.4222 0.75 13.6983C0.75 13.9745 0.973858 14.1983 1.25 14.1983H3.26718C3.54333 14.1983 3.76718 13.9745 3.76718 13.6983C3.76718 13.4222 3.54333 13.1983 3.26718 13.1983H1.25ZM2.66886 9.06568C2.86412 8.87042 3.18071 8.87042 3.37597 9.06568L4.80212 10.4918C4.99738 10.6871 4.99738 11.0037 4.80212 11.1989C4.60686 11.3942 4.29027 11.3942 4.09501 11.1989L2.66886 9.77279C2.4736 9.57752 2.4736 9.26094 2.66886 9.06568Z" fill="#24554E"/>
</svg>
