<svg width="22" height="27" viewBox="0 0 22 27" fill="none" xmlns="http://www.w3.org/2000/svg">
<path d="M21.9999 14.7218V6.30933C21.9999 2.8392 19.1091 0 15.5778 0C12.0466 0 9.1557 2.8413 9.15772 6.30933V14.196C9.15974 16.806 11.3132 18.928 13.9758 18.928C16.6384 18.928 18.7879 16.8039 18.7879 14.196V7.36089C18.7879 5.61531 17.3535 4.20622 15.5778 4.20622C13.8021 4.20622 12.3678 5.61531 12.3678 7.36089V14.7218H14.5091V7.36089C14.5259 7.0771 14.646 6.81065 14.8449 6.61587C15.0439 6.42109 15.3067 6.31264 15.5798 6.31264C15.8529 6.31264 16.1158 6.42109 16.3147 6.61587C16.5137 6.81065 16.6338 7.0771 16.6505 7.36089V14.196C16.6505 15.6471 15.4505 16.8249 13.9738 16.8249C12.4971 16.8249 11.2991 15.6471 11.2991 14.196V6.30933C11.2991 3.99591 13.2243 2.10311 15.5798 2.10311C17.9353 2.10311 19.8585 3.99591 19.8585 6.30933V14.7218H21.9999Z" fill="#FF8D40"/>
<path d="M0 20.855H0.0202017V20.8887L10.4907 27.0003V24.2936L2.08279 19.4396V2.82503H8.67663L8.6544 0.890172H8.62006V0.869141H0V1.15306V20.855Z" fill="#36796F"/>
<path d="M11.5093 26.9995L21.9818 20.8878V20.8542H22V15.874H20.4061H19.9192V19.4388L11.5093 24.2928V26.9995Z" fill="#36796F"/>
</svg>
