<svg width="18" height="18" viewBox="0 0 18 18" fill="none" xmlns="http://www.w3.org/2000/svg">
<path fill-rule="evenodd" clip-rule="evenodd" d="M8.88306 0.16663L9.00033 0.166634L9.11761 0.16663C11.1774 0.166525 12.3336 0.166466 13.2883 0.467473C15.3108 1.10519 16.8951 2.68948 17.5328 4.71205C17.8338 5.66672 17.8338 6.82295 17.8337 8.88271L17.8337 8.99997V11.6429C17.8337 13.2847 17.1815 14.8593 16.0206 16.0202C14.8596 17.1811 13.2851 17.8333 11.6433 17.8333H9.00033L8.88307 17.8333C6.82331 17.8334 5.66709 17.8335 4.71241 17.5325C2.68985 16.8947 1.10555 15.3105 0.46784 13.2879C0.166832 12.3332 0.166891 11.177 0.166996 9.11724L0.167 8.99997L0.166996 8.8827C0.166891 6.82294 0.166832 5.66672 0.46784 4.71205C1.10555 2.68948 2.68985 1.10519 4.71241 0.467473C5.66709 0.166466 6.82331 0.166525 8.88306 0.16663ZM9.00033 1.16663C6.79133 1.16663 5.80197 1.17247 5.01312 1.42119C3.30172 1.96079 1.96116 3.30135 1.42156 5.01275C1.17283 5.8016 1.167 6.79097 1.167 8.99997C1.167 11.209 1.17283 12.1983 1.42156 12.9872C1.96116 14.6986 3.30172 16.0391 5.01312 16.5787C5.80197 16.8275 6.79133 16.8333 9.00033 16.8333H11.6433C11.7069 16.8333 11.7704 16.8321 11.8337 16.8298V15.5333V15.5119V15.5118C11.8337 14.97 11.8337 14.5329 11.8626 14.179C11.8924 13.8145 11.9553 13.4944 12.1062 13.1983C12.3458 12.7279 12.7283 12.3454 13.1987 12.1058C13.4948 11.9549 13.8149 11.892 14.1794 11.8622C14.5333 11.8333 14.9704 11.8333 15.5122 11.8333H15.5337H16.8302C16.8325 11.77 16.8337 11.7065 16.8337 11.6429V8.99997C16.8337 6.79097 16.8278 5.8016 16.5791 5.01275C16.0395 3.30135 14.699 1.96079 12.9875 1.42119C12.1987 1.17247 11.2093 1.16663 9.00033 1.16663ZM15.3134 15.3131C14.6258 16.0007 13.7651 16.4755 12.8337 16.695V15.5333C12.8337 14.965 12.8341 14.5688 12.8593 14.2604C12.884 13.9578 12.9301 13.784 12.9972 13.6523C13.141 13.37 13.3704 13.1406 13.6527 12.9968C13.7844 12.9297 13.9582 12.8836 14.2608 12.8589C14.5692 12.8337 14.9654 12.8333 15.5337 12.8333H16.6954C16.4759 13.7647 16.0011 14.6254 15.3134 15.3131ZM4.83367 4.3333C4.55752 4.3333 4.33367 4.55716 4.33367 4.8333C4.33367 5.10944 4.55752 5.3333 4.83367 5.3333H11.5003C11.7765 5.3333 12.0003 5.10944 12.0003 4.8333C12.0003 4.55716 11.7765 4.3333 11.5003 4.3333H4.83367ZM4.33367 8.16663C4.33367 7.89049 4.55752 7.66663 4.83367 7.66663H9.83367C10.1098 7.66663 10.3337 7.89049 10.3337 8.16663C10.3337 8.44278 10.1098 8.66663 9.83367 8.66663H4.83367C4.55752 8.66663 4.33367 8.44278 4.33367 8.16663ZM4.83367 11C4.55752 11 4.33367 11.2238 4.33367 11.5C4.33367 11.7761 4.55752 12 4.83367 12H6.50033C6.77647 12 7.00033 11.7761 7.00033 11.5C7.00033 11.2238 6.77647 11 6.50033 11H4.83367Z" fill="#131F1E"/>
</svg>