<svg width="20" height="20" viewBox="0 0 20 20" fill="none" xmlns="http://www.w3.org/2000/svg">
<path d="M16.25 18.75H6.875C6.5436 18.7496 6.22588 18.6178 5.99154 18.3835C5.7572 18.1491 5.62538 17.8314 5.625 17.5V13.75H6.875V17.5H16.25V3.75H10.625V2.5H16.25C16.5814 2.50038 16.8991 2.6322 17.1335 2.86654C17.3678 3.10087 17.4996 3.4186 17.5 3.75V17.5C17.4996 17.8314 17.3678 18.1491 17.1335 18.3835C16.8991 18.6178 16.5814 18.7496 16.25 18.75Z" fill="#131F1E"/>
<path d="M10.625 6.25H15V7.5H10.625V6.25ZM10 9.375H15V10.625H10V9.375ZM9.375 12.5H15V13.75H9.375V12.5ZM5.625 11.875C4.79648 11.8741 4.00215 11.5446 3.4163 10.9587C2.83044 10.3728 2.50091 9.57852 2.5 8.75V1.875H3.75V8.75C3.75 9.24728 3.94754 9.72419 4.29917 10.0758C4.65081 10.4275 5.12772 10.625 5.625 10.625C6.12228 10.625 6.59919 10.4275 6.95083 10.0758C7.30246 9.72419 7.5 9.24728 7.5 8.75V3.125C7.5 2.95924 7.43415 2.80027 7.31694 2.68306C7.19973 2.56585 7.04076 2.5 6.875 2.5C6.70924 2.5 6.55027 2.56585 6.43306 2.68306C6.31585 2.80027 6.25 2.95924 6.25 3.125V9.375H5V3.125C5 2.62772 5.19754 2.15081 5.54917 1.79917C5.90081 1.44754 6.37772 1.25 6.875 1.25C7.37228 1.25 7.84919 1.44754 8.20083 1.79917C8.55246 2.15081 8.75 2.62772 8.75 3.125V8.75C8.74909 9.57852 8.41956 10.3728 7.8337 10.9587C7.24785 11.5446 6.45352 11.8741 5.625 11.875Z" fill="#131F1E"/>
</svg>
