<svg width="30" height="33" viewBox="0 0 30 33" fill="none" xmlns="http://www.w3.org/2000/svg">
<path d="M24.1736 13.9599L15.8284 9.81531C14.7988 9.29464 15.1221 9.29464 14.0898 9.81531L5.70645 13.9573C5.61404 13.9929 5.53503 14.0545 5.47977 14.134C5.4245 14.2134 5.39557 14.307 5.39676 14.4024H24.5974C24.5974 14.2384 24.4127 14.0796 24.1736 13.9599Z" fill="#FF8D40"/>
<path d="M0.507252 32.0436H14.1362V29.3778C14.0058 29.3778 13.8646 29.3778 13.7505 29.3595C10.9397 29.2668 8.27037 28.1553 6.28167 26.2495C4.29297 24.3436 3.13311 21.7855 3.03637 19.0918C3.03637 18.9669 3.01464 18.8471 3.01464 18.7222H0.235596V32.0436H0.507252Z" fill="#FF8D40"/>
<path d="M15.8308 32.0449H26.9633H29.4924H29.7641V7.60965H29.7369V7.56539L15.657 0V3.35054L26.9633 9.35912V29.3608H15.8308H15.7059V32.0449H15.8308Z" fill="#A1A5A5"/>
<path d="M3.03637 17.4165V9.35912L14.3427 3.35054V0L0.262761 7.56539V7.60965H0.235596V17.4165H2.37896H3.03637Z" fill="#A1A5A5"/>
<path d="M8.29541 15.8809V15.9772C8.29469 17.7325 8.85369 19.4461 9.89755 20.8885C10.9414 22.3309 12.4203 23.4332 14.136 24.0476V19.4006H15.7198V24.4512C16.2391 24.5391 16.7653 24.5835 17.2927 24.5839H21.8483V15.8809H8.29541Z" fill="#A1A5A5"/>
</svg>
