<svg width="30" height="34" viewBox="0 0 30 34" fill="none" xmlns="http://www.w3.org/2000/svg">
<g clip-path="url(#clip0_775_83045)">
<path d="M13.9067 0V3.07531H2.7625V24.225L13.9067 30.4093V33.8285L0 26.1402V0H13.9067Z" fill="#A7A9AC"/>
<path d="M15.418 0V3.07531H26.7078V24.1954L15.418 30.3875V33.8285L29.3247 26.1402V0H15.418Z" fill="#A7A9AC"/>
<path d="M29.3247 0H15.418V3.09494C21.3867 3.09494 26.6539 7.90695 26.6957 13.87L26.698 14.1959H29.3247V0Z" fill="#FF8D40"/>
</g>
<path fill-rule="evenodd" clip-rule="evenodd" d="M13.7074 7.22479C14.1769 7.22479 14.5574 7.60535 14.5574 8.07479V12.5372H19.4449C19.9144 12.5372 20.2949 12.9178 20.2949 13.3872C20.2949 13.8567 19.9144 14.2372 19.4449 14.2372H12.8574V8.07479C12.8574 7.60535 13.238 7.22479 13.7074 7.22479Z" fill="#FF8D40"/>
<path fill-rule="evenodd" clip-rule="evenodd" d="M7.86328 7.01251H14.7542C15.0246 7.0129 15.2934 7.06408 15.5456 7.16442C15.7976 7.26468 16.0299 7.41282 16.2274 7.60302C16.2276 7.6032 16.2278 7.60339 16.228 7.60358L20.8338 12.0317C21.2302 12.4148 21.4634 12.9422 21.4633 13.5043C21.4633 13.5045 21.4633 13.5046 21.4633 13.5048V23.304H7.8647L7.86328 7.01251ZM9.98828 9.13751L9.98868 21.179H19.3383V13.5416L14.7582 9.13831C14.7566 9.13792 14.7543 9.13754 14.7514 9.13751H9.98828Z" fill="#A7A9AC"/>
<defs>
<clipPath id="clip0_775_83045">
<rect width="29.325" height="34" fill="white"/>
</clipPath>
</defs>
</svg>
