<svg width="48" height="48" viewBox="0 0 48 48" fill="none" xmlns="http://www.w3.org/2000/svg">
<path d="M0 8C0 3.58172 3.58172 0 8 0H40C44.4183 0 48 3.58172 48 8V40C48 44.4183 44.4183 48 40 48H8C3.58172 48 0 44.4183 0 40V8Z" fill="#E8F2F1"/>
<path fill-rule="evenodd" clip-rule="evenodd" d="M23.5661 13.25H23.6H24.4H24.4339C26.0854 13.25 27.3708 13.25 28.4019 13.3342C29.4488 13.4198 30.2994 13.5959 31.0644 13.9857C32.3345 14.6329 33.3671 15.6655 34.0143 16.9356C34.4041 17.7007 34.5802 18.5512 34.6658 19.5981C34.75 20.6292 34.75 21.9145 34.75 23.5658V23.5659V23.5659V23.566V23.566V23.6V27.1716V27.1952V27.1952V27.1953V27.1953V27.1953C34.75 27.5101 34.75 27.6976 34.7401 27.8805C34.6567 29.4161 34.0515 30.8772 33.0246 32.022C32.9023 32.1584 32.7696 32.291 32.547 32.5137L32.5303 32.5303L32.5137 32.547C32.291 32.7696 32.1584 32.9023 32.022 33.0246C30.8772 34.0515 29.4161 34.6567 27.8805 34.7401C27.6976 34.75 27.5101 34.75 27.1953 34.75H27.1953H27.1953H27.1952H27.1952H27.1716H23.6H23.566H23.566H23.5659H23.5659H23.5658C21.9145 34.75 20.6292 34.75 19.5981 34.6658C18.5512 34.5802 17.7007 34.4041 16.9356 34.0143C15.6655 33.3671 14.6329 32.3345 13.9857 31.0644C13.5959 30.2994 13.4198 29.4488 13.3342 28.4019C13.25 27.3708 13.25 26.0854 13.25 24.4339V24.4V23.6V23.5661C13.25 21.9146 13.25 20.6292 13.3342 19.5981C13.4198 18.5512 13.5959 17.7007 13.9857 16.9356C14.6329 15.6655 15.6655 14.6329 16.9356 13.9857C17.7007 13.5959 18.5512 13.4198 19.5981 13.3342C20.6292 13.25 21.9146 13.25 23.5661 13.25ZM19.7203 14.8293C18.7662 14.9072 18.1349 15.0581 17.6165 15.3222C16.6287 15.8256 15.8256 16.6287 15.3222 17.6165C15.0581 18.1349 14.9072 18.7662 14.8293 19.7203C14.7506 20.6832 14.75 21.9075 14.75 23.6V24.4C14.75 26.0925 14.7506 27.3168 14.8293 28.2797C14.9072 29.2338 15.0581 29.8651 15.3222 30.3834C15.8256 31.3713 16.6287 32.1744 17.6165 32.6778C18.1349 32.9419 18.7662 33.0928 19.7203 33.1707C20.6832 33.2494 21.9075 33.25 23.6 33.25H27.1716L27.25 33.25V31.2V31.1695C27.25 30.6354 27.25 30.1895 27.2797 29.8253C27.3108 29.4454 27.3779 29.0888 27.5497 28.7515C27.8134 28.2341 28.2341 27.8134 28.7515 27.5497C29.0888 27.3779 29.4454 27.3107 29.8253 27.2797C30.1896 27.25 30.6354 27.25 31.1695 27.25H31.1696H31.2H33.25L33.25 27.1716V23.6C33.25 21.9075 33.2494 20.6832 33.1707 19.7203C33.0928 18.7662 32.9419 18.1349 32.6778 17.6165C32.1744 16.6287 31.3713 15.8256 30.3834 15.3222C29.8651 15.0581 29.2338 14.9072 28.2797 14.8293C27.3168 14.7506 26.0925 14.75 24.4 14.75H23.6C21.9075 14.75 20.6832 14.7506 19.7203 14.8293ZM31.0204 31.908C30.3703 32.4912 29.5891 32.8995 28.75 33.1026V31.2C28.75 30.6275 28.7506 30.2433 28.7748 29.9474C28.7982 29.6603 28.8401 29.523 28.8862 29.4325C29.0061 29.1973 29.1973 29.0061 29.4325 28.8862C29.5231 28.8401 29.6604 28.7982 29.9475 28.7747C30.2434 28.7506 30.6276 28.75 31.2 28.75H33.1026C32.8995 29.5891 32.4912 30.3703 31.908 31.0204C31.8161 31.1228 31.7139 31.2255 31.4697 31.4697C31.2255 31.7139 31.1228 31.8161 31.0204 31.908ZM19 18.25C18.5858 18.25 18.25 18.5858 18.25 19C18.25 19.4142 18.5858 19.75 19 19.75H27C27.4142 19.75 27.75 19.4142 27.75 19C27.75 18.5858 27.4142 18.25 27 18.25H19ZM18.25 23C18.25 22.5858 18.5858 22.25 19 22.25H25C25.4142 22.25 25.75 22.5858 25.75 23C25.75 23.4142 25.4142 23.75 25 23.75H19C18.5858 23.75 18.25 23.4142 18.25 23ZM19 26.25C18.5858 26.25 18.25 26.5858 18.25 27C18.25 27.4142 18.5858 27.75 19 27.75H21C21.4142 27.75 21.75 27.4142 21.75 27C21.75 26.5858 21.4142 26.25 21 26.25H19Z" fill="#24554E"/>
</svg>
