<svg width="8" height="25" viewBox="0 0 8 25" fill="none" xmlns="http://www.w3.org/2000/svg">
<path d="M4.60742 5.93359V8.01855H3.58203V5.93359H4.60742ZM4.48438 17.0967V18.9219H3.46582V17.0967H4.48438ZM5.85156 14.9365C5.85156 14.6631 5.79004 14.417 5.66699 14.1982C5.54395 13.9795 5.34115 13.779 5.05859 13.5967C4.77604 13.4144 4.39779 13.2458 3.92383 13.0908C3.34961 12.9131 2.85286 12.6966 2.43359 12.4414C2.01888 12.1862 1.69759 11.8695 1.46973 11.4912C1.24642 11.113 1.13477 10.6549 1.13477 10.1172C1.13477 9.55664 1.25553 9.07357 1.49707 8.66797C1.73861 8.26237 2.0804 7.9502 2.52246 7.73145C2.96452 7.5127 3.48405 7.40332 4.08105 7.40332C4.5459 7.40332 4.96061 7.47396 5.3252 7.61523C5.68978 7.75195 5.9974 7.95703 6.24805 8.23047C6.50326 8.50391 6.69694 8.83887 6.8291 9.23535C6.96582 9.63184 7.03418 10.0898 7.03418 10.6094H5.77637C5.77637 10.304 5.73991 10.0238 5.66699 9.76855C5.59408 9.51335 5.4847 9.29232 5.33887 9.10547C5.19303 8.91406 5.0153 8.76823 4.80566 8.66797C4.59603 8.56315 4.35449 8.51074 4.08105 8.51074C3.69824 8.51074 3.38151 8.57682 3.13086 8.70898C2.88477 8.84115 2.70247 9.02799 2.58398 9.26953C2.46549 9.50651 2.40625 9.78223 2.40625 10.0967C2.40625 10.3883 2.46549 10.6436 2.58398 10.8623C2.70247 11.0811 2.90299 11.2793 3.18555 11.457C3.47266 11.6302 3.86686 11.8011 4.36816 11.9697C4.95605 12.1566 5.45508 12.3776 5.86523 12.6328C6.27539 12.8835 6.58757 13.1934 6.80176 13.5625C7.01595 13.9271 7.12305 14.3805 7.12305 14.9229C7.12305 15.5107 6.99089 16.0075 6.72656 16.4131C6.46224 16.8141 6.09082 17.1195 5.6123 17.3291C5.13379 17.5387 4.57324 17.6436 3.93066 17.6436C3.54329 17.6436 3.16048 17.5911 2.78223 17.4863C2.40397 17.3815 2.06217 17.2106 1.75684 16.9736C1.4515 16.7321 1.20768 16.4154 1.02539 16.0234C0.843099 15.627 0.751953 15.1416 0.751953 14.5674H2.02344C2.02344 14.9548 2.07812 15.276 2.1875 15.5312C2.30143 15.7819 2.45182 15.9824 2.63867 16.1328C2.82552 16.2786 3.0306 16.3835 3.25391 16.4473C3.48177 16.5065 3.70736 16.5361 3.93066 16.5361C4.34082 16.5361 4.68717 16.4723 4.96973 16.3447C5.25684 16.2126 5.47559 16.0257 5.62598 15.7842C5.77637 15.5426 5.85156 15.2601 5.85156 14.9365Z" fill="#A1A5A5"/>
</svg>
