<svg width="12" height="7" viewBox="0 0 12 7" fill="none" xmlns="http://www.w3.org/2000/svg">
<path fill-rule="evenodd" clip-rule="evenodd" d="M0.46967 0.96967C0.762563 0.676777 1.23744 0.676777 1.53033 0.96967L4.26759 3.70693C4.67236 4.1117 4.94445 4.38297 5.17076 4.57509C5.39038 4.76153 5.51706 4.82899 5.61373 4.86039C5.86478 4.94197 6.13522 4.94197 6.38627 4.86039C6.48294 4.82899 6.60962 4.76153 6.82924 4.57509C7.05555 4.38296 7.32764 4.1117 7.73241 3.70693L10.4697 0.96967C10.7626 0.676777 11.2374 0.676777 11.5303 0.96967C11.8232 1.26256 11.8232 1.73744 11.5303 2.03033L8.79307 4.76759L8.77154 4.78912C8.39385 5.16683 8.0786 5.48209 7.8 5.7186C7.50944 5.96527 7.20979 6.17001 6.8498 6.28698C6.29748 6.46644 5.70252 6.46644 5.1502 6.28698C4.79021 6.17001 4.49056 5.96527 4.2 5.7186C3.9214 5.48209 3.60615 5.16682 3.22845 4.78911L3.20693 4.76759L0.46967 2.03033C0.176777 1.73744 0.176777 1.26256 0.46967 0.96967Z" fill="#727978"/>
</svg>
