<svg width="20" height="20" viewBox="0 0 20 20" fill="none" xmlns="http://www.w3.org/2000/svg">
<path fill-rule="evenodd" clip-rule="evenodd" d="M10.5307 1.14106C10.2378 0.848163 9.76295 0.848163 9.47005 1.14106L6.13865 4.47246C5.84576 4.76535 5.84576 5.24023 6.13865 5.53312C6.43154 5.82601 6.90641 5.82601 7.19931 5.53312L9.25038 3.48205V11.6656C9.25038 12.0798 9.58617 12.4156 10.0004 12.4156C10.4146 12.4156 10.7504 12.0798 10.7504 11.6656V3.48205L12.8015 5.53312C13.0944 5.82601 13.5692 5.82601 13.8621 5.53312C14.155 5.24023 14.155 4.76535 13.8621 4.47246L10.5307 1.14106ZM2.42188 11.6656C2.42188 11.2514 2.08609 10.9156 1.67188 10.9156C1.25766 10.9156 0.921875 11.2514 0.921875 11.6656V12.082V12.1129C0.92187 13.1344 0.921866 13.9441 0.971916 14.598C1.02308 15.2664 1.12974 15.8336 1.37649 16.3563C1.84663 17.3521 2.64818 18.1537 3.64404 18.6238C4.16669 18.8705 4.7339 18.9772 5.40232 19.0284C6.05623 19.0784 6.86584 19.0784 7.88742 19.0784H7.91826H12.0825H12.1133C13.1349 19.0784 13.9445 19.0784 14.5985 19.0284C15.2669 18.9772 15.8341 18.8705 16.3567 18.6238C17.3526 18.1537 18.1542 17.3521 18.6243 16.3562C18.871 15.8336 18.9777 15.2664 19.0289 14.598C19.0789 13.9441 19.0789 13.1344 19.0789 12.1128V12.082V11.6656C19.0789 11.2514 18.7431 10.9156 18.3289 10.9156C17.9147 10.9156 17.5789 11.2514 17.5789 11.6656V12.082C17.5789 13.1413 17.5784 13.8935 17.5332 14.4835C17.4887 15.0655 17.4039 15.4276 17.2679 15.7159C16.9462 16.3973 16.3977 16.9457 15.7164 17.2674C15.4281 17.4035 15.066 17.4882 14.484 17.5327C13.894 17.5779 13.1418 17.5784 12.0825 17.5784H7.91826C6.85899 17.5784 6.10675 17.5779 5.51679 17.5327C4.93477 17.4882 4.57267 17.4035 4.28441 17.2674C3.60303 16.9457 3.0546 16.3973 2.73292 15.7159C2.59684 15.4276 2.51209 15.0655 2.46754 14.4835C2.42239 13.8935 2.42188 13.1413 2.42188 12.082V11.6656Z" fill="#fff"/>
</svg>
