<svg width="18" height="22" viewBox="0 0 18 22" fill="none" xmlns="http://www.w3.org/2000/svg">
<path d="M16.5 17V20H1.5V17H0V20L0.00599992 19.9963C0.00530937 20.1931 0.0434108 20.3882 0.118127 20.5703C0.192843 20.7524 0.30271 20.918 0.44145 21.0577C0.580191 21.1973 0.745087 21.3082 0.926716 21.3841C1.10835 21.46 1.30315 21.4994 1.5 21.5H16.5C16.8978 21.5 17.2794 21.342 17.5607 21.0607C17.842 20.7794 18 20.3978 18 20V17H16.5ZM1.5 8L2.55825 9.05375L8.25 3.36875V17H9.75V3.36875L15.4432 9.05375L16.5 8L9 0.5L1.5 8Z" fill="black"/>
</svg>
