<svg width="24" height="28" viewBox="0 0 24 28" fill="none" xmlns="http://www.w3.org/2000/svg">
<g clip-path="url(#clip0_2797_17766)">
<path d="M11.3618 0.875V3.24932H2.75781V19.5781L11.3618 24.3528V26.9926L0.625 21.0568V0.875H11.3618Z" fill="#A7A9AC"/>
<path d="M12.5288 0.875V3.24932H21.2452V19.5553L12.5288 24.3359V26.9926L23.2656 21.0568V0.875H12.5288Z" fill="#A7A9AC"/>
<path d="M23.2656 0.875H12.5288V3.26447C17.137 3.26447 21.2036 6.97963 21.2359 11.5835L21.2376 11.835H23.2656V0.875Z" fill="#FF8D40"/>
</g>
<path fill-rule="evenodd" clip-rule="evenodd" d="M11.2075 6.45312C11.57 6.45312 11.8638 6.74694 11.8638 7.10938V10.5546H15.6372C15.9996 10.5546 16.2935 10.8485 16.2935 11.2109C16.2935 11.5733 15.9996 11.8671 15.6372 11.8671H10.5513V7.10938C10.5513 6.74694 10.8451 6.45312 11.2075 6.45312Z" fill="#FF8D40"/>
<path fill-rule="evenodd" clip-rule="evenodd" d="M6.69531 6.28906H12.0155C12.2242 6.28936 12.4318 6.32888 12.6265 6.40634C12.8211 6.48375 13.0004 6.59812 13.1529 6.74497C13.153 6.74511 13.1532 6.74526 13.1533 6.7454L16.7093 10.1641C17.0153 10.46 17.1954 10.8671 17.1953 11.3011C17.1953 11.3012 17.1953 11.3014 17.1953 11.3015V18.8671H6.6964L6.69531 6.28906ZM8.33594 7.92969L8.33624 17.2265H15.5547V11.3299L12.0186 7.93031C12.0174 7.93 12.0156 7.92971 12.0134 7.92969H8.33594Z" fill="#A7A9AC"/>
<defs>
<clipPath id="clip0_2797_17766">
<rect width="22.6406" height="26.25" fill="white" transform="translate(0.625 0.875)"/>
</clipPath>
</defs>
</svg>
