<svg width="16" height="18" viewBox="0 0 16 18" fill="none" xmlns="http://www.w3.org/2000/svg">
<path fill-rule="evenodd" clip-rule="evenodd" d="M9.16634 1.19062C8.86205 1.16785 8.46584 1.16663 7.84871 1.16663H7.73301C6.60465 1.16663 5.78846 1.16702 5.14653 1.21947C4.51044 1.27144 4.08963 1.37202 3.74404 1.54811C3.08547 1.88367 2.55004 2.4191 2.21449 3.07767C2.0384 3.42326 1.93781 3.84407 1.88584 4.48016C1.8334 5.12208 1.83301 5.93828 1.83301 7.06664V10.9333C1.83301 12.0617 1.8334 12.8779 1.88584 13.5198C1.93781 14.1559 2.0384 14.5767 2.21449 14.9223C2.55004 15.5808 3.08547 16.1163 3.74404 16.4518C4.08963 16.6279 4.51044 16.7285 5.14653 16.7805C5.78845 16.8329 6.60465 16.8333 7.733 16.8333H8.26634C9.39469 16.8333 10.2109 16.8329 10.8528 16.7805C11.4889 16.7285 11.9097 16.6279 12.2553 16.4518C12.9139 16.1163 13.4493 15.5808 13.7849 14.9223C13.9609 14.5767 14.0615 14.1559 14.1135 13.5198C14.166 12.8779 14.1663 12.0617 14.1663 10.9333V7.48427C14.1663 6.86715 14.1651 6.47095 14.1424 6.16666H12.8663H12.8449C12.303 6.16666 11.866 6.16667 11.512 6.13775C11.1476 6.10797 10.8275 6.04507 10.5314 5.89417C10.061 5.65449 9.67851 5.27204 9.43882 4.80163C9.28793 4.50549 9.22502 4.18539 9.19525 3.82097C9.16633 3.46704 9.16634 3.02998 9.16634 2.48811V2.48806V2.46666V1.19062ZM13.9065 5.16666C13.8351 4.99187 13.7495 4.82289 13.6506 4.66141C13.4413 4.31994 13.1469 4.02097 12.4383 3.31234L12.0206 2.8947C11.312 2.18607 11.013 1.89165 10.6716 1.68239C10.5101 1.58344 10.3411 1.49792 10.1663 1.42653V2.46666C10.1663 3.03496 10.1667 3.43112 10.1919 3.73954C10.2167 4.04212 10.2627 4.21597 10.3298 4.34764C10.4736 4.62989 10.7031 4.85936 10.9854 5.00317C11.117 5.07026 11.2909 5.11635 11.5935 5.14107C11.9019 5.16627 12.298 5.16666 12.8663 5.16666H13.9065ZM9.89332 0.290969C9.37491 0.16651 8.83032 0.166554 7.91738 0.16663L7.84871 0.166633H7.73301H7.71038C6.60942 0.166631 5.75249 0.166629 5.0651 0.222791C4.36717 0.279814 3.80011 0.397217 3.29005 0.657104C2.44332 1.08853 1.75491 1.77695 1.32348 2.62368C1.06359 3.13373 0.946188 3.7008 0.889165 4.39873C0.833003 5.08611 0.833005 5.94305 0.833008 7.044V7.04401V7.06664V10.9333V10.9559C0.833005 12.0569 0.833003 12.9138 0.889165 13.6012C0.946188 14.2991 1.06359 14.8662 1.32348 15.3763C1.75491 16.223 2.44332 16.9114 3.29005 17.3428C3.80011 17.6027 4.36717 17.7201 5.0651 17.7771C5.75248 17.8333 6.6094 17.8333 7.71034 17.8333H7.71036H7.733H8.26634H8.28898H8.289C9.38994 17.8333 10.2469 17.8333 10.9342 17.7771C11.6322 17.7201 12.1992 17.6027 12.7093 17.3428C13.556 16.9114 14.2444 16.223 14.6759 15.3763C14.9358 14.8662 15.0532 14.2991 15.1102 13.6012C15.1663 12.9138 15.1663 12.0569 15.1663 10.9559V10.9333V7.48427L15.1663 7.4156C15.1664 6.50265 15.1665 5.95806 15.042 5.43965C14.9318 4.98049 14.7499 4.54154 14.5032 4.13891C14.2247 3.68433 13.8395 3.29928 13.1939 2.65379L13.1454 2.60523L12.7277 2.1876L12.6792 2.13903C12.0337 1.49343 11.6486 1.10832 11.1941 0.829753C10.7914 0.583024 10.3525 0.401204 9.89332 0.290969ZM8.06279 8.22975C8.25805 8.03448 8.57463 8.03448 8.76989 8.22975L10.8532 10.3131C11.0485 10.5083 11.0485 10.8249 10.8532 11.0202L8.76989 13.1035C8.57463 13.2988 8.25805 13.2988 8.06279 13.1035C7.86753 12.9083 7.86753 12.5917 8.06279 12.3964L9.29257 11.1666L5.49967 11.1666C5.22353 11.1666 4.99967 10.9428 4.99967 10.6666C4.99967 10.3905 5.22353 10.1666 5.49967 10.1666L9.29257 10.1666L8.06279 8.93685C7.86753 8.74159 7.86753 8.42501 8.06279 8.22975Z" fill="#131F1E"/>
</svg>
