<svg width="20" height="20" viewBox="0 0 20 20" fill="none" xmlns="http://www.w3.org/2000/svg">
<path d="M17.5 5H10L7.86606 2.86606C7.63165 2.63168 7.31374 2.5 6.98225 2.5H2.5C2.16848 2.5 1.85054 2.6317 1.61612 2.86612C1.3817 3.10054 1.25 3.41848 1.25 3.75V16.25C1.25 16.5815 1.3817 16.8995 1.61612 17.1339C1.85054 17.3683 2.16848 17.5 2.5 17.5H10C10.3315 17.5 10.6495 17.3683 10.8839 17.1339C11.1183 16.8995 11.25 16.5815 11.25 16.25V10.5188L12.8687 12.1313L13.75 11.25L10.625 8.125L7.5 11.25L8.38125 12.1313L10 10.5188V16.25H2.5V3.75H6.98225L9.48225 6.25H17.5V16.25H13.75V17.5H17.5C17.8315 17.5 18.1495 17.3683 18.3839 17.1339C18.6183 16.8995 18.75 16.5815 18.75 16.25V6.25C18.75 5.91848 18.6183 5.60054 18.3839 5.36612C18.1495 5.1317 17.8315 5 17.5 5Z" fill="#131F1E"/>
</svg>
