<svg width="17" height="22" viewBox="0 0 17 22" fill="none" xmlns="http://www.w3.org/2000/svg">
<path fill-rule="evenodd" clip-rule="evenodd" d="M1.75 1C1.75 0.585786 1.41421 0.25 1 0.25C0.585786 0.25 0.25 0.585786 0.25 1V3V14V21C0.25 21.4142 0.585786 21.75 1 21.75C1.41421 21.75 1.75 21.4142 1.75 21V14.5856L2.50141 14.3977C4.02473 14.0169 5.63694 14.2568 6.98337 15.0647C8.84088 16.1792 11.0927 16.4264 13.1477 15.7413L16.2372 14.7115C16.5434 14.6094 16.75 14.3228 16.75 14V3C16.75 2.75892 16.6341 2.53253 16.4385 2.39157C16.243 2.2506 15.9915 2.21225 15.7628 2.28849L12.6734 3.31831C11.0337 3.86486 9.23714 3.66764 7.75511 2.77842C6.06755 1.76589 4.04687 1.4652 2.13761 1.94252L1.75 2.03942V1Z" fill="#131F1E"/>
</svg>
