<svg width="48" height="48" viewBox="0 0 48 48" fill="none" xmlns="http://www.w3.org/2000/svg">
<path d="M0 8C0 3.58172 3.58172 0 8 0H40C44.4183 0 48 3.58172 48 8V40C48 44.4183 44.4183 48 40 48H8C3.58172 48 0 44.4183 0 40V8Z" fill="#E8F2F1"/>
<path fill-rule="evenodd" clip-rule="evenodd" d="M19.7639 14.7498C20.1509 14.7498 20.2845 14.7509 20.4019 14.7644C21.0677 14.8406 21.6648 15.2097 22.0308 15.7711C22.0953 15.8701 22.1561 15.989 22.3292 16.3352L22.3488 16.3745C22.4948 16.6666 22.5953 16.8677 22.7126 17.0476C23.3225 17.9832 24.3178 18.5983 25.4274 18.7254C25.6408 18.7498 25.8655 18.7498 26.1921 18.7498L26.2361 18.7498H27.9998C28.9783 18.7498 29.3203 18.7562 29.5825 18.8265C30.3588 19.0345 30.9652 19.6409 31.1733 20.4173C31.2215 20.5972 31.2397 20.8148 31.2463 21.25H31.2225H24.0662H24.0372H24.0371C23.3395 21.25 22.774 21.25 22.3112 21.285C21.8326 21.3212 21.4097 21.3976 21.0065 21.5785C20.361 21.8681 19.8105 22.3344 19.4188 22.9235C19.174 23.2915 19.0291 23.6961 18.9148 24.1623C18.8041 24.613 18.7112 25.1708 18.5965 25.8589L18.5965 25.8589L18.5917 25.8876L17.3668 33.237C17.1927 33.2314 17.0353 33.2232 16.8907 33.2114C16.4368 33.1743 16.176 33.1052 15.9785 33.0045C15.5552 32.7888 15.211 32.4446 14.9952 32.0212C14.8946 31.8237 14.8255 31.563 14.7884 31.1091C14.7506 30.6465 14.75 30.0522 14.75 29.1998V18.7998C14.75 17.9473 14.7506 17.3531 14.7884 16.8904C14.8255 16.4366 14.8946 16.1758 14.9952 15.9783C15.211 15.5549 15.5552 15.2107 15.9785 14.995C16.176 14.8944 16.4368 14.8252 16.8907 14.7881C17.3533 14.7503 17.9475 14.7498 18.8 14.7498H19.7639ZM27.0193 33.25C27.0129 33.2498 27.0065 33.2498 27 33.2498H18.8854L20.0713 26.1342C20.1919 25.4106 20.276 24.9089 20.3715 24.5197C20.4648 24.1397 20.557 23.9207 20.6678 23.7541C20.9029 23.4006 21.2331 23.1209 21.6204 22.9471C21.803 22.8652 22.0342 22.8102 22.4244 22.7807C22.8239 22.7505 23.3326 22.75 24.0662 22.75H31.2225C31.8857 22.75 32.3349 22.7507 32.6777 22.7804C33.0134 22.8094 33.1665 22.8615 33.261 22.9157C33.5145 23.0611 33.7091 23.2908 33.8109 23.5648C33.8488 23.6669 33.875 23.8265 33.8485 24.1625C33.8214 24.5054 33.7482 24.9486 33.6392 25.6028L32.9287 29.8658C32.8081 30.5894 32.724 31.0911 32.6285 31.4803C32.5352 31.8603 32.443 32.0793 32.3322 32.2459C32.0971 32.5994 31.7669 32.8792 31.3796 33.0529C31.197 33.1348 30.9658 33.1898 30.5756 33.2193C30.1761 33.2495 29.6674 33.25 28.9338 33.25H27.0193ZM17.9409 34.7477C17.4941 34.744 17.1061 34.734 16.7685 34.7064C16.2219 34.6617 15.7418 34.5674 15.2975 34.341C14.5919 33.9815 14.0183 33.4078 13.6587 32.7022C13.4324 32.258 13.338 31.7779 13.2934 31.2312C13.25 30.7003 13.25 30.0447 13.25 29.2319V29.2319V29.1998V18.7998V18.7677V18.7676C13.25 17.9548 13.25 17.2992 13.2934 16.7683C13.338 16.2217 13.4324 15.7415 13.6587 15.2973C14.0183 14.5917 14.5919 14.018 15.2975 13.6585C15.7418 13.4321 16.2219 13.3378 16.7685 13.2931C17.2994 13.2498 17.9551 13.2498 18.7679 13.2498L18.8 13.2498H19.7639L19.8079 13.2498C20.1345 13.2497 20.3592 13.2497 20.5726 13.2741C21.6822 13.4012 22.6775 14.0163 23.2874 14.9519C23.4047 15.1319 23.5052 15.3329 23.6512 15.625L23.6708 15.6644C23.8439 16.0105 23.9047 16.1294 23.9692 16.2285C24.3352 16.7898 24.9323 17.1589 25.5981 17.2351C25.7155 17.2486 25.8491 17.2498 26.2361 17.2498H27.9998L28.1156 17.2497C28.9337 17.2495 29.492 17.2493 29.9708 17.3776C31.2647 17.7244 32.2754 18.7351 32.6222 20.029C32.7162 20.3799 32.7412 20.7736 32.7478 21.2811C32.7678 21.2826 32.7875 21.2843 32.8071 21.2859C33.2367 21.3232 33.6396 21.4037 34.0074 21.6146C34.5651 21.9345 34.9931 22.4397 35.217 23.0425C35.3646 23.4399 35.3778 23.8506 35.3438 24.2805C35.311 24.696 35.2264 25.2035 35.1242 25.8166L35.1188 25.8494L34.4083 30.1124L34.4035 30.1411C34.2888 30.8293 34.1959 31.387 34.0853 31.8378C33.9709 32.3039 33.826 32.7085 33.5812 33.0765C33.1895 33.6656 32.639 34.1319 31.9935 34.4215C31.5903 34.6024 31.1674 34.6788 30.6888 34.715C30.226 34.75 29.6605 34.75 28.9628 34.75H28.9338H18C17.9802 34.75 17.9605 34.7492 17.9409 34.7477Z" fill="#24554E"/>
</svg>
