<svg width="30" height="34" viewBox="0 0 30 34" fill="none" xmlns="http://www.w3.org/2000/svg">
<g clip-path="url(#clip0_775_83001)">
<path d="M15.4175 34.0002V30.9249H26.5617V9.77524L15.4175 3.59093V0.171761L29.3242 7.86007V34.0002H15.4175Z" fill="#A7A9AC"/>
<path d="M13.9062 34.0002V30.9249H2.61641V9.80483L13.9062 3.61274V0.171761L-0.000460625 7.86007V34.0002H13.9062Z" fill="#A7A9AC"/>
<path d="M-0.000459671 34.0002H13.9062V30.9053C7.93749 30.9053 2.67029 26.0933 2.62851 20.1302L2.62623 19.8044H-0.000459671V34.0002Z" fill="#FF8D40"/>
</g>
<path fill-rule="evenodd" clip-rule="evenodd" d="M8.92229 13.492L8.9223 22.1988L20.1253 22.1985L20.1253 15.2833L14.7593 15.2833L12.6846 13.4853L9.12976 13.4853C9.04721 13.4853 8.97868 13.4879 8.92229 13.492ZM8.71604 13.5238C8.71604 13.5238 8.71626 13.5237 8.71672 13.5235L8.71604 13.5238ZM6.84766 13.347C6.84766 12.9281 6.93271 12.3067 7.48471 11.8637C7.96355 11.4795 8.58717 11.4107 9.12976 11.4107L13.4585 11.4107L15.5332 13.2087L22.2 13.2087L22.2 24.2721L6.84766 24.2734L6.84766 13.347Z" fill="#A7A9AC"/>
<defs>
<clipPath id="clip0_775_83001">
<rect width="29.325" height="34" fill="white" transform="translate(29.3242 34.0002) rotate(-180)"/>
</clipPath>
</defs>
</svg>
