<svg width="18" height="17" viewBox="0 0 18 17" fill="none" xmlns="http://www.w3.org/2000/svg">
<path d="M1 1V13.8571V16H17" stroke="white" stroke-width="2" stroke-linecap="round" stroke-linejoin="round"/>
<mask id="path-2-inside-1_1384_26216" fill="white">
<path fill-rule="evenodd" clip-rule="evenodd" d="M6 7V11V7Z"/>
</mask>
<path d="M7 7C7 6.44772 6.55228 6 6 6C5.44772 6 5 6.44772 5 7H7ZM5 11C5 11.5523 5.44772 12 6 12C6.55228 12 7 11.5523 7 11H5ZM5 7V11H7V7H5Z" fill="white" mask="url(#path-2-inside-1_1384_26216)"/>
<mask id="path-4-inside-2_1384_26216" fill="white">
<path fill-rule="evenodd" clip-rule="evenodd" d="M10 5V11V5Z"/>
</mask>
<path d="M11 5C11 4.44772 10.5523 4 10 4C9.44772 4 9 4.44772 9 5H11ZM9 11C9 11.5523 9.44772 12 10 12C10.5523 12 11 11.5523 11 11H9ZM9 5V11H11V5H9Z" fill="white" mask="url(#path-4-inside-2_1384_26216)"/>
<mask id="path-6-inside-3_1384_26216" fill="white">
<path fill-rule="evenodd" clip-rule="evenodd" d="M14 2V11V2Z"/>
</mask>
<path d="M15 2C15 1.44772 14.5523 1 14 1C13.4477 1 13 1.44772 13 2H15ZM13 11C13 11.5523 13.4477 12 14 12C14.5523 12 15 11.5523 15 11H13ZM13 2V11H15V2H13Z" fill="white" mask="url(#path-6-inside-3_1384_26216)"/>
</svg>
