<svg width="12" height="12" viewBox="0 0 12 12" fill="none" xmlns="http://www.w3.org/2000/svg">
<path fill-rule="evenodd" clip-rule="evenodd" d="M6 12C9.3138 12 12 9.3138 12 6C12 2.6862 9.3138 0 6 0C2.6862 0 0 2.6862 0 6C0 9.3138 2.6862 12 6 12ZM8.93862 4.81793C9.23152 4.52504 9.23152 4.05016 8.93862 3.75727C8.64573 3.46438 8.17086 3.46438 7.87796 3.75727L5.36941 6.26583L4.51678 5.4132C4.22389 5.12031 3.74902 5.12031 3.45612 5.4132C3.16323 5.70609 3.16323 6.18096 3.45612 6.47386L4.83907 7.85682C4.97973 7.99747 5.17049 8.07649 5.3694 8.07649C5.56832 8.07649 5.75908 7.99747 5.89973 7.85682L8.93862 4.81793Z" fill="#24A148"/>
</svg>
