<svg width="20" height="20" viewBox="0 0 20 20" fill="none" xmlns="http://www.w3.org/2000/svg">
<path fill-rule="evenodd" clip-rule="evenodd" d="M4.64314 8.21387C3.66099 8.21387 2.85742 9.01744 2.85742 9.99958C2.85742 10.9817 3.66099 11.7853 4.64314 11.7853C5.62528 11.7853 6.42885 10.9817 6.42885 9.99958C6.42885 9.01744 5.62528 8.21387 4.64314 8.21387ZM15.3574 8.21387C14.3753 8.21387 13.5717 9.01744 13.5717 9.99958C13.5717 10.9817 14.3753 11.7853 15.3574 11.7853C16.3396 11.7853 17.1431 10.9817 17.1431 9.99958C17.1431 9.01744 16.3396 8.21387 15.3574 8.21387ZM8.21457 9.99958C8.21457 9.01744 9.01814 8.21387 10.0003 8.21387C10.9824 8.21387 11.786 9.01744 11.786 9.99958C11.786 10.9817 10.9824 11.7853 10.0003 11.7853C9.01814 11.7853 8.21457 10.9817 8.21457 9.99958Z" fill="#727978"/>
</svg>
