<svg width="22" height="22" viewBox="0 0 22 22" fill="none" xmlns="http://www.w3.org/2000/svg">
<path fill-rule="evenodd" clip-rule="evenodd" d="M11 1.75C5.89137 1.75 1.75 5.89137 1.75 11C1.75 16.1086 5.89137 20.25 11 20.25C16.1086 20.25 20.25 16.1086 20.25 11C20.25 5.89137 16.1086 1.75 11 1.75ZM0.25 11C0.25 5.06294 5.06294 0.25 11 0.25C16.9371 0.25 21.75 5.06294 21.75 11C21.75 16.9371 16.9371 21.75 11 21.75C5.06294 21.75 0.25 16.9371 0.25 11ZM12 15C12 15.5523 11.5523 16 11 16C10.4477 16 10 15.5523 10 15C10 14.4477 10.4477 14 11 14C11.5523 14 12 14.4477 12 15ZM9.75 9C9.75 8.30964 10.3096 7.75 11 7.75C11.6904 7.75 12.25 8.30964 12.25 9V9.12132C12.25 9.48502 12.1055 9.83382 11.8483 10.091L10.4697 11.4697C10.1768 11.7626 10.1768 12.2374 10.4697 12.5303C10.7626 12.8232 11.2374 12.8232 11.5303 12.5303L12.909 11.1517C13.4475 10.6132 13.75 9.88284 13.75 9.12132V9C13.75 7.48122 12.5188 6.25 11 6.25C9.48122 6.25 8.25 7.48122 8.25 9V9.5C8.25 9.91421 8.58579 10.25 9 10.25C9.41421 10.25 9.75 9.91421 9.75 9.5V9Z" fill="#131F1E"/>
</svg>
