<svg width="17" height="18" viewBox="0 0 17 18" fill="none" xmlns="http://www.w3.org/2000/svg">
<path fill-rule="evenodd" clip-rule="evenodd" d="M11.9773 17.2415H15.8409C16.4977 17.2415 17 16.7338 17 16.07V8.96298C17 8.65058 16.8841 8.37724 16.6523 8.14294L9.31136 0.723517C8.84773 0.254922 8.15227 0.254922 7.68864 0.723517L0.347727 8.14294C0.115909 8.37724 0 8.65058 0 8.96298V16.07C0 16.7338 0.502273 17.2415 1.15909 17.2415H5.02273C5.67955 17.2415 6.18182 16.7338 6.18182 16.07V10.2126C6.18182 9.97827 6.33636 9.82207 6.56818 9.82207H10.4318C10.6636 9.82207 10.8182 9.97827 10.8182 10.2126V16.07C10.8182 16.7338 11.3205 17.2415 11.9773 17.2415ZM10.4318 9.04109H6.56818C5.91136 9.04109 5.40909 9.54874 5.40909 10.2126V16.07C5.40909 16.3043 5.25455 16.4605 5.02273 16.4605H1.15909C0.927273 16.4605 0.772728 16.3043 0.772728 16.07V8.96299C0.772728 8.84584 0.811364 8.76775 0.888637 8.68965L8.22955 1.27022C8.38409 1.11403 8.61591 1.11403 8.77046 1.27022L16.1114 8.68965C16.1886 8.76775 16.2273 8.84584 16.2273 8.96299V16.07C16.2273 16.3043 16.0727 16.4605 15.8409 16.4605H11.9773C11.7455 16.4605 11.5909 16.3043 11.5909 16.07V10.2126C11.5909 9.54874 11.0886 9.04109 10.4318 9.04109Z" fill="currentColor"/>
</svg>
