<svg width="16" height="4" viewBox="0 0 16 4" fill="none" xmlns="http://www.w3.org/2000/svg">
<path fill-rule="evenodd" clip-rule="evenodd" d="M2.64314 0.214233C1.66099 0.214233 0.857422 1.01781 0.857422 1.99995C0.857422 2.98209 1.66099 3.78566 2.64314 3.78566C3.62528 3.78566 4.42885 2.98209 4.42885 1.99995C4.42885 1.01781 3.62528 0.214233 2.64314 0.214233ZM13.3574 0.214233C12.3753 0.214233 11.5717 1.01781 11.5717 1.99995C11.5717 2.98209 12.3753 3.78566 13.3574 3.78566C14.3396 3.78566 15.1431 2.98209 15.1431 1.99995C15.1431 1.01781 14.3396 0.214233 13.3574 0.214233ZM6.21457 1.99995C6.21457 1.01781 7.01814 0.214233 8.00028 0.214233C8.98242 0.214233 9.786 1.01781 9.786 1.99995C9.786 2.98209 8.98242 3.78566 8.00028 3.78566C7.01814 3.78566 6.21457 2.98209 6.21457 1.99995Z" fill="#131F1E"/>
</svg>
