<svg width="42" height="52" viewBox="0 0 42 52" fill="none" xmlns="http://www.w3.org/2000/svg">
<path d="M0.363525 34.1649V31.2925V28.4202H2.79735H5.23117V31.2925V34.1649H2.79735H0.363525Z" fill="#36796F"/>
<path d="M7.29055 34.1649V31.2925V28.4202H17.3067H27.3228V31.2925V34.1649H17.3067H7.29055Z" fill="#36796F"/>
<path d="M0.363525 42.6894V39.817V36.9446H2.79735H5.23117V39.817V42.6894H2.79735H0.363525Z" fill="#FF8D40"/>
<path d="M0.363525 51.3992V48.5268V45.6544H2.79735H5.23117V48.5268V51.3992H2.79735H0.363525Z" fill="#36796F"/>
<path d="M7.29055 51.3992V48.5268V45.6544H20.1149H32.9393V48.5268V51.3992H20.1149H7.29055Z" fill="#36796F"/>
<path d="M7.29055 39.817V42.6894H20.1149H32.9393V39.817V36.9446H20.1149H7.29055V39.817Z" fill="#FF8D40"/>
<path fill-rule="evenodd" clip-rule="evenodd" d="M30 24C36.6274 24 42 18.6274 42 12C42 5.37258 36.6274 0 30 0C23.3726 0 18 5.37258 18 12C18 18.6274 23.3726 24 30 24ZM36 13V11L24 11V13H36Z" fill="#36796F"/>
</svg>
