<svg width="34" height="24" viewBox="0 0 34 24" fill="none" xmlns="http://www.w3.org/2000/svg">
<path d="M0.371582 5.86486V2.93243V0H2.85629H5.341V2.93243V5.86486H2.85629H0.371582Z" fill="#36796F"/>
<path d="M7.44345 5.86486V2.93243V0H17.669H33.6285V2.93243V5.86486H17.669H7.44345Z" fill="#36796F"/>
<path d="M0.371582 14.5676V11.6351V8.7027H2.85629H5.341V11.6351V14.5676H2.85629H0.371582Z" fill="#36796F"/>
<path d="M7.44345 14.5676V11.6351V8.7027H20.536H33.6285V11.6351V14.5676H20.536H7.44345Z" fill="#36796F"/>
<path d="M0.371582 23.4595V20.527V17.5946H2.85629H5.341V20.527V23.4595H2.85629H0.371582Z" fill="#36796F"/>
<path d="M7.44345 23.4595V20.527V17.5946H20.536H33.6285V20.527V23.4595H20.536H7.44345Z" fill="#36796F"/>
<path d="M0.37207 14.5675V11.6351V8.70264H2.85678H5.34149V11.6351V14.5675H2.85678H0.37207Z" fill="#FF8D40"/>
<path d="M7.44394 14.5675V11.6351V8.70264H20.5364H33.629V11.6351V14.5675H20.5364H7.44394Z" fill="#FF8D40"/>
</svg>
