<svg width="48" height="44" viewBox="0 0 48 44" fill="none" xmlns="http://www.w3.org/2000/svg">
<path d="M18.7793 5.8416V2.92089V0H33.2021H47.6249V14.5676V29.1351H44.733H41.8413L41.749 28.3311C41.6984 27.8888 41.5628 26.7183 41.4478 25.7297C40.9068 21.0789 38.1483 15.6715 34.6125 12.3308C31.1477 9.05706 26.4191 6.74554 22.1509 6.23908C21.1722 6.12292 20.0133 5.98595 19.5754 5.93487L18.7793 5.8416Z" fill="#36796F"/>
<path d="M0.371338 25.9193V22.9869V20.0544H2.85605H5.34076V22.9869V25.9193H2.85605H0.371338Z" fill="#FF8D40"/>
<path d="M7.4432 25.9193V22.9869V20.0544H17.6687H27.8943V22.9869V25.9193H17.6687H7.4432Z" fill="#FF8D40"/>
<path d="M0.371338 34.622V31.6896V28.7571H2.85605H5.34076V31.6896V34.622H2.85605H0.371338Z" fill="#36796F"/>
<path d="M0.371338 43.5139V40.5815V37.649H2.85605H5.34076V40.5815V43.5139H2.85605H0.371338Z" fill="#FF8D40"/>
<path d="M7.4432 43.5139V40.5815V37.649H20.5357H33.6282V40.5815V43.5139H20.5357H7.4432Z" fill="#FF8D40"/>
<path d="M7.4432 31.6896V34.622H20.5357H33.6282V31.6896V28.7571H20.5357H7.4432V31.6896Z" fill="#36796F"/>
</svg>
