<svg width="52" height="50" viewBox="0 0 52 50" fill="none" xmlns="http://www.w3.org/2000/svg">
<path d="M47.7448 0.849799L49.5375 2.64249L51.3303 4.4353L42.4778 13.2878L33.6253 22.1404L24.6838 13.199L15.7424 4.25756L17.5174 2.48258L19.2923 0.707694L19.8425 1.14453C20.145 1.38499 20.9467 2.0202 21.624 2.55635C24.8107 5.07895 29.8228 6.70482 34.0436 6.58505C38.1796 6.46775 42.5008 4.98417 45.4314 2.67525C46.1034 2.14584 46.8988 1.51861 47.199 1.28116L47.7448 0.849799Z" fill="#36796F"/>
<path d="M0.363525 32.1649V29.2925V26.4202H2.79735H5.23117V29.2925V32.1649H2.79735H0.363525Z" fill="#FF8D40"/>
<path d="M7.29055 32.1649V29.2925V26.4202H17.3067H27.3228V29.2925V32.1649H17.3067H7.29055Z" fill="#FF8D40"/>
<path d="M0.363525 40.6894V37.817V34.9446H2.79735H5.23117V37.817V40.6894H2.79735H0.363525Z" fill="#36796F"/>
<path d="M0.363525 49.3992V46.5268V43.6544H2.79735H5.23117V46.5268V49.3992H2.79735H0.363525Z" fill="#FF8D40"/>
<path d="M7.29055 49.3992V46.5268V43.6544H20.1149H32.9393V46.5268V49.3992H20.1149H7.29055Z" fill="#FF8D40"/>
<path d="M7.29055 37.817V40.6894H20.1149H32.9393V37.817V34.9446H20.1149H7.29055V37.817Z" fill="#36796F"/>
</svg>
