<svg width="14" height="16" viewBox="0 0 14 16" fill="none" xmlns="http://www.w3.org/2000/svg">
<path fill-rule="evenodd" clip-rule="evenodd" d="M1.75 6.99992C1.75 4.13619 4.02323 2.08325 7 2.08325C9.97677 2.08325 12.25 4.13619 12.25 6.99992C12.25 9.37223 11.1989 11.1016 9.98437 12.2515C9.37427 12.8291 8.72809 13.2545 8.16692 13.5327C7.58095 13.8231 7.16261 13.9165 7 13.9165C6.83739 13.9165 6.41905 13.8231 5.83308 13.5327C5.27191 13.2545 4.62573 12.8291 4.01563 12.2515C2.80107 11.1016 1.75 9.37223 1.75 6.99992ZM7 0.583252C3.31011 0.583252 0.25 3.19698 0.25 6.99992C0.25 9.86216 1.53227 11.966 2.98437 13.3408C3.7076 14.0255 4.47809 14.5352 5.16692 14.8767C5.83095 15.2058 6.49594 15.4165 7 15.4165C7.50406 15.4165 8.16905 15.2058 8.83308 14.8767C9.52191 14.5352 10.2924 14.0255 11.0156 13.3408C12.4677 11.966 13.75 9.86216 13.75 6.99992C13.75 3.19698 10.6899 0.583252 7 0.583252ZM5.75 7.33325C5.75 6.6429 6.30964 6.08325 7 6.08325C7.69036 6.08325 8.25 6.6429 8.25 7.33325C8.25 8.02361 7.69036 8.58325 7 8.58325C6.30964 8.58325 5.75 8.02361 5.75 7.33325ZM7 4.58325C5.48122 4.58325 4.25 5.81447 4.25 7.33325C4.25 8.85204 5.48122 10.0833 7 10.0833C8.51878 10.0833 9.75 8.85204 9.75 7.33325C9.75 5.81447 8.51878 4.58325 7 4.58325Z" fill="#A1A5A5"/>
</svg>
