<svg width="14" height="14" viewBox="0 0 14 14" fill="none" xmlns="http://www.w3.org/2000/svg">
<path d="M12.812 3.1608C13.0628 2.26504 13.1882 1.81716 13.0718 1.50982C12.9703 1.24186 12.7588 1.0303 12.4908 0.928816C12.1835 0.812417 11.7356 0.937824 10.8398 1.18864L3.45967 3.25508C2.04483 3.65124 1.33742 3.84932 1.13243 4.18564C0.95514 4.47653 0.938124 4.83766 1.08728 5.14392C1.25973 5.49803 1.94539 5.76175 3.31671 6.28918L5.82697 7.25467C6.07139 7.34867 6.19359 7.39567 6.29639 7.46877C6.38749 7.53355 6.46709 7.61315 6.53187 7.70425C6.60496 7.80705 6.65197 7.92926 6.74597 8.17367L7.71138 10.6839C8.23879 12.0552 8.5025 12.7409 8.85661 12.9133C9.16287 13.0625 9.524 13.0455 9.81489 12.8682C10.1512 12.6632 10.3493 11.9558 10.7455 10.5409L12.812 3.1608Z" fill="#36796F"/>
</svg>
