<svg width="16" height="16" viewBox="0 0 16 16" fill="none" xmlns="http://www.w3.org/2000/svg">
<path d="M13.812 4.1608C14.0628 3.26504 14.1882 2.81716 14.0718 2.50982C13.9703 2.24186 13.7588 2.0303 13.4908 1.92882C13.1835 1.81242 12.7356 1.93782 11.8398 2.18864L4.45967 4.25508C3.04483 4.65124 2.33742 4.84932 2.13243 5.18564C1.95514 5.47653 1.93812 5.83766 2.08728 6.14392C2.25973 6.49803 2.94539 6.76175 4.31671 7.28918L6.82697 8.25467C7.07139 8.34867 7.19359 8.39567 7.29639 8.46877C7.38749 8.53355 7.46709 8.61315 7.53187 8.70425C7.60496 8.80705 7.65197 8.92926 7.74597 9.17367L8.71138 11.6839C9.23879 13.0552 9.5025 13.7409 9.85661 13.9133C10.1629 14.0625 10.524 14.0455 10.8149 13.8682C11.1512 13.6632 11.3493 12.9558 11.7455 11.5409L13.812 4.1608Z" fill="#36796F"/>
</svg>
