<svg width="22" height="19" viewBox="0 0 22 19" fill="none" xmlns="http://www.w3.org/2000/svg">
<path d="M7.43444 10.2618C7.19311 10.1197 6.85058 9.9618 6.61703 9.84339C6.41462 9.74867 6.22779 9.86707 6.08766 10.167C5.61278 11.1616 4.41392 13.3955 3.94682 14.3901C3.79891 14.7138 3.86898 14.9269 4.0636 15.0216C4.3205 15.14 4.66303 15.2979 4.91215 15.4163C5.14569 15.5268 5.32474 15.4005 5.5038 15.0453C6.02538 14.0112 7.12305 11.7379 7.58235 10.8301C7.69134 10.6328 7.62906 10.3802 7.43444 10.2696V10.2618Z" fill="#FF8D40"/>
<path d="M19.4388 0.860407C18.4423 0.43415 14.3709 0 10.3539 0C6.33689 0 3.69782 0.221022 2.50674 0.963024C1.36237 1.66556 1.86265e-05 2.62858 1.86265e-05 9.46448C1.86265e-05 13.7744 -0.358085 17.1292 4.29726 18.4238C5.58176 18.779 8.57114 19 10.8755 19C13.1798 19 17.6794 18.7395 19.0651 18.2027C20.2017 17.816 21.0892 16.8845 21.4162 15.7162C21.603 15.0453 21.9767 12.9298 21.9922 9.12505C22.0234 2.6128 20.7778 1.43664 19.431 0.860407H19.4388ZM10.4784 1.88658C16.4027 1.88658 18.3645 2.32073 19.0885 3.26007C17.1501 4.57831 12.0977 7.90943 10.6653 7.90943C9.11608 7.90943 4.28947 4.27046 3.0439 3.30744C3.70561 2.3602 5.26258 1.88658 10.4706 1.88658H10.4784ZM19.9682 9.17241C19.9682 14.8085 19.4077 15.4873 17.9908 16.2451C17.4692 16.5214 15.5853 17.1055 10.4084 17.1055C6.51594 17.1055 5.65961 16.7108 4.04036 16.0794C2.42111 15.4479 2.04744 13.4192 2.04744 9.8118C2.06301 8.31201 2.19535 6.81221 2.42889 5.3361C4.35954 6.78064 9.24843 10.3249 10.6731 10.3249C12.3001 10.3249 18.5669 6.03864 19.6879 5.26506C19.8825 6.55962 19.976 7.86207 19.9682 9.16452V9.17241Z" fill="#36796F"/>
<path d="M16.0368 10.167C15.8967 9.86707 15.7098 9.74867 15.5074 9.84339C15.2661 9.9539 14.9314 10.1197 14.69 10.2618C14.4954 10.3802 14.4331 10.6249 14.5421 10.8222C15.0014 11.73 16.0991 14.0033 16.6207 15.0374C16.7997 15.4005 16.9788 15.5189 17.2123 15.4084C17.4614 15.29 17.804 15.1321 18.0609 15.0137C18.2555 14.9269 18.3333 14.7059 18.1776 14.3822C17.7183 13.3876 16.5117 11.1537 16.0368 10.1591V10.167Z" fill="#FF8D40"/>
</svg>
