<svg width="21" height="21" viewBox="0 0 21 21" fill="none" xmlns="http://www.w3.org/2000/svg">
<path fill-rule="evenodd" clip-rule="evenodd" d="M8.99998 6.00391L6.99998 8.00391L2.99998 4.00391L1.99998 5.00391L0.999976 1.00391L1.99998 0.00390625L5.99998 1.00391L4.99998 2.00391L8.99998 6.00391ZM14.3125 9.69141C15.5465 10.1354 16.9615 10.2064 18.5445 9.23241C19.2275 8.81341 19.8095 8.23141 20.2285 7.54841C21.2025 5.96541 21.1315 4.55041 20.6875 3.31641L18.0005 6.00341H14.9995V3.00441L17.6875 0.316406C16.4535 -0.127594 15.0385 -0.198594 13.4555 0.775406C12.7725 1.19441 12.1905 1.77641 11.7715 2.45941C10.7975 4.04241 10.8685 5.45741 11.3125 6.69141L7.68548 10.3184C6.45148 9.87441 5.03648 9.80341 3.45348 10.7774C2.77048 11.1964 2.18948 11.7784 1.76948 12.4614C0.795476 14.0444 0.866476 15.4594 1.31048 16.6934L3.99848 14.0054H6.99848V17.0054L4.31048 19.6934C5.54448 20.1374 6.95948 20.2084 8.54248 19.2344C9.22548 18.8144 9.80748 18.2334 10.2265 17.5504C11.2005 15.9674 11.1295 14.5524 10.6855 13.3184L14.3125 9.69141ZM20.3789 16.3847L15.9999 12.0037L12.9999 15.0037L17.3789 19.3847C18.2069 20.2127 19.5489 20.2127 20.3769 19.3847L20.3789 19.3827C21.2069 18.5547 21.2069 17.2127 20.3789 16.3847Z" fill="currentColor"/>
</svg>
