<svg width="24" height="27" viewBox="0 0 24 27" fill="none" xmlns="http://www.w3.org/2000/svg">
<path d="M6.95404 7.31989L5.90123 7.53518L4.2865 6.1056C4.19148 6.57284 4.22873 7.05732 4.39405 7.50454C4.55937 7.95175 4.84621 8.34397 5.2223 8.63705C5.59838 8.93013 6.04879 9.11245 6.52285 9.1635C6.9969 9.21455 7.4758 9.1323 7.90566 8.92601L9.21682 10.1188L10.612 8.54063L9.23405 7.42969C9.89717 5.47047 8.00039 3.48973 5.98089 4.18084L7.56118 5.5975L7.48367 6.67399L6.95404 7.31989Z" fill="#A1A5A5"/>
<path d="M15.2085 15.1697L18.059 17.4583L19.452 15.891L16.6015 13.6024L15.2085 15.1697Z" fill="#A1A5A5"/>
<path d="M23.1872 0H12.3857V2.2025C12.4891 2.2025 12.5881 2.21542 12.6915 2.21972C14.9191 2.29639 17.0347 3.21563 18.6108 4.79175C20.1869 6.36788 21.1062 8.48342 21.1828 10.7111C21.1828 10.8123 21.1979 10.9135 21.1979 11.0168H23.4025V0H23.1872Z" fill="#FF8D40"/>
<path d="M2.21972 18.7611V2.21978H10.612H10.7111V6.10352e-05H10.612H2.21972H0.213145H0V20.2079H0.0215298V20.2445L11.1804 26.5011V23.7302" fill="#A1A5A5"/>
<path d="M16.6231 10.5967C16.3303 10.9369 14.1859 13.3741 13.6541 13.9446C13.6008 13.9922 13.532 14.0188 13.4605 14.0195C13.3891 14.0201 13.3198 13.9948 13.2656 13.9482C13.2113 13.9017 13.1759 13.837 13.1658 13.7662C13.1557 13.6955 13.1716 13.6234 13.2106 13.5636L16.1774 10.2028L15.2732 9.40184C14.8426 9.88196 12.259 12.8036 12.2891 12.7713C12.2344 12.8136 12.1665 12.8354 12.0973 12.8328C12.0281 12.8301 11.962 12.8032 11.9107 12.7567C11.8593 12.7102 11.826 12.6472 11.8165 12.5786C11.8069 12.51 11.8218 12.4403 11.8586 12.3816L14.8318 9.01215L13.9276 8.21125C13.5486 8.64184 10.8789 11.6926 10.9629 11.5979C10.928 11.6375 10.8825 11.6663 10.8317 11.6808C10.781 11.6953 10.7271 11.6949 10.6766 11.6797L10.4354 11.4644C10.4258 11.4206 10.4252 11.3752 10.4337 11.3312C10.4423 11.2871 10.4597 11.2453 10.4849 11.2082C11.0749 10.5774 13.146 8.26292 13.4776 7.81294L12.5798 7.01849L9.42999 10.5752L8.80132 11.2857L7.54613 10.1188L7.27916 10.4202C6.61389 11.1716 6.99927 12.1146 7.46647 12.7605C7.67434 13.021 7.78755 13.3444 7.78755 13.6777C7.78755 14.0109 7.67434 14.3343 7.46647 14.5948L5.0293 17.3291L5.07666 17.37L9.34818 19.7383L12.1707 16.5519C12.7078 16.2659 13.2187 15.9331 13.6972 15.5572C14.3216 15.0706 17.0709 11.966 17.5381 11.4106L16.6231 10.5967Z" fill="#FF8D40"/>
<path d="M21.1831 12.0955V18.7611L12.2224 23.7302V26.5011L23.3813 20.2445V20.2079H23.4028V12.0955H21.7041H21.1831Z" fill="#A1A5A5"/>
</svg>
