<svg width="24" height="27" viewBox="0 0 24 27" fill="none" xmlns="http://www.w3.org/2000/svg">
<path d="M7.55097 7.31964L6.49816 7.53494L4.88342 6.10536C4.7884 6.57259 4.82565 7.05707 4.99097 7.50429C5.1563 7.95151 5.44314 8.34372 5.81922 8.63681C6.1953 8.92989 6.64571 9.11221 7.11977 9.16326C7.59383 9.21431 8.07272 9.13206 8.50258 8.92577L9.81375 10.1185L11.2089 8.54038L9.83097 7.42944C10.4941 5.47023 8.59731 3.48949 6.57782 4.1806L8.15811 5.59726L8.0806 6.67375L7.55097 7.31964Z" fill="#36796F"/>
<path d="M15.8057 15.1699L18.6562 17.4585L20.0492 15.8912L17.1986 13.6025L15.8057 15.1699Z" fill="#36796F"/>
<path d="M23.7844 0H12.9829V2.2025C13.0863 2.2025 13.1853 2.21542 13.2886 2.21972C15.5163 2.29639 17.6318 3.21563 19.208 4.79175C20.7841 6.36788 21.7033 8.48342 21.78 10.7111C21.78 10.8123 21.7951 10.9135 21.7951 11.0168H23.9997V0H23.7844Z" fill="#FF8D40"/>
<path d="M2.81689 18.7611V2.21972H11.2092H11.3082V0H11.2092H2.81689H0.810313H0.597168V20.2079H0.618698V20.2445L11.7776 26.501V23.7302" fill="#36796F"/>
<path d="M17.2203 10.5968C16.9275 10.937 14.7831 13.3742 14.2513 13.9447C14.198 13.9923 14.1292 14.0189 14.0577 14.0195C13.9862 14.0202 13.9169 13.9949 13.8627 13.9483C13.8085 13.9017 13.7731 13.837 13.763 13.7663C13.7528 13.6955 13.7688 13.6235 13.8078 13.5636L16.7746 10.2028L15.8703 9.4019C15.4398 9.88202 12.8562 12.8036 12.8863 12.7713C12.8316 12.8137 12.7636 12.8355 12.6944 12.8328C12.6252 12.8302 12.5592 12.8032 12.5079 12.7568C12.4565 12.7103 12.4232 12.6473 12.4136 12.5787C12.4041 12.5101 12.419 12.4403 12.4557 12.3816L15.429 9.01222L14.5247 8.21131C14.1458 8.6419 11.4761 11.6927 11.5601 11.5979C11.5252 11.6376 11.4797 11.6664 11.4289 11.6809C11.3781 11.6954 11.3243 11.695 11.2737 11.6798L11.0326 11.4645C11.023 11.4206 11.0224 11.3753 11.0309 11.3312C11.0394 11.2872 11.0568 11.2453 11.0821 11.2083C11.672 10.5774 13.7432 8.26298 14.0748 7.81301L13.177 7.01855L10.0272 10.5753L9.39849 11.2858L8.1433 10.1188L7.87633 10.4203C7.21106 11.1717 7.59644 12.1147 8.06364 12.7606C8.27151 13.0211 8.38472 13.3444 8.38472 13.6777C8.38472 14.011 8.27151 14.3344 8.06364 14.5949L5.62646 17.3292L5.67383 17.3701L9.94534 19.7384L12.7679 16.552C13.305 16.266 13.8158 15.9331 14.2944 15.5573C14.9187 15.0707 17.6681 11.9661 18.1353 11.4106L17.2203 10.5968Z" fill="#FF8D40"/>
<path d="M21.78 12.0957V18.7613L12.8193 23.7304V26.5013L23.9782 20.2447V20.2081H23.9998V12.0957H22.3011H21.78Z" fill="#36796F"/>
</svg>
