<svg width="20" height="12" viewBox="0 0 20 12" fill="none" xmlns="http://www.w3.org/2000/svg">
<path d="M7.79038 11.5709C7.49454 11.5709 7.26444 11.5474 7.10008 11.5004L2.46522 10.7914C2.36661 10.7773 2.27269 10.7162 2.22104 10.6317C2.16469 10.5472 2.1459 10.4439 2.17408 10.3453L2.96769 7.32579C2.97238 7.30231 2.98177 7.27883 2.99586 7.25535C3.43258 6.38661 4.28254 5.8278 5.2499 5.77144L7.07191 3.94943C7.52271 3.49863 8.31632 3.49863 8.76713 3.94943C9.17098 4.35328 9.23202 4.98723 8.9174 5.46152L7.78568 7.01586C7.64011 7.21778 7.56028 7.45727 7.56028 7.70616C7.56028 8.35419 8.13318 8.87074 8.7953 8.77682L10.4154 8.65003H12.6037C12.7633 8.65003 12.9042 8.75804 12.9512 8.90831C12.9934 9.06327 12.9324 9.22763 12.7962 9.31216L9.9458 11.0825C9.50439 11.4676 8.36328 11.5709 7.80447 11.5709H7.79038ZM2.96769 10.1386L7.25035 10.7961C7.33018 10.8148 7.47106 10.8477 7.79038 10.8477C8.54173 10.8477 9.32125 10.6787 9.46212 10.5378C9.48091 10.519 9.50439 10.5002 9.52787 10.4861L11.3358 9.36381H10.4389L8.87044 9.48591C8.8047 9.4953 8.72017 9.49999 8.63564 9.49999C7.64481 9.49999 6.83711 8.6923 6.83711 7.70146C6.83711 7.29761 6.9639 6.91255 7.1987 6.58853L8.32102 5.04358C8.43842 4.86513 8.41494 4.61156 8.25058 4.4519C8.06744 4.27345 7.75281 4.27345 7.57437 4.4519L5.64905 6.37722C5.5833 6.44296 5.48939 6.48053 5.39547 6.48053C4.65821 6.48053 3.99139 6.88437 3.64859 7.5371L2.96299 10.1292L2.96769 10.1386Z" fill="#131F1E"/>
<path d="M0.361585 11.5281C0.164357 11.5281 0 11.3685 0 11.1666V6.12785C0 6.02923 0.0422632 5.93062 0.117398 5.86488C0.192532 5.79913 0.281754 5.76157 0.38976 5.77096C0.798304 5.80383 2.85981 5.99167 3.48906 6.58805C3.56889 6.66318 3.61115 6.77119 3.60176 6.87919C3.4374 8.74816 2.88798 10.481 2.8692 10.5561C2.84102 10.6406 2.78467 10.7157 2.70484 10.758C2.64849 10.7862 1.35242 11.5234 0.366281 11.5234L0.361585 11.5281ZM0.723169 6.527V10.7721C1.2632 10.6688 1.88775 10.3776 2.22116 10.2039C2.34795 9.78596 2.71893 8.44293 2.8645 7.02007C2.45596 6.79467 1.50269 6.61622 0.723169 6.527Z" fill="#131F1E"/>
<path d="M18.9528 7.9173H8.99752C8.8003 7.9173 8.63594 7.75764 8.63594 7.55571C8.63594 7.35379 8.7956 7.19413 8.99752 7.19413H18.596V0.718473H5.75735V3.95865C5.75735 4.15588 5.59769 4.32023 5.39576 4.32023C5.19854 4.32023 5.03418 4.16057 5.03418 3.95865V0.361585C5.03418 0.164357 5.19384 0 5.39576 0H18.9528C19.1501 0 19.3144 0.159661 19.3144 0.361585V7.55571C19.3144 7.75294 19.1548 7.9173 18.9528 7.9173Z" fill="#131F1E"/>
<path d="M12.9785 1.83594V5.93546H12.8423C12.6827 5.93546 12.5512 5.80398 12.5512 5.64432V1.83594H12.9785Z" fill="#131F1E"/>
<path d="M11.7814 2.32031H13.81V2.74764H11.4902V2.61146C11.4902 2.4518 11.6217 2.32031 11.7814 2.32031Z" fill="#131F1E"/>
<path d="M13.8147 5.07617H11.4668V5.5035H13.8147V5.07617Z" fill="#131F1E"/>
<path d="M11.4902 3.67383H13.4954C13.655 3.67383 13.7865 3.80531 13.7865 3.96497V4.10116H11.4902V3.67383Z" fill="#131F1E"/>
<path d="M11.918 2.32422V4.10397H11.4906V2.61536C11.4906 2.4557 11.6221 2.32422 11.7818 2.32422H11.918Z" fill="#131F1E"/>
<path d="M13.8145 3.98255V5.47115H13.3871V3.69141H13.5233C13.683 3.69141 13.8145 3.82289 13.8145 3.98255Z" fill="#131F1E"/>
</svg>
