<svg width="19" height="14" viewBox="0 0 19 14" fill="none" xmlns="http://www.w3.org/2000/svg">
<path d="M9.82487 8.30273L18.5928 8.30273V6.64362L9.82487 6.64362V8.30273Z" fill="#131F1E"/>
<path d="M8.92117 0C9.55884 0 10.8696 0.118086 11.3774 0.56091L14.6424 2.58609C14.8019 2.68056 14.8727 2.86949 14.8196 3.04662C14.7723 3.22375 14.607 3.34774 14.424 3.34774H11.9206L10.0666 3.20014C9.31085 3.08795 8.65548 3.68429 8.65548 4.42233C8.65548 4.70574 8.74404 4.98324 8.91527 5.21351L10.2142 6.99661C10.5744 7.53981 10.5035 8.26604 10.043 8.73248C9.52341 9.25206 8.62005 9.25206 8.10047 8.73248L6.01035 6.64235C4.90624 6.58331 3.92612 5.93974 3.43016 4.94191C3.41835 4.91829 3.40655 4.88877 3.40064 4.86515L2.49138 1.40523C2.46186 1.29304 2.47957 1.16905 2.54452 1.07458C2.60946 0.980116 2.70984 0.909264 2.82792 0.891551L8.12999 0.0826604C8.31893 0.0295216 8.58463 0 8.92708 0H8.92117ZM4.18591 4.61127C4.5756 5.36111 5.33725 5.82165 6.18748 5.82165C6.29966 5.82165 6.40003 5.86298 6.47679 5.93974L8.685 8.14795C8.89165 8.3546 9.25181 8.3546 9.45846 8.14795C9.6415 7.96492 9.67102 7.6697 9.53522 7.46895L8.24808 5.70356C7.97648 5.33159 7.83478 4.88877 7.83478 4.42823C7.83478 3.29461 8.75585 2.36763 9.89538 2.36763C9.98985 2.36763 10.0902 2.37353 10.167 2.38534L11.9619 2.52705H12.9892L10.9168 1.23991C10.8932 1.22219 10.8637 1.20448 10.8401 1.18086C10.6807 1.02145 9.7891 0.826604 8.92708 0.826604C8.56101 0.826604 8.40159 0.862029 8.31303 0.885647L3.40064 1.6414L4.18591 4.61127Z" fill="#131F1E"/>
<path d="M0.413302 0.0527344C1.54102 0.0527344 3.02891 0.897051 3.09386 0.932477C3.18242 0.985615 3.25327 1.06828 3.2828 1.16274C3.30641 1.24541 3.93817 3.23516 4.12711 5.37252C4.13892 5.49651 4.09169 5.6205 3.99722 5.70906C3.27689 6.39396 0.915168 6.60652 0.448728 6.64195C0.324737 6.65375 0.218459 6.61242 0.135799 6.53567C0.0472345 6.45891 0 6.34673 0 6.23455V0.460132C0 0.235768 0.183034 0.0527344 0.413302 0.0527344ZM0.826603 5.77992C1.71815 5.67954 2.81045 5.47289 3.2828 5.2131C3.11157 3.58351 2.68646 2.04839 2.54476 1.56424C2.16688 1.36349 1.44656 1.03285 0.826603 0.914764V5.77992Z" fill="#131F1E"/>
<path d="M18.5868 4.18555C18.8171 4.18555 19.0001 4.36858 19.0001 4.59885V12.8413C19.0001 13.0715 18.8171 13.2546 18.5868 13.2546H6.18186C5.95159 13.2546 5.76855 13.0715 5.76855 12.8413V8.04697C5.76855 7.8167 5.95159 7.63366 6.18186 7.63366C6.41212 7.63366 6.59516 7.8167 6.59516 8.04697V12.428H18.1794V5.01215H9.73625C9.50598 5.01215 9.32295 4.82912 9.32295 4.59885C9.32295 4.36858 9.50598 4.18555 9.73625 4.18555H18.5927H18.5868Z" fill="#131F1E"/>
</svg>
