<svg width="14" height="16" viewBox="0 0 14 16" fill="none" xmlns="http://www.w3.org/2000/svg">
<path fill-rule="evenodd" clip-rule="evenodd" d="M1.75 7.00004C1.75 4.13631 4.02323 2.08337 7 2.08337C9.97677 2.08337 12.25 4.13631 12.25 7.00004C12.25 9.37235 11.1989 11.1018 9.98437 12.2516C9.37427 12.8292 8.72809 13.2547 8.16692 13.5328C7.58095 13.8233 7.16261 13.9166 7 13.9166C6.83739 13.9166 6.41905 13.8233 5.83308 13.5328C5.27191 13.2547 4.62573 12.8292 4.01563 12.2516C2.80107 11.1018 1.75 9.37235 1.75 7.00004ZM7 0.583374C3.31011 0.583374 0.25 3.1971 0.25 7.00004C0.25 9.86228 1.53227 11.9661 2.98437 13.3409C3.7076 14.0256 4.47809 14.5353 5.16692 14.8768C5.83095 15.2059 6.49594 15.4166 7 15.4166C7.50406 15.4166 8.16905 15.2059 8.83308 14.8768C9.52191 14.5353 10.2924 14.0256 11.0156 13.3409C12.4677 11.9661 13.75 9.86228 13.75 7.00004C13.75 3.1971 10.6899 0.583374 7 0.583374ZM5.75 7.33337C5.75 6.64302 6.30964 6.08337 7 6.08337C7.69036 6.08337 8.25 6.64302 8.25 7.33337C8.25 8.02373 7.69036 8.58337 7 8.58337C6.30964 8.58337 5.75 8.02373 5.75 7.33337ZM7 4.58337C5.48122 4.58337 4.25 5.81459 4.25 7.33337C4.25 8.85216 5.48122 10.0834 7 10.0834C8.51878 10.0834 9.75 8.85216 9.75 7.33337C9.75 5.81459 8.51878 4.58337 7 4.58337Z" fill="#A1A5A5"/>
</svg>
