<svg width="24" height="24" viewBox="0 0 24 24" fill="none" xmlns="http://www.w3.org/2000/svg">
<g clip-path="url(#clip0_2559_10032)">
<path d="M0 3C0 1.34315 0.895431 0 2 0H22C23.1046 0 24 1.34315 24 3V21C24 22.6569 23.1046 24 22 24H2C0.89543 24 0 22.6569 0 21V3Z" fill="white"/>
<path d="M14.5044 7.26371L9.33984 7.28146L9.49634 16.7364L14.6609 16.7186L14.5044 7.26371Z" fill="#FF5F00"/>
<path d="M9.6798 12.028C9.64784 10.1049 10.5093 8.39623 11.8586 7.28788C10.8401 6.48865 9.56328 6.00805 8.17913 6.01279C4.90002 6.02403 2.29181 8.72539 2.34711 12.0531C2.40241 15.3808 5.1001 18.064 8.37922 18.0528C9.76336 18.048 11.0241 17.5588 12.0159 16.7526C10.6302 15.6704 9.71176 13.951 9.6798 12.028Z" fill="#EB001B"/>
<path d="M21.6531 11.947C21.7084 15.2747 19.1002 17.976 15.8211 17.9873C14.4369 17.992 13.1601 17.5114 12.1416 16.7122C13.5074 15.6038 14.3524 13.8951 14.3204 11.9721C14.2885 10.049 13.3703 8.3464 11.9843 7.24742C12.9761 6.44131 14.2369 5.95202 15.621 5.94728C18.9001 5.93605 21.5981 8.63596 21.6531 11.947Z" fill="#F79E1B"/>
</g>
<defs>
<clipPath id="clip0_2559_10032">
<rect width="24" height="24" fill="white"/>
</clipPath>
</defs>
</svg>
