<svg width="18" height="8" viewBox="0 0 18 8" fill="none" xmlns="http://www.w3.org/2000/svg">
<path fill-rule="evenodd" clip-rule="evenodd" d="M0.666626 0.333374C0.942768 0.333374 1.16663 0.557232 1.16663 0.833374V5.93353C1.63344 5.32696 2.26376 4.5708 3.02141 3.81315C4.70766 2.1269 7.12359 0.333374 9.83329 0.333374C13.3723 0.333374 15.3934 2.1195 16.5073 3.90171C17.0588 4.7842 17.3877 5.66269 17.5789 6.31837C17.6748 6.64709 17.7368 6.92223 17.7751 7.11721C17.7943 7.21477 17.8075 7.29246 17.8162 7.34698C17.8205 7.37425 17.8236 7.39574 17.8258 7.41104L17.8283 7.42932L17.829 7.43489L17.8293 7.43676L17.8294 7.43747C17.8294 7.43776 17.8294 7.43802 17.3509 7.49784L17.8294 7.43802C17.8637 7.71203 17.6693 7.96193 17.3953 7.99618C17.1215 8.0304 16.8718 7.83637 16.8372 7.56271L16.8372 7.56263L16.8372 7.56246C16.8372 7.56233 16.8372 7.56219 16.8372 7.56206L16.837 7.5611L16.8356 7.55079C16.8342 7.54087 16.8319 7.52492 16.8285 7.50336C16.8216 7.46023 16.8105 7.39469 16.7938 7.30996C16.7605 7.14035 16.7053 6.89466 16.6189 6.59837C16.4456 6.00405 16.1494 5.21588 15.6593 4.43171C14.6898 2.88059 12.9609 1.33337 9.83329 1.33337C7.54299 1.33337 5.37559 2.87318 3.72851 4.52026C2.91628 5.33249 2.25462 6.14661 1.79579 6.75837C1.73227 6.84308 1.67269 6.92381 1.61721 7.00004H7.14811C7.42425 7.00004 7.64811 7.2239 7.64811 7.50004C7.64811 7.77618 7.42425 8.00004 7.14811 8.00004H0.666626C0.390484 8.00004 0.166626 7.77618 0.166626 7.50004V0.833374C0.166626 0.557232 0.390484 0.333374 0.666626 0.333374Z" fill="#131F1E"/>
</svg>
