<svg width="20" height="22" viewBox="0 0 20 22" fill="none" xmlns="http://www.w3.org/2000/svg">
<path fill-rule="evenodd" clip-rule="evenodd" d="M10.0007 0.520508C6.24894 0.520508 3.01869 3.16868 2.2829 6.84763L1.06305 12.9469C0.669337 14.9154 1.7143 16.894 3.53962 17.7053C4.20094 17.9992 4.87964 18.2456 5.57009 18.4443L5.6672 18.6628C6.42834 20.3754 8.12665 21.4791 10.0007 21.4791C11.8748 21.4791 13.5732 20.3754 14.3343 18.6628L14.4314 18.4443C15.1219 18.2456 15.8006 17.9992 16.4619 17.7053C18.2872 16.894 19.3322 14.9154 18.9384 12.9469L17.7186 6.84763C16.9828 3.16868 13.7526 0.520508 10.0007 0.520508ZM13.7806 17.0686C13.7274 17.0767 13.6752 17.0904 13.6251 17.1096C11.2548 17.72 8.74672 17.72 6.37637 17.1096C6.32627 17.0904 6.27413 17.0767 6.22087 17.0686C5.51493 16.8783 4.8218 16.6337 4.14883 16.3346C2.95564 15.8043 2.27982 14.5116 2.53392 13.2411L3.75377 7.14181C4.34933 4.16399 6.96396 2.02051 10.0007 2.02051C13.0375 2.02051 15.6522 4.16399 16.2477 7.1418L17.4676 13.2411C17.7217 14.5116 17.0459 15.8043 15.8527 16.3346C15.1797 16.6337 14.4866 16.8783 13.7806 17.0686ZM7.57022 18.8829C9.17955 19.1289 10.8219 19.1289 12.4313 18.8829C11.8258 19.5684 10.946 19.9791 10.0007 19.9791C9.0555 19.9791 8.17566 19.5684 7.57022 18.8829Z" fill="#131F1E"/>
</svg>