<svg width="24" height="24" viewBox="0 0 24 24" fill="none" xmlns="http://www.w3.org/2000/svg">
<path d="M6 10C6 6.68629 8.68629 4 12 4C15.3137 4 18 6.68629 18 10V17H6V10Z" stroke="#E7E9E9" stroke-width="2"/>
<mask id="path-2-inside-1_958_109430" fill="white">
<path d="M14 19C14 20.1046 13.1046 21 12 21C10.8954 21 10 20.1046 10 19L14 19Z"/>
</mask>
<path d="M10 19L10 17L8 17L8 19L10 19ZM14 19L16 19L16 17L14 17L14 19ZM10 21L14 21L14 17L10 17L10 21ZM12 19L12 19L8 19C8 21.2091 9.79086 23 12 23L12 19ZM12 23C14.2091 23 16 21.2091 16 19L12 19L12 19L12 23Z" fill="#E7E9E9" mask="url(#path-2-inside-1_958_109430)"/>
</svg>
