<svg width="7" height="12" viewBox="0 0 7 12" fill="none" xmlns="http://www.w3.org/2000/svg">
<path fill-rule="evenodd" clip-rule="evenodd" d="M0.803654 0.46967C1.09655 0.176777 1.57142 0.176777 1.86431 0.46967L4.60157 3.20693L4.6231 3.22845C5.00081 3.60615 5.31607 3.9214 5.55258 4.2C5.79925 4.49056 6.00399 4.79021 6.12096 5.1502C6.30042 5.70252 6.30042 6.29748 6.12096 6.8498C6.00399 7.20979 5.79925 7.50944 5.55258 7.8C5.31608 8.0786 5.00081 8.39385 4.62311 8.77154L4.60157 8.79307L1.86431 11.5303C1.57142 11.8232 1.09655 11.8232 0.803654 11.5303C0.510761 11.2374 0.510761 10.7626 0.803654 10.4697L3.54091 7.73241C3.94568 7.32764 4.21695 7.05555 4.40907 6.82924C4.59551 6.60962 4.66297 6.48294 4.69438 6.38627C4.77595 6.13522 4.77595 5.86478 4.69438 5.61373C4.66297 5.51706 4.59551 5.39038 4.40907 5.17076C4.21695 4.94445 3.94568 4.67236 3.54092 4.26759L0.803654 1.53033C0.510761 1.23744 0.510761 0.762563 0.803654 0.46967Z" fill="#A1A5A5"/>
</svg>
