<svg width="40" height="40" viewBox="0 0 40 40" fill="none" xmlns="http://www.w3.org/2000/svg">
<circle cx="20" cy="20" r="20" fill="#FFF1F1"/>
<path fill-rule="evenodd" clip-rule="evenodd" d="M15.7434 10.1943L15.7113 10.1943L15.7112 10.1943C14.8984 10.1943 14.2428 10.1943 13.7119 10.2377C13.1653 10.2824 12.6851 10.3767 12.2409 10.6031C11.5353 10.9626 10.9616 11.5363 10.6021 12.2419C10.3757 12.6861 10.2814 13.1662 10.2367 13.7129C10.1933 14.2438 10.1934 14.8994 10.1934 15.7122L10.1934 15.7122L10.1934 15.7443L10.1934 24.2574L10.1934 24.2895L10.1934 24.2895C10.1934 25.1023 10.1933 25.7579 10.2367 26.2888C10.2814 26.8355 10.3757 27.3156 10.6021 27.7598C10.9616 28.4654 11.5353 29.0391 12.2409 29.3986C12.6851 29.625 13.1653 29.7193 13.7119 29.764C14.2428 29.8074 14.8984 29.8074 15.7112 29.8074L15.7434 29.8074L20.6338 29.8074L20.6659 29.8074C21.4787 29.8074 22.1343 29.8074 22.6652 29.764C23.2119 29.7193 23.692 29.625 24.1362 29.3986C24.8418 29.0391 25.4155 28.4654 25.775 27.7598C26.0014 27.3156 26.0957 26.8355 26.1404 26.2888C26.1646 25.9928 26.1753 25.6581 26.18 25.279C26.5863 25.2781 26.9353 25.2736 27.2306 25.2494C27.6105 25.2184 27.9672 25.1513 28.3044 24.9794C28.8219 24.7158 29.2426 24.2951 29.5062 23.7776C29.6781 23.4404 29.7452 23.0837 29.7762 22.7038C29.806 22.3396 29.806 21.8937 29.806 21.3596L29.806 21.3292L29.806 18.6727L29.806 18.6422C29.806 18.4948 29.806 18.3542 29.8053 18.2201C29.8057 18.2099 29.806 18.1997 29.806 18.1895C29.806 18.1763 29.8056 18.1633 29.805 18.1503C29.8028 17.8276 29.7963 17.5441 29.7762 17.298C29.7452 16.9181 29.6781 16.5614 29.5062 16.2242C29.2426 15.7067 28.8219 15.286 28.3044 15.0224C27.9672 14.8505 27.6105 14.7834 27.2306 14.7524C26.9353 14.7283 26.5863 14.7237 26.18 14.7229C26.1753 14.3437 26.1646 14.0089 26.1404 13.7129C26.0958 13.1662 26.0014 12.6861 25.775 12.2419C25.4155 11.5363 24.8418 10.9626 24.1362 10.6031C23.692 10.3767 23.2119 10.2824 22.6652 10.2377C22.1343 10.1943 21.4787 10.1943 20.6659 10.1943L20.6659 10.1943L20.6338 10.1943L15.7434 10.1943ZM28.2812 17.4201L28.2827 17.4395L26.1838 17.4395L26.1838 16.2229C26.5815 16.2239 26.873 16.2282 27.1085 16.2474C27.3956 16.2709 27.5329 16.3128 27.6234 16.3589C27.8586 16.4787 28.0499 16.67 28.1697 16.9052C28.2159 16.9957 28.2577 17.133 28.2812 17.4201ZM28.306 18.9395L26.1838 18.9395L26.1838 23.7789C26.5815 23.7779 26.873 23.7736 27.1085 23.7544C27.3956 23.7309 27.5329 23.6891 27.6234 23.6429C27.8586 23.5231 28.0499 23.3319 28.1697 23.0967C28.2159 23.0061 28.2577 22.8688 28.2812 22.5817C28.3054 22.2858 28.306 21.9016 28.306 21.3292L28.306 18.9395ZM24.6833 18.1895C24.6833 18.1809 24.6835 18.1724 24.6838 18.1639L24.6838 15.7443L24.6837 15.4965C24.6835 15.4886 24.6833 15.4806 24.6833 15.4727C24.6833 15.465 24.6835 15.4575 24.6837 15.4499C24.6831 14.7519 24.6787 14.2424 24.6454 13.835C24.6083 13.3811 24.5392 13.1204 24.4385 12.9229C24.2228 12.4995 23.8786 12.1553 23.4553 11.9396C23.2577 11.8389 22.997 11.7698 22.5431 11.7327C22.0805 11.6949 21.4862 11.6943 20.6338 11.6943L15.7434 11.6943C14.8909 11.6943 14.2967 11.6949 13.834 11.7327C13.3802 11.7698 13.1194 11.8389 12.9219 11.9396C12.4985 12.1553 12.1543 12.4995 11.9386 12.9229C11.838 13.1204 11.7688 13.3811 11.7317 13.835C11.6939 14.2976 11.6934 14.8919 11.6934 15.7443L11.6934 24.2574C11.6934 25.1098 11.6939 25.704 11.7317 26.1667C11.7688 26.6206 11.838 26.8813 11.9386 27.0788C12.1543 27.5022 12.4985 27.8464 12.9219 28.0621C13.1194 28.1628 13.3802 28.2319 13.834 28.269C14.2967 28.3068 14.8909 28.3074 15.7434 28.3074L20.6338 28.3074C21.4862 28.3074 22.0805 28.3068 22.5431 28.269C22.997 28.2319 23.2577 28.1628 23.4553 28.0621C23.8786 27.8464 24.2228 27.5022 24.4385 27.0788C24.5392 26.8813 24.6083 26.6206 24.6454 26.1667C24.6787 25.7593 24.6831 25.2498 24.6837 24.5519L24.6835 24.5416L24.6833 24.5292C24.6833 24.5212 24.6835 24.5133 24.6837 24.5053L24.6838 24.2574L24.6838 18.215C24.6835 18.2065 24.6833 18.198 24.6833 18.1895ZM14.4602 12.9112L14.44 12.9112L14.44 12.9112C14.3178 12.9112 14.1854 12.9111 14.0708 12.9205C13.941 12.9311 13.7696 12.9574 13.5927 13.0475C13.3575 13.1673 13.1663 13.3585 13.0465 13.5937C12.9564 13.7705 12.9301 13.942 12.9195 14.0717C12.9102 14.1864 12.9102 14.3188 12.9102 14.441L12.9102 14.441L12.9102 14.4612L12.9102 17.3895L12.9102 17.4097L12.9102 17.4097C12.9102 17.5318 12.9102 17.6643 12.9195 17.7789C12.9301 17.9087 12.9564 18.0801 13.0465 18.257C13.1663 18.4922 13.3575 18.6834 13.5927 18.8032C13.7696 18.8933 13.941 18.9196 14.0708 18.9302C14.1854 18.9395 14.3179 18.9395 14.44 18.9395L14.4602 18.9395L21.9167 18.9395L21.937 18.9395C22.0591 18.9395 22.1916 18.9395 22.3062 18.9302C22.436 18.9196 22.6074 18.8933 22.7842 18.8032C23.0194 18.6834 23.2107 18.4922 23.3305 18.257C23.4206 18.0801 23.4468 17.9087 23.4574 17.7789C23.4668 17.6643 23.4668 17.5319 23.4667 17.4098L23.4667 17.4098L23.4667 17.4098L23.4667 17.4098L23.4667 17.4097L23.4667 17.4097L23.4667 17.4097L23.4667 17.4097L23.4667 17.3895L23.4667 14.4612L23.4667 14.441L23.4667 14.441L23.4667 14.4409L23.4667 14.4409L23.4667 14.4409L23.4667 14.4409L23.4667 14.4409L23.4667 14.4409C23.4668 14.3187 23.4668 14.1863 23.4574 14.0717C23.4468 13.942 23.4206 13.7705 23.3305 13.5937C23.2107 13.3585 23.0194 13.1673 22.7842 13.0475C22.6074 12.9574 22.436 12.9311 22.3062 12.9205C22.1916 12.9111 22.0591 12.9112 21.937 12.9112L21.9167 12.9112L14.4602 12.9112ZM14.4102 14.4612L14.4102 14.4112L14.4602 14.4112L21.9167 14.4112L21.9667 14.4112L21.9667 14.4612L21.9667 17.3895L21.9667 17.4394L21.9167 17.4395L14.4602 17.4395L14.4102 17.4394L14.4102 17.3895L14.4102 14.4612ZM15.4715 21.8119C15.4715 22.3121 15.066 22.7176 14.5658 22.7176C14.0656 22.7176 13.6602 22.3121 13.6602 21.8119C13.6602 21.3117 14.0656 20.9062 14.5658 20.9062C15.066 20.9062 15.4715 21.3117 15.4715 21.8119ZM14.5658 26.3396C15.066 26.3396 15.4715 25.9341 15.4715 25.434C15.4715 24.9338 15.066 24.5283 14.5658 24.5283C14.0656 24.5283 13.6602 24.9338 13.6602 25.434C13.6602 25.9341 14.0656 26.3396 14.5658 26.3396ZM19.094 21.8119C19.094 22.3121 18.6885 22.7176 18.1884 22.7176C17.6882 22.7176 17.2827 22.3121 17.2827 21.8119C17.2827 21.3117 17.6882 20.9063 18.1884 20.9063C18.6885 20.9063 19.094 21.3117 19.094 21.8119ZM18.1884 26.3396C18.6885 26.3396 19.094 25.9341 19.094 25.434C19.094 24.9338 18.6885 24.5283 18.1884 24.5283C17.6882 24.5283 17.2827 24.9338 17.2827 25.434C17.2827 25.9341 17.6882 26.3396 18.1884 26.3396ZM22.7166 21.8119C22.7166 22.3121 22.3111 22.7176 21.8109 22.7176C21.3107 22.7176 20.9053 22.3121 20.9053 21.8119C20.9053 21.3117 21.3107 20.9063 21.8109 20.9063C22.3111 20.9063 22.7166 21.3117 22.7166 21.8119ZM21.8109 26.3396C22.3111 26.3396 22.7166 25.9341 22.7166 25.434C22.7166 24.9338 22.3111 24.5283 21.8109 24.5283C21.3107 24.5283 20.9053 24.9338 20.9053 25.434C20.9053 25.9341 21.3107 26.3396 21.8109 26.3396Z" fill="#E53943"/>
</svg>
