<svg width="23" height="22" viewBox="0 0 23 22" fill="none" xmlns="http://www.w3.org/2000/svg">
<path fill-rule="evenodd" clip-rule="evenodd" d="M7.867 0.25H7.9H15.1H15.133C16.2251 0.249995 17.0906 0.24999 17.7883 0.306988C18.5017 0.365274 19.1053 0.486882 19.6565 0.767719C20.5502 1.22312 21.2769 1.94978 21.7323 2.84355C22.0131 3.39472 22.1347 3.99834 22.193 4.71173C22.25 5.40935 22.25 6.27485 22.25 7.36698V7.4V14.6V14.633C22.25 15.7252 22.25 16.5906 22.193 17.2883C22.1347 18.0017 22.0131 18.6053 21.7323 19.1565C21.2769 20.0502 20.5502 20.7769 19.6565 21.2323C19.1053 21.5131 18.5017 21.6347 17.7883 21.693C17.0906 21.75 16.2252 21.75 15.133 21.75H15.1H7.9H7.86698C6.77485 21.75 5.90935 21.75 5.21173 21.693C4.49834 21.6347 3.89472 21.5131 3.34355 21.2323C2.44978 20.7769 1.72312 20.0502 1.26772 19.1565C0.986882 18.6053 0.865274 18.0017 0.806988 17.2883C0.74999 16.5906 0.749995 15.7251 0.75 14.633V14.6V7.4V7.367V7.36699C0.749995 6.27485 0.74999 5.40936 0.806988 4.71173C0.865274 3.99834 0.986882 3.39472 1.26772 2.84355C1.72312 1.94978 2.44978 1.22312 3.34355 0.767719C3.89472 0.486882 4.49834 0.365274 5.21173 0.306988C5.90936 0.24999 6.77485 0.249995 7.86699 0.25H7.867ZM5.33388 1.80201C4.71325 1.85271 4.329 1.94909 4.02453 2.10423C3.413 2.41582 2.91582 2.913 2.60423 3.52453C2.44909 3.829 2.35271 4.21325 2.30201 4.83388C2.25058 5.46327 2.25 6.26752 2.25 7.4V14.6C2.25 15.7325 2.25058 16.5367 2.30201 17.1661C2.35271 17.7867 2.44909 18.171 2.60423 18.4755C2.91582 19.087 3.413 19.5842 4.02453 19.8958C4.329 20.0509 4.71325 20.1473 5.33388 20.198C5.96327 20.2494 6.76752 20.25 7.9 20.25H15.1C16.2325 20.25 17.0367 20.2494 17.6661 20.198C18.2867 20.1473 18.671 20.0509 18.9755 19.8958C19.587 19.5842 20.0842 19.087 20.3958 18.4755C20.5509 18.171 20.6473 17.7867 20.698 17.1661C20.7494 16.5367 20.75 15.7325 20.75 14.6V7.4C20.75 6.26752 20.7494 5.46327 20.698 4.83388C20.6473 4.21325 20.5509 3.829 20.3958 3.52453C20.0842 2.913 19.587 2.41582 18.9755 2.10423C18.671 1.94909 18.2867 1.85271 17.6661 1.80201C17.0367 1.75058 16.2325 1.75 15.1 1.75H7.9C6.76752 1.75 5.96327 1.75058 5.33388 1.80201ZM11 8.25C11.4142 8.25 11.75 8.58578 11.75 9V11.0365L13.3354 11.8292C13.7059 12.0144 13.8561 12.4649 13.6708 12.8354C13.4856 13.2059 13.0351 13.3561 12.6646 13.1708L10.6646 12.1708C10.4105 12.0438 10.25 11.7841 10.25 11.5V9C10.25 8.58578 10.5858 8.25 11 8.25ZM7.72114 4.20604C7.83494 3.80776 7.60432 3.39265 7.20604 3.27886C6.80776 3.16506 6.39265 3.39568 6.27886 3.79396L5.27886 7.29396C5.18497 7.62257 5.3251 7.97309 5.61965 8.1464C5.9142 8.31972 6.28867 8.27199 6.53033 8.03033C7.93497 6.62569 9.53407 5.75 11.5 5.75C14.3995 5.75 16.75 8.1005 16.75 11C16.75 13.8995 14.3995 16.25 11.5 16.25C8.6005 16.25 6.25 13.8995 6.25 11C6.25 10.5858 5.91421 10.25 5.5 10.25C5.08579 10.25 4.75 10.5858 4.75 11C4.75 14.7279 7.77208 17.75 11.5 17.75C15.2279 17.75 18.25 14.7279 18.25 11C18.25 7.27208 15.2279 4.25 11.5 4.25C9.92701 4.25 8.56254 4.70386 7.36743 5.44402L7.72114 4.20604Z" fill="white"/>
</svg>
