<svg width="24" height="24" viewBox="0 0 24 24" fill="none" xmlns="http://www.w3.org/2000/svg">
<g clip-path="url(#clip0_2559_10047)">
<path d="M9.32915 20.9515L9.65404 18.8879L8.93034 18.8711H5.47461L7.87617 3.64366C7.88332 3.59713 7.90695 3.55472 7.94275 3.52416C7.97856 3.4936 8.02415 3.47693 8.07122 3.47718H13.8981C15.8325 3.47718 17.1674 3.87971 17.8644 4.67423C18.1912 5.04695 18.3993 5.43644 18.4999 5.86507C18.6055 6.31481 18.6074 6.85215 18.5043 7.50752L18.4968 7.55535V7.97528L18.8236 8.1604C19.073 8.28677 19.2972 8.45773 19.4851 8.66481C19.7647 8.98349 19.9454 9.38851 20.0219 9.86869C20.1007 10.3625 20.0747 10.9502 19.9454 11.6155C19.7964 12.3808 19.5553 13.0474 19.2298 13.5928C18.9426 14.0814 18.5565 14.5046 18.0961 14.8352C17.6638 15.1421 17.15 15.375 16.5692 15.5241C16.0064 15.6707 15.3647 15.7446 14.6609 15.7446H14.2074C13.8832 15.7446 13.5682 15.8614 13.321 16.0707C13.0741 16.2823 12.9103 16.5747 12.8588 16.8957L12.8246 17.0814L12.2506 20.7186L12.2246 20.8521C12.2177 20.8944 12.2059 20.9155 12.1885 20.9298C12.1717 20.9435 12.1507 20.9512 12.1289 20.9515H9.32915Z" fill="#253B80"/>
<path d="M19.1353 7.60364C19.1179 7.71483 19.098 7.82851 19.0757 7.9453C18.3073 11.8905 15.6783 13.2534 12.3208 13.2534H10.6112C10.2006 13.2534 9.85459 13.5516 9.79061 13.9566L8.91534 19.5077L8.66748 21.0812C8.65761 21.1436 8.66138 21.2074 8.67853 21.2682C8.69568 21.329 8.72581 21.3854 8.76685 21.4335C8.80788 21.4815 8.85884 21.5201 8.91621 21.5466C8.97359 21.5731 9.03602 21.5868 9.09921 21.5868H12.1313C12.4903 21.5868 12.7953 21.3259 12.8519 20.9718L12.8817 20.8178L13.4526 17.195L13.4892 16.9962C13.5451 16.6408 13.8508 16.3799 14.2098 16.3799H14.6633C17.6009 16.3799 19.9006 15.1872 20.5728 11.7359C20.8535 10.2941 20.7082 9.09017 19.9652 8.24347C19.7298 7.98155 19.4485 7.76473 19.1353 7.60364Z" fill="#179BD7"/>
<path d="M18.328 7.28318C18.0826 7.2122 17.833 7.1568 17.5807 7.11731C17.0821 7.04068 16.5781 7.00392 16.0736 7.00736H11.5066C11.3328 7.00723 11.1647 7.06928 11.0326 7.1823C10.9006 7.29532 10.8133 7.45185 10.7866 7.62359L9.81506 13.7772L9.78711 13.9567C9.81738 13.7608 9.91676 13.5822 10.0673 13.4533C10.2178 13.3243 10.4095 13.2534 10.6077 13.2535H12.3173C15.6748 13.2535 18.3038 11.89 19.0722 7.94537C19.0952 7.82859 19.1144 7.71491 19.1318 7.60371C18.929 7.49738 18.7177 7.40824 18.5 7.33722C18.443 7.31829 18.3856 7.30027 18.328 7.28318Z" fill="#222D65"/>
<path d="M10.7905 7.62374C10.817 7.45194 10.9042 7.29534 11.0363 7.18238C11.1684 7.06942 11.3367 7.00759 11.5105 7.00813H16.0775C16.6186 7.00813 17.1236 7.04354 17.5846 7.11808C17.8965 7.1671 18.2041 7.24042 18.5046 7.33737C18.7313 7.41253 18.9419 7.50136 19.1363 7.60386C19.3649 6.14591 19.1345 5.15323 18.3462 4.25435C17.4771 3.26478 15.9086 2.84113 13.9015 2.84113H8.07463C7.66464 2.84113 7.3149 3.1393 7.25154 3.54494L4.82452 18.9289C4.81321 19.0004 4.81751 19.0734 4.83712 19.143C4.85673 19.2126 4.89119 19.2771 4.93812 19.3321C4.98505 19.3872 5.04334 19.4314 5.10898 19.4617C5.17462 19.492 5.24606 19.5078 5.31837 19.5079H8.91573L9.81896 13.7773L10.7905 7.62374Z" fill="#253B80"/>
</g>
<defs>
<clipPath id="clip0_2559_10047">
<rect width="24" height="19.2" fill="white" transform="translate(0 2)"/>
</clipPath>
</defs>
</svg>
