<svg width="23" height="26" viewBox="0 0 23 26" fill="none" xmlns="http://www.w3.org/2000/svg">
<path d="M22.7496 0H12.1523V2.16086C12.2537 2.16086 12.3509 2.17353 12.4523 2.17775C14.6378 2.25298 16.7134 3.15483 18.2597 4.70115C19.806 6.24748 20.7079 8.32302 20.7831 10.5086C20.7831 10.6078 20.7979 10.7071 20.7979 10.8085H22.9608V0H22.7496Z" fill="#FF8D40"/>
<path d="M10.8339 0H2.17775H0.209115H0V19.8258H0.0211227V19.8617L10.969 26V23.2815L2.17775 18.4064V2.17775H10.8339H10.931V0H10.8339Z" fill="#36796F"/>
<path d="M20.7835 11.8667V18.4063L11.9922 23.2814V25.9999L22.9401 19.8617V19.8257H22.9612V11.8667H21.2946H20.7835Z" fill="#36796F"/>
<rect x="5.75" y="7.75" width="11.5" height="7.5" stroke="#36796F" stroke-width="1.5"/>
<line x1="6" y1="10.25" x2="17" y2="10.25" stroke="#36796F" stroke-width="1.5"/>
</svg>
