<svg width="39" height="33" viewBox="0 0 39 33" fill="none" xmlns="http://www.w3.org/2000/svg">
<g clip-path="url(#clip0_1475_79630)">
<path d="M17.7658 24.0282V32.5558H0V29.3257C0 25.7564 5.05517 22.8654 11.3055 22.8654C13.7281 22.8654 15.9407 23.3014 17.7658 24.0282ZM38.7617 32.5558H20.9959V5.09961H38.7617V32.5558ZM25.8411 18.8277C25.8411 17.7568 26.2665 16.7298 27.0237 15.9726C27.7809 15.2154 28.8079 14.79 29.8788 14.79C30.9496 14.79 31.9766 15.2154 32.7339 15.9726C33.4911 16.7298 33.9165 17.7568 33.9165 18.8277C33.9165 19.8986 33.4911 20.9256 32.7339 21.6828C31.9766 22.44 30.9496 22.8654 29.8788 22.8654C28.8079 22.8654 27.7809 22.44 27.0237 21.6828C26.2665 20.9256 25.8411 19.8986 25.8411 18.8277ZM35.5315 11.5599C34.6749 11.5599 33.8533 11.2196 33.2475 10.6138C32.6417 10.008 32.3014 9.18644 32.3014 8.32975H27.4562C27.4562 10.1225 26.0188 11.5599 24.226 11.5599V26.0955C25.0827 26.0955 25.9043 26.4358 26.5101 27.0416C27.1159 27.6474 27.4562 28.469 27.4562 29.3257H32.3014C32.3014 27.5491 33.755 26.0955 35.5315 26.0955V11.5599Z" fill="#36796F"/>
<path d="M11.305 19.6354C14.8743 19.6354 17.7653 16.7444 17.7653 13.1751C17.7653 9.60582 14.8743 6.71484 11.305 6.71484C7.7357 6.71484 4.84473 9.60582 4.84473 13.1751C4.84473 16.7444 7.7357 19.6354 11.305 19.6354Z" fill="#FF8D40"/>
</g>
<defs>
<clipPath id="clip0_1475_79630">
<rect width="38.7617" height="38.7617" fill="white" transform="translate(0 0.253906)"/>
</clipPath>
</defs>
</svg>
