<svg width="24" height="27" viewBox="0 0 24 27" fill="none" xmlns="http://www.w3.org/2000/svg">
<path d="M19.456 11.3461L12.6733 7.97754C11.8365 7.55436 12.0992 7.55436 11.2602 7.97754L4.44656 11.344C4.37145 11.373 4.30723 11.423 4.26231 11.4876C4.2174 11.5521 4.19389 11.6282 4.19485 11.7058H19.8004C19.8004 11.5725 19.6503 11.4434 19.456 11.3461Z" fill="#36796F"/>
<path d="M0.220792 26.044H11.2979V23.8773C11.1919 23.8773 11.0771 23.8773 10.9844 23.8625C8.6999 23.7871 6.53037 22.8837 4.91402 21.3347C3.29768 19.7857 2.35499 17.7066 2.27636 15.5173C2.27636 15.4157 2.2587 15.3184 2.2587 15.2168H0V26.044H0.220792Z" fill="#FF8D40"/>
<path d="M12.6755 26.0449H21.7235H23.7791H23.9999V6.18484H23.9778V6.14887L12.5342 0V2.72319L21.7235 7.60674V23.8634H12.6755H12.5739V26.0449H12.6755Z" fill="#36796F"/>
<path d="M2.27637 14.1555V7.60674L11.4657 2.72319V0L0.0220792 6.14887V6.18484H0V14.1555H1.74205H2.27637Z" fill="#36796F"/>
<path d="M6.55078 12.9072V12.9855C6.55019 14.4122 7.00453 15.805 7.85294 16.9773C8.70135 18.1496 9.9033 19.0455 11.2978 19.5449V15.768H12.585V19.8728C13.0071 19.9443 13.4348 19.9804 13.8634 19.9808H17.5661V12.9072H6.55078Z" fill="#36796F"/>
</svg>
