<svg width="18" height="18" viewBox="0 0 18 18" fill="none" xmlns="http://www.w3.org/2000/svg">
<path fill-rule="evenodd" clip-rule="evenodd" d="M8.2299 0.16708L8.14086 0.167035C7.60631 0.166627 7.20399 0.16632 6.84921 0.305856C6.53762 0.428402 6.26178 0.627215 6.04699 0.884062C5.80242 1.17652 5.67549 1.55829 5.50684 2.06554L5.47872 2.15002L5.30637 2.66708H2.33341H0.666748C0.390606 2.66708 0.166748 2.89094 0.166748 3.16708C0.166748 3.44322 0.390606 3.66708 0.666748 3.66708H1.86196L2.32507 11.5398L2.32624 11.5597C2.38201 12.508 2.42547 13.2468 2.50389 13.8407C2.58356 14.444 2.70334 14.935 2.93045 15.3799C3.40262 16.3047 4.18013 17.0379 5.13114 17.4549C5.58857 17.6555 6.08571 17.7462 6.69269 17.7903C7.29019 17.8338 8.03025 17.8337 8.98011 17.8337H8.98014H9.00008H9.02002H9.02005C9.96992 17.8337 10.71 17.8338 11.3075 17.7903C11.9145 17.7462 12.4116 17.6555 12.869 17.4549C13.82 17.0379 14.5975 16.3047 15.0697 15.3799C15.2968 14.935 15.4166 14.444 15.4963 13.8407C15.5747 13.2468 15.6181 12.508 15.6739 11.5598L15.6739 11.5597L15.6751 11.5398L16.1382 3.66708H17.3334C17.6096 3.66708 17.8334 3.44322 17.8334 3.16708C17.8334 2.89094 17.6096 2.66708 17.3334 2.66708H15.6667H12.6938L12.5214 2.15002L12.4933 2.06554C12.3247 1.55829 12.1977 1.17652 11.9532 0.884062C11.7384 0.627215 11.4625 0.428402 11.151 0.305856C10.7962 0.16632 10.3938 0.166627 9.8593 0.167035L9.77026 0.16708H8.2299ZM12.3218 3.66708C12.3295 3.66726 12.3372 3.66726 12.3449 3.66708H15.1365L14.6768 11.4811C14.6196 12.4534 14.578 13.1561 14.5049 13.7098C14.4325 14.2582 14.3332 14.6232 14.1791 14.9252C13.8118 15.6445 13.2071 16.2147 12.4674 16.5391C12.1569 16.6752 11.7867 16.7529 11.235 16.793C10.678 16.8334 9.97409 16.8337 9.00008 16.8337C8.02607 16.8337 7.32221 16.8334 6.76516 16.793C6.21343 16.7529 5.84323 16.6752 5.53275 16.5391C4.79307 16.2147 4.18834 15.6445 3.8211 14.9252C3.66694 14.6232 3.5677 14.2582 3.49529 13.7098C3.42217 13.1561 3.38054 12.4534 3.32334 11.4811L2.86369 3.66708H5.65525C5.66298 3.66726 5.6707 3.66726 5.67839 3.66708H12.3218ZM11.6397 2.66708L11.5728 2.46625C11.3626 1.83566 11.2929 1.65339 11.1861 1.52557C11.0787 1.39715 10.9407 1.29774 10.7849 1.23647C10.6299 1.17548 10.435 1.16708 9.77026 1.16708H8.2299C7.56521 1.16708 7.37027 1.17548 7.21521 1.23647C7.05942 1.29774 6.9215 1.39715 6.81411 1.52557C6.70722 1.65339 6.6376 1.83566 6.42741 2.46625L6.36046 2.66708H11.6397Z" fill="#E53943"/>
</svg>
