<svg width="24" height="24" viewBox="0 0 24 24" fill="none" xmlns="http://www.w3.org/2000/svg">
<path d="M22.5 17.5364L21 16.7864L21 15C20.9982 13.9375 20.6209 12.9099 19.9346 12.0988C19.2484 11.2876 18.2975 10.7453 17.25 10.5675L17.25 9L15.75 9L15.75 10.5675C14.7025 10.7453 13.7516 11.2876 13.0653 12.0988C12.3791 12.9099 12.0018 13.9375 12 15L12 16.7864L10.5 17.5364L10.5 21L15 21L15 22.5L18 22.5L18 21L22.5 21L22.5 17.5364ZM21 19.5L12 19.5L12 18.4637L13.5 17.7137L13.5 15C13.5 14.2044 13.8161 13.4413 14.3787 12.8787C14.9413 12.3161 15.7043 12 16.5 12C17.2956 12 18.0587 12.3161 18.6213 12.8787C19.1839 13.4413 19.5 14.2044 19.5 15L19.5 17.7137L21 18.4637L21 19.5Z" fill="#444C4B"/>
<path d="M21 4.5C21 4.10218 20.842 3.72065 20.5607 3.43934C20.2794 3.15804 19.8978 3 19.5 3L16.5 3L16.5 1.5L15 1.5L15 3L9 3L9 1.5L7.5 1.5L7.5 3L4.5 3C4.10217 3 3.72064 3.15804 3.43934 3.43934C3.15803 3.72064 3 4.10218 3 4.5L3 19.5C3 19.8978 3.15803 20.2794 3.43934 20.5607C3.72064 20.842 4.10217 21 4.5 21L7.5 21L7.5 19.5L4.5 19.5L4.5 4.5L7.5 4.5L7.5 6L9 6L9 4.5L15 4.5L15 6L16.5 6L16.5 4.5L19.5 4.5L19.5 9L21 9L21 4.5Z" fill="#444C4B"/>
</svg>
