<svg width="32" height="32" viewBox="0 0 32 32" fill="none" xmlns="http://www.w3.org/2000/svg">
<rect x="0.5" y="0.5" width="31" height="31" rx="7.5" fill="white"/>
<path d="M13.5 13.5H14.75V21H13.5V13.5ZM17.25 13.5H18.5V21H17.25V13.5Z" fill="#727978"/>
<path d="M8.5 9.75V11H9.75V23.5C9.75 23.8315 9.8817 24.1495 10.1161 24.3839C10.3505 24.6183 10.6685 24.75 11 24.75H21C21.3315 24.75 21.6495 24.6183 21.8839 24.3839C22.1183 24.1495 22.25 23.8315 22.25 23.5V11H23.5V9.75H8.5ZM11 23.5V11H21V23.5H11ZM13.5 7.25H18.5V8.5H13.5V7.25Z" fill="#727978"/>
<rect x="0.5" y="0.5" width="31" height="31" rx="7.5" stroke="#727978"/>
</svg>
