<svg width="40" height="40" viewBox="0 0 40 40" fill="none" xmlns="http://www.w3.org/2000/svg">
<circle cx="20" cy="20" r="20" fill="#F0F2F2"/>
<path fill-rule="evenodd" clip-rule="evenodd" d="M16.367 9.25H16.4H23.6H23.633C24.7251 9.24999 25.5906 9.24999 26.2883 9.30699C27.0017 9.36527 27.6053 9.48688 28.1565 9.76772C29.0502 10.2231 29.7769 10.9498 30.2323 11.8435C30.5131 12.3947 30.6347 12.9983 30.693 13.7117C30.75 14.4094 30.75 15.2748 30.75 16.367V16.4V23.6V23.633C30.75 24.7252 30.75 25.5906 30.693 26.2883C30.6347 27.0017 30.5131 27.6053 30.2323 28.1565C29.7769 29.0502 29.0502 29.7769 28.1565 30.2323C27.6053 30.5131 27.0017 30.6347 26.2883 30.693C25.5906 30.75 24.7252 30.75 23.633 30.75H23.6H16.4H16.367C15.2748 30.75 14.4094 30.75 13.7117 30.693C12.9983 30.6347 12.3947 30.5131 11.8435 30.2323C10.9498 29.7769 10.2231 29.0502 9.76772 28.1565C9.48688 27.6053 9.36527 27.0017 9.30699 26.2883C9.24999 25.5906 9.24999 24.7251 9.25 23.633V23.6V16.4V16.367V16.367C9.24999 15.2749 9.24999 14.4094 9.30699 13.7117C9.36527 12.9983 9.48688 12.3947 9.76772 11.8435C10.2231 10.9498 10.9498 10.2231 11.8435 9.76772C12.3947 9.48688 12.9983 9.36527 13.7117 9.30699C14.4094 9.24999 15.2749 9.24999 16.367 9.25H16.367ZM13.8339 10.802C13.2133 10.8527 12.829 10.9491 12.5245 11.1042C11.913 11.4158 11.4158 11.913 11.1042 12.5245C10.9491 12.829 10.8527 13.2133 10.802 13.8339C10.7506 14.4633 10.75 15.2675 10.75 16.4V23.6C10.75 24.7325 10.7506 25.5367 10.802 26.1661C10.8527 26.7867 10.9491 27.171 11.1042 27.4755C11.4158 28.087 11.913 28.5842 12.5245 28.8958C12.829 29.0509 13.2133 29.1473 13.8339 29.198C14.4633 29.2494 15.2675 29.25 16.4 29.25H23.6C24.7325 29.25 25.5367 29.2494 26.1661 29.198C26.7867 29.1473 27.171 29.0509 27.4755 28.8958C28.087 28.5842 28.5842 28.087 28.8958 27.4755C29.0509 27.171 29.1473 26.7867 29.198 26.1661C29.2494 25.5367 29.25 24.7325 29.25 23.6V16.4C29.25 15.2675 29.2494 14.4633 29.198 13.8339C29.1473 13.2133 29.0509 12.829 28.8958 12.5245C28.5842 11.913 28.087 11.4158 27.4755 11.1042C27.171 10.9491 26.7867 10.8527 26.1661 10.802C25.5367 10.7506 24.7325 10.75 23.6 10.75H16.4C15.2675 10.75 14.4633 10.7506 13.8339 10.802ZM19.5 17.25C19.9142 17.25 20.25 17.5858 20.25 18V20.0365L21.8354 20.8292C22.2059 21.0144 22.3561 21.4649 22.1708 21.8354C21.9856 22.2059 21.5351 22.3561 21.1646 22.1708L19.1646 21.1708C18.9105 21.0438 18.75 20.7841 18.75 20.5V18C18.75 17.5858 19.0858 17.25 19.5 17.25ZM16.2211 13.206C16.3349 12.8078 16.1043 12.3927 15.706 12.2789C15.3078 12.1651 14.8926 12.3957 14.7789 12.794L13.7789 16.294C13.685 16.6226 13.8251 16.9731 14.1197 17.1464C14.4142 17.3197 14.7887 17.272 15.0303 17.0303C16.435 15.6257 18.0341 14.75 20 14.75C22.8995 14.75 25.25 17.1005 25.25 20C25.25 22.8995 22.8995 25.25 20 25.25C17.1005 25.25 14.75 22.8995 14.75 20C14.75 19.5858 14.4142 19.25 14 19.25C13.5858 19.25 13.25 19.5858 13.25 20C13.25 23.7279 16.2721 26.75 20 26.75C23.7279 26.75 26.75 23.7279 26.75 20C26.75 16.2721 23.7279 13.25 20 13.25C18.427 13.25 17.0625 13.7039 15.8674 14.444L16.2211 13.206Z" fill="#131F1E"/>
</svg>
