<svg width="14" height="15" viewBox="0 0 14 15" fill="none" xmlns="http://www.w3.org/2000/svg">
<path fill-rule="evenodd" clip-rule="evenodd" d="M6.99936 1.62547C6.0625 1.62475 5.14034 1.8583 4.31676 2.30486C3.49319 2.75142 2.79434 3.39683 2.28381 4.18235C2.19986 4.30137 2.07303 4.38318 1.92999 4.41058C1.78695 4.43798 1.63886 4.40882 1.51688 4.32925C1.3949 4.24968 1.30855 4.1259 1.27598 3.98395C1.24341 3.842 1.26718 3.69295 1.34227 3.56816C2.13587 2.34859 3.30235 1.41814 4.66782 0.915501C6.03329 0.412861 7.52463 0.364951 8.91955 0.77891C10.3145 1.19287 11.5383 2.04653 12.4085 3.21265C13.2787 4.37877 13.7488 5.79489 13.7487 7.24994C13.7487 7.39926 13.6894 7.54246 13.5838 7.64804C13.4782 7.75363 13.335 7.81294 13.1857 7.81294C13.0364 7.81294 12.8932 7.75363 12.7876 7.64804C12.682 7.54246 12.6227 7.39926 12.6227 7.24994C12.6227 5.75824 12.0301 4.32763 10.9753 3.27284C9.92054 2.21805 8.48993 1.62547 6.99823 1.62547H6.99936ZM0.812446 6.68749C0.961616 6.68749 1.10468 6.74675 1.21016 6.85223C1.31564 6.95771 1.37489 7.10077 1.37489 7.24994C1.37447 8.4628 1.76613 9.64331 2.49145 10.6154C3.21676 11.5875 4.23688 12.2991 5.39965 12.644C6.56243 12.989 7.80556 12.9489 8.94366 12.5296C10.0818 12.1103 11.0538 11.3344 11.7149 10.3175C11.7539 10.2528 11.8055 10.1965 11.8667 10.1522C11.9279 10.1078 11.9974 10.0762 12.071 10.0593C12.1447 10.0424 12.221 10.0405 12.2954 10.0538C12.3698 10.067 12.4408 10.0952 12.5041 10.1365C12.5674 10.1777 12.6217 10.2314 12.6639 10.2941C12.706 10.3569 12.735 10.4275 12.7492 10.5017C12.7634 10.576 12.7626 10.6523 12.7466 10.7262C12.7307 10.8 12.7 10.8699 12.6564 10.9317C11.8628 12.1513 10.6964 13.0817 9.3309 13.5844C7.96543 14.087 6.47408 14.1349 5.07917 13.721C3.68425 13.307 2.46046 12.4533 1.59022 11.2872C0.719972 10.1211 0.249875 8.70498 0.25 7.24994C0.25 7.17598 0.264585 7.10275 0.292921 7.03444C0.321257 6.96612 0.362787 6.90407 0.415134 6.85183C0.467481 6.79959 0.529618 6.75818 0.597987 6.72998C0.666356 6.70178 0.739615 6.68734 0.813571 6.68749H0.812446Z" fill="#335150" stroke="#335150" stroke-width="0.3"/>
</svg>
