<svg width="20" height="20" viewBox="0 0 20 20" fill="none" xmlns="http://www.w3.org/2000/svg">
<path fill-rule="evenodd" clip-rule="evenodd" d="M3 5.00488H12V3.00488H3V5.00488ZM8 8.00488H12V6.00488H8V8.00488ZM8 11.0049H12V9.00488H8V11.0049ZM3 14.0049H12V12.0049H3V14.0049ZM3 11.0049H7V6.00488H3V11.0049ZM15 17.5049C15 18.0439 15.133 18.5489 15.352 19.0049H2.5C1.121 19.0049 0 17.8839 0 16.5049V0.00488281H15V17.5049ZM17 6.00488H20V17.5049C20 18.3319 19.327 19.0049 18.5 19.0049C18.35 19.0049 18.207 18.9759 18.069 18.9349C17.453 18.7479 17 18.1819 17 17.5049V6.00488Z" fill="currentColor"/>
</svg>
