<svg width="24" height="20" viewBox="0 0 24 20" fill="none" xmlns="http://www.w3.org/2000/svg">
<path d="M14 1C11.6131 1 9.32387 1.94821 7.63604 3.63604C5.94821 5.32387 5 7.61305 5 10H2L5.89 13.89L5.96 14.03L10 10H7C7 8.14348 7.7375 6.36301 9.05025 5.05025C10.363 3.7375 12.1435 3 14 3C15.8565 3 17.637 3.7375 18.9497 5.05025C20.2625 6.36301 21 8.14348 21 10C21 11.8565 20.2625 13.637 18.9497 14.9497C17.637 16.2625 15.8565 17 14 17C12.07 17 10.32 16.21 9.06 14.94L7.64 16.36C8.47147 17.2006 9.46218 17.8671 10.5542 18.3203C11.6462 18.7736 12.8176 19.0047 14 19C16.3869 19 18.6761 18.0518 20.364 16.364C22.0518 14.6761 23 12.3869 23 10C23 7.61305 22.0518 5.32387 20.364 3.63604C18.6761 1.94821 16.3869 1 14 1Z" fill="white" stroke="#48A7F2"/>
</svg>
