<svg width="18" height="18" viewBox="0 0 18 18" fill="none" xmlns="http://www.w3.org/2000/svg">
<path fill-rule="evenodd" clip-rule="evenodd" d="M9.49996 0.666626C9.49996 0.390484 9.2761 0.166626 8.99996 0.166626C8.72382 0.166626 8.49996 0.390484 8.49996 0.666626L8.49996 11.9595L6.02018 9.47974C5.82492 9.28448 5.50834 9.28448 5.31308 9.47974C5.11781 9.675 5.11781 9.99158 5.31308 10.1868L8.64641 13.5202C8.84167 13.7154 9.15825 13.7154 9.35352 13.5202L12.6868 10.1868C12.8821 9.99158 12.8821 9.675 12.6868 9.47974C12.4916 9.28448 12.175 9.28448 11.9797 9.47974L9.49996 11.9595L9.49996 0.666626ZM5.24996 5.16663L5.20905 5.16663H5.20904C4.7061 5.16661 4.40891 5.16659 4.15231 5.19612C2.07441 5.43517 0.435165 7.07442 0.196116 9.15232C0.166596 9.40892 0.166607 9.7061 0.166627 10.209V10.2091L0.166629 10.25L0.166629 11.5V11.5171C0.166627 12.3563 0.166627 13.0096 0.199653 13.5372C0.233155 14.0725 0.302021 14.5118 0.455055 14.9184C0.911528 16.1312 1.86868 17.0884 3.0815 17.5449C3.4881 17.6979 3.92747 17.7668 4.46271 17.8003C4.99036 17.8333 5.64358 17.8333 6.48275 17.8333H6.48278H6.49997H11.5H11.5171C12.3563 17.8333 13.0096 17.8333 13.5372 17.8003C14.0725 17.7668 14.5118 17.6979 14.9184 17.5449C16.1312 17.0884 17.0884 16.1313 17.5449 14.9184C17.6979 14.5118 17.7668 14.0725 17.8003 13.5372C17.8333 13.0096 17.8333 12.3563 17.8333 11.5171V11.5V10.25V10.2091V10.209C17.8333 9.7061 17.8333 9.40892 17.8038 9.15232C17.5648 7.07442 15.9255 5.43517 13.8476 5.19612C13.591 5.16659 13.2938 5.16661 12.7909 5.16663L12.75 5.16663L12.75 5.66663L12.7499 5.16663L12.3333 5.16664C12.0571 5.16665 11.8333 5.39052 11.8333 5.66666C11.8333 5.9428 12.0572 6.16665 12.3333 6.16664L12.75 6.16663H12.75C13.3056 6.16663 13.5412 6.16745 13.7333 6.18956C15.3495 6.3755 16.6244 7.65047 16.8104 9.26661C16.8325 9.45878 16.8333 9.6943 16.8333 10.25V11.5C16.8333 12.3599 16.8331 12.982 16.8022 13.4748C16.7716 13.9635 16.7123 14.2916 16.609 14.5662C16.2539 15.5095 15.5095 16.2539 14.5662 16.609C14.2916 16.7123 13.9635 16.7716 13.4747 16.8022C12.982 16.8331 12.3599 16.8333 11.5 16.8333H6.49997C5.63999 16.8333 5.01795 16.8331 4.52518 16.8022C4.03641 16.7716 3.70833 16.7123 3.43375 16.609C2.49045 16.2539 1.74599 15.5095 1.39096 14.5662C1.28762 14.2916 1.22829 13.9635 1.1977 13.4748C1.16686 12.982 1.16663 12.3599 1.16663 11.5V10.25C1.16663 9.6943 1.16745 9.45879 1.18956 9.26661C1.37549 7.65047 2.65046 6.3755 4.2666 6.18956C4.45877 6.16745 4.69428 6.16663 5.24994 6.16663H5.24996L5.66661 6.16664C5.94275 6.16665 6.16662 5.9428 6.16663 5.66666C6.16664 5.39052 5.94279 5.16665 5.66665 5.16664L5.24998 5.16663L5.24996 5.66045L5.24996 5.16663Z" fill="#131F1E"/>
</svg>
