<svg width="16" height="16" viewBox="0 0 16 16" fill="none" xmlns="http://www.w3.org/2000/svg">
<path d="M15.1564 7.44375L1.40636 0.568754C1.29859 0.514858 1.17754 0.493263 1.05778 0.50657C0.938028 0.519876 0.82467 0.567516 0.731361 0.643754C0.642251 0.718437 0.57574 0.816495 0.539304 0.926906C0.502869 1.03732 0.497953 1.1557 0.525111 1.26875L2.37511 8L0.500111 14.7125C0.474627 14.8069 0.471653 14.906 0.491426 15.0018C0.511199 15.0975 0.553169 15.1873 0.61396 15.2639C0.674751 15.3405 0.752668 15.4018 0.841444 15.4428C0.930221 15.4838 1.02738 15.5034 1.12511 15.5C1.22295 15.4994 1.31928 15.4759 1.40636 15.4313L15.1564 8.55625C15.2587 8.5038 15.3447 8.42412 15.4046 8.32598C15.4646 8.22783 15.4964 8.11503 15.4964 8C15.4964 7.88497 15.4646 7.77218 15.4046 7.67403C15.3447 7.57589 15.2587 7.4962 15.1564 7.44375ZM2.09386 13.6938L3.47511 8.625H9.25011V7.375H3.47511L2.09386 2.30625L13.4751 8L2.09386 13.6938Z" fill="#131F1E"/>
</svg>
