<svg width="16" height="17" viewBox="0 0 16 17" fill="none" xmlns="http://www.w3.org/2000/svg">
<path d="M3.51324 4.12572L2.47041 4.33898L0.870973 2.92295C0.776854 3.38576 0.813749 3.86564 0.977506 4.30863C1.14126 4.75161 1.42538 5.1401 1.7979 5.43041C2.17042 5.72071 2.61656 5.90131 3.08613 5.95187C3.5557 6.00244 4.03006 5.92097 4.45584 5.71663L5.75458 6.89808L7.1365 5.3349L5.77164 4.23449C6.42848 2.29384 4.54968 0.331864 2.54931 1.01642L4.11463 2.41966L4.03786 3.48595L3.51324 4.12572Z" fill="#A1A5A5"/>
<path d="M11.6895 11.9012L14.513 14.1681L15.8928 12.6156L13.0692 10.3486L11.6895 11.9012Z" fill="#A1A5A5"/>
<path d="M13.0906 7.3715C12.8006 7.70845 10.6766 10.1225 10.1498 10.6877C10.097 10.7348 10.0288 10.7611 9.95803 10.7618C9.88724 10.7625 9.81861 10.7374 9.76491 10.6912C9.71121 10.6451 9.67609 10.581 9.66608 10.5109C9.65608 10.4409 9.67186 10.3695 9.7105 10.3102L12.6492 6.98124L11.7535 6.18792C11.327 6.66348 8.7679 9.55739 8.79775 9.5254C8.74351 9.56739 8.67623 9.58895 8.60769 9.58632C8.53916 9.58368 8.47373 9.55701 8.42288 9.51099C8.37202 9.46497 8.33898 9.40252 8.32954 9.33458C8.3201 9.26665 8.33486 9.19755 8.37124 9.13941L11.3163 5.80192L10.4206 5.0086C10.0453 5.43511 7.40091 8.45698 7.48408 8.36315C7.44953 8.40241 7.40444 8.43091 7.35416 8.44528C7.30387 8.45965 7.25052 8.45927 7.20045 8.44419L6.9616 8.23093C6.95206 8.18752 6.95149 8.14261 6.95992 8.09898C6.96836 8.05534 6.98562 8.01388 7.01065 7.97715C7.59498 7.35231 9.64652 5.05978 9.97494 4.61407L9.08565 3.82715L5.96568 7.35017L5.34297 8.05392L4.09968 6.89807L3.83524 7.19663C3.17627 7.9409 3.558 8.87497 4.02077 9.51474C4.22667 9.77278 4.33881 10.0931 4.33881 10.4232C4.33881 10.7533 4.22667 11.0737 4.02077 11.3317L1.60669 14.0401L1.65361 14.0806L5.88465 16.4264L8.68046 13.2702C9.21248 12.987 9.71845 12.6573 10.1925 12.285C10.8109 11.803 13.5342 8.72782 13.997 8.17761L13.0906 7.3715Z" fill="#FF8D40"/>
</svg>
