<svg width="24" height="24" viewBox="0 0 24 24" fill="none" xmlns="http://www.w3.org/2000/svg">
<path d="M20.2509 12.5701V11.4226L21.6909 10.1626C21.9564 9.9286 22.1306 9.60833 22.1827 9.25836C22.2349 8.90839 22.1616 8.55125 21.9759 8.25006L20.2059 5.25006C20.0744 5.02226 19.8853 4.83305 19.6575 4.70141C19.4298 4.56977 19.1715 4.50033 18.9084 4.50006C18.7454 4.49881 18.5833 4.52414 18.4284 4.57506L16.6059 5.19006C16.2913 4.98097 15.963 4.79305 15.6234 4.62756L15.2409 2.73756C15.1723 2.39226 14.9845 2.08209 14.7103 1.86134C14.436 1.64058 14.0929 1.52332 13.7409 1.53006H10.2309C9.87895 1.52332 9.53581 1.64058 9.26158 1.86134C8.98735 2.08209 8.79951 2.39226 8.73092 2.73756L8.34842 4.62756C8.00637 4.79301 7.67565 4.98092 7.35842 5.19006L5.57342 4.54506C5.41689 4.50428 5.2548 4.48908 5.09342 4.50006C4.83038 4.50033 4.57203 4.56977 4.34429 4.70141C4.11656 4.83305 3.92744 5.02226 3.79592 5.25006L2.02592 8.25006C1.85086 8.5508 1.78581 8.90305 1.84191 9.24648C1.89801 9.58991 2.07176 9.90316 2.33342 10.1326L3.75092 11.4301V12.5776L2.33342 13.8376C2.06437 14.0686 1.88586 14.3874 1.82957 14.7375C1.77328 15.0876 1.84284 15.4464 2.02592 15.7501L3.79592 18.7501C3.92744 18.9779 4.11656 19.1671 4.34429 19.2987C4.57203 19.4304 4.83038 19.4998 5.09342 19.5001C5.25643 19.5013 5.41856 19.476 5.57342 19.4251L7.39592 18.8101C7.71058 19.0192 8.0388 19.2071 8.37842 19.3726L8.76092 21.2626C8.82951 21.6079 9.01735 21.918 9.29158 22.1388C9.56581 22.3595 9.90895 22.4768 10.2609 22.4701H13.8009C14.1529 22.4768 14.496 22.3595 14.7703 22.1388C15.0445 21.918 15.2323 21.6079 15.3009 21.2626L15.6834 19.3726C16.0255 19.2071 16.3562 19.0192 16.6734 18.8101L18.4884 19.4251C18.6433 19.476 18.8054 19.5013 18.9684 19.5001C19.2315 19.4998 19.4898 19.4304 19.7175 19.2987C19.9453 19.1671 20.1344 18.9779 20.2659 18.7501L21.9759 15.7501C22.151 15.4493 22.216 15.0971 22.1599 14.7536C22.1038 14.4102 21.9301 14.097 21.6684 13.8676L20.2509 12.5701ZM18.9084 18.0001L16.3359 17.1301C15.7337 17.6401 15.0455 18.0389 14.3034 18.3076L13.7709 21.0001H10.2309L9.69842 18.3376C8.96224 18.0612 8.27771 17.6632 7.67342 17.1601L5.09342 18.0001L3.32342 15.0001L5.36342 13.2001C5.22474 12.4237 5.22474 11.6289 5.36342 10.8526L3.32342 9.00006L5.09342 6.00006L7.66592 6.87006C8.26812 6.35998 8.95637 5.96125 9.69842 5.69256L10.2309 3.00006H13.7709L14.3034 5.66256C15.0396 5.93888 15.7241 6.33692 16.3284 6.84006L18.9084 6.00006L20.6784 9.00006L18.6384 10.8001C18.7771 11.5764 18.7771 12.3712 18.6384 13.1476L20.6784 15.0001L18.9084 18.0001Z" fill="#131F1E"/>
<path d="M12 16.5C11.11 16.5 10.24 16.2361 9.49994 15.7416C8.75991 15.2471 8.18314 14.5443 7.84254 13.7221C7.50195 12.8998 7.41283 11.995 7.58647 11.1221C7.7601 10.2492 8.18868 9.44736 8.81802 8.81802C9.44736 8.18868 10.2492 7.7601 11.1221 7.58647C11.995 7.41283 12.8998 7.50195 13.7221 7.84254C14.5443 8.18314 15.2471 8.75991 15.7416 9.49994C16.2361 10.24 16.5 11.11 16.5 12C16.506 12.5926 16.3937 13.1805 16.1697 13.7292C15.9457 14.2779 15.6145 14.7763 15.1954 15.1954C14.7763 15.6145 14.2779 15.9457 13.7292 16.1697C13.1805 16.3937 12.5926 16.506 12 16.5ZM12 9C11.6035 8.99077 11.2093 9.06205 10.8411 9.20954C10.473 9.35704 10.1386 9.57768 9.85812 9.85812C9.57768 10.1386 9.35704 10.473 9.20954 10.8411C9.06205 11.2093 8.99077 11.6035 9 12C8.99077 12.3965 9.06205 12.7907 9.20954 13.1589C9.35704 13.527 9.57768 13.8615 9.85812 14.1419C10.1386 14.4223 10.473 14.643 10.8411 14.7905C11.2093 14.938 11.6035 15.0092 12 15C12.3965 15.0092 12.7907 14.938 13.1589 14.7905C13.527 14.643 13.8615 14.4223 14.1419 14.1419C14.4223 13.8615 14.643 13.527 14.7905 13.1589C14.938 12.7907 15.0092 12.3965 15 12C15.0092 11.6035 14.938 11.2093 14.7905 10.8411C14.643 10.473 14.4223 10.1386 14.1419 9.85812C13.8615 9.57768 13.527 9.35704 13.1589 9.20954C12.7907 9.06205 12.3965 8.99077 12 9Z" fill="#131F1E"/>
</svg>
