<svg width="16" height="18" viewBox="0 0 16 18" fill="none" xmlns="http://www.w3.org/2000/svg">
<path d="M14.25 14V16.5H1.75V14H0.5V16.5L0.50475 16.4969C0.504158 16.661 0.535907 16.8236 0.598181 16.9754C0.660455 17.1271 0.752033 17.2652 0.867681 17.3815C0.983329 17.4979 1.12078 17.5904 1.27217 17.6536C1.42357 17.7168 1.58594 17.7496 1.75 17.75H14.25C14.5815 17.75 14.8995 17.6183 15.1339 17.3839C15.3683 17.1495 15.5 16.8315 15.5 16.5V14H14.25ZM1.75 6.5L2.63187 7.37812L7.375 2.64062V14H8.625V2.64062L13.3694 7.37812L14.25 6.5L8 0.25L1.75 6.5Z" fill="#131F1E"/>
</svg>
