<svg width="23" height="26" viewBox="0 0 23 26" fill="none" xmlns="http://www.w3.org/2000/svg">
<path d="M22.7491 0H12.1519V2.16086C12.2532 2.16086 12.3504 2.17353 12.4518 2.17775C14.6373 2.25298 16.7129 3.15483 18.2592 4.70115C19.8055 6.24748 20.7074 8.32302 20.7826 10.5086C20.7826 10.6078 20.7974 10.7071 20.7974 10.8085H22.9604V0H22.7491Z" fill="#FF8D40"/>
<path d="M10.8339 0H2.17775H0.209115H0V19.8258H0.0211227V19.8617L10.969 26V23.2815L2.17775 18.4064V2.17775H10.8339H10.931V0H10.8339Z" fill="#36796F"/>
<path d="M20.783 11.8672V18.4068L11.9917 23.2819V26.0004L22.9396 19.8621V19.8262H22.9607V11.8672H21.2942H20.783Z" fill="#36796F"/>
<path d="M15.7534 7.41211H8.22949V9.58986H15.7534V7.41211Z" fill="#36796F"/>
<path d="M7.46704 7.41211H5.61035V9.58986H7.46704V7.41211Z" fill="#36796F"/>
<path d="M17.8657 13.958H8.22949V16.1358H17.8657V13.958Z" fill="#36796F"/>
<path d="M7.46704 13.958H5.61035V16.1358H7.46704V13.958Z" fill="#36796F"/>
<path d="M17.8657 10.6836H8.22949V12.8613H17.8657V10.6836Z" fill="#FF8D40"/>
<path d="M7.46704 10.6836H5.61035V12.8613H7.46704V10.6836Z" fill="#FF8D40"/>
</svg>
