<svg width="21" height="26" viewBox="0 0 21 26" fill="none" xmlns="http://www.w3.org/2000/svg">
<path d="M7.04066 8.09561C6.23576 8.09643 5.4487 7.85972 4.77906 7.41544C4.10941 6.97115 3.58727 6.33926 3.27868 5.59969C2.97009 4.86012 2.88893 4.04611 3.04545 3.26065C3.20198 2.47518 3.58916 1.75354 4.15802 1.18703C4.72688 0.620526 5.45185 0.234601 6.24122 0.0780812C7.03059 -0.0784385 7.84889 0.00148064 8.5926 0.307728C9.3363 0.613975 9.972 1.13279 10.4193 1.79854C10.8665 2.46428 11.1053 3.24705 11.1053 4.0478C11.1042 5.1203 10.6757 6.14862 9.91381 6.90738C9.1519 7.66613 8.1187 8.09343 7.04066 8.09561ZM7.04066 1.5532C6.54454 1.55239 6.05934 1.698 5.64644 1.97162C5.23353 2.24523 4.9115 2.63455 4.72108 3.0903C4.53065 3.54606 4.4804 4.04777 4.57669 4.53195C4.67297 5.01612 4.91146 5.461 5.26198 5.81029C5.61249 6.15958 6.05928 6.39758 6.5458 6.49417C7.03232 6.59076 7.53671 6.5416 7.99514 6.35291C8.45356 6.16422 8.84543 5.84448 9.12114 5.43416C9.39685 5.02383 9.54402 4.54137 9.54402 4.0478C9.54347 3.38708 9.27968 2.7535 8.81045 2.28591C8.34121 1.81832 7.7048 1.55484 7.04066 1.5532Z" fill="#36796F"/>
<path d="M9.44196 9.12891H0V18.58H0.0207061V18.615L5.78527 22.1313V19.4781L2.13479 17.1957V11.2527H9.79603C9.55037 10.7253 9.42318 10.151 9.42333 9.56974C9.42122 9.42256 9.42744 9.27539 9.44196 9.12891Z" fill="#36796F"/>
<path d="M10.9347 8.69879V8.5752H10.8125C10.8511 8.61841 10.8919 8.65966 10.9347 8.69879Z" fill="#36796F"/>
<path d="M14.5214 4.69824C13.5195 4.69976 12.5533 5.06841 11.8073 5.73378C11.0614 6.39914 10.588 7.31457 10.4775 8.30522C10.4609 8.45158 10.4526 8.59876 10.4526 8.74605C10.4525 9.32732 10.5797 9.90163 10.8253 10.429C11.1294 11.0894 11.6066 11.6561 12.2068 12.0697C12.807 12.4833 13.508 12.7286 14.2363 12.7797C14.9646 12.8308 15.6933 12.6859 16.3459 12.3603C16.9985 12.0346 17.5509 11.5401 17.9452 10.9288C18.3395 10.3174 18.5611 9.61179 18.5867 8.88588C18.6123 8.15998 18.441 7.4406 18.0907 6.80327C17.7405 6.16594 17.2243 5.63417 16.5962 5.26378C15.9682 4.89339 15.2515 4.69804 14.5214 4.69824ZM14.9355 11.2036C14.7988 11.2276 14.6602 11.24 14.5214 11.2406C13.8793 11.2413 13.262 10.9948 12.7986 10.5526C12.7558 10.5135 12.7151 10.4722 12.6765 10.429C12.2485 9.97199 12.0103 9.3707 12.0097 8.74605C12.0109 8.5982 12.0248 8.45072 12.0511 8.30522C12.1322 7.85582 12.3357 7.4372 12.6396 7.09504C12.9434 6.75287 13.3359 6.50031 13.7742 6.36491C14.2125 6.2295 14.6797 6.21647 15.125 6.32722C15.5702 6.43797 15.9763 6.66825 16.2989 6.99293C16.6216 7.31761 16.8484 7.72423 16.9546 8.1684C17.0608 8.61257 17.0424 9.07723 16.9013 9.51168C16.7602 9.94614 16.5018 10.3337 16.1544 10.632C15.8071 10.9304 15.384 11.1281 14.9314 11.2036H14.9355Z" fill="#36796F"/>
<path d="M10.0649 21.066V18.7897V15.741H10.7254H12.8602H13.5828L13.6946 15.7307V13.6172H13.5828H12.8602H10.7254H10.0649H8.13712H7.93213V19.9433V20.9609V22.4503H7.95283V22.4853L13.7174 25.9996V23.3484L10.0649 21.066Z" fill="#36796F"/>
<path d="M18.8654 21.273L14.8008 23.471V25.9573L20.9795 22.4863V22.4513H21.0002V20.8857H18.8757" fill="#36796F"/>
<path d="M20.7931 13.6172H14.8008V15.7884C15.8163 15.9399 16.7558 16.4127 17.4801 17.137C18.2043 17.8612 18.6749 18.7983 18.8219 19.8094H21.0002V13.6172H20.7931Z" fill="#FF8D40"/>
</svg>
