<svg width="24" height="24" viewBox="0 0 24 24" fill="none" xmlns="http://www.w3.org/2000/svg">
<g clip-path="url(#clip0_2559_8864)">
<path d="M0 3C0 1.34315 0.895431 0 2 0H22C23.1046 0 24 1.34315 24 3V21C24 22.6569 23.1046 24 22 24H2C0.89543 24 0 22.6569 0 21V3Z" fill="white"/>
<path d="M20.6553 9.01752H19.398C19.0178 9.01752 18.7254 9.13448 18.55 9.51459L16.1523 14.9824H17.8482C17.8482 14.9824 18.1406 14.2514 18.1991 14.076C18.3746 14.076 20.0412 14.076 20.2752 14.076C20.3336 14.2807 20.4798 14.9532 20.4798 14.9532H22.0003L20.6553 9.01752ZM18.667 12.8479C18.8132 12.497 19.3102 11.1813 19.3102 11.1813C19.3102 11.2105 19.4564 10.8304 19.5149 10.6257L19.6319 11.152C19.6319 11.152 19.9535 12.5848 20.012 12.8772H18.667V12.8479Z" fill="#3362AB"/>
<path d="M16.2692 13.0234C16.2692 14.2514 15.1581 15.0702 13.433 15.0702C12.702 15.0702 12.0002 14.924 11.6201 14.7485L11.854 13.4035L12.0587 13.4912C12.585 13.7251 12.9359 13.8128 13.5792 13.8128C14.047 13.8128 14.5441 13.6374 14.5441 13.2281C14.5441 12.9649 14.3394 12.7895 13.6961 12.4971C13.0821 12.2047 12.2634 11.7368 12.2634 10.8889C12.2634 9.71928 13.4037 8.92981 15.0119 8.92981C15.626 8.92981 16.1523 9.04677 16.4739 9.19297L16.24 10.4795L16.123 10.3626C15.8306 10.2456 15.4505 10.1286 14.895 10.1286C14.2809 10.1579 13.9885 10.421 13.9885 10.655C13.9885 10.9181 14.3394 11.1228 14.895 11.3859C15.8306 11.8245 16.2692 12.3216 16.2692 13.0234Z" fill="#3362AB"/>
<path d="M2 9.07604L2.02924 8.95908H4.54386C4.89474 8.95908 5.15789 9.07603 5.24561 9.45615L5.80117 12.0877C5.24561 10.6842 3.95906 9.54387 2 9.07604Z" fill="#F9B50B"/>
<path d="M9.33939 9.01752L6.79553 14.9532H5.07039L3.6084 9.98243C4.66103 10.6549 5.53822 11.7076 5.85986 12.4386L6.0353 13.0526L7.61425 8.98828H9.33939V9.01752Z" fill="#3362AB"/>
<path d="M10.0117 8.98828H11.6199L10.5965 14.9532H8.98828L10.0117 8.98828Z" fill="#3362AB"/>
</g>
<defs>
<clipPath id="clip0_2559_8864">
<rect width="24" height="24" fill="white"/>
</clipPath>
</defs>
</svg>
