<svg width="58" height="32" viewBox="0 0 58 32" fill="none" xmlns="http://www.w3.org/2000/svg">
<path d="M1.50183 8.63551L0.750913 8.44778C0.281592 8.35391 0 8.16619 0 7.603V5.91344C0 5.35026 0.281592 5.06867 0.750913 4.88094L1.59569 4.31775L2.81593 0.844778C3.00365 0.281593 3.37911 0 3.84843 0H6.00731C6.5705 0 6.85209 0.375457 6.85209 0.844778V4.41162H9.48028C10.0435 4.41162 10.3251 4.69321 10.3251 5.25639V7.603C10.3251 8.16619 9.9496 8.35391 9.48028 8.44778L6.85209 8.63551V15.0183C6.85209 15.5815 6.5705 15.863 6.00731 15.863H2.25274C1.68956 15.863 1.40796 15.5815 1.40796 15.0183V8.63551H1.50183ZM1.50183 17.4587C1.50183 16.8956 1.78342 16.614 2.34661 16.614H6.10117C6.66436 16.614 6.94595 16.8956 6.94595 17.4587V21.4949C6.94595 22.0581 7.32141 22.3397 7.79073 22.3397L9.9496 22.5274C10.5128 22.5274 10.7944 22.809 10.7944 23.3722V25.7188C10.7944 26.282 10.4189 26.5636 9.9496 26.5636H4.78707C2.90979 26.5636 1.50183 25.0617 1.50183 23.2783V17.4587V17.4587Z" fill="#24554E"/>
<path d="M16.8017 16.6141H13.0472C12.484 16.6141 12.2024 16.8957 12.2024 17.4589V25.8128C12.2024 26.376 12.484 26.6576 13.0472 26.6576H16.8017C17.3649 26.6576 17.6465 26.376 17.6465 25.8128V17.4589C17.6465 16.8957 17.3649 16.6141 16.8017 16.6141Z" fill="#24554E"/>
<path d="M16.8956 4.31775H13.141C12.5779 4.31775 12.2963 4.59934 12.2963 5.16253V14.9244C12.2963 15.4876 12.5779 15.7692 13.141 15.7692H16.8956C17.4588 15.7692 17.7404 15.4876 17.7404 14.9244V5.16253C17.6465 4.69321 17.3649 4.31775 16.8956 4.31775Z" fill="#24554E"/>
<path d="M16.8953 0.188141H12.9531C12.3899 0.188141 12.1083 0.563598 12.1083 1.03292V2.34702C12.1083 2.9102 12.3899 3.1918 12.9531 3.1918H16.8953C17.4585 3.1918 17.7401 2.81634 17.7401 2.34702V1.12678C17.7401 0.563598 17.4585 0.188141 16.8953 0.188141Z" fill="#24554E"/>
<path d="M29.9425 22.2461L26.8449 21.8706V20.8381H29.0977C31.0688 20.8381 32.3829 19.3363 32.3829 17.5529V17.459C32.3829 16.8958 32.1013 16.6142 31.5381 16.6142H20.3683C19.8051 16.6142 19.5235 16.8958 19.5235 17.459V17.5529C19.5235 19.3363 20.6499 20.8381 22.2456 20.8381V23.5602C22.2456 24.4988 22.9965 25.2497 23.8413 25.3436L27.4081 25.6252C27.7836 25.6252 27.9713 25.8129 27.9713 26.0945L27.8774 26.9393C27.8774 27.2209 27.6897 27.5025 27.4081 27.5025H24.9676C24.5922 27.5025 24.4045 27.3147 24.4045 27.0332C24.4045 26.6577 24.2167 26.5638 23.9351 26.5638H19.9929C19.4297 26.5638 19.1481 26.8454 19.1481 27.4086V28.3473C19.1481 30.1307 20.4622 31.257 22.4333 31.257H29.9425C31.8197 31.257 33.3216 29.7552 33.3216 27.9718V25.7191C33.2277 23.7479 31.7259 22.5277 29.9425 22.2461Z" fill="#24554E"/>
<path d="M34.2604 5.16262C34.2604 4.59943 34.542 4.31784 35.1052 4.31784H37.9211C38.672 4.31784 39.0474 4.97489 39.1413 5.53808C40.08 4.97489 41.6756 4.31784 43.2713 4.31784C43.8345 4.31784 44.1161 4.59943 44.1161 5.16262V8.26014C44.1161 8.82332 43.8345 9.10491 43.2713 9.10491H39.7045V14.9245C39.7045 15.4877 39.4229 15.7693 38.8597 15.7693H35.1052C34.542 15.7693 34.2604 15.4877 34.2604 14.9245V5.16262ZM39.7045 25.8127C39.7045 26.3759 39.4229 26.6575 38.8597 26.6575H35.1052C34.542 26.6575 34.2604 26.3759 34.2604 25.8127V17.4588C34.2604 16.8956 34.542 16.614 35.1052 16.614H38.8597C39.4229 16.614 39.7045 16.8956 39.7045 17.4588V25.8127Z" fill="#24554E"/>
<path d="M57.4448 25.8127C57.4448 26.3759 57.1633 26.6575 56.6001 26.6575H53.5964C52.9394 26.6575 52.47 26.2821 52.3762 25.7189C51.4375 26.2821 50.0296 26.6575 47.8707 26.6575C45.9934 26.6575 44.5854 25.3434 44.5854 23.3723V16.9895C44.5854 15.2061 45.9934 14.0797 47.7768 13.6104L51.9069 12.5779V10.2313C51.9069 9.57424 51.5314 9.19878 50.8743 9.19878L45.7118 9.10491C45.1486 9.10491 44.867 8.82332 44.867 8.26014V5.16262C44.867 4.59943 45.1486 4.31784 45.7118 4.31784H53.7841C56.0369 4.31784 57.351 5.63194 57.351 7.69695V14.6429C57.351 15.2061 57.2571 15.4877 56.7878 15.6754L50.4989 17.4588C49.9357 17.6466 49.6541 17.8343 49.6541 18.3975V21.3073C49.6541 21.8704 50.0296 22.152 50.4989 22.152H51.9069V18.6791C51.9069 18.1159 52.0946 17.9281 52.5639 17.7404L56.3185 16.7079C56.8817 16.5202 57.351 16.7079 57.351 17.2711V25.8127H57.4448Z" fill="#24554E"/>
<path d="M30.2243 0.188141H28.5348V1.8777V4.41203H25.9066H25.8127H22.7152C20.9318 4.41203 19.4299 5.91386 19.4299 7.69728V15.0187C19.4299 15.5819 19.7115 15.8635 20.2747 15.8635H24.0293C24.5925 15.8635 24.8741 15.5819 24.8741 15.0187V9.4807C24.8741 9.01138 25.1557 8.63592 25.7188 8.63592H25.9066H26.0004H26.1882C26.7513 8.63592 27.0329 9.01138 27.0329 9.4807V15.0187C27.0329 15.5819 27.3145 15.8635 27.8777 15.8635H31.6323C32.1955 15.8635 32.4771 15.5819 32.4771 15.0187V7.69728C32.4771 6.47704 31.82 5.35067 30.7875 4.78749C31.5384 3.09793 33.3218 1.8777 35.293 1.8777V0.188141H30.2243Z" fill="#24554E"/>
</svg>
