<svg width="77" height="46" viewBox="0 0 77 46" fill="none" xmlns="http://www.w3.org/2000/svg">
<path d="M30.7956 45.7364C29.6261 45.7364 28.7166 45.6436 28.0669 45.458L9.74597 42.6551C9.35617 42.5994 8.98492 42.3581 8.78074 42.024C8.55799 41.6899 8.48374 41.2815 8.59511 40.8917L11.7321 28.9562C11.7507 28.8634 11.7878 28.7705 11.8435 28.6777C13.5698 25.2437 16.9296 23.0348 20.7534 22.8121L27.9555 15.6099C29.7375 13.8279 32.8745 13.8279 34.6565 15.6099C36.2529 17.2063 36.4942 19.7122 35.2505 21.587L30.777 27.7311C30.2016 28.5292 29.886 29.4759 29.886 30.4597C29.886 33.0213 32.1506 35.0631 34.7679 34.6919L41.1718 34.1907H49.8219C50.453 34.1907 51.0098 34.6177 51.1955 35.2116C51.3625 35.8242 51.1212 36.4739 50.5829 36.808L39.3156 43.806C37.5708 45.3281 33.0602 45.7364 30.8512 45.7364H30.7956ZM11.7321 40.075L28.6609 42.6737C28.9765 42.7479 29.5333 42.8779 30.7956 42.8779C33.7655 42.8779 36.8468 42.2096 37.4037 41.6527C37.478 41.5785 37.5708 41.5042 37.6636 41.4486L44.81 37.0122H41.2647L35.0649 37.4948C34.805 37.5319 34.4709 37.5505 34.1368 37.5505C30.2201 37.5505 27.0274 34.3578 27.0274 30.4411C27.0274 28.8448 27.5286 27.3227 28.4567 26.0419L32.8931 19.9349C33.3571 19.2296 33.2643 18.2272 32.6147 17.5961C31.8907 16.8907 30.6471 16.8907 29.9417 17.5961L22.3312 25.2066C22.0713 25.4665 21.7001 25.615 21.3288 25.615C18.4145 25.615 15.7787 27.2113 14.4237 29.7915L11.7136 40.0378L11.7321 40.075Z" fill="#36796F"/>
<path d="M1.42929 45.5715C0.649678 45.5715 0 44.9404 0 44.1423V24.225C0 23.8352 0.16706 23.4454 0.464056 23.1855C0.761052 22.9256 1.11373 22.7771 1.54067 22.8142C3.15558 22.9442 11.3044 23.6867 13.7917 26.0441C14.1073 26.3411 14.2744 26.768 14.2372 27.1949C13.5876 34.5827 11.4158 41.4322 11.3415 41.7292C11.2302 42.0633 11.0074 42.3603 10.6919 42.5273C10.4691 42.6387 5.34592 45.553 1.44785 45.553L1.42929 45.5715ZM2.85858 25.8028V42.583C4.99324 42.1747 7.46202 41.0238 8.77994 40.337C9.28112 38.685 10.7475 33.3762 11.323 27.7518C9.70805 26.8608 5.93992 26.1554 2.85858 25.8028Z" fill="#36796F"/>
<path d="M74.9169 31.2959H35.565C34.7854 31.2959 34.1357 30.6648 34.1357 29.8666C34.1357 29.0685 34.7668 28.4374 35.565 28.4374H73.5062V2.84002H22.757V15.648C22.757 16.4276 22.1259 17.0773 21.3277 17.0773C20.5481 17.0773 19.8984 16.4461 19.8984 15.648V1.42929C19.8984 0.649678 20.5296 0 21.3277 0H74.9169C75.6965 0 76.3462 0.631116 76.3462 1.42929V29.8666C76.3462 30.6463 75.7151 31.2959 74.9169 31.2959Z" fill="#36796F"/>
<path d="M51.3057 7.25781V23.4626H50.7674C50.1362 23.4626 49.6165 22.9429 49.6165 22.3118V7.25781H51.3057Z" fill="#FF8D40"/>
<path d="M46.5718 9.16992H54.5906V10.8591H45.4209V10.3208C45.4209 9.68966 45.9406 9.16992 46.5718 9.16992Z" fill="#FF8D40"/>
<path d="M54.6092 20.0625H45.3281V21.7517H54.6092V20.0625Z" fill="#FF8D40"/>
<path d="M45.4209 14.5176H53.347C53.9781 14.5176 54.4978 15.0373 54.4978 15.6684V16.2067H45.4209V14.5176Z" fill="#FF8D40"/>
<path d="M47.1104 9.1875V16.2226H45.4212V10.3384C45.4212 9.70724 45.9409 9.1875 46.572 9.1875H47.1104Z" fill="#FF8D40"/>
<path d="M54.6084 15.7388V21.623H52.9192V14.5879H53.4575C54.0887 14.5879 54.6084 15.1076 54.6084 15.7388Z" fill="#FF8D40"/>
</svg>
