<svg width="67" height="47" viewBox="0 0 67 47" fill="none" xmlns="http://www.w3.org/2000/svg">
<path d="M34.6448 29.2754L65.5635 29.2754V23.4248L34.6448 23.4248V29.2754Z" fill="#FF8D40"/>
<path d="M31.4598 0C33.7084 0 38.3306 0.416413 40.1212 1.97796L51.635 9.11944C52.1971 9.45257 52.447 10.1188 52.2596 10.7434C52.093 11.3681 51.51 11.8053 50.8646 11.8053H42.0366L35.499 11.2848C32.8339 10.8892 30.5228 12.9921 30.5228 15.5947C30.5228 16.594 30.8351 17.5726 31.4389 18.3846L36.0195 24.6724C37.2895 26.5879 37.0397 29.1489 35.4157 30.7937C33.5835 32.6259 30.3979 32.6259 28.5657 30.7937L21.1952 23.4232C17.3017 23.215 13.8455 20.9456 12.0966 17.4269C12.0549 17.3436 12.0133 17.2395 11.9925 17.1562L8.7861 4.95531C8.682 4.55972 8.74446 4.12248 8.97349 3.78935C9.20252 3.45622 9.55647 3.20638 9.97288 3.14391L28.6698 0.291489C29.3361 0.104103 30.273 0 31.4806 0H31.4598ZM14.7616 16.2609C16.1358 18.9051 18.8216 20.5291 21.8198 20.5291C22.2154 20.5291 22.5694 20.6749 22.84 20.9456L30.6269 28.7325C31.3557 29.4612 32.6257 29.4612 33.3544 28.7325C33.9999 28.087 34.104 27.046 33.6251 26.3381L29.0862 20.1127C28.1285 18.801 27.6288 17.2395 27.6288 15.6155C27.6288 11.6179 30.8768 8.34907 34.8952 8.34907C35.2283 8.34907 35.5823 8.36989 35.8529 8.41153L42.1824 8.91123H45.8052L38.4971 4.37233C38.4139 4.30987 38.3098 4.24741 38.2265 4.16413C37.6643 3.60197 34.5204 2.91489 31.4806 2.91489C30.1897 2.91489 29.6276 3.03981 29.3152 3.12309L11.9925 5.78814L14.7616 16.2609Z" fill="#36796F"/>
<path d="M1.45744 0.1875C5.43418 0.1875 10.681 3.16485 10.91 3.28977C11.2223 3.47716 11.4722 3.76865 11.5763 4.10178C11.6596 4.39327 13.8874 11.4098 14.5536 18.9469C14.5953 19.3841 14.4287 19.8214 14.0956 20.1337C11.5554 22.5489 3.2272 23.2984 1.58237 23.4233C1.14513 23.465 0.770363 23.3192 0.478874 23.0486C0.166565 22.7779 0 22.3823 0 21.9867V1.62412C0 0.832939 0.64544 0.1875 1.45744 0.1875ZM2.91489 20.3835C6.0588 20.0296 9.91062 19.3008 11.5763 18.3847C10.9725 12.6382 9.47339 7.22487 8.97369 5.51758C7.64117 4.80968 5.10105 3.64372 2.91489 3.22731V20.3835Z" fill="#36796F"/>
<path d="M65.5434 14.7598C66.3554 14.7598 67.0008 15.4052 67.0008 16.2172V45.2828C67.0008 46.0948 66.3554 46.7403 65.5434 46.7403H21.7992C20.9872 46.7403 20.3418 46.0948 20.3418 45.2828V28.3765C20.3418 27.5645 20.9872 26.919 21.7992 26.919C22.6112 26.919 23.2567 27.5645 23.2567 28.3765V43.8254H64.1068V17.6747H34.3333C33.5213 17.6747 32.8758 17.0292 32.8758 16.2172C32.8758 15.4052 33.5213 14.7598 34.3333 14.7598H65.5642H65.5434Z" fill="#36796F"/>
</svg>
